<svg xmlns="http://www.w3.org/2000/svg" xmlns:xlink="http://www.w3.org/1999/xlink" width="103" height="103" viewBox="0 0 103 103">
  <defs>
    <filter id="Trazado_982547" x="0" y="0" width="103" height="103" filterUnits="userSpaceOnUse">
      <feOffset dy="3" input="SourceAlpha"/>
      <feGaussianBlur stdDeviation="3" result="blur"/>
      <feFlood flood-opacity="0.161"/>
      <feComposite operator="in" in2="blur"/>
      <feComposite in="SourceGraphic"/>
    </filter>
  </defs>
  <g id="Grupo_1210970" data-name="Grupo 1210970" transform="translate(-821 -1000.007)">
    <g id="Grupo_1210960" data-name="Grupo 1210960" transform="translate(630 -191.605)">
      <g id="Grupo_1210290" data-name="Grupo 1210290" transform="translate(0 -2868)">
        <g id="Grupo_1207485" data-name="Grupo 1207485" transform="translate(0 396.112)">
          <g id="Grupo_1207313" data-name="Grupo 1207313" transform="translate(0 2919.5)">
            <g id="Grupo_1202212" data-name="Grupo 1202212" transform="translate(-80 -126.414)">
              <g id="Grupo_1174813" data-name="Grupo 1174813" transform="translate(280 876.414)">
                <g id="Grupo_1201680" data-name="Grupo 1201680">
                  <g id="Grupo_1201330" data-name="Grupo 1201330">
                    <g id="Grupo_1172010" data-name="Grupo 1172010">
                      <g id="Grupo_1171046" data-name="Grupo 1171046">
                        <g id="Grupo_1148525" data-name="Grupo 1148525">
                          <g transform="matrix(1, 0, 0, 1, -9, -6)" filter="url(#Trazado_982547)">
                            <g id="Trazado_982547-2" data-name="Trazado 982547" transform="translate(9 6)" fill="#fdfbec">
                              <path d="M 42.5 83.5 C 36.96437835693359 83.5 31.59512901306152 82.41617584228516 26.54141235351562 80.27863311767578 C 21.65934181213379 78.21369171142578 17.27447128295898 75.25723266601562 13.50862312316895 71.49137878417969 C 9.742764472961426 67.72553253173828 6.786305904388428 63.34066009521484 4.721364498138428 58.45858764648438 C 2.583823442459106 53.40486907958984 1.5 48.03562164306641 1.5 42.5 C 1.5 36.96437835693359 2.583823442459106 31.59512901306152 4.721364498138428 26.54141235351562 C 6.786305904388428 21.65934181213379 9.742764472961426 17.27448272705078 13.50862312316895 13.50862312316895 C 17.27447128295898 9.742776870727539 21.65934181213379 6.786305904388428 26.54141235351562 4.721364498138428 C 31.59512901306152 2.583823442459106 36.96437835693359 1.5 42.5 1.5 C 48.03562164306641 1.5 53.40486907958984 2.583823442459106 58.45858764648438 4.721364498138428 C 63.34066009521484 6.786305904388428 67.72553253173828 9.742776870727539 71.49137878417969 13.50862312316895 C 75.25723266601562 17.27448272705078 78.21369171142578 21.65934181213379 80.27863311767578 26.54141235351562 C 82.41617584228516 31.59512901306152 83.5 36.96437835693359 83.5 42.5 C 83.5 48.03562164306641 82.41617584228516 53.40486907958984 80.27863311767578 58.45858764648438 C 78.21369171142578 63.34066009521484 75.25723266601562 67.72553253173828 71.49137878417969 71.49137878417969 C 67.72553253173828 75.25723266601562 63.34066009521484 78.21369171142578 58.45858764648438 80.27863311767578 C 53.40486907958984 82.41617584228516 48.03562164306641 83.5 42.5 83.5 Z" stroke="none"/>
                              <path d="M 42.5 3 C 37.16621398925781 3 31.99356079101562 4.043960571289062 27.125732421875 6.102882385253906 C 22.42246627807617 8.092185974121094 18.19785308837891 10.94070434570312 14.56928253173828 14.56928253173828 C 10.94070434570312 18.19785308837891 8.092185974121094 22.42246627807617 6.102882385253906 27.125732421875 C 4.043960571289062 31.99356079101562 3 37.16621398925781 3 42.5 C 3 47.83378601074219 4.043960571289062 53.00643920898438 6.102882385253906 57.874267578125 C 8.092185974121094 62.57753372192383 10.94070434570312 66.80214691162109 14.56928253173828 70.43071746826172 C 18.19785308837891 74.05929565429688 22.42246627807617 76.90781402587891 27.125732421875 78.89711761474609 C 31.99356079101562 80.95603942871094 37.16621398925781 82 42.5 82 C 47.83378601074219 82 53.00643920898438 80.95603942871094 57.874267578125 78.89711761474609 C 62.57753372192383 76.90781402587891 66.80214691162109 74.05929565429688 70.43071746826172 70.43071746826172 C 74.05929565429688 66.80214691162109 76.90781402587891 62.57753372192383 78.89711761474609 57.874267578125 C 80.95603942871094 53.00643920898438 82 47.83378601074219 82 42.5 C 82 37.16621398925781 80.95603942871094 31.99356079101562 78.89711761474609 27.125732421875 C 76.90781402587891 22.42246627807617 74.05929565429688 18.19785308837891 70.43071746826172 14.56928253173828 C 66.80214691162109 10.94070434570312 62.57753372192383 8.092185974121094 57.874267578125 6.102882385253906 C 53.00643920898438 4.043960571289062 47.83378601074219 3 42.5 3 M 42.5 0 C 65.97210693359375 0 85 19.02789306640625 85 42.5 C 85 65.97210693359375 65.97210693359375 85 42.5 85 C 19.02789306640625 85 0 65.97210693359375 0 42.5 C 0 19.02789306640625 19.02789306640625 0 42.5 0 Z" stroke="none" fill="#83793c"/>
                            </g>
                          </g>
                        </g>
                      </g>
                    </g>
                  </g>
                </g>
              </g>
            </g>
          </g>
        </g>
      </g>
    </g>
    <g id="notes_17676734_1_" data-name="notes_17676734 (1)" transform="translate(842.159 1018.349)">
      <g id="Grupo_1210961" data-name="Grupo 1210961" transform="translate(6.853 9.669)">
        <path id="Trazado_1054584" data-name="Trazado 1054584" d="M49.5,14.167l7.354,33.958a3.83,3.83,0,0,1-2.933,4.554L19.964,60.033A3.83,3.83,0,0,1,15.41,57.1L8.055,23.143a3.83,3.83,0,0,1,2.933-4.554l33.958-7.354A3.83,3.83,0,0,1,49.5,14.167Z" transform="translate(-7.129 -10.31)" fill="#53c496"/>
        <path id="Trazado_1054585" data-name="Trazado 1054585" d="M30.166,58.06l-10.2,2.218a3.825,3.825,0,0,1-4.56-2.936l-1.421-6.528L8.053,23.39a3.845,3.845,0,0,1,2.936-4.56l15.8-3.42a37.9,37.9,0,0,0-4.857,18.975,38.8,38.8,0,0,0,3.529,16.429,29.393,29.393,0,0,0,4.7,7.246Z" transform="translate(-7.129 -10.555)" opacity="0.15"/>
        <path id="Trazado_1054586" data-name="Trazado 1054586" d="M19.1,60.907a4.676,4.676,0,0,1-4.563-3.68L7.185,23.269a4.669,4.669,0,0,1,3.575-5.55l33.958-7.355a4.679,4.679,0,0,1,5.549,3.574L57.62,47.9a4.664,4.664,0,0,1-3.574,5.549L20.09,60.8a4.646,4.646,0,0,1-.988.106Zm26.6-48.972a3.014,3.014,0,0,0-.635.068L11.115,19.357a2.992,2.992,0,0,0-2.292,3.557l7.355,33.96a2.992,2.992,0,0,0,3.558,2.291l33.957-7.355a2.993,2.993,0,0,0,2.291-3.559L48.63,14.294a3,3,0,0,0-2.924-2.359Z" transform="translate(-7.078 -10.259)" fill="#101016"/>
      </g>
      <g id="Grupo_1210965" data-name="Grupo 1210965" transform="translate(3.179 6.688)">
        <g id="Grupo_1210963" data-name="Grupo 1210963">
          <path id="Trazado_1054587" data-name="Trazado 1054587" d="M46.472,11.816v22.05a3.83,3.83,0,0,1-1.122,2.708l-12.7,12.7a3.83,3.83,0,0,1-2.708,1.122H7.9a3.83,3.83,0,0,1-3.83-3.83V11.816A3.83,3.83,0,0,1,7.9,7.986H42.642a3.83,3.83,0,0,1,3.83,3.83Z" transform="translate(-3.23 -7.148)" fill="#ffdc6e"/>
          <path id="Trazado_1054588" data-name="Trazado 1054588" d="M32.253,7.986a26.628,26.628,0,0,0-5.685,7,37.9,37.9,0,0,0-4.857,18.975,38.8,38.8,0,0,0,3.529,16.429H7.891A3.832,3.832,0,0,1,4.064,46.56V11.812A3.832,3.832,0,0,1,7.891,7.986Z" transform="translate(-3.23 -7.148)" opacity="0.15"/>
          <g id="Grupo_1210962" data-name="Grupo 1210962">
            <path id="Trazado_1054589" data-name="Trazado 1054589" d="M29.9,51.177H7.846A4.672,4.672,0,0,1,3.179,46.51V11.764A4.673,4.673,0,0,1,7.846,7.1H42.591a4.672,4.672,0,0,1,4.667,4.668V33.815a4.7,4.7,0,0,1-1.366,3.3L33.2,49.811a4.638,4.638,0,0,1-3.3,1.366ZM7.846,8.772a3,3,0,0,0-2.992,2.992V46.51A3,3,0,0,0,7.846,49.5H29.9a2.972,2.972,0,0,0,2.116-.875L44.707,35.931a3.012,3.012,0,0,0,.875-2.116V11.764a3,3,0,0,0-2.991-2.992H7.847Z" transform="translate(-3.179 -7.096)" fill="#101016"/>
            <path id="Trazado_1054590" data-name="Trazado 1054590" d="M39.894,21.5h-28.5a.838.838,0,0,1,0-1.676h28.5a.838.838,0,0,1,0,1.676Z" transform="translate(-3.603 -7.829)" fill="#101016"/>
            <path id="Trazado_1054591" data-name="Trazado 1054591" d="M39.894,31.269h-28.5a.838.838,0,0,1,0-1.676h28.5a.838.838,0,1,1,0,1.676Z" transform="translate(-3.603 -8.391)" fill="#101016"/>
            <path id="Trazado_1054592" data-name="Trazado 1054592" d="M23.983,41.039H11.392a.838.838,0,0,1,0-1.676h12.59a.838.838,0,1,1,0,1.676Z" transform="translate(-3.603 -8.953)" fill="#101016"/>
          </g>
        </g>
        <g id="Grupo_1210964" data-name="Grupo 1210964" transform="translate(27.466 27.466)">
          <path id="Trazado_1054593" data-name="Trazado 1054593" d="M47.795,37.129a3.624,3.624,0,0,1-.769,1.124l-12.69,12.69a3.624,3.624,0,0,1-1.124.769v-11.7A2.878,2.878,0,0,1,36.1,37.129Z" transform="translate(-32.374 -36.291)" fill="#ffedad"/>
          <path id="Trazado_1054594" data-name="Trazado 1054594" d="M33.16,52.5a.839.839,0,0,1-.838-.838v-11.7a3.727,3.727,0,0,1,3.722-3.723h11.7a.838.838,0,0,1,.769,1.17,4.49,4.49,0,0,1-.947,1.384l-12.69,12.69a4.472,4.472,0,0,1-1.387.947.854.854,0,0,1-.329.067Zm2.884-14.583A2.048,2.048,0,0,0,34,39.963V49.992L46.075,37.916Z" transform="translate(-32.322 -36.24)" fill="#101016"/>
        </g>
      </g>
      <g id="Grupo_1210968" data-name="Grupo 1210968" transform="translate(14.608 0)">
        <g id="Grupo_1210966" data-name="Grupo 1210966" transform="translate(4.447 4.469)">
          <path id="Trazado_1054595" data-name="Trazado 1054595" d="M27.316,12.011a1.479,1.479,0,0,1-2.092,0L21.346,8.133a1.479,1.479,0,0,1,2.092-2.092L27.316,9.92A1.479,1.479,0,0,1,27.316,12.011Z" transform="translate(-20.076 -4.792)" fill="#f0f0fc"/>
          <path id="Trazado_1054596" data-name="Trazado 1054596" d="M26.219,13.232a2.309,2.309,0,0,1-1.638-.677L20.7,8.676a2.32,2.32,0,0,1,0-3.277,2.372,2.372,0,0,1,3.277,0l3.878,3.878a2.316,2.316,0,0,1-1.639,3.954ZM22.341,6.4a.641.641,0,0,0-.454,1.095l3.878,3.878a.642.642,0,0,0,.907-.907L22.795,6.584a.639.639,0,0,0-.453-.187Z" transform="translate(-20.025 -4.742)" fill="#101016"/>
        </g>
        <g id="Grupo_1210967" data-name="Grupo 1210967">
          <circle id="Elipse_13540" data-name="Elipse 13540" cx="4.775" cy="4.775" r="4.775" transform="translate(0.834 0.835)" fill="#f7524b"/>
          <path id="Trazado_1054597" data-name="Trazado 1054597" d="M20.916,11.221A5.609,5.609,0,1,1,24.884,9.58,5.593,5.593,0,0,1,20.916,11.221Zm0-9.546A3.935,3.935,0,1,0,23.7,2.826a3.925,3.925,0,0,0-2.783-1.151Z" transform="translate(-15.306 0)" fill="#101016"/>
        </g>
      </g>
    </g>
  </g>
</svg>
