<svg xmlns="http://www.w3.org/2000/svg" xmlns:xlink="http://www.w3.org/1999/xlink" width="113" height="113" viewBox="0 0 113 113">
  <defs>
    <filter id="Trazado_982547" x="0" y="0" width="113" height="113" filterUnits="userSpaceOnUse">
      <feOffset dy="3" input="SourceAlpha"/>
      <feGaussianBlur stdDeviation="3" result="blur"/>
      <feFlood flood-opacity="0.161"/>
      <feComposite operator="in" in2="blur"/>
      <feComposite in="SourceGraphic"/>
    </filter>
  </defs>
  <g id="Grupo_1224453" data-name="Grupo 1224453" transform="translate(-271 -3776.792)">
    <g id="Grupo_1224220" data-name="Grupo 1224220" transform="translate(0 1822.041)">
      <g id="Grupo_1224091" data-name="Grupo 1224091" transform="translate(-84.49 -2620.317)">
        <g id="Grupo_1223183" data-name="Grupo 1223183" transform="translate(364.49 4581.069)">
          <g id="Grupo_1211217" data-name="Grupo 1211217" transform="translate(0)">
            <g id="Grupo_1210736" data-name="Grupo 1210736">
              <g id="Grupo_1210537" data-name="Grupo 1210537">
                <g id="Grupo_1164202" data-name="Grupo 1164202">
                  <g id="Grupo_1158168" data-name="Grupo 1158168">
                    <g id="Grupo_1152576" data-name="Grupo 1152576">
                      <g id="Grupo_1148633" data-name="Grupo 1148633">
                        <g id="Grupo_1148525" data-name="Grupo 1148525">
                          <g transform="matrix(1, 0, 0, 1, -9, -6)" filter="url(#Trazado_982547)">
                            <g id="Trazado_982547-2" data-name="Trazado 982547" transform="translate(9 6)" fill="#fdfbec">
                              <path d="M 47.49999618530273 93.5 C 41.28936767578125 93.5 35.26533126831055 92.28396606445312 29.59518241882324 89.88570404052734 C 24.11771583557129 87.56893157958984 19.19812965393066 84.251953125 14.97308921813965 80.02690124511719 C 10.74803638458252 75.80186462402344 7.431062698364258 70.88227844238281 5.114289283752441 65.40480804443359 C 2.716022968292236 59.73466110229492 1.499996185302734 53.71062469482422 1.499996185302734 47.49999618530273 C 1.499996185302734 41.28936767578125 2.716022968292236 35.26533126831055 5.114289283752441 29.59518241882324 C 7.431062698364258 24.11771583557129 10.74803638458252 19.19812965393066 14.97308921813965 14.97308921813965 C 19.19812965393066 10.74803638458252 24.11771583557129 7.431062698364258 29.59518241882324 5.114289283752441 C 35.26533126831055 2.716022968292236 41.28936767578125 1.499996185302734 47.49999618530273 1.499996185302734 C 53.71062469482422 1.499996185302734 59.73466110229492 2.716022968292236 65.40480804443359 5.114289283752441 C 70.88227844238281 7.431062698364258 75.80186462402344 10.74803638458252 80.02690124511719 14.97308921813965 C 84.251953125 19.19812965393066 87.56893157958984 24.11771583557129 89.88570404052734 29.59518241882324 C 92.28396606445312 35.26533126831055 93.5 41.28936767578125 93.5 47.49999618530273 C 93.5 53.71062469482422 92.28396606445312 59.73466110229492 89.88570404052734 65.40480804443359 C 87.56893157958984 70.88227844238281 84.251953125 75.80186462402344 80.02690124511719 80.02690124511719 C 75.80186462402344 84.251953125 70.88227844238281 87.56893157958984 65.40480804443359 89.88570404052734 C 59.73466110229492 92.28396606445312 53.71062469482422 93.5 47.49999618530273 93.5 Z" stroke="none"/>
                              <path d="M 47.49999618530273 2.999992370605469 C 41.4912109375 2.999992370605469 35.66376495361328 4.1761474609375 30.17950439453125 6.495796203613281 C 24.88084411621094 8.736953735351562 20.12152099609375 11.94598388671875 16.03375244140625 16.03375244140625 C 11.94598388671875 20.12152099609375 8.736953735351562 24.88084411621094 6.495796203613281 30.17950439453125 C 4.1761474609375 35.66376495361328 2.999992370605469 41.4912109375 2.999992370605469 47.49999618530273 C 2.999992370605469 53.50878143310547 4.1761474609375 59.33622741699219 6.495796203613281 64.82048797607422 C 8.736953735351562 70.11914825439453 11.94598388671875 74.87847137451172 16.03375244140625 78.96623992919922 C 20.12152099609375 83.05400848388672 24.88084411621094 86.26304626464844 30.17950439453125 88.50419616699219 C 35.66376495361328 90.82384490966797 41.4912109375 92 47.49999618530273 92 C 53.50878143310547 92 59.33622741699219 90.82384490966797 64.82048797607422 88.50419616699219 C 70.11914825439453 86.26304626464844 74.87847137451172 83.05400848388672 78.96623992919922 78.96623992919922 C 83.05400848388672 74.87847137451172 86.26304626464844 70.11914825439453 88.50419616699219 64.82048797607422 C 90.82384490966797 59.33622741699219 92 53.50878143310547 92 47.49999618530273 C 92 41.4912109375 90.82384490966797 35.66376495361328 88.50419616699219 30.17950439453125 C 86.26304626464844 24.88084411621094 83.05400848388672 20.12152099609375 78.96623992919922 16.03375244140625 C 74.87847137451172 11.94598388671875 70.11914825439453 8.736953735351562 64.82048797607422 6.495796203613281 C 59.33622741699219 4.1761474609375 53.50878143310547 2.999992370605469 47.49999618530273 2.999992370605469 M 47.49999618530273 -7.62939453125e-06 C 73.7335205078125 -7.62939453125e-06 95 21.26647186279297 95 47.49999618530273 C 95 73.7335205078125 73.7335205078125 95 47.49999618530273 95 C 21.26647186279297 95 -7.62939453125e-06 73.7335205078125 -7.62939453125e-06 47.49999618530273 C -7.62939453125e-06 21.26647186279297 21.26647186279297 -7.62939453125e-06 47.49999618530273 -7.62939453125e-06 Z" stroke="none" fill="#83793c"/>
                            </g>
                          </g>
                        </g>
                      </g>
                    </g>
                  </g>
                </g>
              </g>
            </g>
          </g>
        </g>
      </g>
    </g>
    <g id="black-lives-matter_5871619_1_" data-name="black-lives-matter_5871619 (1)" transform="translate(296.016 3798.618)">
      <g id="Grupo_1224451" data-name="Grupo 1224451" transform="translate(0.922 3.419)">
        <path id="Trazado_1055041" data-name="Trazado 1055041" d="M89,305.233h5.362v12.731H89Z" transform="translate(-78.976 -268.923)" fill="#5f66ad"/>
        <path id="Trazado_1055042" data-name="Trazado 1055042" d="M415.431,286.385l.331,5.189,6.035-.385a24.532,24.532,0,0,0,4.365-7.663,3.985,3.985,0,0,0-7.527-2.618Z" transform="translate(-365.261 -245.246)" fill="#c7856a"/>
        <path id="Trazado_1055043" data-name="Trazado 1055043" d="M194.949,349.294l-6.367-4.8a16.61,16.61,0,0,1-4.907,3.818H159.627l-2.856,4.085,2.856,4.085h4.244a25.562,25.562,0,0,0-1.04,7.384h26.623a24.919,24.919,0,0,0-1.516-8.8A24.689,24.689,0,0,0,194.949,349.294Z" transform="translate(-138.413 -303.352)" fill="#f2d48b"/>
        <path id="Trazado_1055044" data-name="Trazado 1055044" d="M89,305.233h5.362v4.882H89Z" transform="translate(-78.976 -268.923)" fill="#4c5694"/>
        <path id="Trazado_1055045" data-name="Trazado 1055045" d="M28.372,10H12.036A4.536,4.536,0,0,0,7.5,14.533V42.964A4.536,4.536,0,0,0,12.036,47.5H28.372a4.536,4.536,0,0,0,4.536-4.536V14.533A4.536,4.536,0,0,0,28.372,10Z" transform="translate(-7.5 -9.997)" fill="#e4e3f5"/>
        <path id="Trazado_1055046" data-name="Trazado 1055046" d="M194.228,68.783l-.014-.013,0-.01a7.6,7.6,0,0,0-6.557-9.014h-.012l0,0a7.6,7.6,0,0,0-10.606-3.447l-.005,0h0a7.605,7.605,0,0,0-10.609,3.445l-.016,0a7.6,7.6,0,0,0-6.551,9.016l0,.014a6.444,6.444,0,0,0,4.422,11.153l25.512,0a6.445,6.445,0,0,0,4.435-11.14Z" transform="translate(-139.305 -49.752)" fill="#5f66ad"/>
        <path id="Trazado_1055047" data-name="Trazado 1055047" d="M173.282,391.089a12.872,12.872,0,0,1,1.588-15.554H159.628l-2.856,4.085,2.856,4.085h4.244a25.56,25.56,0,0,0-1.04,7.384Z" transform="translate(-138.414 -330.579)" fill="#f5c372"/>
        <path id="Trazado_1055048" data-name="Trazado 1055048" d="M177.572,73.785a11.428,11.428,0,0,1-4.739-18.313,7.6,7.6,0,0,0-6.412,4.4l-.016,0a7.6,7.6,0,0,0-6.55,9.016l0,.014a6.444,6.444,0,0,0,4.422,11.153h13.292V73.785Z" transform="translate(-139.303 -49.879)" fill="#4c5694"/>
        <path id="Trazado_1055049" data-name="Trazado 1055049" d="M208.7,148.943c-2.129-2.465-5.686-3.572-9.706-1.525a6.232,6.232,0,0,1-5.67,0c-3.874-1.973-7.411-1.086-9.608,1.412a16.566,16.566,0,1,0,24.984.113Z" transform="translate(-158.425 -129.571)" fill="#da9d81"/>
        <path id="Trazado_1055050" data-name="Trazado 1055050" d="M91.444,375.534V383.7H83.11a4.085,4.085,0,0,1,0-8.169h8.334Z" transform="translate(-70.229 -330.578)" fill="#c7856a"/>
        <path id="Trazado_1055051" data-name="Trazado 1055051" d="M184.643,159.609a19.571,19.571,0,0,1,5.13-13.236,7.147,7.147,0,0,0-6.06,2.465,16.569,16.569,0,0,0,9.991,27.323A19.629,19.629,0,0,1,184.643,159.609Z" transform="translate(-158.425 -129.578)" fill="#c7856a"/>
        <ellipse id="Elipse_13552" data-name="Elipse 13552" cx="3.794" cy="3.022" rx="3.794" ry="3.022" transform="translate(23.653 31.461)" fill="#e4e3f5"/>
        <ellipse id="Elipse_13553" data-name="Elipse 13553" cx="3.794" cy="3.022" rx="3.794" ry="3.022" transform="translate(44.22 31.461)" fill="#e4e3f5"/>
        <ellipse id="Elipse_13554" data-name="Elipse 13554" cx="2.014" cy="2.254" rx="2.014" ry="2.254" transform="translate(35.717 29.907)" fill="#303646"/>
        <path id="Trazado_1055052" data-name="Trazado 1055052" d="M11.08,24.463A28.251,28.251,0,0,1,15.04,10h-3A4.536,4.536,0,0,0,7.5,14.533V42.964A4.536,4.536,0,0,0,12.036,47.5H22.879a28.347,28.347,0,0,1-11.8-23.036Z" transform="translate(-7.5 -9.997)" fill="#c9c9f5"/>
      </g>
      <g id="Grupo_1224452" data-name="Grupo 1224452" transform="translate(-0.001 2.497)">
        <path id="Trazado_1055053" data-name="Trazado 1055053" d="M293.352,245.668a3.186,3.186,0,1,0,2.937,3.176,3.067,3.067,0,0,0-2.937-3.176Zm0,4.508a1.358,1.358,0,1,1,1.092-1.331A1.231,1.231,0,0,1,293.352,250.176Z" transform="translate(-254.698 -215.761)"/>
        <path id="Trazado_1055054" data-name="Trazado 1055054" d="M233.733,239.3a2.614,2.614,0,0,0-2.611,2.611.922.922,0,0,0,1.845,0,.766.766,0,0,1,1.532,0,.922.922,0,0,0,1.845,0,2.614,2.614,0,0,0-2.611-2.611Z" transform="translate(-202.697 -210.178)"/>
        <path id="Trazado_1055055" data-name="Trazado 1055055" d="M357.2,241.913a.922.922,0,1,0,1.845,0,2.611,2.611,0,1,0-5.221,0,.922.922,0,1,0,1.845,0,.766.766,0,0,1,1.532,0Z" transform="translate(-310.31 -210.178)"/>
        <path id="Trazado_1055056" data-name="Trazado 1055056" d="M74.738,212.355l-1.222,6.77a.922.922,0,0,0,1.816.328l.648-3.59,1.072,3.635.01.033a1.077,1.077,0,0,0,1.023.736h.006a1.078,1.078,0,0,0,1.021-.746l.01-.032,1.035-3.631.689,3.606a.922.922,0,0,0,1.812-.346l-1.3-6.783a1.079,1.079,0,0,0-2.084-.118l-.01.032-1.195,4.191-1.239-4.2-.01-.033a1.08,1.08,0,0,0-2.085.15Z" transform="translate(-64.462 -185.768)"/>
        <path id="Trazado_1055057" data-name="Trazado 1055057" d="M94.321,126.7a.922.922,0,0,0-.922.922v6.946a.922.922,0,0,0,.767.909,6.311,6.311,0,0,0,.889.02c.373,0,.914,0,1.706-.006a.922.922,0,0,0-.01-1.845c-.46,0-1.036,0-1.507.006v-6.029A.922.922,0,0,0,94.321,126.7Z" transform="translate(-81.912 -111.424)"/>
        <path id="Trazado_1055058" data-name="Trazado 1055058" d="M88.987,41.93H86.967a.922.922,0,0,0-.922.922V49.8a.923.923,0,0,0,.922.922h0s1.856-.008,2.368-.008a2.792,2.792,0,0,0,1.787-4.939,2.517,2.517,0,0,0-2.14-3.85Zm0,1.845a.677.677,0,0,1,0,1.355l-1.1,0V43.775Zm.353,5.1-1.45,0v-1.9c.633,0,.32,0,1.45,0a.949.949,0,0,1,0,1.9Z" transform="translate(-75.463 -37.08)"/>
        <path id="Trazado_1055059" data-name="Trazado 1055059" d="M10.022,49.182a5,5,0,0,0,3.78,8.285H25.174a27.111,27.111,0,0,0-.755,6.462.922.922,0,0,0,.922.922H51.964a.922.922,0,0,0,.922-.922,26.229,26.229,0,0,0-1.311-8.381,25.5,25.5,0,0,0,6.59-5.594h0A25.364,25.364,0,0,0,62.694,42a4.9,4.9,0,0,0-6.709-6.044,17.608,17.608,0,0,0,.138-3.135,7.584,7.584,0,0,0,2.689-5.3,7.1,7.1,0,0,0-1.993-5.409,8.524,8.524,0,0,0-6.944-9.545A8.522,8.522,0,0,0,38.651,8.925a8.527,8.527,0,0,0-11.222,3.642c-.06.011-.118.024-.178.036V7.955A5.464,5.464,0,0,0,21.794,2.5H5.457A5.464,5.464,0,0,0,0,7.955v7.69a.922.922,0,1,0,1.845,0V7.955A3.617,3.617,0,0,1,5.457,4.342H21.794a3.617,3.617,0,0,1,3.613,3.613V13.2a8.537,8.537,0,0,0-4.919,8.928q-.266.283-.5.585A7.107,7.107,0,0,0,18.5,27.566a7.6,7.6,0,0,0,2.683,5.26q-.018.394-.018.791a17.4,17.4,0,0,0,1.185,6.34,3.637,3.637,0,0,1-.555.042H5.457a3.617,3.617,0,0,1-3.613-3.613V19.335a.922.922,0,1,0-1.845,0V36.386a5.464,5.464,0,0,0,5.458,5.458h4.565v7.338Zm.618,3.277A3.165,3.165,0,0,1,13.8,49.3h7.411v6.325H13.8a3.166,3.166,0,0,1-3.162-3.163ZM50,54.321a.922.922,0,0,0-.419,1.132,23.7,23.7,0,0,1,1.442,7.554H26.278a24.36,24.36,0,0,1,.985-6.2.923.923,0,0,0-.883-1.188H23.058V49.3H30.9a17.531,17.531,0,0,0,13.708.765.922.922,0,0,0,.553-1.181h0a.922.922,0,0,0-1.181-.553A15.646,15.646,0,0,1,26.9,23.288c2.1-2.39,5.279-2.838,8.5-1.2a7.194,7.194,0,0,0,6.507,0c3.245-1.652,6.456-1.163,8.589,1.306a15.647,15.647,0,0,1-3.476,23.441.922.922,0,0,0-.285,1.273h0a.922.922,0,0,0,1.273.285,17.806,17.806,0,0,0,3.2-2.6l4.907,3.7A23.632,23.632,0,0,1,50,54.321ZM59.01,37.485a3.057,3.057,0,0,1,1.943,3.909A23.491,23.491,0,0,1,57.3,48.088l-4.878-3.68A17.34,17.34,0,0,0,55.2,39.292,3.077,3.077,0,0,1,59.01,37.485ZM28.134,14.325l.016,0a.923.923,0,0,0,.727-.528A6.683,6.683,0,0,1,38.2,10.769a.932.932,0,0,0,.9,0,6.679,6.679,0,0,1,9.318,3.028.922.922,0,0,0,.73.534h.012a6.68,6.68,0,0,1,5.76,7.927.923.923,0,0,0,.278.858l.014.013a5.32,5.32,0,0,1,1.753,4.283,5.719,5.719,0,0,1-1.117,3.034,17.362,17.362,0,0,0-3.963-8.255,8.2,8.2,0,0,0-6.256-2.911,10.135,10.135,0,0,0-4.566,1.167,5.342,5.342,0,0,1-4.833,0,10.634,10.634,0,0,0-3.339-1.08,8.083,8.083,0,0,0-7.38,2.7,17.344,17.344,0,0,0-4.066,8.369,5.653,5.653,0,0,1-1.112-2.994,5.406,5.406,0,0,1,1.769-4.334.922.922,0,0,0,.272-.85l0-.013a6.686,6.686,0,0,1,5.756-7.922Zm-5,27.351a17.61,17.61,0,0,0,4.834,5.776H17.229V41.844h4.565A5.44,5.44,0,0,0,23.135,41.677Zm-7.751.167v5.609H13.8a5.02,5.02,0,0,0-1.935.387v-6Z" transform="translate(0.001 -2.497)"/>
      </g>
    </g>
  </g>
</svg>
