<svg xmlns="http://www.w3.org/2000/svg" xmlns:xlink="http://www.w3.org/1999/xlink" width="113" height="113" viewBox="0 0 113 113">
  <defs>
    <filter id="Trazado_982547" x="0" y="0" width="113" height="113" filterUnits="userSpaceOnUse">
      <feOffset dy="3" input="SourceAlpha"/>
      <feGaussianBlur stdDeviation="3" result="blur"/>
      <feFlood flood-opacity="0.161"/>
      <feComposite operator="in" in2="blur"/>
      <feComposite in="SourceGraphic"/>
    </filter>
  </defs>
  <g id="Grupo_1224516" data-name="Grupo 1224516" transform="translate(-1215.509 -3776.792)">
    <g id="Grupo_1224240" data-name="Grupo 1224240" transform="translate(0 1822.041)">
      <g id="Grupo_1224094" data-name="Grupo 1224094" transform="translate(541.51 -2620.317)">
        <g id="Grupo_1223184" data-name="Grupo 1223184" transform="translate(683 4581.069)">
          <g id="Grupo_1211216" data-name="Grupo 1211216" transform="translate(0)">
            <g id="Grupo_1210737" data-name="Grupo 1210737">
              <g id="Grupo_1210537" data-name="Grupo 1210537">
                <g id="Grupo_1164202" data-name="Grupo 1164202">
                  <g id="Grupo_1158168" data-name="Grupo 1158168">
                    <g id="Grupo_1152576" data-name="Grupo 1152576">
                      <g id="Grupo_1148633" data-name="Grupo 1148633">
                        <g id="Grupo_1148525" data-name="Grupo 1148525">
                          <g transform="matrix(1, 0, 0, 1, -9, -6)" filter="url(#Trazado_982547)">
                            <g id="Trazado_982547-2" data-name="Trazado 982547" transform="translate(9 6)" fill="#fdfbec">
                              <path d="M 47.49999618530273 93.5 C 41.28936767578125 93.5 35.26533126831055 92.28396606445312 29.59518241882324 89.88570404052734 C 24.11771583557129 87.56893157958984 19.19812965393066 84.251953125 14.97308921813965 80.02690124511719 C 10.74803638458252 75.80186462402344 7.431062698364258 70.88227844238281 5.114289283752441 65.40480804443359 C 2.716022968292236 59.73466110229492 1.499996185302734 53.71062469482422 1.499996185302734 47.49999618530273 C 1.499996185302734 41.28936767578125 2.716022968292236 35.26533126831055 5.114289283752441 29.59518241882324 C 7.431062698364258 24.11771583557129 10.74803638458252 19.19812965393066 14.97308921813965 14.97308921813965 C 19.19812965393066 10.74803638458252 24.11771583557129 7.431062698364258 29.59518241882324 5.114289283752441 C 35.26533126831055 2.716022968292236 41.28936767578125 1.499996185302734 47.49999618530273 1.499996185302734 C 53.71062469482422 1.499996185302734 59.73466110229492 2.716022968292236 65.40480804443359 5.114289283752441 C 70.88227844238281 7.431062698364258 75.80186462402344 10.74803638458252 80.02690124511719 14.97308921813965 C 84.251953125 19.19812965393066 87.56893157958984 24.11771583557129 89.88570404052734 29.59518241882324 C 92.28396606445312 35.26533126831055 93.5 41.28936767578125 93.5 47.49999618530273 C 93.5 53.71062469482422 92.28396606445312 59.73466110229492 89.88570404052734 65.40480804443359 C 87.56893157958984 70.88227844238281 84.251953125 75.80186462402344 80.02690124511719 80.02690124511719 C 75.80186462402344 84.251953125 70.88227844238281 87.56893157958984 65.40480804443359 89.88570404052734 C 59.73466110229492 92.28396606445312 53.71062469482422 93.5 47.49999618530273 93.5 Z" stroke="none"/>
                              <path d="M 47.49999618530273 2.999992370605469 C 41.4912109375 2.999992370605469 35.66376495361328 4.1761474609375 30.17950439453125 6.495796203613281 C 24.88084411621094 8.736953735351562 20.12152099609375 11.94598388671875 16.03375244140625 16.03375244140625 C 11.94598388671875 20.12152099609375 8.736953735351562 24.88084411621094 6.495796203613281 30.17950439453125 C 4.1761474609375 35.66376495361328 2.999992370605469 41.4912109375 2.999992370605469 47.49999618530273 C 2.999992370605469 53.50878143310547 4.1761474609375 59.33622741699219 6.495796203613281 64.82048797607422 C 8.736953735351562 70.11914825439453 11.94598388671875 74.87847137451172 16.03375244140625 78.96623992919922 C 20.12152099609375 83.05400848388672 24.88084411621094 86.26304626464844 30.17950439453125 88.50419616699219 C 35.66376495361328 90.82384490966797 41.4912109375 92 47.49999618530273 92 C 53.50878143310547 92 59.33622741699219 90.82384490966797 64.82048797607422 88.50419616699219 C 70.11914825439453 86.26304626464844 74.87847137451172 83.05400848388672 78.96623992919922 78.96623992919922 C 83.05400848388672 74.87847137451172 86.26304626464844 70.11914825439453 88.50419616699219 64.82048797607422 C 90.82384490966797 59.33622741699219 92 53.50878143310547 92 47.49999618530273 C 92 41.4912109375 90.82384490966797 35.66376495361328 88.50419616699219 30.17950439453125 C 86.26304626464844 24.88084411621094 83.05400848388672 20.12152099609375 78.96623992919922 16.03375244140625 C 74.87847137451172 11.94598388671875 70.11914825439453 8.736953735351562 64.82048797607422 6.495796203613281 C 59.33622741699219 4.1761474609375 53.50878143310547 2.999992370605469 47.49999618530273 2.999992370605469 M 47.49999618530273 -7.62939453125e-06 C 73.7335205078125 -7.62939453125e-06 95 21.26647186279297 95 47.49999618530273 C 95 73.7335205078125 73.7335205078125 95 47.49999618530273 95 C 21.26647186279297 95 -7.62939453125e-06 73.7335205078125 -7.62939453125e-06 47.49999618530273 C -7.62939453125e-06 21.26647186279297 21.26647186279297 -7.62939453125e-06 47.49999618530273 -7.62939453125e-06 Z" stroke="none" fill="#83793c"/>
                            </g>
                          </g>
                        </g>
                      </g>
                    </g>
                  </g>
                </g>
              </g>
            </g>
          </g>
        </g>
      </g>
    </g>
    <g id="consulting_5817343_1_" data-name="consulting_5817343 (1)" transform="translate(1240.3 3796.4)">
      <g id="Grupo_1224502" data-name="Grupo 1224502">
        <g id="Grupo_1224468" data-name="Grupo 1224468">
          <g id="Grupo_1224467" data-name="Grupo 1224467">
            <path id="Trazado_1055077" data-name="Trazado 1055077" d="M22.9,39.6V36.1a2,2,0,0,1,2-2h3.2a1.866,1.866,0,0,0,2-1.9V26.4a.987.987,0,0,1,.9-1h1.5a1.859,1.859,0,0,0,1.8-1.8,1.433,1.433,0,0,0-.4-1l-2.7-3.8a1.284,1.284,0,0,1-.4-1l-.1-1.9A13.743,13.743,0,0,0,16.8,2.3,14.384,14.384,0,0,0,2.3,16.8a10.741,10.741,0,0,0,1.2,4.9l2.2,4.7A27.168,27.168,0,0,1,8.3,38.3v1.3" fill="#d7e8ff"/>
          </g>
        </g>
        <g id="Grupo_1224470" data-name="Grupo 1224470">
          <g id="Grupo_1224469" data-name="Grupo 1224469">
            <path id="Trazado_1055078" data-name="Trazado 1055078" d="M41.1,61.7V58.2a2,2,0,0,0-2-2H35.9a1.866,1.866,0,0,1-2-1.9V48.5a.987.987,0,0,0-.9-1H31.5a1.859,1.859,0,0,1-1.8-1.8,1.433,1.433,0,0,1,.4-1l2.7-3.8a1.284,1.284,0,0,0,.4-1l.1-1.9a14.514,14.514,0,0,1,29,.9,10.741,10.741,0,0,1-1.2,4.9l-2.2,4.7a27.168,27.168,0,0,0-2.6,11.9v1.3" fill="#efeef3"/>
          </g>
        </g>
        <g id="Grupo_1224472" data-name="Grupo 1224472">
          <g id="Grupo_1224471" data-name="Grupo 1224471">
            <path id="Trazado_1055079" data-name="Trazado 1055079" d="M22.9,40.3a.789.789,0,0,1-.8-.8V36a2.862,2.862,0,0,1,2.8-2.8h3.2A1.234,1.234,0,0,0,29.4,32V26.2A1.763,1.763,0,0,1,31,24.4h1.5a1,1,0,0,0,1-1c0-.2,0-.3-.3-.6L30.6,19a2.035,2.035,0,0,1-.6-1.5l-.1-1.9C30,8.8,24,3.1,16.8,3.1A13.532,13.532,0,0,0,3.1,16.8a9.969,9.969,0,0,0,1.1,4.5l2.2,4.8A28.352,28.352,0,0,1,9,38.3v1.3a.8.8,0,0,1-1.6,0V38.3A25.672,25.672,0,0,0,4.9,26.7L2.7,22a11.669,11.669,0,0,1-1.2-5.2A15.067,15.067,0,0,1,16.7,1.6,14.715,14.715,0,0,1,31.5,15.8l.1,1.9a.588.588,0,0,0,.2.5l.1.1,2.7,3.8a2.251,2.251,0,0,1,.5,1.5,2.54,2.54,0,0,1-2.5,2.5H31.1a.438.438,0,0,0-.1.3v5.8a2.712,2.712,0,0,1-2.8,2.7H25a1.4,1.4,0,0,0-1.3,1.3v3.5c0,.3-.4.6-.8.6Z"/>
          </g>
        </g>
        <g id="Grupo_1224474" data-name="Grupo 1224474">
          <g id="Grupo_1224473" data-name="Grupo 1224473">
            <path id="Trazado_1055080" data-name="Trazado 1055080" d="M41.1,62.4a.789.789,0,0,1-.8-.8V58.1A1.4,1.4,0,0,0,39,56.8H35.8A2.653,2.653,0,0,1,33,54.1V48.3a.438.438,0,0,0-.1-.3H31.4a2.54,2.54,0,0,1-2.5-2.5,2.168,2.168,0,0,1,.5-1.4l2.7-3.9.1-.1a.764.764,0,0,0,.2-.5l.1-2a15.214,15.214,0,0,1,30.4.9,11.669,11.669,0,0,1-1.2,5.2l-2.2,4.7A25.672,25.672,0,0,0,57,60v1.3a.789.789,0,0,1-.8.8.736.736,0,0,1-.8-.8V60A28.352,28.352,0,0,1,58,47.8l2.2-4.7a10.388,10.388,0,0,0,1.1-4.6,13.712,13.712,0,0,0-27.4-.8l-.1,1.9a2.2,2.2,0,0,1-.6,1.5l-2.7,3.8a.845.845,0,0,0-.2.6,1.071,1.071,0,0,0,1,1h1.5a1.694,1.694,0,0,1,1.6,1.8v5.8a1.234,1.234,0,0,0,1.3,1.2H39a2.862,2.862,0,0,1,2.8,2.8v3.5a.713.713,0,0,1-.7.8Z"/>
          </g>
        </g>
        <g id="Grupo_1224487" data-name="Grupo 1224487">
          <g id="Grupo_1224486" data-name="Grupo 1224486">
            <g id="Grupo_1224485" data-name="Grupo 1224485">
              <g id="Grupo_1224475" data-name="Grupo 1224475">
                <circle id="Elipse_13555" data-name="Elipse 13555" cx="10.8" cy="10.8" r="10.8" transform="translate(36.7 27.5)" fill="#fff"/>
              </g>
              <g id="Grupo_1224479" data-name="Grupo 1224479">
                <g id="Grupo_1224476" data-name="Grupo 1224476">
                  <path id="Trazado_1055081" data-name="Trazado 1055081" d="M44.3,31.2c-.3.7-1.3.8-1.7,1.4-.3.6.1,1.3.6,1.9.5.5,1,1.2.8,1.8a1.126,1.126,0,0,1-1.2.8,5.782,5.782,0,0,0-1.4.5,3.907,3.907,0,0,0-1,1.9,3.389,3.389,0,0,1-3.3,1.7,9.246,9.246,0,0,1-.4-2.9,10.855,10.855,0,0,1,5.6-9.5,1.538,1.538,0,0,1,.6.4,4.363,4.363,0,0,1,1,.8,1.148,1.148,0,0,1,.4,1.2Z" fill="#2aabf5"/>
                </g>
                <g id="Grupo_1224477" data-name="Grupo 1224477">
                  <path id="Trazado_1055082" data-name="Trazado 1055082" d="M58.2,37.4c-.8.6-1.4,1.3-2.2,1.9-.4.3-.6.6-1.2.6a2.663,2.663,0,0,1-1.2-.3,2.438,2.438,0,0,0-1.2,0c-.4.4-.3,1.2-.6,1.5a1.284,1.284,0,0,1-1,.4,1.6,1.6,0,0,1-1-.5,3.364,3.364,0,0,1-1.3-2,2.362,2.362,0,0,1,.4-2.3,4.744,4.744,0,0,1,1.7-1.4A12.638,12.638,0,0,1,53.2,34c.8-.3,1.7-.3,2.3-.5a2.425,2.425,0,0,0,1-.6,7.85,7.85,0,0,1,1.7,4.5Z" fill="#34cba0"/>
                </g>
                <g id="Grupo_1224478" data-name="Grupo 1224478">
                  <path id="Trazado_1055083" data-name="Trazado 1055083" d="M50,48.8a10.145,10.145,0,0,1-2.5.2,14.321,14.321,0,0,1-3.7-.6c-.1-.5-.3-1,0-1.4a4.173,4.173,0,0,1,.8-.6,2.2,2.2,0,0,0,.4-1.3,1.957,1.957,0,0,1,.6-1.2c.6-.3,1.3.3,1.5.9a7.714,7.714,0,0,0,.8,1.9,9.428,9.428,0,0,0,1,1A1.981,1.981,0,0,1,50,48.8Z" fill="#34cba0"/>
                </g>
              </g>
              <g id="Grupo_1224480" data-name="Grupo 1224480">
                <path id="Trazado_1055084" data-name="Trazado 1055084" d="M47.5,49.8A11.5,11.5,0,1,1,59,38.3,11.566,11.566,0,0,1,47.5,49.8Zm0-21.5a10,10,0,1,0,10,10A10.029,10.029,0,0,0,47.5,28.3Z"/>
              </g>
              <g id="Grupo_1224484" data-name="Grupo 1224484">
                <g id="Grupo_1224481" data-name="Grupo 1224481">
                  <path id="Trazado_1055085" data-name="Trazado 1055085" d="M37.7,41.9h-.4a.752.752,0,0,1,.1-1.5,2.215,2.215,0,0,0,2.3-1.2,1.007,1.007,0,0,0,.1-.3,3.177,3.177,0,0,1,1.1-1.8,5.094,5.094,0,0,1,1.7-.7c.2-.1.6,0,.6-.2v-.1c0-.1,0-.4-.6-1-.4-.6-1.3-1.6-.8-2.7a.1.1,0,0,1,.1-.1,2.326,2.326,0,0,1,1.1-.9c.2-.1.5-.3.5-.4a1.087,1.087,0,0,0-.1-.5,5.547,5.547,0,0,0-.8-.6c-.1,0-.2-.1-.3-.2-.1,0-.1-.1-.2-.1a.738.738,0,0,1,.7-1.3c.2.1.3.2.4.2s.1.1.2.1a.1.1,0,0,1,.1.1,4.811,4.811,0,0,1,1.1.9l.1.1a2.235,2.235,0,0,1,.3,1.9,2.129,2.129,0,0,1-1.2,1.1,1,1,0,0,0-.5.4,1.929,1.929,0,0,0,.5,1.1,2.561,2.561,0,0,1,.9,2.5A1.993,1.993,0,0,1,42.9,38a3.582,3.582,0,0,0-1.1.4c-.3.2-.4.6-.6,1.1-.1.2-.1.3-.2.5a3.825,3.825,0,0,1-3.3,1.9Z"/>
                </g>
                <g id="Grupo_1224482" data-name="Grupo 1224482">
                  <path id="Trazado_1055086" data-name="Trazado 1055086" d="M58.2,37.4c-.8.6-1.4,1.3-2.2,1.8-.4.3-.6.6-1.2.6a2.663,2.663,0,0,1-1.2-.3,2.438,2.438,0,0,0-1.2,0c-.4.4-.3,1.2-.6,1.5a1.284,1.284,0,0,1-1,.4,1.6,1.6,0,0,1-1-.5,3.364,3.364,0,0,1-1.3-2,2.362,2.362,0,0,1,.4-2.3,4.744,4.744,0,0,1,1.7-1.4,12.638,12.638,0,0,1,2.6-1.3c.8-.3,1.7-.3,2.3-.5a2.344,2.344,0,0,0,1-.5" fill="#2aabf5"/>
                  <path id="Trazado_1055087" data-name="Trazado 1055087" d="M50.9,42.2a2.981,2.981,0,0,1-1.6-.7,4.452,4.452,0,0,1-1.5-2.4,3.307,3.307,0,0,1,.5-2.9,4.807,4.807,0,0,1,1.9-1.6,11.679,11.679,0,0,1,2.7-1.4l1.2-.3c.4-.1.7-.1,1-.2a6.891,6.891,0,0,0,.8-.3A.778.778,0,0,1,57,33.5a4.15,4.15,0,0,1-1.3.7c-.4.1-.8.2-1.3.3-.4.1-.7.1-1,.2A8.906,8.906,0,0,0,51,35.9a4.213,4.213,0,0,0-1.4,1.2.1.1,0,0,1-.1.1,2.223,2.223,0,0,0-.3,1.6v.1a2.565,2.565,0,0,0,1,1.6,1.546,1.546,0,0,0,.6.3.764.764,0,0,0,.5-.2c0-.1.1-.3.1-.4a2.22,2.22,0,0,1,.5-1.1c.1-.1.2-.1.3-.2a2.208,2.208,0,0,1,1.6,0,3.711,3.711,0,0,0,.9.2c.1,0,.2-.1.4-.2a1.38,1.38,0,0,1,.4-.3,13.444,13.444,0,0,0,1.4-1.1c.2-.2.5-.4.7-.6a.781.781,0,0,1,1,1.2c-.2.2-.5.4-.7.6a15.757,15.757,0,0,1-1.5,1.2c-.1.1-.2.1-.2.2a2.261,2.261,0,0,1-1.3.6,5.768,5.768,0,0,1-1.4-.3.6.6,0,0,0-.4-.1.367.367,0,0,1-.1.3,2.22,2.22,0,0,1-.5,1.1,2.767,2.767,0,0,1-1.6.5Z"/>
                </g>
                <g id="Grupo_1224483" data-name="Grupo 1224483">
                  <path id="Trazado_1055088" data-name="Trazado 1055088" d="M43.8,48.4c-.1-.5-.3-1,.1-1.4a4.173,4.173,0,0,1,.8-.6,2.2,2.2,0,0,0,.4-1.3,1.957,1.957,0,0,1,.6-1.2c.6-.3,1.3.3,1.5.9a7.714,7.714,0,0,0,.8,1.9,9.428,9.428,0,0,0,1,1,5.3,5.3,0,0,1,1,1.2" fill="#2aabf5"/>
                  <path id="Trazado_1055089" data-name="Trazado 1055089" d="M50,49.6a.713.713,0,0,1-.6-.3,8.12,8.12,0,0,0-.9-1,1.38,1.38,0,0,0-.4-.3,6.034,6.034,0,0,1-.8-.8,4.714,4.714,0,0,1-.6-1.5c-.1-.2-.1-.4-.2-.6a.738.738,0,0,0-.6-.5,3.932,3.932,0,0,1-.2.6,3.022,3.022,0,0,1-.5,1.6l-.1.1a1.756,1.756,0,0,1-.5.4c-.1.1-.2.1-.3.3-.1.1,0,.3.1.7l-1.4.3.7-.2-.7.2c-.1-.6-.4-1.4.3-2.1a1.756,1.756,0,0,1,.5-.4c.1-.1.2-.1.2-.2a1.345,1.345,0,0,0,.2-.8v-.2c.2-.6.4-1.4,1.1-1.7a2.026,2.026,0,0,1,2.5,1.3,1.854,1.854,0,0,1,.2.7,3.7,3.7,0,0,0,.5,1.1l.5.5.4.4a6.885,6.885,0,0,1,1.1,1.3.775.775,0,0,1-.2,1c0,.1-.1.1-.3.1Z"/>
                </g>
              </g>
            </g>
          </g>
        </g>
        <g id="Grupo_1224501" data-name="Grupo 1224501">
          <g id="Grupo_1224500" data-name="Grupo 1224500">
            <g id="Grupo_1224488" data-name="Grupo 1224488">
              <path id="Trazado_1055090" data-name="Trazado 1055090" d="M19.8,32.1v4.5l-3-2V30Z" fill="#ffc408"/>
            </g>
            <g id="Grupo_1224489" data-name="Grupo 1224489">
              <path id="Trazado_1055091" data-name="Trazado 1055091" d="M16.8,34.6V30l-3.1,2.1v4.5Z" fill="#ffc408"/>
            </g>
            <g id="Grupo_1224493" data-name="Grupo 1224493">
              <g id="Grupo_1224490" data-name="Grupo 1224490">
                <path id="Trazado_1055092" data-name="Trazado 1055092" d="M5.9,16.4A10.9,10.9,0,1,1,16.8,27.3,10.926,10.926,0,0,1,5.9,16.4Z" fill="#f3877e"/>
              </g>
              <g id="Grupo_1224491" data-name="Grupo 1224491">
                <path id="Trazado_1055093" data-name="Trazado 1055093" d="M9.3,16.4a7.4,7.4,0,1,1,7.4,7.4,7.514,7.514,0,0,1-7.4-7.4Z" fill="#fff"/>
              </g>
              <g id="Grupo_1224492" data-name="Grupo 1224492">
                <circle id="Elipse_13556" data-name="Elipse 13556" cx="3.8" cy="3.8" r="3.8" transform="translate(13 12.6)" fill="#f3877e"/>
              </g>
            </g>
            <g id="Grupo_1224494" data-name="Grupo 1224494">
              <path id="Trazado_1055094" data-name="Trazado 1055094" d="M16.8,28A11.6,11.6,0,1,1,28.4,16.4,11.608,11.608,0,0,1,16.8,28Zm0-21.7A10.1,10.1,0,1,0,26.9,16.4,10.072,10.072,0,0,0,16.8,6.3Z"/>
            </g>
            <g id="Grupo_1224495" data-name="Grupo 1224495">
              <path id="Trazado_1055095" data-name="Trazado 1055095" d="M16.8,24.6A8.2,8.2,0,1,1,25,16.4a8.237,8.237,0,0,1-8.2,8.2Zm0-14.9a6.7,6.7,0,1,0,6.7,6.7,6.832,6.832,0,0,0-6.7-6.7Z"/>
            </g>
            <g id="Grupo_1224496" data-name="Grupo 1224496">
              <path id="Trazado_1055096" data-name="Trazado 1055096" d="M16.8,21a4.6,4.6,0,1,1,4.6-4.6A4.653,4.653,0,0,1,16.8,21Zm0-7.7a3.1,3.1,0,1,0,3.1,3.1,3.116,3.116,0,0,0-3.1-3.1Z"/>
            </g>
            <g id="Grupo_1224497" data-name="Grupo 1224497">
              <path id="Trazado_1055097" data-name="Trazado 1055097" d="M16.8,37.4a.789.789,0,0,1-.8-.8V16.4a.789.789,0,0,1,.8-.8.736.736,0,0,1,.8.8V36.6C17.5,37,17.2,37.4,16.8,37.4Z"/>
            </g>
            <g id="Grupo_1224498" data-name="Grupo 1224498">
              <path id="Trazado_1055098" data-name="Trazado 1055098" d="M19.8,37.4a.6.6,0,0,1-.4-.1l-3.1-2a1.329,1.329,0,0,1-.3-.7V30a1.012,1.012,0,0,1,.4-.7.8.8,0,0,1,.8.1l3.1,2.2a.713.713,0,0,1,.3.6v4.5a1.012,1.012,0,0,1-.4.7C20.1,37.3,20,37.4,19.8,37.4Zm-2.3-3.2,1.6,1V32.5l-1.6-1.1Z"/>
            </g>
            <g id="Grupo_1224499" data-name="Grupo 1224499">
              <path id="Trazado_1055099" data-name="Trazado 1055099" d="M13.7,37.4a.756.756,0,0,1-.4-.1.842.842,0,0,1-.4-.7V32.1a.713.713,0,0,1,.3-.6l3.1-2.2a.755.755,0,0,1,.8-.1.842.842,0,0,1,.4.7v4.6a.6.6,0,0,1-.3.6l-3.1,2a.536.536,0,0,1-.4.3Zm.7-4.9v2.7l1.6-1V31.4Z"/>
            </g>
          </g>
        </g>
      </g>
      <g id="Grupo_1224509" data-name="Grupo 1224509">
        <g id="Grupo_1224508" data-name="Grupo 1224508">
          <g id="Grupo_1224503" data-name="Grupo 1224503">
            <path id="Trazado_1055100" data-name="Trazado 1055100" d="M59.9,5.6V16.5A1.417,1.417,0,0,1,58.4,18h-17a1.417,1.417,0,0,1-1.5-1.5V13.3l-4.5-2.2L39.8,9V5.6a1.417,1.417,0,0,1,1.5-1.5h17A1.446,1.446,0,0,1,59.9,5.6Z" fill="#ffc408"/>
          </g>
          <g id="Grupo_1224504" data-name="Grupo 1224504">
            <path id="Trazado_1055101" data-name="Trazado 1055101" d="M58.4,18.8h-17a2.263,2.263,0,0,1-2.3-2.3V13.8l-4.1-2a.67.67,0,0,1-.4-.7,1.012,1.012,0,0,1,.4-.7l4.1-2V5.6a2.263,2.263,0,0,1,2.3-2.3h17a2.263,2.263,0,0,1,2.3,2.3V16.5A2.263,2.263,0,0,1,58.4,18.8ZM37,11.1l3.1,1.5a.67.67,0,0,1,.4.7v3.2a.736.736,0,0,0,.8.8h17a.736.736,0,0,0,.8-.8V5.6a.736.736,0,0,0-.8-.8h-17a.736.736,0,0,0-.8.8V9a1.012,1.012,0,0,1-.4.7Z"/>
          </g>
          <g id="Grupo_1224505" data-name="Grupo 1224505">
            <path id="Trazado_1055102" data-name="Trazado 1055102" d="M50.8,15.3H43.4a.789.789,0,0,1-.8-.8.736.736,0,0,1,.8-.8h7.4a.8.8,0,0,1,0,1.6Z"/>
          </g>
          <g id="Grupo_1224506" data-name="Grupo 1224506">
            <path id="Trazado_1055103" data-name="Trazado 1055103" d="M56.3,11.8H43.4a.789.789,0,0,1-.8-.8.736.736,0,0,1,.8-.8H56.3a.8.8,0,0,1,0,1.6Z"/>
          </g>
          <g id="Grupo_1224507" data-name="Grupo 1224507">
            <path id="Trazado_1055104" data-name="Trazado 1055104" d="M56.3,8.3H43.4a.789.789,0,0,1-.8-.8.736.736,0,0,1,.8-.8H56.3a.8.8,0,0,1,0,1.6Z"/>
          </g>
        </g>
      </g>
      <g id="Grupo_1224515" data-name="Grupo 1224515">
        <g id="Grupo_1224514" data-name="Grupo 1224514">
          <g id="Grupo_1224510" data-name="Grupo 1224510">
            <path id="Trazado_1055105" data-name="Trazado 1055105" d="M7.2,49.5H4.1V61.8H7.2a1.473,1.473,0,0,0,1.5-1.5V51.1A1.631,1.631,0,0,0,7.2,49.5Z" fill="#34cba0"/>
          </g>
          <g id="Grupo_1224511" data-name="Grupo 1224511">
            <path id="Trazado_1055106" data-name="Trazado 1055106" d="M22.5,56.3H21.2a1.4,1.4,0,0,1,0,2.8h-.6a1.4,1.4,0,0,1,0,2.8H14a3.2,3.2,0,0,1-1.9-.5l-.8-.4a10,10,0,0,0-2.6-.5V50.9h.6a4.471,4.471,0,0,0,3.1-1.2,5.221,5.221,0,0,0,2-4v-.9A1.562,1.562,0,0,1,15.9,43a1.6,1.6,0,0,1,1.4.8c.6,1.2,1.3,3.5-1.2,7h5.1a1.4,1.4,0,0,1,0,2.8h1.3A1.367,1.367,0,0,1,23.9,55a1.347,1.347,0,0,1-1.4,1.3Z" fill="#fff"/>
          </g>
          <g id="Grupo_1224512" data-name="Grupo 1224512">
            <path id="Trazado_1055107" data-name="Trazado 1055107" d="M20.6,62.7H14a4.615,4.615,0,0,1-2.3-.6l-.7-.4a15.693,15.693,0,0,0-1.6-.3c-.3,0-.6-.1-.8-.1a.76.76,0,0,1-.6-.8V50.9a.789.789,0,0,1,.8-.8h.6a3.7,3.7,0,0,0,2.6-1,4.81,4.81,0,0,0,1.8-3.4v-.9a2.107,2.107,0,0,1,.6-1.8,2.289,2.289,0,0,1,1.7-.8,2.467,2.467,0,0,1,2.1,1.2c.7,1.3,1.2,3.5-.5,6.6h3.8a2.22,2.22,0,0,1,2.2,2.2c0,.3-.1.5-.1.8A2.175,2.175,0,0,1,25,55v.2a2.6,2.6,0,0,1-1.5,1.6,1.949,1.949,0,0,1,.1.8,2.43,2.43,0,0,1-.9,1.8,2.016,2.016,0,0,1,.3,1.1,2.557,2.557,0,0,1-2.4,2.2ZM9.5,59.9h.1a4.442,4.442,0,0,1,2,.5l.8.4a.1.1,0,0,1,.1.1,2.982,2.982,0,0,0,1.5.4h6.7a.7.7,0,1,0,0-1.4.789.789,0,0,1-.8-.8.736.736,0,0,1,.8-.8h.6a.7.7,0,1,0,0-1.4.789.789,0,0,1-.8-.8.736.736,0,0,1,.8-.8h1.3a.953.953,0,0,0,.8-.5c-.1-.3-.3-.6-.6-.6H21.5a.789.789,0,0,1-.8-.8c0-.5.3-.4.7-.4a.7.7,0,0,0,0-1.4H16.3a1.012,1.012,0,0,1-.7-.4,1.1,1.1,0,0,1,0-.8c1.7-2.4,2-4.6,1.1-6.3a1.039,1.039,0,0,0-.8-.4.864.864,0,0,0-.6.3.956.956,0,0,0-.2.7v1a6.039,6.039,0,0,1-2.3,4.5,5.078,5.078,0,0,1-3.5,1.3v8.4Z"/>
          </g>
          <g id="Grupo_1224513" data-name="Grupo 1224513">
            <path id="Trazado_1055108" data-name="Trazado 1055108" d="M7.2,62.6H4.1a.789.789,0,0,1-.8-.8.736.736,0,0,1,.8-.8H7.2a.789.789,0,0,0,.8-.8V51a.789.789,0,0,0-.8-.8H4.1a.789.789,0,0,1-.8-.8.736.736,0,0,1,.8-.8H7.2a2.326,2.326,0,0,1,2.3,2.3v9.2a2.441,2.441,0,0,1-2.3,2.5Z"/>
          </g>
        </g>
      </g>
    </g>
  </g>
</svg>
