<svg xmlns="http://www.w3.org/2000/svg" xmlns:xlink="http://www.w3.org/1999/xlink" width="108" height="108" viewBox="0 0 108 108">
  <defs>
    <filter id="Trazado_904820" x="0" y="0" width="108" height="108" filterUnits="userSpaceOnUse">
      <feOffset dy="3" input="SourceAlpha"/>
      <feGaussianBlur stdDeviation="3" result="blur"/>
      <feFlood flood-opacity="0.161"/>
      <feComposite operator="in" in2="blur"/>
      <feComposite in="SourceGraphic"/>
    </filter>
  </defs>
  <g id="Grupo_1224241" data-name="Grupo 1224241" transform="translate(-166 -1650)">
    <g id="Grupo_1208498" data-name="Grupo 1208498" transform="translate(175 1656)">
      <g id="Grupo_1207936" data-name="Grupo 1207936" transform="translate(0 0)">
        <g id="Grupo_1201662" data-name="Grupo 1201662">
          <g id="Grupo_1173585" data-name="Grupo 1173585">
            <g id="Grupo_1173428" data-name="Grupo 1173428">
              <g id="Grupo_1171958" data-name="Grupo 1171958">
                <g id="Grupo_1167341" data-name="Grupo 1167341">
                  <g id="Grupo_1166792" data-name="Grupo 1166792">
                    <g transform="matrix(1, 0, 0, 1, -9, -6)" filter="url(#Trazado_904820)">
                      <g id="Trazado_904820-2" data-name="Trazado 904820" transform="translate(9 6)" fill="#edf3fc">
                        <path d="M 44.99999618530273 88.49999237060547 C 39.12687301635742 88.49999237060547 33.43022155761719 87.35006713867188 28.06829643249512 85.08216857910156 C 22.88852119445801 82.89130401611328 18.23629570007324 79.75457763671875 14.24084663391113 75.75914001464844 C 10.24540901184082 71.76369476318359 7.108683586120605 67.11146545410156 4.917821407318115 61.93169403076172 C 2.649921178817749 56.56976699829102 1.499996185302734 50.87311553955078 1.499996185302734 44.99999237060547 C 1.499996185302734 39.12686920166016 2.649921178817749 33.43021774291992 4.917821407318115 28.06829261779785 C 7.108683586120605 22.88851737976074 10.24540901184082 18.23630523681641 14.24084663391113 14.24085521697998 C 18.23629570007324 10.24540519714355 22.88852119445801 7.108692169189453 28.06829643249512 4.917829990386963 C 33.43022155761719 2.649929761886597 39.12687301635742 1.500004887580872 44.99999618530273 1.500004887580872 C 50.87311935424805 1.500004887580872 56.56977081298828 2.649929761886597 61.93169784545898 4.917829990386963 C 67.11147308349609 7.108692169189453 71.76369476318359 10.24540519714355 75.75914764404297 14.24085521697998 C 79.75458526611328 18.23630523681641 82.89131164550781 22.88851737976074 85.08216857910156 28.06829261779785 C 87.35007476806641 33.43021774291992 88.5 39.12686920166016 88.5 44.99999237060547 C 88.5 50.87311553955078 87.35007476806641 56.56976699829102 85.08216857910156 61.93169403076172 C 82.89131164550781 67.11146545410156 79.75458526611328 71.76369476318359 75.75914764404297 75.75914001464844 C 71.76369476318359 79.75457763671875 67.11147308349609 82.89130401611328 61.93169784545898 85.08216857910156 C 56.56977081298828 87.35006713867188 50.87311935424805 88.49999237060547 44.99999618530273 88.49999237060547 Z" stroke="none"/>
                        <path d="M 44.99999618530273 2.999992370605469 C 39.32870864868164 2.999992370605469 33.82865142822266 4.11004638671875 28.65262603759766 6.299331665039062 C 23.65165710449219 8.414566040039062 19.15968322753906 11.44333648681641 15.301513671875 15.30150604248047 C 11.44333648681641 19.15967559814453 8.414566040039062 23.65164947509766 6.299339294433594 28.65262222290039 C 4.110054016113281 33.82864761352539 2.999992370605469 39.32870483398438 2.999992370605469 44.99999237060547 C 2.999992370605469 50.67127990722656 4.110054016113281 56.17132186889648 6.299339294433594 61.34736633300781 C 8.414566040039062 66.34833526611328 11.44333648681641 70.84029388427734 15.301513671875 74.69846343994141 C 19.15968322753906 78.55663299560547 23.65165710449219 81.58540344238281 28.65262603759766 83.70063781738281 C 33.82865142822266 85.88992309570312 39.32870864868164 86.99997711181641 44.99999618530273 86.99997711181641 C 50.67128372192383 86.99997711181641 56.17134094238281 85.88992309570312 61.34736633300781 83.70063781738281 C 66.34834289550781 81.58540344238281 70.84030914306641 78.55663299560547 74.69847869873047 74.69846343994141 C 78.55665588378906 70.84029388427734 81.58542633056641 66.34833526611328 83.70065307617188 61.34736633300781 C 85.88993835449219 56.17132186889648 87 50.67127990722656 87 44.99999237060547 C 87 39.32870483398438 85.88993835449219 33.82864761352539 83.70065307617188 28.65262222290039 C 81.58542633056641 23.65164947509766 78.55665588378906 19.15967559814453 74.69847869873047 15.30150604248047 C 70.84030914306641 11.44333648681641 66.34834289550781 8.414566040039062 61.34736633300781 6.299331665039062 C 56.17134094238281 4.11004638671875 50.67128372192383 2.999992370605469 44.99999618530273 2.999992370605469 M 44.99999618530273 -7.62939453125e-06 C 69.85281372070312 -7.62939453125e-06 90 20.14717864990234 90 44.99999237060547 C 90 69.85279083251953 69.85281372070312 89.99997711181641 44.99999618530273 89.99997711181641 C 20.14717864990234 89.99997711181641 -7.62939453125e-06 69.85279083251953 -7.62939453125e-06 44.99999237060547 C -7.62939453125e-06 20.14717864990234 20.14717864990234 -7.62939453125e-06 44.99999618530273 -7.62939453125e-06 Z" stroke="none" fill="#2f4f7e"/>
                      </g>
                    </g>
                  </g>
                </g>
              </g>
            </g>
          </g>
        </g>
      </g>
    </g>
    <g id="inspire-idea_14781822_1_" data-name="inspire-idea_14781822 (1)" transform="translate(184.326 1665.547)">
      <g id="Grupo_1173811" data-name="Grupo 1173811" transform="translate(7.75 7.5)">
        <path id="Trazado_1030754" data-name="Trazado 1030754" d="M118.589,346.681v-4.09a2.487,2.487,0,0,0,2.021-2.443v-7.033h12.846v7.033a2.488,2.488,0,0,0,2.021,2.443l.35,3.523Z" transform="translate(-106.121 -296.488)" fill="#ca6e59"/>
        <path id="Trazado_1030755" data-name="Trazado 1030755" d="M62.674,18.571c0,8.093-4.355,17.707-15.443,14.527L37.979,28.89a3.653,3.653,0,0,1-.241-5.4l.934-.258.646-.642a3.86,3.86,0,0,1,.774-6.622.341.341,0,0,0,.2-.4,3.665,3.665,0,0,1-.1-.863,3.567,3.567,0,0,1,3.527-3.6,3.531,3.531,0,0,1,.686.069,1.674,1.674,0,0,1,.267-.27,1.425,1.425,0,0,0,.592-1.243,3.976,3.976,0,0,1,5.57-.393.335.335,0,0,0,.5-.081,3.49,3.49,0,0,1,5.973,0,.336.336,0,0,0,.5.08,3.962,3.962,0,0,1,.793-.526C62.674,9.973,62.674,15.651,62.674,18.571Z" transform="translate(-33.408 -7.5)" fill="#73788c"/>
        <path id="Trazado_1030756" data-name="Trazado 1030756" d="M155.39,32.47a3.626,3.626,0,0,1-1.319,2.81l-10.581,5.75H134.03l-3.39-1.542a16.621,16.621,0,0,0,11.372-24.36A3.937,3.937,0,0,1,143.8,14.7a3.992,3.992,0,0,1,2.986,1.349l.186.908.673.605a3.528,3.528,0,0,1,.685-.069,3.567,3.567,0,0,1,3.529,3.6,3.684,3.684,0,0,1-.186,1.153,3.856,3.856,0,0,1,1.056,6.728A3.592,3.592,0,0,1,155.39,32.47Z" transform="translate(-116.817 -13.89)" fill="#5e6577"/>
        <path id="Trazado_1030757" data-name="Trazado 1030757" d="M70.735,200.979A6.158,6.158,0,0,0,75.427,195h0a2.449,2.449,0,0,0-2.449-2.449H70.735l-24.669,0H43.824A2.449,2.449,0,0,0,41.375,195h0a6.158,6.158,0,0,0,4.691,5.981Z" transform="translate(-37.593 -171.734)" fill="#ca6e59"/>
        <path id="Trazado_1030758" data-name="Trazado 1030758" d="M101.64,130.972a2.437,2.437,0,0,1,3.182,1.048,9.782,9.782,0,0,0,.816,1.24l.532.708c.225.657.726,3.725,1.421,3.725v9.343a7.794,7.794,0,0,1-2.662,5.867l-4.84,4.236a5.2,5.2,0,0,1-3.421,1.285H93.8a5.2,5.2,0,0,1-3.421-1.285l-4.84-4.236a7.794,7.794,0,0,1-2.662-5.867v-9.343a1.654,1.654,0,0,0,1.537-1.13l1.066-4.159A2.436,2.436,0,0,1,88.834,131l.156.074,1.254.48a13.883,13.883,0,0,0,9.934,0l1.254-.48Z" transform="translate(-74.425 -116.877)" fill="#d78878"/>
        <path id="Trazado_1030759" data-name="Trazado 1030759" d="M170.911,300.436c-2.669,0-2.787-2.463-2.743-3.357a.337.337,0,0,1,.337-.319h4.8a.337.337,0,0,1,.337.327C173.668,297.988,173.492,300.436,170.911,300.436Z" transform="translate(-150.118 -264.223)" fill="#eaf6ff"/>
        <path id="Trazado_1030760" data-name="Trazado 1030760" d="M15.148,440.458l-7.06-.016a.337.337,0,0,1-.337-.337v-6.269a.338.338,0,0,1,.181-.3,10.909,10.909,0,0,1,2.941-1.012l.813-.163,7.175,2.661Z" transform="translate(-7.75 -384.57)" fill="#9be69d"/>
        <path id="Trazado_1030761" data-name="Trazado 1030761" d="M299.3,435.572l-2.724,4.444-9.4.007-3.4-5.957c.037-.038,6.877-2.186,6.877-2.186l.465.089a10.911,10.911,0,0,1,3.074,1.082Z" transform="translate(-252.724 -384.144)" fill="#9be69d"/>
        <path id="Trazado_1030762" data-name="Trazado 1030762" d="M123.847,418.39l1.027,5.161-3.714,4.5-11.276.013-4.277-4.715,1.6-4.929A11.55,11.55,0,0,0,123.847,418.39Z" transform="translate(-94.6 -372.171)" fill="#eaf6ff"/>
        <path id="Trazado_1030763" data-name="Trazado 1030763" d="M50.286,410.073l-3.071-11.044a1.236,1.236,0,0,0-1.55-.851l-6.828,2.081a.535.535,0,0,0-.334.73l1.44,3.261a.338.338,0,0,0,.233.193l3.509.805a.337.337,0,0,1,.2.522l-1.9,2.729a.337.337,0,0,0-.041.307l.459,1.268Z" transform="translate(-35.002 -354.185)" fill="#bbf49b"/>
        <path id="Trazado_1030764" data-name="Trazado 1030764" d="M243.879,409.857l3.075-11.057a1.236,1.236,0,0,1,1.55-.851l6.828,2.08a.536.536,0,0,1,.334.73l-1.44,3.262a.337.337,0,0,1-.233.193l-3.509.8a.337.337,0,0,0-.2.522l1.9,2.73a.337.337,0,0,1,.041.307l-.46,1.284Z" transform="translate(-217.318 -353.982)" fill="#bbf49b"/>
        <g id="Grupo_1173808" data-name="Grupo 1173808" transform="translate(41.64 30.514)">
          <path id="Trazado_1030765" data-name="Trazado 1030765" d="M391.3,387.922v4.326a13.178,13.178,0,0,1-.3,2.622,9.206,9.206,0,0,1-1.066,1.917c-.682,1.147-.383,2.329-.379,3.663l-.864.553h-8.525v-1.852a4.652,4.652,0,0,0-1.224-3.144,3.851,3.851,0,0,1-1.011-2.6v-1.864a2.281,2.281,0,0,1,.974-1.869Z" transform="translate(-377.933 -375.644)" fill="#d78878"/>
          <g id="Grupo_1173807" data-name="Grupo 1173807" transform="translate(10.404 7.263)">
            <path id="Trazado_1030766" data-name="Trazado 1030766" d="M473.387,344.076v4.289a.9.9,0,0,1-.361.805c-.27.27-1.219-.143-1.63-.139l-.733-.784-.237-2.788.778-.6a1.508,1.508,0,0,1,1.469-1.506C473.168,343.534,473.387,343.789,473.387,344.076Z" transform="translate(-470.425 -343.35)" fill="#d78878"/>
            <path id="Trazado_1030767" data-name="Trazado 1030767" d="M481.881,344.847v3.389a1.51,1.51,0,0,1-2.73.886l-.1-.1a1.509,1.509,0,0,0,1.5-1.509v-3.386a1.5,1.5,0,0,0-.219-.784h.041A1.509,1.509,0,0,1,481.881,344.847Z" transform="translate(-478.084 -343.34)" fill="#ca6e59"/>
          </g>
          <path id="Trazado_1030768" data-name="Trazado 1030768" d="M477,386.87v4.512a7.355,7.355,0,0,1-1.035,3.763,7.359,7.359,0,0,0-1.034,3.791l0,.795a.337.337,0,0,1-.337.339h-1.038l0-1.134a7.372,7.372,0,0,1,1.035-3.791,7.355,7.355,0,0,0,1.035-3.762v-4.317Z" transform="translate(-462.798 -374.711)" fill="#ca6e59"/>
          <path id="Trazado_1030769" data-name="Trazado 1030769" d="M391.644,281.479v12.184c0,.875-1.432,1.591-2.307,1.591l.744-1.987-1.028-.978V281.479a1.592,1.592,0,0,1,.938-1.449A1.471,1.471,0,0,1,391.644,281.479Z" transform="translate(-387.801 -279.888)" fill="#d78878"/>
          <path id="Trazado_1030770" data-name="Trazado 1030770" d="M417.941,332.3v4c0,.645-1.047,1.2-1.6,1.451a1.594,1.594,0,0,1-.941-1.451l-.388-.086v-3.774l.388-.137a1.594,1.594,0,0,1,.941-1.45C417.675,331.021,417.941,331.656,417.941,332.3Z" transform="translate(-410.84 -324.992)" fill="#d78878"/>
          <path id="Trazado_1030771" data-name="Trazado 1030771" d="M447.552,332.3v4.24c0,.643-1.164,1.2-1.717,1.45a1.593,1.593,0,0,1-.941-1.45l-.379-.242v-3.826l.379-.172a1.594,1.594,0,0,1,.941-1.45C447.343,331.055,447.552,331.656,447.552,332.3Z" transform="translate(-437.025 -324.992)" fill="#d78878"/>
          <path id="Trazado_1030772" data-name="Trazado 1030772" d="M399.764,280.361V291.9a.719.719,0,0,1-1.433,0V280.361a1.6,1.6,0,0,0-.937-1.449,1.567,1.567,0,0,1,.652-.142h.127A1.6,1.6,0,0,1,399.764,280.361Z" transform="translate(-395.205 -278.77)" fill="#ca6e59"/>
          <path id="Trazado_1030773" data-name="Trazado 1030773" d="M429.2,331.191v4a1.6,1.6,0,0,1-1.591,1.592h-.128a1.554,1.554,0,0,1-.649-.141,1.594,1.594,0,0,0,.941-1.451v-4a1.594,1.594,0,0,0-.941-1.45,1.555,1.555,0,0,1,.649-.141h.128A1.6,1.6,0,0,1,429.2,331.191Z" transform="translate(-421.333 -323.883)" fill="#ca6e59"/>
          <path id="Trazado_1030774" data-name="Trazado 1030774" d="M458.622,331.191v4.24a1.6,1.6,0,0,1-1.592,1.59H456.9a1.549,1.549,0,0,1-.649-.141,1.593,1.593,0,0,0,.94-1.45v-4.24a1.594,1.594,0,0,0-.94-1.45,1.551,1.551,0,0,1,.649-.141h.127A1.6,1.6,0,0,1,458.622,331.191Z" transform="translate(-447.444 -323.883)" fill="#ca6e59"/>
          <path id="Trazado_1030775" data-name="Trazado 1030775" d="M400.219,367.23a3.423,3.423,0,0,1-.073.7c-.3,1.415-2.4,1.59-3.892,1.745a4.759,4.759,0,0,0-2.819-.384c-.892.276-1.452,1.708-1.465,1.7l-2.92-1.527v-1.438L391.869,366a3.159,3.159,0,0,1,1.805-.588l4.681-.044A1.866,1.866,0,0,1,400.219,367.23Z" transform="translate(-387.799 -355.625)" fill="#ca6e59"/>
          <path id="Trazado_1030776" data-name="Trazado 1030776" d="M390.883,381.4l1.332-1.792a.338.338,0,0,1,.23-.134l2.878-.349a2.284,2.284,0,0,0,1.574-2.191.768.768,0,0,0-.773-.752H391.89a2.859,2.859,0,0,0-1.64.516l-3.655,2.558Z" transform="translate(-385.621 -365.222)" fill="#d78878"/>
        </g>
        <g id="Grupo_1173810" data-name="Grupo 1173810" transform="translate(30.907 1.59)">
          <path id="Trazado_1030777" data-name="Trazado 1030777" d="M305.079,30.647a13.1,13.1,0,0,1-13.011,13.305c-2.373,0-7.584-1.742-8.262-3.633l.128-.517a.334.334,0,0,0-.029-.235A12.282,12.282,0,0,1,302.923,24.7,11.659,11.659,0,0,1,305.079,30.647Z" transform="translate(-282.516 -21.635)" fill="#eaf6ff"/>
          <path id="Trazado_1030778" data-name="Trazado 1030778" d="M308.018,60.679a12.3,12.3,0,0,1-18.436,7.855.335.335,0,0,0-.238-.044l-5.065.965a.338.338,0,0,1-.391-.413l1.126-4.556A13.246,13.246,0,0,0,304.13,48.865,12.253,12.253,0,0,1,308.018,60.679Z" transform="translate(-283.724 -45.802)" fill="#d8ecfe"/>
          <g id="Grupo_1173809" data-name="Grupo 1173809" transform="translate(5.944 3.06)">
            <path id="Trazado_1030779" data-name="Trazado 1030779" d="M346.586,55.818c0,3.291-3.457,6.475-6.815,6.475-.51,0-1.06.346-1.95-.968a7.156,7.156,0,0,0-.88-1.548,6.1,6.1,0,0,1,3.44-10.095C345,49.682,346.586,52.891,346.586,55.818Z" transform="translate(-335.361 -49.587)" fill="#ffe177"/>
            <path id="Trazado_1030780" data-name="Trazado 1030780" d="M365.488,54.934A6.075,6.075,0,0,1,363.937,59a7.36,7.36,0,0,0-1.476,4.389v.381l-6.138.02v-.337a10.3,10.3,0,0,0-.755-3.354,6.174,6.174,0,0,0,1.477.178c3.359,0,6.268-2.187,6.268-5.478a5.994,5.994,0,0,0-5-5.863,6.1,6.1,0,0,1,7.173,6Z" transform="translate(-353.295 -48.837)" fill="#ffd15b"/>
            <path id="Trazado_1030781" data-name="Trazado 1030781" d="M367.089,179.51l.954,1.863c0,1.011-.606,1.863-2.784,1.863h-.478a1.83,1.83,0,0,1-1.83-1.83v-1.9h4.138Z" transform="translate(-359.848 -164.811)" fill="#5e6577"/>
            <path id="Trazado_1030782" data-name="Trazado 1030782" d="M387.151,179.511v1.9a1.83,1.83,0,0,1-1.83,1.83h-1.847a1.83,1.83,0,0,0,1.83-1.83v-1.9Z" transform="translate(-378.062 -164.812)" fill="#4d5263"/>
            <path id="Trazado_1030783" data-name="Trazado 1030783" d="M354.812,160.663c0,.405.246.864,0,1.13a7.371,7.371,0,0,1-2.447.581h-4.5a1.416,1.416,0,0,1-1.359-1.467,1.529,1.529,0,0,1,.4-1.038,1.31,1.31,0,0,1,.961-.43h4.5C353.116,159.439,354.812,159.852,354.812,160.663Z" transform="translate(-345.251 -146.998)" fill="#73788c"/>
            <path id="Trazado_1030784" data-name="Trazado 1030784" d="M402.436,160.907a1.527,1.527,0,0,1-.4,1.038,1.31,1.31,0,0,1-.961.43h-2.466a1.308,1.308,0,0,0,.961-.43,1.527,1.527,0,0,0,.4-1.038,1.416,1.416,0,0,0-1.359-1.468h2.466A1.416,1.416,0,0,1,402.436,160.907Z" transform="translate(-391.496 -146.998)" fill="#5e6577"/>
          </g>
        </g>
      </g>
      <g id="Grupo_1173820" data-name="Grupo 1173820" transform="translate(7.75 7.5)">
        <g id="Grupo_1173812" data-name="Grupo 1173812" transform="translate(3.782 20.818)">
          <path id="Trazado_1030785" data-name="Trazado 1030785" d="M46.011,200.993a6.158,6.158,0,0,1-4.635-5.967h0a2.449,2.449,0,0,1,2.449-2.449h2.243" transform="translate(-41.376 -192.577)" fill="none" stroke="#000" stroke-linecap="round" stroke-linejoin="round" stroke-miterlimit="10" stroke-width="1"/>
          <path id="Trazado_1030786" data-name="Trazado 1030786" d="M307.344,232.041a6.169,6.169,0,0,1-4.287,3.969" transform="translate(-273.622 -227.602)" fill="none" stroke="#000" stroke-linecap="round" stroke-linejoin="round" stroke-miterlimit="10" stroke-width="1"/>
        </g>
        <path id="Trazado_1030787" data-name="Trazado 1030787" d="M209.872,132.332a13.882,13.882,0,0,0,3.018-.782l1.254-.48.208-.1a2.436,2.436,0,0,1,3.342,1.415" transform="translate(-187.137 -116.877)" fill="none" stroke="#000" stroke-linecap="round" stroke-linejoin="round" stroke-miterlimit="10" stroke-width="1"/>
        <path id="Trazado_1030788" data-name="Trazado 1030788" d="M107.59,142.363v4.8a7.794,7.794,0,0,1-2.662,5.867l-4.84,4.236a5.2,5.2,0,0,1-3.421,1.285H93.8a5.2,5.2,0,0,1-3.421-1.285l-4.84-4.236a7.794,7.794,0,0,1-2.662-5.867v-9.343a1.654,1.654,0,0,0,1.537-1.13l1.066-4.159a2.436,2.436,0,0,1,3.356-1.408l.156.074,1.254.48a13.874,13.874,0,0,0,3,.779" transform="translate(-74.425 -117.008)" fill="none" stroke="#000" stroke-linecap="round" stroke-linejoin="round" stroke-miterlimit="10" stroke-width="1"/>
        <g id="Grupo_1173814" data-name="Grupo 1173814" transform="translate(13.669 19.749)">
          <g id="Grupo_1173813" data-name="Grupo 1173813">
            <path id="Trazado_1030789" data-name="Trazado 1030789" d="M184.454,262.089a2.608,2.608,0,0,1-2.365,0" transform="translate(-176.147 -253.201)" fill="none" stroke="#000" stroke-linecap="round" stroke-linejoin="round" stroke-miterlimit="10" stroke-width="1"/>
            <path id="Trazado_1030790" data-name="Trazado 1030790" d="M133.591,183.627a4.5,4.5,0,0,0-4.325,0" transform="translate(-129.266 -183.073)" fill="none" stroke="#000" stroke-linecap="round" stroke-linejoin="round" stroke-miterlimit="10" stroke-width="1"/>
            <path id="Trazado_1030791" data-name="Trazado 1030791" d="M221.811,183.627a4.5,4.5,0,0,0-4.325,0" transform="translate(-207.563 -183.073)" fill="none" stroke="#000" stroke-linecap="round" stroke-linejoin="round" stroke-miterlimit="10" stroke-width="1"/>
            <line id="Línea_813" data-name="Línea 813" y1="1.916" transform="translate(12.086 3.248)" fill="none" stroke="#000" stroke-linecap="round" stroke-linejoin="round" stroke-miterlimit="10" stroke-width="1"/>
            <line id="Línea_814" data-name="Línea 814" y1="1.916" transform="translate(2.163 3.248)" fill="none" stroke="#000" stroke-linecap="round" stroke-linejoin="round" stroke-miterlimit="10" stroke-width="1"/>
          </g>
          <path id="Trazado_1030792" data-name="Trazado 1030792" d="M170.911,300.436c-3.26,0-2.715-3.676-2.715-3.676h5.429S174.074,300.436,170.911,300.436Z" transform="translate(-163.787 -283.972)" fill="none" stroke="#000" stroke-linecap="round" stroke-linejoin="round" stroke-miterlimit="10" stroke-width="1"/>
        </g>
        <path id="Trazado_1030793" data-name="Trazado 1030793" d="M67.609,12.365a3.478,3.478,0,0,0-3.368-1.193A4.049,4.049,0,0,0,60.4,8.31,3.984,3.984,0,0,0,57.51,9.553a3.5,3.5,0,0,0-6.371,0A3.984,3.984,0,0,0,48.251,8.31a4.048,4.048,0,0,0-3.844,2.862,3.476,3.476,0,0,0-.686-.069,3.566,3.566,0,0,0-3.528,3.6,3.667,3.667,0,0,0,.185,1.153,3.857,3.857,0,0,0-1.056,6.728,3.635,3.635,0,0,0-1.339,6.3" transform="translate(-33.412 -7.5)" fill="none" stroke="#000" stroke-linecap="round" stroke-linejoin="round" stroke-miterlimit="10" stroke-width="1"/>
        <path id="Trazado_1030794" data-name="Trazado 1030794" d="M61.919,142.286a3.531,3.531,0,0,1-1.592-.645" transform="translate(-54.413 -126.552)" fill="none" stroke="#000" stroke-linecap="round" stroke-linejoin="round" stroke-miterlimit="10" stroke-width="1"/>
        <path id="Trazado_1030795" data-name="Trazado 1030795" d="M105.6,40.2a3.348,3.348,0,0,1,2.122,1.41" transform="translate(-94.593 -36.521)" fill="none" stroke="#000" stroke-linecap="round" stroke-linejoin="round" stroke-miterlimit="10" stroke-width="1"/>
        <path id="Trazado_1030796" data-name="Trazado 1030796" d="M268.25,40.183a3.353,3.353,0,0,0-1.7,1.3" transform="translate(-237.436 -36.507)" fill="none" stroke="#000" stroke-linecap="round" stroke-linejoin="round" stroke-miterlimit="10" stroke-width="1"/>
        <path id="Trazado_1030797" data-name="Trazado 1030797" d="M304.439,34.426q-.056.356-.134.713a12.663,12.663,0,0,1-19.094,8.016l-5.878,1.12,1.451-5.876A12.63,12.63,0,0,1,289.822,20" transform="translate(-248.75 -18.596)" fill="none" stroke="#000" stroke-linecap="round" stroke-linejoin="round" stroke-miterlimit="10" stroke-width="1"/>
        <path id="Trazado_1030798" data-name="Trazado 1030798" d="M407.545,19.544q.454.065.909.163a12.645,12.645,0,0,1,9.812,10.376" transform="translate(-362.575 -18.189)" fill="none" stroke="#000" stroke-linecap="round" stroke-linejoin="round" stroke-miterlimit="10" stroke-width="1"/>
        <g id="Grupo_1173815" data-name="Grupo 1173815" transform="translate(36.85 4.653)">
          <path id="Trazado_1030799" data-name="Trazado 1030799" d="M338,61.094a7.191,7.191,0,0,0-1.073-2.064A6.09,6.09,0,1,1,345.985,59a7.511,7.511,0,0,0-1.091,2.071" transform="translate(-335.355 -48.863)" fill="none" stroke="#000" stroke-linecap="round" stroke-linejoin="round" stroke-miterlimit="10" stroke-width="1"/>
          <line id="Línea_815" data-name="Línea 815" y1="4.477" transform="translate(6.09 7.729)" fill="none" stroke="#000" stroke-linecap="round" stroke-linejoin="round" stroke-miterlimit="10" stroke-width="1"/>
          <path id="Trazado_1030800" data-name="Trazado 1030800" d="M368.9,186.134v.693a2.25,2.25,0,0,1-2.25,2.25h-1.48a2.25,2.25,0,0,1-2.25-2.25v-.693" transform="translate(-359.818 -170.693)" fill="none" stroke="#000" stroke-linecap="round" stroke-linejoin="round" stroke-miterlimit="10" stroke-width="1"/>
          <path id="Trazado_1030801" data-name="Trazado 1030801" d="M356.467,160.765h-6.061a1.54,1.54,0,0,1-1.54-1.54v-.091a1.54,1.54,0,0,1,1.54-1.54h6.061a1.54,1.54,0,0,1,1.54,1.54v.091A1.54,1.54,0,0,1,356.467,160.765Z" transform="translate(-347.347 -145.364)" fill="none" stroke="#000" stroke-linecap="round" stroke-linejoin="round" stroke-miterlimit="10" stroke-width="1"/>
          <line id="Línea_816" data-name="Línea 816" x2="3.899" transform="translate(4.222 7.719)" fill="none" stroke="#000" stroke-linecap="round" stroke-linejoin="round" stroke-miterlimit="10" stroke-width="1"/>
        </g>
        <path id="Trazado_1030802" data-name="Trazado 1030802" d="M346.53,432.2l.283.054a10.9,10.9,0,0,1,3.073,1.082" transform="translate(-308.423 -384.424)" fill="none" stroke="#000" stroke-linecap="round" stroke-linejoin="round" stroke-miterlimit="10" stroke-width="1"/>
        <path id="Trazado_1030803" data-name="Trazado 1030803" d="M250.768,358.351v4.194a2.487,2.487,0,0,0,2.021,2.443" transform="translate(-223.432 -318.886)" fill="none" stroke="#000" stroke-linecap="round" stroke-linejoin="round" stroke-miterlimit="10" stroke-width="1"/>
        <path id="Trazado_1030804" data-name="Trazado 1030804" d="M118.589,417.362h0a11.552,11.552,0,0,0,16.89,0h0" transform="translate(-106.121 -371.259)" fill="none" stroke="#000" stroke-linecap="round" stroke-linejoin="round" stroke-miterlimit="10" stroke-width="1"/>
        <path id="Trazado_1030805" data-name="Trazado 1030805" d="M11.315,366.75l-.442.089a10.893,10.893,0,0,0-3.123,1.109m14.489-9.6v4.194a2.487,2.487,0,0,1-2.021,2.443l-.129.025" transform="translate(-7.75 -318.886)" fill="none" stroke="#000" stroke-linecap="round" stroke-linejoin="round" stroke-miterlimit="10" stroke-width="1"/>
        <g id="Grupo_1173816" data-name="Grupo 1173816" transform="translate(3.144 43.939)">
          <path id="Trazado_1030806" data-name="Trazado 1030806" d="M46.228,405.375l-1.765-6.347a1.236,1.236,0,0,0-1.55-.851l-6.828,2.081a.535.535,0,0,0-.334.73l1.509,3.416,4.162.955-2.29,3.282.519,1.448" transform="translate(-35.703 -398.124)" fill="none" stroke="#000" stroke-linecap="round" stroke-linejoin="round" stroke-miterlimit="10" stroke-width="1"/>
          <line id="Línea_817" data-name="Línea 817" x1="0.256" y1="0.921" transform="translate(11.579 11.045)" fill="none" stroke="#000" stroke-linecap="round" stroke-linejoin="round" stroke-miterlimit="10" stroke-width="1"/>
          <path id="Trazado_1030807" data-name="Trazado 1030807" d="M244.868,410.09l3.077-11.061a1.236,1.236,0,0,1,1.55-.851l6.828,2.08a.536.536,0,0,1,.334.73l-1.509,3.417-4.162.954,2.291,3.283-.519,1.448" transform="translate(-221.34 -398.125)" fill="none" stroke="#000" stroke-linecap="round" stroke-linejoin="round" stroke-miterlimit="10" stroke-width="1"/>
        </g>
        <g id="Grupo_1173819" data-name="Grupo 1173819" transform="translate(41.647 30.546)">
          <g id="Grupo_1173817" data-name="Grupo 1173817" transform="translate(11.182 7.263)">
            <path id="Trazado_1030808" data-name="Trazado 1030808" d="M480.431,345.134a1.507,1.507,0,0,0-1.507-1.508h0a1.509,1.509,0,0,0-1.509,1.509v3.386a1.509,1.509,0,0,0,1.509,1.509h0a1.509,1.509,0,0,0,1.509-1.509Z" transform="translate(-477.412 -343.626)" fill="none" stroke="#000" stroke-linecap="round" stroke-linejoin="round" stroke-miterlimit="10" stroke-width="1"/>
            <path id="Trazado_1030809" data-name="Trazado 1030809" d="M490.831,400.563" transform="translate(-489.322 -394.158)" fill="none" stroke="#000" stroke-linecap="round" stroke-linejoin="round" stroke-miterlimit="10" stroke-width="1"/>
          </g>
          <g id="Grupo_1173818" data-name="Grupo 1173818" transform="translate(12.132 12.201)">
            <path id="Trazado_1030810" data-name="Trazado 1030810" d="M487.926,387.53v4.511a7.327,7.327,0,0,1-1.034,3.722h0a7.363,7.363,0,0,0-1.034,3.79l0,1.134" transform="translate(-485.858 -387.53)" fill="none" stroke="#000" stroke-linecap="round" stroke-linejoin="round" stroke-miterlimit="10" stroke-width="1"/>
          </g>
          <path id="Trazado_1030811" data-name="Trazado 1030811" d="M433.859,414.75a6.171,6.171,0,0,1,1.318,5.642l-.047.18" transform="translate(-427.576 -399.487)" fill="none" stroke="#000" stroke-linecap="round" stroke-linejoin="round" stroke-miterlimit="10" stroke-width="1"/>
          <path id="Trazado_1030812" data-name="Trazado 1030812" d="M389.115,292.824V280.648a1.6,1.6,0,0,1,1.591-1.591h.128a1.6,1.6,0,0,1,1.591,1.591v9.894" transform="translate(-387.865 -279.057)" fill="none" stroke="#000" stroke-linecap="round" stroke-linejoin="round" stroke-miterlimit="10" stroke-width="1"/>
          <path id="Trazado_1030813" data-name="Trazado 1030813" d="M418.532,331.484a1.6,1.6,0,0,1,1.591-1.591h.128a1.6,1.6,0,0,1,1.591,1.591V335.1" transform="translate(-413.973 -324.175)" fill="none" stroke="#000" stroke-linecap="round" stroke-linejoin="round" stroke-miterlimit="10" stroke-width="1"/>
          <path id="Trazado_1030814" data-name="Trazado 1030814" d="M447.947,335.066v-3.582a1.6,1.6,0,0,1,1.591-1.591h.128a1.6,1.6,0,0,1,1.591,1.591V333" transform="translate(-440.079 -324.175)" fill="none" stroke="#000" stroke-linecap="round" stroke-linejoin="round" stroke-miterlimit="10" stroke-width="1"/>
          <path id="Trazado_1030815" data-name="Trazado 1030815" d="M383.261,381.685l1.418-1.908,2.842-.366a2.284,2.284,0,0,0,1.575-2.17.773.773,0,0,0-.773-.773h-4.055a2.858,2.858,0,0,0-1.64.516l-3.655,2.558a2.283,2.283,0,0,0-.974,1.87v1.863a3.846,3.846,0,0,0,1.012,2.6,4.653,4.653,0,0,1,1.224,3.145v1.851" transform="translate(-377.999 -365.511)" fill="none" stroke="#000" stroke-linecap="round" stroke-linejoin="round" stroke-miterlimit="10" stroke-width="1"/>
        </g>
      </g>
    </g>
  </g>
</svg>
