<svg xmlns="http://www.w3.org/2000/svg" xmlns:xlink="http://www.w3.org/1999/xlink" width="108" height="108" viewBox="0 0 108 108">
  <defs>
    <filter id="Trazado_904820" x="0" y="0" width="108" height="108" filterUnits="userSpaceOnUse">
      <feOffset dy="3" input="SourceAlpha"/>
      <feGaussianBlur stdDeviation="3" result="blur"/>
      <feFlood flood-opacity="0.161"/>
      <feComposite operator="in" in2="blur"/>
      <feComposite in="SourceGraphic"/>
    </filter>
  </defs>
  <g id="Grupo_1224632" data-name="Grupo 1224632" transform="translate(-618.164 -11458.145)">
    <g id="Grupo_1224243" data-name="Grupo 1224243" transform="translate(627.164 11464.145)">
      <g id="Grupo_1208347" data-name="Grupo 1208347" transform="translate(0 0)">
        <g id="Grupo_1207936" data-name="Grupo 1207936">
          <g id="Grupo_1201662" data-name="Grupo 1201662">
            <g id="Grupo_1173585" data-name="Grupo 1173585">
              <g id="Grupo_1173428" data-name="Grupo 1173428">
                <g id="Grupo_1171958" data-name="Grupo 1171958">
                  <g id="Grupo_1167341" data-name="Grupo 1167341">
                    <g id="Grupo_1166792" data-name="Grupo 1166792">
                      <g transform="matrix(1, 0, 0, 1, -9, -6)" filter="url(#Trazado_904820)">
                        <g id="Trazado_904820-2" data-name="Trazado 904820" transform="translate(9 6)" fill="#effbfe">
                          <path d="M 44.99999618530273 88.49999237060547 C 39.12687301635742 88.49999237060547 33.43022155761719 87.35006713867188 28.06829643249512 85.08216857910156 C 22.88852119445801 82.89130401611328 18.23629570007324 79.75457763671875 14.24084663391113 75.75914001464844 C 10.24540901184082 71.76369476318359 7.108683586120605 67.11146545410156 4.917821407318115 61.93169403076172 C 2.649921178817749 56.56976699829102 1.499996185302734 50.87311553955078 1.499996185302734 44.99999237060547 C 1.499996185302734 39.12686920166016 2.649921178817749 33.43021774291992 4.917821407318115 28.06829261779785 C 7.108683586120605 22.88851737976074 10.24540901184082 18.23630523681641 14.24084663391113 14.24085521697998 C 18.23629570007324 10.24540519714355 22.88852119445801 7.108692169189453 28.06829643249512 4.917829990386963 C 33.43022155761719 2.649929761886597 39.12687301635742 1.500004887580872 44.99999618530273 1.500004887580872 C 50.87311935424805 1.500004887580872 56.56977081298828 2.649929761886597 61.93169784545898 4.917829990386963 C 67.11147308349609 7.108692169189453 71.76369476318359 10.24540519714355 75.75914764404297 14.24085521697998 C 79.75458526611328 18.23630523681641 82.89131164550781 22.88851737976074 85.08216857910156 28.06829261779785 C 87.35007476806641 33.43021774291992 88.5 39.12686920166016 88.5 44.99999237060547 C 88.5 50.87311553955078 87.35007476806641 56.56976699829102 85.08216857910156 61.93169403076172 C 82.89131164550781 67.11146545410156 79.75458526611328 71.76369476318359 75.75914764404297 75.75914001464844 C 71.76369476318359 79.75457763671875 67.11147308349609 82.89130401611328 61.93169784545898 85.08216857910156 C 56.56977081298828 87.35006713867188 50.87311935424805 88.49999237060547 44.99999618530273 88.49999237060547 Z" stroke="none"/>
                          <path d="M 44.99999618530273 2.999992370605469 C 39.32870864868164 2.999992370605469 33.82865142822266 4.11004638671875 28.65262603759766 6.299331665039062 C 23.65165710449219 8.414566040039062 19.15968322753906 11.44333648681641 15.301513671875 15.30150604248047 C 11.44333648681641 19.15967559814453 8.414566040039062 23.65164947509766 6.299339294433594 28.65262222290039 C 4.110054016113281 33.82864761352539 2.999992370605469 39.32870483398438 2.999992370605469 44.99999237060547 C 2.999992370605469 50.67127990722656 4.110054016113281 56.17132186889648 6.299339294433594 61.34736633300781 C 8.414566040039062 66.34833526611328 11.44333648681641 70.84029388427734 15.301513671875 74.69846343994141 C 19.15968322753906 78.55663299560547 23.65165710449219 81.58540344238281 28.65262603759766 83.70063781738281 C 33.82865142822266 85.88992309570312 39.32870864868164 86.99997711181641 44.99999618530273 86.99997711181641 C 50.67128372192383 86.99997711181641 56.17134094238281 85.88992309570312 61.34736633300781 83.70063781738281 C 66.34834289550781 81.58540344238281 70.84030914306641 78.55663299560547 74.69847869873047 74.69846343994141 C 78.55665588378906 70.84029388427734 81.58542633056641 66.34833526611328 83.70065307617188 61.34736633300781 C 85.88993835449219 56.17132186889648 87 50.67127990722656 87 44.99999237060547 C 87 39.32870483398438 85.88993835449219 33.82864761352539 83.70065307617188 28.65262222290039 C 81.58542633056641 23.65164947509766 78.55665588378906 19.15967559814453 74.69847869873047 15.30150604248047 C 70.84030914306641 11.44333648681641 66.34834289550781 8.414566040039062 61.34736633300781 6.299331665039062 C 56.17134094238281 4.11004638671875 50.67128372192383 2.999992370605469 44.99999618530273 2.999992370605469 M 44.99999618530273 -7.62939453125e-06 C 69.85281372070312 -7.62939453125e-06 90 20.14717864990234 90 44.99999237060547 C 90 69.85279083251953 69.85281372070312 89.99997711181641 44.99999618530273 89.99997711181641 C 20.14717864990234 89.99997711181641 -7.62939453125e-06 69.85279083251953 -7.62939453125e-06 44.99999237060547 C -7.62939453125e-06 20.14717864990234 20.14717864990234 -7.62939453125e-06 44.99999618530273 -7.62939453125e-06 Z" stroke="none" fill="#497f88"/>
                        </g>
                      </g>
                    </g>
                  </g>
                </g>
              </g>
            </g>
          </g>
        </g>
      </g>
    </g>
    <g id="Layer_1" transform="translate(588.187 11424.688)">
      <g id="Grupo_1224631" data-name="Grupo 1224631" transform="translate(56.18 56.66)">
        <g id="Grupo_1224630" data-name="Grupo 1224630" transform="translate(0 0)">
          <g id="Grupo_1224629" data-name="Grupo 1224629">
            <g id="Grupo_1224628" data-name="Grupo 1224628">
              <g id="Grupo_1224542" data-name="Grupo 1224542" transform="translate(0.825 0.825)">
                <g id="Grupo_1224520" data-name="Grupo 1224520" transform="translate(30.535 36.819)">
                  <g id="Grupo_1224518" data-name="Grupo 1224518" transform="translate(0.03 0.035)">
                    <path id="Trazado_1055134" data-name="Trazado 1055134" d="M274.727,314.324l3.89,6.738h-7.781Z" transform="translate(-270.836 -314.324)" fill="#5393fb" fill-rule="evenodd"/>
                  </g>
                  <g id="Grupo_1224519" data-name="Grupo 1224519" transform="translate(0 0)">
                    <path id="Trazado_1055135" data-name="Trazado 1055135" d="M278.47,320.875h-7.842l.015-.026,3.906-6.765.015.026Zm-7.781-.035h7.72l-3.86-6.686Z" transform="translate(-270.628 -314.084)" fill="#333" fill-rule="evenodd"/>
                  </g>
                </g>
                <g id="Grupo_1224523" data-name="Grupo 1224523" transform="translate(8.086 39.532)">
                  <g id="Grupo_1224521" data-name="Grupo 1224521" transform="translate(0.018 0.018)">
                    <path id="Trazado_1055136" data-name="Trazado 1055136" d="M117.236,332.756h7.188v7.188h-7.188Z" transform="translate(-117.236 -332.756)" fill="#da1d81" fill-rule="evenodd"/>
                  </g>
                  <g id="Grupo_1224522" data-name="Grupo 1224522">
                    <path id="Trazado_1055137" data-name="Trazado 1055137" d="M124.339,339.859h-7.223v-7.223h7.223Zm-7.188-.035H124.3v-7.153h-7.153Z" transform="translate(-117.116 -332.636)" fill="#333" fill-rule="evenodd"/>
                  </g>
                </g>
                <g id="Grupo_1224526" data-name="Grupo 1224526" transform="translate(6.611 15.599)">
                  <g id="Grupo_1224524" data-name="Grupo 1224524" transform="translate(0 0)">
                    <circle id="Elipse_13559" data-name="Elipse 13559" cx="3.594" cy="3.594" r="3.594" transform="translate(0 5.082) rotate(-45)" fill="#f2d231"/>
                  </g>
                  <g id="Grupo_1224525" data-name="Grupo 1224525" transform="translate(1.476 1.471)">
                    <path id="Trazado_1055138" data-name="Trazado 1055138" d="M120.727,186.259a3.611,3.611,0,1,1,3.611-3.611A3.616,3.616,0,0,1,120.727,186.259Zm0-7.188a3.576,3.576,0,1,0,3.576,3.576A3.58,3.58,0,0,0,120.727,179.071Z" transform="translate(-117.116 -179.036)" fill="#333" fill-rule="evenodd"/>
                  </g>
                </g>
                <g id="Grupo_1224529" data-name="Grupo 1224529" transform="translate(37.715 6.226)">
                  <g id="Grupo_1224527" data-name="Grupo 1224527" transform="translate(0.038 0.04)">
                    <path id="Trazado_1055139" data-name="Trazado 1055139" d="M328.533,108.255l-2.136,2.082.5,2.94-2.641-1.388-2.64,1.388.5-2.94-2.136-2.082,2.952-.429,1.32-2.675,1.32,2.675Z" transform="translate(-319.988 -105.151)" fill="#00cb75" fill-rule="evenodd"/>
                  </g>
                  <g id="Grupo_1224528" data-name="Grupo 1224528">
                    <path id="Trazado_1055140" data-name="Trazado 1055140" d="M321.376,113.078l.509-2.966-2.155-2.1,2.978-.433,1.332-2.7,1.332,2.7,2.978.433-2.155,2.1.509,2.966-2.664-1.4Zm2.664-1.44.008,0,2.609,1.372-.5-2.914,2.117-2.064-2.926-.425,0-.008-1.3-2.643-1.309,2.652-2.926.425,2.117,2.064v.009l-.5,2.905Z" transform="translate(-319.73 -104.879)" fill="#333" fill-rule="evenodd"/>
                  </g>
                </g>
                <g id="Grupo_1224532" data-name="Grupo 1224532" transform="translate(22.911 27.603)">
                  <g id="Grupo_1224530" data-name="Grupo 1224530" transform="translate(0.018 0.018)">
                    <path id="Trazado_1055141" data-name="Trazado 1055141" d="M241.523,254.575v20.789a2.122,2.122,0,0,1-2.122,2.122h-5.515a3.394,3.394,0,1,0-6.789,0h-8.485v-7.637a3.394,3.394,0,0,0,3.394-3.394c0-.024,0-.048,0-.072s0-.027,0-.041,0-.046,0-.068,0-.054-.005-.08q-.01-.129-.029-.256c-.007-.042-.014-.084-.022-.125-.013-.07-.029-.138-.046-.206s-.029-.108-.046-.161a3.377,3.377,0,0,0-.219-.536c-.025-.049-.051-.1-.078-.144-.041-.071-.084-.141-.13-.208-.03-.045-.062-.09-.095-.133s-.066-.086-.1-.128-.07-.083-.107-.123-.074-.079-.112-.118a3.394,3.394,0,0,0-1.079-.728c-.1-.043-.206-.081-.312-.114-.053-.017-.107-.032-.161-.046l-.082-.02q-.123-.029-.25-.048l-.085-.012-.085-.01-.056-.005-.094-.006-.051,0h-.146v-8.485h7.637a3.394,3.394,0,0,1,6.788,0h8.486Zm-7.493,12.579-3.89-6.739-3.891,6.739Z" transform="translate(-218.612 -251.181)" fill="#8bbafc" fill-rule="evenodd"/>
                  </g>
                  <g id="Grupo_1224531" data-name="Grupo 1224531">
                    <path id="Trazado_1055142" data-name="Trazado 1055142" d="M239.3,277.4h-5.533v-.018a3.377,3.377,0,1,0-6.753,0v.018h-8.521v-7.672h.018a3.381,3.381,0,0,0,3.377-3.377c0-.024,0-.048,0-.072s0-.027,0-.04,0-.046,0-.069,0-.053,0-.08c-.006-.085-.016-.171-.029-.255-.007-.043-.014-.085-.022-.125-.012-.066-.027-.133-.046-.2-.013-.053-.029-.107-.045-.16a3.342,3.342,0,0,0-.218-.533c-.024-.047-.049-.094-.078-.143-.043-.074-.085-.142-.129-.207-.032-.047-.063-.092-.094-.132s-.065-.084-.1-.128-.07-.083-.106-.122-.074-.079-.112-.117a3.357,3.357,0,0,0-1.073-.724c-.1-.044-.208-.082-.31-.114-.051-.016-.1-.031-.16-.045l-.009,0-.072-.018c-.082-.019-.166-.035-.248-.048l-.084-.012-.085-.01-.056-.005-.094-.006-.05,0h-.163v-8.521h7.637a3.412,3.412,0,0,1,6.823,0h8.485v20.807A2.141,2.141,0,0,1,239.3,277.4Zm-5.5-.035h5.5a2.106,2.106,0,0,0,2.1-2.1V254.487h-8.485v-.018a3.377,3.377,0,1,0-6.753,0v.018h-7.637v8.45h.129l.051,0,.094.007.057.005.086.01.085.012c.084.013.168.029.251.048l.073.018.009,0c.056.014.111.03.162.046.1.032.209.071.313.115a3.394,3.394,0,0,1,1.084.732c.039.039.077.079.113.118s.072.081.107.124.07.087.1.129.063.086.1.134c.045.066.087.134.131.209.029.05.055.1.079.145a3.382,3.382,0,0,1,.22.539c.017.054.032.108.046.162.019.073.034.14.046.207.008.04.015.082.022.126.013.085.023.171.029.257,0,.026,0,.054.005.08s0,.046,0,.069,0,.026,0,.039,0,.05,0,.074a3.416,3.416,0,0,1-3.394,3.412v7.6h8.45a3.412,3.412,0,0,1,6.824,0Zm.157-10.3-3.906-6.765-.015-.026-3.906,6.765-.015.026Zm-7.781-.035h7.72l-3.86-6.686Z" transform="translate(-218.492 -251.058)" fill="#333" fill-rule="evenodd"/>
                  </g>
                </g>
                <g id="Grupo_1224535" data-name="Grupo 1224535" transform="translate(0 30.997)">
                  <g id="Grupo_1224533" data-name="Grupo 1224533" transform="translate(0.018 0.017)">
                    <path id="Trazado_1055143" data-name="Trazado 1055143" d="M87.874,284.721a3.367,3.367,0,0,1,.219.536c.016.053.032.107.046.161s.033.136.046.206c0,.014.005.027.008.042s.01.055.014.084q.02.127.029.256c0,.027,0,.053.005.08s0,.046,0,.068,0,.027,0,.041,0,.048,0,.072a3.394,3.394,0,0,1-3.394,3.394V297.3H64.062a2.122,2.122,0,0,1-2.122-2.122V289.66a3.394,3.394,0,1,0,0-6.789v-8.485h8.485l.178,1.089c.018.052.037.1.057.156l.031.077c.021.051.044.1.068.15l.037.074c.025.049.051.1.078.144l.13.208c.03.045.062.089.095.133l.05.064c.034.043.068.085.1.126l.054.061c.037.04.074.079.112.118h0q.071.071.146.138c.022.02.043.039.066.057.06.051.121.1.184.145.035.025.07.05.105.074q.1.068.208.13c.048.027.1.053.144.078l.074.037q.074.036.15.068l.077.031c.051.021.1.039.156.057a3.414,3.414,0,0,0,2.177,0c.052-.018.1-.037.156-.057l.077-.031q.076-.032.15-.068l.074-.037c.049-.025.1-.051.144-.078l.208-.13c.045-.03.089-.062.133-.095s.086-.066.128-.1.083-.07.123-.107.079-.074.118-.112.076-.078.112-.118.072-.082.107-.123.068-.085.1-.128.064-.088.095-.133q.068-.1.13-.208c.027-.048.054-.1.078-.144l.037-.074c.024-.049.047-.1.068-.15l.031-.077c.021-.051.039-.1.057-.156a3.393,3.393,0,0,0,.178-1.089h7.637v8.485H85l.051,0,.065,0,.029,0,.056.005.085.01.085.012.084.014.083.016.083.018.082.02q.082.021.161.046c.106.033.21.071.312.114l1.079.728q.057.057.112.118c.037.04.072.081.107.123s.068.085.1.128.064.088.095.133c.046.068.089.137.13.208Q87.836,284.648,87.874,284.721Zm-10.66,5.389v-7.188H70.026v7.188Z" transform="translate(-61.94 -274.386)" fill="#de5ca3" fill-rule="evenodd"/>
                  </g>
                  <g id="Grupo_1224534" data-name="Grupo 1224534">
                    <path id="Trazado_1055144" data-name="Trazado 1055144" d="M84.766,297.214H63.959a2.142,2.142,0,0,1-2.139-2.139v-5.533h.018a3.377,3.377,0,1,0,0-6.753H61.82v-8.521h8.518l.181,1.1q.027.079.056.152l.031.077c.021.05.044.1.068.149l.037.073c.024.048.049.094.078.143l.13.208c.029.043.059.086.094.132l.048.063c.034.044.069.086.1.127l.054.061c.039.042.074.079.107.112l.005.005c.047.047.1.093.146.137.022.019.043.039.066.057.059.05.12.1.184.145l.1.074c.071.048.139.09.207.129.049.028.1.054.143.078l.073.036c.053.025.1.048.149.068l.076.031c.049.019.1.038.155.057a3.4,3.4,0,0,0,2.166,0c.056-.019.106-.037.155-.057l.077-.031c.048-.02.1-.042.149-.068l.073-.036c.047-.024.094-.049.143-.078l.208-.13c.042-.029.086-.059.132-.094s.084-.065.128-.1.087-.074.123-.106.083-.077.117-.112.071-.073.112-.117.068-.076.106-.123.069-.086.1-.128.065-.09.094-.133c.048-.071.09-.139.129-.207.029-.049.054-.1.078-.143l.037-.073c.024-.049.047-.1.068-.149l.031-.076c.019-.049.038-.1.057-.155a3.372,3.372,0,0,0,.177-1.083v-.018h7.672v8.485H84.9l.051,0,.065,0,.029,0,.057.005.086.01.085.012.084.014.084.016.083.018.074.018.009,0c.055.014.109.03.162.046.1.032.209.071.314.115l1.082.729c.041.041.079.081.116.12s.072.081.107.124.07.087.1.129.065.089.1.134c.045.066.087.134.131.209.027.047.053.1.079.145a3.387,3.387,0,0,1,.22.539c.019.062.034.114.046.162.019.073.034.14.046.207l0,.013.005.029c0,.027.01.055.014.084.013.085.023.171.029.257v0c0,.025,0,.05,0,.076s0,.046,0,.069,0,.026,0,.039,0,.05,0,.074a3.416,3.416,0,0,1-3.394,3.412Zm-22.911-7.637v5.5a2.106,2.106,0,0,0,2.1,2.1H84.731v-7.637h.018a3.381,3.381,0,0,0,3.377-3.377c0-.024,0-.048,0-.072s0-.027,0-.04,0-.046,0-.069,0-.05,0-.075v0c-.006-.085-.016-.171-.029-.254,0-.028-.009-.055-.014-.083,0-.01,0-.019-.005-.029l0-.013c-.012-.066-.027-.133-.046-.2-.012-.048-.026-.1-.045-.16a3.368,3.368,0,0,0-.218-.533c-.025-.049-.051-.1-.078-.143-.043-.074-.085-.142-.129-.207-.03-.044-.061-.088-.094-.132s-.065-.084-.1-.128-.07-.083-.106-.123-.074-.079-.112-.117l-1.076-.726c-.1-.042-.205-.08-.307-.112-.052-.016-.106-.031-.16-.045l-.009,0-.072-.018-.082-.018-.083-.016-.083-.014-.084-.012-.085-.01-.056-.005-.029,0-.064,0-.051,0h-.162V274.3h-7.6a3.409,3.409,0,0,1-.179,1.077c-.019.056-.038.107-.058.157l-.031.077c-.021.051-.044.1-.069.151l-.037.074c-.024.048-.05.1-.079.145-.04.069-.082.138-.131.209-.029.044-.06.087-.1.134s-.066.085-.1.129-.074.087-.107.124-.078.084-.113.118-.072.071-.118.113-.077.068-.124.107-.087.07-.129.1-.091.066-.134.1l-.209.13c-.05.029-.1.055-.146.079l-.074.037c-.053.026-.1.048-.151.068l-.077.031c-.049.02-.1.039-.157.058a3.432,3.432,0,0,1-2.189,0c-.056-.019-.108-.038-.157-.058l-.077-.031c-.049-.02-.1-.043-.151-.069l-.074-.037c-.048-.024-.1-.05-.145-.079-.069-.04-.138-.082-.209-.131-.032-.022-.066-.045-.106-.075-.064-.047-.126-.1-.185-.146-.023-.018-.044-.038-.066-.058-.048-.043-.1-.087-.142-.133L71.3,276.7c-.035-.035-.072-.073-.113-.118l-.054-.062c-.036-.041-.071-.084-.1-.126l-.05-.065c-.035-.047-.066-.09-.1-.134l-.13-.209c-.029-.05-.055-.1-.079-.145l-.037-.074c-.024-.05-.047-.1-.069-.151l-.031-.077c-.02-.049-.039-.1-.058-.157l-.177-1.077H61.855v8.45a3.412,3.412,0,0,1,0,6.824Zm15.274.449V282.8H69.906v7.223Zm-7.188-.035h7.153v-7.153H69.941Z" transform="translate(-61.82 -274.268)" fill="#333" fill-rule="evenodd"/>
                  </g>
                </g>
                <g id="Grupo_1224538" data-name="Grupo 1224538" transform="translate(0 8.086)">
                  <g id="Grupo_1224536" data-name="Grupo 1224536" transform="translate(0.018 0.018)">
                    <path id="Trazado_1055145" data-name="Trazado 1055145" d="M84.852,132.99v7.637H77.215a3.394,3.394,0,0,1-.178,1.089c-.018.053-.037.1-.057.156l-.031.077c-.022.051-.044.1-.068.15l-.037.074c-.025.049-.051.1-.078.144-.041.071-.084.141-.13.208-.03.045-.062.089-.095.133s-.066.086-.1.128-.07.083-.107.123-.074.079-.112.118-.078.076-.118.112-.081.072-.123.107-.085.068-.128.1-.088.064-.133.095l-.208.13c-.048.027-.1.053-.144.078l-.074.037c-.05.024-.1.046-.15.068l-.077.031c-.051.02-.1.039-.156.057a3.414,3.414,0,0,1-2.177,0c-.052-.018-.1-.037-.156-.057l-.077-.031c-.051-.022-.1-.044-.15-.068l-.074-.037c-.049-.025-.1-.051-.144-.078-.071-.041-.141-.084-.208-.13q-.054-.036-.105-.074c-.063-.046-.125-.095-.184-.145-.023-.018-.044-.037-.066-.057-.05-.044-.1-.09-.146-.138s-.076-.078-.113-.118l-.054-.061c-.036-.041-.07-.083-.1-.126l-.05-.064c-.033-.044-.064-.088-.095-.133l-.13-.208c-.027-.048-.053-.1-.078-.144l-.037-.074c-.024-.05-.046-.1-.068-.15l-.031-.077c-.02-.051-.039-.1-.057-.156l-.178-1.089H61.941V119.838a2.122,2.122,0,0,1,2.122-2.122h6.364a3.394,3.394,0,1,0,6.789,0h7.637V126.2a3.394,3.394,0,1,0,0,6.789Zm-7.637-2.7a3.594,3.594,0,1,0-3.594,3.594A3.594,3.594,0,0,0,77.215,130.295Z" transform="translate(-61.941 -117.716)" fill="#faf16c" fill-rule="evenodd"/>
                  </g>
                  <g id="Grupo_1224537" data-name="Grupo 1224537">
                    <path id="Trazado_1055146" data-name="Trazado 1055146" d="M73.717,143.936a3.408,3.408,0,0,1-1.094-.179c-.05-.017-.1-.036-.157-.058l-.077-.031c-.055-.024-.1-.046-.151-.069l-.074-.037c-.048-.024-.1-.05-.145-.079-.069-.04-.138-.082-.209-.131-.039-.026-.074-.051-.106-.075-.064-.047-.126-.1-.185-.146l-.066-.058c-.05-.044-.1-.091-.147-.138s-.075-.077-.113-.118l-.054-.062c-.036-.041-.071-.084-.1-.126l-.05-.065c-.035-.047-.066-.091-.1-.134l-.13-.209c-.029-.05-.055-.1-.079-.146L70.642,142c-.023-.047-.045-.1-.068-.151l-.031-.077c-.022-.055-.041-.106-.058-.157l-.176-1.077H61.82V119.735a2.142,2.142,0,0,1,2.139-2.139h6.381v.018a3.377,3.377,0,1,0,6.753,0V117.6h7.672v8.521h-.018a3.377,3.377,0,1,0,0,6.753h.018v7.672H77.129a3.409,3.409,0,0,1-.179,1.077c-.017.05-.036.1-.057.157l-.031.077c-.024.055-.046.1-.069.151l-.037.074c-.024.048-.05.1-.079.145-.04.069-.082.138-.131.209-.029.044-.06.087-.1.134s-.066.085-.1.129-.074.087-.107.124-.078.084-.113.118-.072.071-.118.113-.077.068-.124.107-.087.07-.129.1-.091.066-.134.1l-.209.13c-.051.029-.1.055-.146.079l-.074.037c-.047.023-.1.045-.151.068l-.077.031c-.056.022-.107.041-.157.058a3.408,3.408,0,0,1-1.094.179Zm-11.862-3.429h8.483l.181,1.1c.016.047.035.1.056.152l.031.077c.023.054.045.1.068.149l.036.073c.024.047.05.094.078.143l.13.208c.029.043.059.086.094.132l.048.063c.034.044.069.086.1.127l.054.061c.038.041.075.08.112.117s.1.093.146.137c.022.02.043.039.066.057.059.05.12.1.184.145.032.024.067.048.1.074.071.048.139.09.207.129.049.028.1.054.143.078l.073.036c.046.022.1.044.15.068l.076.031c.055.022.105.04.155.057a3.4,3.4,0,0,0,2.166,0c.049-.017.1-.035.155-.057l.077-.031c.054-.023.1-.045.149-.068l.073-.036c.047-.024.094-.049.143-.078l.208-.13c.042-.029.086-.059.132-.094s.084-.065.128-.1.087-.074.123-.106.083-.077.117-.112.071-.073.112-.117.068-.076.106-.123.069-.086.1-.128.065-.089.094-.133c.048-.071.09-.139.129-.207.028-.049.054-.1.078-.143l.036-.073c.022-.047.045-.1.068-.15l.031-.076c.021-.055.04-.105.057-.155a3.372,3.372,0,0,0,.177-1.083v-.018h7.637v-7.6a3.412,3.412,0,0,1,0-6.824v-8.45h-7.6a3.412,3.412,0,0,1-6.824,0H63.959a2.106,2.106,0,0,0-2.1,2.1Zm11.663-6.7a3.611,3.611,0,1,0-3.611-3.611A3.616,3.616,0,0,0,73.518,133.8Zm0-7.188a3.576,3.576,0,1,0,3.576,3.576A3.58,3.58,0,0,0,73.518,126.616Z" transform="translate(-61.82 -117.596)" fill="#333" fill-rule="evenodd"/>
                  </g>
                </g>
                <g id="Grupo_1224541" data-name="Grupo 1224541" transform="translate(27.603)">
                  <g id="Grupo_1224539" data-name="Grupo 1224539" transform="translate(0.018 0.017)">
                    <path id="Trazado_1055147" data-name="Trazado 1055147" d="M277,77.694v7.637h-8.485a3.394,3.394,0,1,0-6.789,0h-7.637V77.694a3.394,3.394,0,0,1,0-6.788V62.42h20.789A2.122,2.122,0,0,1,277,64.542v6.364a3.394,3.394,0,1,0,0,6.789Zm-9.764-3.839,2.136-2.082-2.952-.429-1.32-2.675-1.32,2.675-2.952.429,2.136,2.082-.5,2.94,2.64-1.388,2.641,1.388Z" transform="translate(-250.697 -62.42)" fill="#00cb75" fill-rule="evenodd"/>
                  </g>
                  <g id="Grupo_1224540" data-name="Grupo 1224540">
                    <path id="Trazado_1055148" data-name="Trazado 1055148" d="M276.917,85.247H268.4v-.018a3.377,3.377,0,1,0-6.753,0v.018h-7.672V77.61a3.412,3.412,0,0,1,0-6.823V62.3h20.807a2.142,2.142,0,0,1,2.139,2.139v6.381H276.9a3.377,3.377,0,1,0,0,6.753h.018Zm-8.485-.035h8.45v-7.6a3.412,3.412,0,0,1,0-6.824V64.44a2.106,2.106,0,0,0-2.1-2.1H254.006v8.485h-.018a3.377,3.377,0,0,0,0,6.754h.018v7.637h7.6a3.412,3.412,0,0,1,6.824,0Zm-6.1-8.486,2.664-1.4,2.664,1.4-.509-2.966,2.155-2.1-2.978-.433L265,68.527l-1.332,2.7-2.978.433,2.155,2.1ZM265,75.286l.008,0,2.609,1.372-.5-2.914.007-.006,2.111-2.058-2.926-.425,0-.008L265,68.607l-1.309,2.652-2.926.425,2.117,2.064v.009l-.5,2.905Z" transform="translate(-250.577 -62.301)" fill="#333" fill-rule="evenodd"/>
                  </g>
                </g>
              </g>
              <g id="Grupo_1224627" data-name="Grupo 1224627">
                <g id="Grupo_1224544" data-name="Grupo 1224544" transform="translate(27.603)">
                  <g id="Grupo_1224543" data-name="Grupo 1224543">
                    <path id="Trazado_1055149" data-name="Trazado 1055149" d="M272.084,81.256H263.6a.842.842,0,0,1-.842-.842,2.552,2.552,0,1,0-5.1,0,.842.842,0,0,1-.842.842h-7.637a.842.842,0,0,1-.842-.842V73.534a4.238,4.238,0,0,1,0-8.306V57.5a.842.842,0,0,1,.842-.842h20.789a2.967,2.967,0,0,1,2.964,2.964v6.364a.842.842,0,0,1-.842.842,2.552,2.552,0,1,0,0,5.1.842.842,0,0,1,.842.842v7.637A.842.842,0,0,1,272.084,81.256Zm-7.643-.842h0Zm-.083-.842h6.884V73.535a4.238,4.238,0,0,1,0-8.307v-5.6a1.281,1.281,0,0,0-1.279-1.279H250.016v7.643a.842.842,0,0,1-.842.842,2.552,2.552,0,0,0,0,5.1.842.842,0,0,1,.842.842v6.795h6.036a4.238,4.238,0,0,1,8.307,0Z" transform="translate(-244.937 -56.66)" fill="#333" fill-rule="evenodd"/>
                  </g>
                </g>
                <g id="Grupo_1224546" data-name="Grupo 1224546" transform="translate(8.663 32.085)">
                  <g id="Grupo_1224545" data-name="Grupo 1224545">
                    <path id="Trazado_1055150" data-name="Trazado 1055150" d="M116.323,277.912a.842.842,0,0,1-.782-.529c-.025-.063-.049-.129-.074-.2a.842.842,0,1,1,1.6-.54c.014.041.027.078.041.112a.843.843,0,0,1-.781,1.156Z" transform="translate(-115.423 -276.071)" fill="#333" fill-rule="evenodd"/>
                  </g>
                </g>
                <g id="Grupo_1224548" data-name="Grupo 1224548" transform="translate(8.752 32.318)">
                  <g id="Grupo_1224547" data-name="Grupo 1224547">
                    <path id="Trazado_1055151" data-name="Trazado 1055151" d="M116.94,279.5a.843.843,0,0,1-.758-.475c-.03-.063-.06-.127-.087-.191a.842.842,0,1,1,1.552-.654c.016.037.032.074.05.109a.842.842,0,0,1-.757,1.21Z" transform="translate(-116.029 -277.663)" fill="#333" fill-rule="evenodd"/>
                  </g>
                </g>
                <g id="Grupo_1224550" data-name="Grupo 1224550" transform="translate(8.857 32.542)">
                  <g id="Grupo_1224549" data-name="Grupo 1224549">
                    <path id="Trazado_1055152" data-name="Trazado 1055152" d="M117.665,281.022a.842.842,0,0,1-.729-.42c-.037-.064-.07-.125-.1-.188a.842.842,0,1,1,1.5-.758c.017.033.034.065.055.1a.842.842,0,0,1-.728,1.265Z" transform="translate(-116.744 -279.193)" fill="#333" fill-rule="evenodd"/>
                  </g>
                </g>
                <g id="Grupo_1224552" data-name="Grupo 1224552" transform="translate(9.065 32.895)">
                  <g id="Grupo_1224551" data-name="Grupo 1224551">
                    <path id="Trazado_1055153" data-name="Trazado 1055153" d="M119.107,283.422a.841.841,0,0,1-.676-.34c-.043-.057-.081-.112-.118-.166a.842.842,0,0,1,1.4-.94c.022.032.045.065.071.1a.842.842,0,0,1-.675,1.345Z" transform="translate(-118.17 -281.604)" fill="#333" fill-rule="evenodd"/>
                  </g>
                </g>
                <g id="Grupo_1224554" data-name="Grupo 1224554" transform="translate(9.209 33.093)">
                  <g id="Grupo_1224553" data-name="Grupo 1224553">
                    <path id="Trazado_1055154" data-name="Trazado 1055154" d="M120.1,284.769a.84.84,0,0,1-.637-.29c-.044-.051-.088-.1-.129-.156a.842.842,0,0,1,1.323-1.043c.025.032.052.064.079.1a.842.842,0,0,1-.636,1.394Z" transform="translate(-119.156 -282.958)" fill="#333" fill-rule="evenodd"/>
                  </g>
                </g>
                <g id="Grupo_1224556" data-name="Grupo 1224556" transform="translate(9.367 33.28)">
                  <g id="Grupo_1224555" data-name="Grupo 1224555">
                    <path id="Trazado_1055155" data-name="Trazado 1055155" d="M121.191,286.039a.84.84,0,0,1-.6-.247c-.045-.045-.092-.094-.138-.144a.842.842,0,1,1,1.241-1.139c.03.032.059.063.088.092a.842.842,0,0,1-.6,1.438Z" transform="translate(-120.236 -284.236)" fill="#333" fill-rule="evenodd"/>
                  </g>
                </g>
                <g id="Grupo_1224558" data-name="Grupo 1224558" transform="translate(9.626 33.535)">
                  <g id="Grupo_1224557" data-name="Grupo 1224557">
                    <path id="Trazado_1055156" data-name="Trazado 1055156" d="M122.914,287.724a.839.839,0,0,1-.534-.192c-.037-.03-.07-.06-.094-.082a.842.842,0,1,1,1.127-1.252l.037.033a.842.842,0,0,1-.535,1.493Z" transform="translate(-122.007 -285.982)" fill="#333" fill-rule="evenodd"/>
                  </g>
                </g>
                <g id="Grupo_1224560" data-name="Grupo 1224560" transform="translate(9.877 33.737)">
                  <g id="Grupo_1224559" data-name="Grupo 1224559">
                    <path id="Trazado_1055157" data-name="Trazado 1055157" d="M124.666,289.125a.837.837,0,0,1-.47-.144c-.041-.027-.082-.057-.131-.092a.842.842,0,0,1,.992-1.361l.08.056a.842.842,0,0,1-.471,1.541Z" transform="translate(-123.719 -287.366)" fill="#333" fill-rule="evenodd"/>
                  </g>
                </g>
                <g id="Grupo_1224562" data-name="Grupo 1224562" transform="translate(10.19 33.942)">
                  <g id="Grupo_1224561" data-name="Grupo 1224561">
                    <path id="Trazado_1055158" data-name="Trazado 1055158" d="M126.85,290.527a.838.838,0,0,1-.383-.093c-.059-.03-.118-.062-.179-.1a.842.842,0,1,1,.837-1.462c.038.022.074.041.109.059a.842.842,0,0,1-.384,1.592Z" transform="translate(-125.864 -288.764)" fill="#333" fill-rule="evenodd"/>
                  </g>
                </g>
                <g id="Grupo_1224564" data-name="Grupo 1224564" transform="translate(10.408 34.056)">
                  <g id="Grupo_1224563" data-name="Grupo 1224563">
                    <path id="Trazado_1055159" data-name="Trazado 1055159" d="M128.345,291.3a.838.838,0,0,1-.326-.066c-.061-.026-.123-.054-.189-.086a.842.842,0,1,1,.731-1.517c.04.019.076.036.111.05a.843.843,0,0,1-.327,1.619Z" transform="translate(-127.352 -289.548)" fill="#333" fill-rule="evenodd"/>
                  </g>
                </g>
                <g id="Grupo_1224566" data-name="Grupo 1224566" transform="translate(10.635 34.156)">
                  <g id="Grupo_1224565" data-name="Grupo 1224565">
                    <path id="Trazado_1055160" data-name="Trazado 1055160" d="M129.9,291.97a.84.84,0,0,1-.27-.045c-.071-.024-.137-.048-.2-.074a.842.842,0,0,1,.628-1.563c.034.014.07.027.111.041a.842.842,0,0,1-.27,1.64Z" transform="translate(-128.906 -290.228)" fill="#333" fill-rule="evenodd"/>
                  </g>
                </g>
                <g id="Grupo_1224568" data-name="Grupo 1224568" transform="translate(12.968 34.156)">
                  <g id="Grupo_1224567" data-name="Grupo 1224567">
                    <path id="Trazado_1055161" data-name="Trazado 1055161" d="M145.7,291.97a.842.842,0,0,1-.27-1.641c.041-.014.077-.027.111-.041a.842.842,0,0,1,.628,1.563c-.063.026-.129.05-.2.074A.839.839,0,0,1,145.7,291.97Z" transform="translate(-144.86 -290.227)" fill="#333" fill-rule="evenodd"/>
                  </g>
                </g>
                <g id="Grupo_1224570" data-name="Grupo 1224570" transform="translate(13.201 34.057)">
                  <g id="Grupo_1224569" data-name="Grupo 1224569">
                    <path id="Trazado_1055162" data-name="Trazado 1055162" d="M147.294,291.3a.842.842,0,0,1-.327-1.619c.035-.015.071-.031.111-.05a.842.842,0,1,1,.731,1.517c-.066.032-.128.06-.189.086A.84.84,0,0,1,147.294,291.3Z" transform="translate(-146.451 -289.549)" fill="#333" fill-rule="evenodd"/>
                  </g>
                </g>
                <g id="Grupo_1224572" data-name="Grupo 1224572" transform="translate(13.425 33.942)">
                  <g id="Grupo_1224571" data-name="Grupo 1224571">
                    <path id="Trazado_1055163" data-name="Trazado 1055163" d="M148.826,290.527a.842.842,0,0,1-.38-1.595c.033-.016.065-.034.1-.055a.842.842,0,1,1,.846,1.457c-.064.037-.125.07-.188.1A.839.839,0,0,1,148.826,290.527Z" transform="translate(-147.982 -288.764)" fill="#333" fill-rule="evenodd"/>
                  </g>
                </g>
                <g id="Grupo_1224574" data-name="Grupo 1224574" transform="translate(13.777 33.717)">
                  <g id="Grupo_1224573" data-name="Grupo 1224573">
                    <path id="Trazado_1055164" data-name="Trazado 1055164" d="M151.237,289.007a.842.842,0,0,1-.471-1.541c.032-.021.065-.045.1-.072a.842.842,0,1,1,1.005,1.352c-.057.043-.112.081-.166.118A.838.838,0,0,1,151.237,289.007Z" transform="translate(-150.394 -287.228)" fill="#333" fill-rule="evenodd"/>
                  </g>
                </g>
                <g id="Grupo_1224576" data-name="Grupo 1224576" transform="translate(14.039 33.51)">
                  <g id="Grupo_1224575" data-name="Grupo 1224575">
                    <path id="Trazado_1055165" data-name="Trazado 1055165" d="M153.026,287.6a.842.842,0,0,1-.54-1.489c.038-.031.069-.059.1-.083a.842.842,0,0,1,1.134,1.246c-.045.041-.094.083-.15.13A.84.84,0,0,1,153.026,287.6Z" transform="translate(-152.183 -285.81)" fill="#333" fill-rule="evenodd"/>
                  </g>
                </g>
                <g id="Grupo_1224578" data-name="Grupo 1224578" transform="translate(14.392 33.156)">
                  <g id="Grupo_1224577" data-name="Grupo 1224577">
                    <path id="Trazado_1055166" data-name="Trazado 1055166" d="M155.44,285.2a.842.842,0,0,1-.623-1.409c.025-.027.052-.059.083-.1a.842.842,0,1,1,1.293,1.079c-.047.056-.089.105-.131.15A.84.84,0,0,1,155.44,285.2Z" transform="translate(-154.598 -283.392)" fill="#333" fill-rule="evenodd"/>
                  </g>
                </g>
                <g id="Grupo_1224580" data-name="Grupo 1224580" transform="translate(14.6 32.894)">
                  <g id="Grupo_1224579" data-name="Grupo 1224579">
                    <path id="Trazado_1055167" data-name="Trazado 1055167" d="M156.858,283.421a.842.842,0,0,1-.675-1.345c.026-.036.05-.068.071-.1a.842.842,0,1,1,1.4.94c-.037.055-.075.109-.118.166A.841.841,0,0,1,156.858,283.421Z" transform="translate(-156.017 -281.603)" fill="#333" fill-rule="evenodd"/>
                  </g>
                </g>
                <g id="Grupo_1224582" data-name="Grupo 1224582" transform="translate(14.824 32.542)">
                  <g id="Grupo_1224581" data-name="Grupo 1224581">
                    <path id="Trazado_1055168" data-name="Trazado 1055168" d="M158.394,281.02a.843.843,0,0,1-.728-1.266c.02-.035.038-.067.054-.1a.842.842,0,1,1,1.5.758c-.032.063-.065.124-.1.188A.842.842,0,0,1,158.394,281.02Z" transform="translate(-157.552 -279.191)" fill="#333" fill-rule="evenodd"/>
                  </g>
                </g>
                <g id="Grupo_1224584" data-name="Grupo 1224584" transform="translate(14.939 32.318)">
                  <g id="Grupo_1224583" data-name="Grupo 1224583">
                    <path id="Trazado_1055169" data-name="Trazado 1055169" d="M159.18,279.5a.843.843,0,0,1-.757-1.21c.018-.036.034-.073.05-.11a.842.842,0,1,1,1.552.654c-.027.064-.056.128-.087.191a.842.842,0,0,1-.758.475Z" transform="translate(-158.338 -277.662)" fill="#333" fill-rule="evenodd"/>
                  </g>
                </g>
                <g id="Grupo_1224586" data-name="Grupo 1224586" transform="translate(15.038 32.086)">
                  <g id="Grupo_1224585" data-name="Grupo 1224585">
                    <path id="Trazado_1055170" data-name="Trazado 1055170" d="M159.858,277.913a.843.843,0,0,1-.781-1.156c.014-.034.027-.071.041-.112a.842.842,0,1,1,1.6.539c-.024.071-.048.136-.074.2A.843.843,0,0,1,159.858,277.913Z" transform="translate(-159.016 -276.072)" fill="#333" fill-rule="evenodd"/>
                  </g>
                </g>
                <g id="Grupo_1224588" data-name="Grupo 1224588" transform="translate(0 8.086)">
                  <g id="Grupo_1224587" data-name="Grupo 1224587">
                    <path id="Trazado_1055171" data-name="Trazado 1055171" d="M79.933,136.551a.842.842,0,0,1-.842-.842v-6.878a4.238,4.238,0,0,1,0-8.307V113.64H73.055a4.238,4.238,0,0,1-8.307,0h-5.6a1.281,1.281,0,0,0-1.279,1.279v20.789a.842.842,0,1,1-1.685,0V114.919a2.967,2.967,0,0,1,2.964-2.964h6.364a.842.842,0,0,1,.842.842,2.552,2.552,0,1,0,5.1,0,.842.842,0,0,1,.842-.842h7.637a.842.842,0,0,1,.842.842v8.485a.842.842,0,0,1-.842.842,2.552,2.552,0,1,0,0,5.1.842.842,0,0,1,.842.842v7.637A.842.842,0,0,1,79.933,136.551Z" transform="translate(-56.18 -111.955)" fill="#333" fill-rule="evenodd"/>
                  </g>
                </g>
                <g id="Grupo_1224590" data-name="Grupo 1224590" transform="translate(0 30.997)">
                  <g id="Grupo_1224589" data-name="Grupo 1224589">
                    <path id="Trazado_1055172" data-name="Trazado 1055172" d="M79.933,293.223H59.144a2.967,2.967,0,0,1-2.964-2.964v-5.515a.842.842,0,0,1,.842-.842,2.552,2.552,0,1,0,0-5.1.842.842,0,0,1-.842-.842v-8.485a.842.842,0,0,1,.842-.842h8.485a.842.842,0,0,1,.831.706l.166,1.015.02.053.026.065c.017.04.033.076.05.109l.029.058q.022.044.05.093l.113.181c.02.029.041.058.064.09l.037.048c.023.03.05.062.077.093l0,0,.037.042.073.077.013.012c.035.035.072.069.109.1l.011.01.032.028.01.008c.044.037.089.073.137.108l.081.057c.052.035.1.067.155.1s.073.041.109.059l.058.029.11.05.058.024c.042.017.08.031.116.043a2.573,2.573,0,0,0,1.638,0c.035-.012.072-.026.113-.042l.065-.026c.04-.017.076-.034.109-.049l.059-.029.093-.05.181-.113.088-.063c.031-.023.063-.049.1-.075s.066-.056.092-.08.065-.06.09-.086.054-.055.086-.091.05-.056.079-.092.052-.066.076-.1.048-.066.069-.1c.037-.055.069-.106.1-.157s.041-.073.059-.108l.029-.058c.015-.032.032-.069.05-.11l.024-.059c.016-.042.03-.08.043-.116a2.55,2.55,0,0,0,.134-.819.842.842,0,0,1,.842-.842h7.637a.842.842,0,1,1,0,1.685H73.054a4.189,4.189,0,0,1-.139.516c-.021.063-.045.127-.072.195l-.037.09,0,.009c-.028.066-.056.126-.083.184l-.044.089c-.031.061-.063.12-.1.182-.05.087-.1.172-.162.26-.036.054-.075.108-.117.166s-.082.107-.125.159l-.005.006c-.047.056-.089.105-.131.15l0,0c-.049.054-.094.1-.137.144s-.088.087-.143.137l0,0c-.045.041-.094.083-.15.13l-.006.005c-.053.043-.105.084-.156.123l0,0c-.057.043-.112.081-.166.118l-.024.016-.208.13-.027.016c-.061.035-.12.067-.179.1l-.089.044c-.06.029-.12.056-.186.085l-.015.006-.077.031-.008,0c-.068.027-.132.05-.2.072a4.256,4.256,0,0,1-2.717,0c-.063-.021-.127-.045-.195-.072l-.091-.037-.009,0c-.066-.028-.127-.056-.184-.084l-.089-.044c-.062-.032-.121-.063-.182-.1-.087-.05-.172-.1-.26-.162-.05-.034-.093-.064-.135-.095-.076-.055-.152-.116-.225-.177-.03-.025-.06-.05-.089-.077-.055-.049-.11-.1-.162-.152l-.017-.016c-.043-.043-.088-.09-.137-.144l-.072-.081c-.044-.05-.086-.1-.127-.154l0,0-.059-.077c-.045-.06-.083-.114-.12-.169l-.016-.024-.13-.208-.016-.027c-.035-.061-.067-.12-.1-.18l-.044-.089c-.029-.06-.056-.121-.085-.186l-.006-.015-.031-.077,0-.008c-.027-.068-.05-.132-.072-.2a.843.843,0,0,1-.033-.134l-.063-.382H57.865V277.2a4.238,4.238,0,0,1,0,8.307v4.756a1.281,1.281,0,0,0,1.279,1.279H79.933a.842.842,0,1,1,0,1.685Z" transform="translate(-56.18 -268.627)" fill="#333" fill-rule="evenodd"/>
                  </g>
                </g>
                <g id="Grupo_1224592" data-name="Grupo 1224592" transform="translate(26.303 42.764)">
                  <g id="Grupo_1224591" data-name="Grupo 1224591">
                    <path id="Trazado_1055173" data-name="Trazado 1055173" d="M236.891,350.816a.842.842,0,0,1-.842-.819v-.018a.842.842,0,1,1,1.682-.092c0,.021,0,.042,0,.063a.843.843,0,0,1-.819.865Z" transform="translate(-236.047 -349.09)" fill="#333" fill-rule="evenodd"/>
                  </g>
                </g>
                <g id="Grupo_1224594" data-name="Grupo 1224594" transform="translate(26.295 42.615)">
                  <g id="Grupo_1224593" data-name="Grupo 1224593">
                    <path id="Trazado_1055174" data-name="Trazado 1055174" d="M236.842,349.843a.842.842,0,0,1-.84-.8c0-.019,0-.038,0-.056a.842.842,0,1,1,1.679-.138c0,.034,0,.069.007.1a.842.842,0,0,1-.8.886h-.046Z" transform="translate(-235.995 -348.078)" fill="#333" fill-rule="evenodd"/>
                  </g>
                </g>
                <g id="Grupo_1224596" data-name="Grupo 1224596" transform="translate(26.244 42.234)">
                  <g id="Grupo_1224595" data-name="Grupo 1224595">
                    <path id="Trazado_1055175" data-name="Trazado 1055175" d="M236.508,347.282a.843.843,0,0,1-.831-.714c0-.021-.007-.041-.01-.061l0-.016,0-.024a.842.842,0,1,1,1.657-.305v.006c0,.015.006.031.008.046.006.032.011.064.016.1a.843.843,0,0,1-.834.971Zm-.844-.789h0Z" transform="translate(-235.645 -345.472)" fill="#333" fill-rule="evenodd"/>
                  </g>
                </g>
                <g id="Grupo_1224598" data-name="Grupo 1224598" transform="translate(26.152 41.867)">
                  <g id="Grupo_1224597" data-name="Grupo 1224597">
                    <path id="Trazado_1055176" data-name="Trazado 1055176" d="M235.906,344.809a.843.843,0,0,1-.816-.635c-.009-.034-.02-.073-.035-.122a.842.842,0,1,1,1.611-.493c.023.075.041.139.057.2a.842.842,0,0,1-.817,1.049Z" transform="translate(-235.018 -342.963)" fill="#333" fill-rule="evenodd"/>
                  </g>
                </g>
                <g id="Grupo_1224600" data-name="Grupo 1224600" transform="translate(25.855 41.187)">
                  <g id="Grupo_1224599" data-name="Grupo 1224599">
                    <path id="Trazado_1055177" data-name="Trazado 1055177" d="M233.909,340.141a.842.842,0,0,1-.75-.457c-.02-.038-.04-.076-.06-.111a.842.842,0,0,1,1.462-.837c.033.057.065.117.1.177a.843.843,0,0,1-.748,1.228Z" transform="translate(-232.987 -338.312)" fill="#333" fill-rule="evenodd"/>
                  </g>
                </g>
                <g id="Grupo_1224602" data-name="Grupo 1224602" transform="translate(25.631 40.846)">
                  <g id="Grupo_1224601" data-name="Grupo 1224601">
                    <path id="Trazado_1055178" data-name="Trazado 1055178" d="M232.389,337.8a.841.841,0,0,1-.7-.372c-.022-.032-.045-.065-.069-.1a.842.842,0,1,1,1.347-1.011c.042.056.082.112.12.169a.842.842,0,0,1-.7,1.312Z" transform="translate(-231.452 -335.979)" fill="#333" fill-rule="evenodd"/>
                  </g>
                </g>
                <g id="Grupo_1224604" data-name="Grupo 1224604" transform="translate(25.423 40.595)">
                  <g id="Grupo_1224603" data-name="Grupo 1224603">
                    <path id="Trazado_1055179" data-name="Trazado 1055179" d="M230.983,336.066a.841.841,0,0,1-.649-.305c-.026-.032-.054-.063-.081-.093a.842.842,0,0,1,1.246-1.134c.045.049.09.1.133.153a.842.842,0,0,1-.648,1.379Z" transform="translate(-230.033 -334.258)" fill="#333" fill-rule="evenodd"/>
                  </g>
                </g>
                <g id="Grupo_1224606" data-name="Grupo 1224606" transform="translate(24.232 39.749)">
                  <g id="Grupo_1224605" data-name="Grupo 1224605">
                    <path id="Trazado_1055180" data-name="Trazado 1055180" d="M223.807,330.89a.839.839,0,0,1-.47-.144l-1.079-.728a.842.842,0,1,1,.942-1.4l1.079.728a.842.842,0,0,1-.472,1.541Z" transform="translate(-221.887 -328.478)" fill="#333" fill-rule="evenodd"/>
                  </g>
                </g>
                <g id="Grupo_1224608" data-name="Grupo 1224608" transform="translate(23.759 39.589)">
                  <g id="Grupo_1224607" data-name="Grupo 1224607">
                    <path id="Trazado_1055181" data-name="Trazado 1055181" d="M219.656,329.115a.845.845,0,0,1-.249-.038c-.041-.012-.082-.024-.124-.035a.842.842,0,1,1,.424-1.63c.066.017.133.036.2.056a.842.842,0,0,1-.248,1.647Z" transform="translate(-218.652 -327.384)" fill="#333" fill-rule="evenodd"/>
                  </g>
                </g>
                <g id="Grupo_1224610" data-name="Grupo 1224610" transform="translate(23.428 39.522)">
                  <g id="Grupo_1224609" data-name="Grupo 1224609">
                    <path id="Trazado_1055182" data-name="Trazado 1055182" d="M217.48,328.654a.847.847,0,0,1-.185-.02l-.059-.013-.078-.015-.058-.01a.842.842,0,1,1,.26-1.664l.106.018h.006l.083.016h0l.1.022a.842.842,0,0,1-.183,1.664Z" transform="translate(-216.387 -326.922)" fill="#333" fill-rule="evenodd"/>
                  </g>
                </g>
                <g id="Grupo_1224612" data-name="Grupo 1224612" transform="translate(23.258 39.5)">
                  <g id="Grupo_1224611" data-name="Grupo 1224611">
                    <path id="Trazado_1055183" data-name="Trazado 1055183" d="M216.153,328.466a.85.85,0,0,1-.109-.007l-.064-.007a.842.842,0,0,1,.173-1.676l.106.012a.842.842,0,0,1-.106,1.678Z" transform="translate(-215.224 -326.771)" fill="#333" fill-rule="evenodd"/>
                  </g>
                </g>
                <g id="Grupo_1224614" data-name="Grupo 1224614" transform="translate(23.056 39.486)">
                  <g id="Grupo_1224613" data-name="Grupo 1224613">
                    <path id="Trazado_1055184" data-name="Trazado 1055184" d="M214.835,328.37l-.063,0-.029,0h-.009l-.036,0h-.044a.842.842,0,1,1,.071-1.683l.064,0,.082.006.025,0a.842.842,0,0,1-.061,1.682Z" transform="translate(-213.847 -326.676)" fill="#333" fill-rule="evenodd"/>
                  </g>
                </g>
                <g id="Grupo_1224616" data-name="Grupo 1224616" transform="translate(22.983 39.483)">
                  <g id="Grupo_1224615" data-name="Grupo 1224615">
                    <path id="Trazado_1055185" data-name="Trazado 1055185" d="M214.229,328.346h-.065a.842.842,0,1,1,.047-1.684h0l.058,0a.842.842,0,0,1-.044,1.683Z" transform="translate(-213.346 -326.66)" fill="#333" fill-rule="evenodd"/>
                  </g>
                </g>
                <g id="Grupo_1224618" data-name="Grupo 1224618" transform="translate(22.911 27.603)">
                  <g id="Grupo_1224617" data-name="Grupo 1224617">
                    <path id="Trazado_1055186" data-name="Trazado 1055186" d="M234.484,273.408h-5.515a.842.842,0,0,1-.842-.842,2.552,2.552,0,1,0-5.1,0,.842.842,0,0,1-.842.842h-8.485a.842.842,0,0,1-.842-.842v-7.637a.842.842,0,0,1,.842-.842,2.555,2.555,0,0,0,2.552-2.552c0-.018,0-.036,0-.053v-.014c0-.011,0-.021,0-.032s0-.026,0-.039,0-.041,0-.062h0c0-.063-.012-.126-.022-.188-.005-.033-.011-.065-.016-.094v0c-.009-.048-.02-.1-.034-.152s-.021-.08-.034-.119a2.53,2.53,0,0,0-.164-.4c-.019-.037-.038-.072-.06-.111-.031-.054-.063-.105-.1-.153s-.049-.07-.072-.1-.05-.065-.077-.1-.053-.062-.079-.092-.056-.06-.085-.089a2.54,2.54,0,0,0-.811-.548c-.078-.033-.157-.062-.234-.086-.039-.012-.077-.023-.117-.033l-.008,0-.054-.013h-.006c-.061-.014-.122-.026-.183-.035L214.02,259l-.062-.007-.039,0-.067,0h-.158a.842.842,0,0,1-.842-.842v-8.485a.842.842,0,0,1,.842-.842h6.878a4.238,4.238,0,0,1,8.307,0h7.726a.842.842,0,0,1,.842.842v20.789A2.967,2.967,0,0,1,234.484,273.408Zm-4.756-1.685h4.756a1.281,1.281,0,0,0,1.279-1.279V250.5H228.12a.842.842,0,0,1-.842-.842,2.552,2.552,0,1,0-5.1,0,.842.842,0,0,1-.842.842h-6.795v6.885l.113.025.089.022.009,0h0c.071.018.14.038.206.058.125.039.256.087.385.141a4.22,4.22,0,0,1,1.349.909c.048.048.095.1.139.146s.089.1.133.153l0,0c.043.053.085.106.123.157s.078.107.118.166c.055.081.11.168.162.26.037.064.068.123.1.181a4.207,4.207,0,0,1,.273.668c.021.068.041.137.058.205.022.087.041.171.057.255.01.049.018.1.027.154.016.106.029.214.037.322v.011c0,.029,0,.058.006.087,0,0,0,0,0,0,0,.027,0,.053,0,.08s0,.031,0,.046,0,.008,0,.011c0,.028,0,.057,0,.085a4.244,4.244,0,0,1-3.394,4.152v6.036h6.884a4.238,4.238,0,0,1,8.307,0Z" transform="translate(-212.852 -245.418)" fill="#333" fill-rule="evenodd"/>
                  </g>
                </g>
                <g id="Grupo_1224620" data-name="Grupo 1224620" transform="translate(37.736 6.249)">
                  <g id="Grupo_1224619" data-name="Grupo 1224619">
                    <path id="Trazado_1055187" data-name="Trazado 1055187" d="M321.984,109.2a.842.842,0,0,1-.392-.1l-2.249-1.182-2.248,1.182a.842.842,0,0,1-1.222-.888l.43-2.5-1.819-1.773a.842.842,0,0,1,.467-1.437l2.514-.365,1.124-2.278a.842.842,0,0,1,1.511,0l1.124,2.278,2.514.365a.842.842,0,0,1,.467,1.437l-1.819,1.773.429,2.5a.842.842,0,0,1-.83.985Zm-2.641-3.073a.842.842,0,0,1,.392.1l1.13.594-.216-1.258a.842.842,0,0,1,.242-.746l.914-.891-1.263-.184a.843.843,0,0,1-.634-.461l-.565-1.145-.565,1.145a.842.842,0,0,1-.634.461l-1.263.184.914.891a.843.843,0,0,1,.242.746l-.216,1.258,1.13-.594A.837.837,0,0,1,319.343,106.129Z" transform="translate(-314.228 -99.391)" fill="#333" fill-rule="evenodd"/>
                  </g>
                </g>
                <g id="Grupo_1224622" data-name="Grupo 1224622" transform="translate(8.086 17.071)">
                  <g id="Grupo_1224621" data-name="Grupo 1224621">
                    <path id="Trazado_1055188" data-name="Trazado 1055188" d="M115.912,182.268a4.436,4.436,0,1,1,4.436-4.436A4.441,4.441,0,0,1,115.912,182.268Zm0-7.188a2.752,2.752,0,1,0,2.752,2.752A2.755,2.755,0,0,0,115.912,175.081Z" transform="translate(-111.476 -173.396)" fill="#333" fill-rule="evenodd"/>
                  </g>
                </g>
                <g id="Grupo_1224624" data-name="Grupo 1224624" transform="translate(8.086 39.533)">
                  <g id="Grupo_1224623" data-name="Grupo 1224623">
                    <path id="Trazado_1055189" data-name="Trazado 1055189" d="M119.506,335.868h-7.188a.842.842,0,0,1-.842-.842v-7.188a.842.842,0,0,1,.842-.842h7.188a.842.842,0,0,1,.842.842v7.188A.842.842,0,0,1,119.506,335.868Zm-6.345-1.685h5.5v-5.5h-5.5Z" transform="translate(-111.476 -326.996)" fill="#333" fill-rule="evenodd"/>
                  </g>
                </g>
                <g id="Grupo_1224626" data-name="Grupo 1224626" transform="translate(30.548 36.837)">
                  <g id="Grupo_1224625" data-name="Grupo 1224625">
                    <path id="Trazado_1055190" data-name="Trazado 1055190" d="M273.7,316.987H265.92a.842.842,0,0,1-.729-1.263l3.891-6.739a.842.842,0,0,1,1.459,0l3.89,6.739a.842.842,0,0,1-.73,1.263Zm-6.322-1.685h4.863l-2.431-4.212Z" transform="translate(-265.077 -308.564)" fill="#333" fill-rule="evenodd"/>
                  </g>
                </g>
              </g>
            </g>
          </g>
        </g>
      </g>
    </g>
  </g>
</svg>
