<svg xmlns="http://www.w3.org/2000/svg" xmlns:xlink="http://www.w3.org/1999/xlink" width="113" height="113" viewBox="0 0 113 113">
  <defs>
    <filter id="Trazado_982547" x="0" y="0" width="113" height="113" filterUnits="userSpaceOnUse">
      <feOffset dy="3" input="SourceAlpha"/>
      <feGaussianBlur stdDeviation="3" result="blur"/>
      <feFlood flood-opacity="0.161"/>
      <feComposite operator="in" in2="blur"/>
      <feComposite in="SourceGraphic"/>
    </filter>
  </defs>
  <g id="Grupo_1224647" data-name="Grupo 1224647" transform="translate(-585.509 -2813.996)">
    <g id="Grupo_1224292" data-name="Grupo 1224292" transform="translate(0 859.245)">
      <g id="Grupo_1224092" data-name="Grupo 1224092" transform="translate(-88.49 -2620.317)">
        <g id="Grupo_1223184" data-name="Grupo 1223184" transform="translate(683 4581.069)">
          <g id="Grupo_1211216" data-name="Grupo 1211216" transform="translate(0)">
            <g id="Grupo_1210737" data-name="Grupo 1210737">
              <g id="Grupo_1210537" data-name="Grupo 1210537">
                <g id="Grupo_1164202" data-name="Grupo 1164202">
                  <g id="Grupo_1158168" data-name="Grupo 1158168">
                    <g id="Grupo_1152576" data-name="Grupo 1152576">
                      <g id="Grupo_1148633" data-name="Grupo 1148633">
                        <g id="Grupo_1148525" data-name="Grupo 1148525">
                          <g transform="matrix(1, 0, 0, 1, -9, -6)" filter="url(#Trazado_982547)">
                            <g id="Trazado_982547-2" data-name="Trazado 982547" transform="translate(9 6)" fill="#fdfbec">
                              <path d="M 47.49999618530273 93.5 C 41.28936767578125 93.5 35.26533126831055 92.28396606445312 29.59518241882324 89.88570404052734 C 24.11771583557129 87.56893157958984 19.19812965393066 84.251953125 14.97308921813965 80.02690124511719 C 10.74803638458252 75.80186462402344 7.431062698364258 70.88227844238281 5.114289283752441 65.40480804443359 C 2.716022968292236 59.73466110229492 1.499996185302734 53.71062469482422 1.499996185302734 47.49999618530273 C 1.499996185302734 41.28936767578125 2.716022968292236 35.26533126831055 5.114289283752441 29.59518241882324 C 7.431062698364258 24.11771583557129 10.74803638458252 19.19812965393066 14.97308921813965 14.97308921813965 C 19.19812965393066 10.74803638458252 24.11771583557129 7.431062698364258 29.59518241882324 5.114289283752441 C 35.26533126831055 2.716022968292236 41.28936767578125 1.499996185302734 47.49999618530273 1.499996185302734 C 53.71062469482422 1.499996185302734 59.73466110229492 2.716022968292236 65.40480804443359 5.114289283752441 C 70.88227844238281 7.431062698364258 75.80186462402344 10.74803638458252 80.02690124511719 14.97308921813965 C 84.251953125 19.19812965393066 87.56893157958984 24.11771583557129 89.88570404052734 29.59518241882324 C 92.28396606445312 35.26533126831055 93.5 41.28936767578125 93.5 47.49999618530273 C 93.5 53.71062469482422 92.28396606445312 59.73466110229492 89.88570404052734 65.40480804443359 C 87.56893157958984 70.88227844238281 84.251953125 75.80186462402344 80.02690124511719 80.02690124511719 C 75.80186462402344 84.251953125 70.88227844238281 87.56893157958984 65.40480804443359 89.88570404052734 C 59.73466110229492 92.28396606445312 53.71062469482422 93.5 47.49999618530273 93.5 Z" stroke="none"/>
                              <path d="M 47.49999618530273 2.999992370605469 C 41.4912109375 2.999992370605469 35.66376495361328 4.1761474609375 30.17950439453125 6.495796203613281 C 24.88084411621094 8.736953735351562 20.12152099609375 11.94598388671875 16.03375244140625 16.03375244140625 C 11.94598388671875 20.12152099609375 8.736953735351562 24.88084411621094 6.495796203613281 30.17950439453125 C 4.1761474609375 35.66376495361328 2.999992370605469 41.4912109375 2.999992370605469 47.49999618530273 C 2.999992370605469 53.50878143310547 4.1761474609375 59.33622741699219 6.495796203613281 64.82048797607422 C 8.736953735351562 70.11914825439453 11.94598388671875 74.87847137451172 16.03375244140625 78.96623992919922 C 20.12152099609375 83.05400848388672 24.88084411621094 86.26304626464844 30.17950439453125 88.50419616699219 C 35.66376495361328 90.82384490966797 41.4912109375 92 47.49999618530273 92 C 53.50878143310547 92 59.33622741699219 90.82384490966797 64.82048797607422 88.50419616699219 C 70.11914825439453 86.26304626464844 74.87847137451172 83.05400848388672 78.96623992919922 78.96623992919922 C 83.05400848388672 74.87847137451172 86.26304626464844 70.11914825439453 88.50419616699219 64.82048797607422 C 90.82384490966797 59.33622741699219 92 53.50878143310547 92 47.49999618530273 C 92 41.4912109375 90.82384490966797 35.66376495361328 88.50419616699219 30.17950439453125 C 86.26304626464844 24.88084411621094 83.05400848388672 20.12152099609375 78.96623992919922 16.03375244140625 C 74.87847137451172 11.94598388671875 70.11914825439453 8.736953735351562 64.82048797607422 6.495796203613281 C 59.33622741699219 4.1761474609375 53.50878143310547 2.999992370605469 47.49999618530273 2.999992370605469 M 47.49999618530273 -7.62939453125e-06 C 73.7335205078125 -7.62939453125e-06 95 21.26647186279297 95 47.49999618530273 C 95 73.7335205078125 73.7335205078125 95 47.49999618530273 95 C 21.26647186279297 95 -7.62939453125e-06 73.7335205078125 -7.62939453125e-06 47.49999618530273 C -7.62939453125e-06 21.26647186279297 21.26647186279297 -7.62939453125e-06 47.49999618530273 -7.62939453125e-06 Z" stroke="none" fill="#83793c"/>
                            </g>
                          </g>
                        </g>
                      </g>
                    </g>
                  </g>
                </g>
              </g>
            </g>
          </g>
        </g>
      </g>
    </g>
    <g id="doctors-office_13197110" transform="translate(605.49 2830.485)">
      <g id="Grupo_1224644" data-name="Grupo 1224644" transform="translate(7.499 7.5)">
        <path id="Trazado_1055246" data-name="Trazado 1055246" d="M72.886,376.571v12.52H31.743a1.782,1.782,0,0,1-1.782-1.782V376.571Z" transform="translate(-27.293 -332.736)" fill="#db9e82"/>
        <path id="Trazado_1055247" data-name="Trazado 1055247" d="M39.3,389.091H31.744a1.782,1.782,0,0,1-1.782-1.782V376.571h5.22c1.768.982,3.209,1.789,3.209,1.789l.015,9.439A1.446,1.446,0,0,0,39.3,389.091Z" transform="translate(-27.294 -332.736)" fill="#c8866a"/>
        <path id="Trazado_1055248" data-name="Trazado 1055248" d="M66.613,198.942v8.048H45.151v-8.048a10.731,10.731,0,1,1,21.462,0Z" transform="translate(-40.679 -166.748)" fill="#76e7d6"/>
        <path id="Trazado_1055249" data-name="Trazado 1055249" d="M55.883,195.357s-4.092,2.09-4.092,9.829v5.372h-6.64v-8.048a10.735,10.735,0,0,1,7.545-10.25C54.561,194.075,55.883,195.357,55.883,195.357Z" transform="translate(-40.679 -170.317)" fill="#00ddc4"/>
        <path id="Trazado_1055250" data-name="Trazado 1055250" d="M32.045,24.268H13.36c-6.26,0-8.049-8.049-2.683-13.415A11.074,11.074,0,0,1,18.825,7.5a12.531,12.531,0,0,1,3,.4,3.5,3.5,0,0,0,1.758,0,11.426,11.426,0,0,1,11.147,2.956C40.094,16.219,38.306,24.268,32.045,24.268Z" transform="translate(-7.5 -7.5)" fill="#db9e82"/>
        <path id="Trazado_1055251" data-name="Trazado 1055251" d="M16.328,24.273H13.359c-6.26,0-8.049-8.049-2.683-13.415a11.074,11.074,0,0,1,8.148-3.352C17.759,9.63,14.332,17.282,16.328,24.273Z" transform="translate(-7.499 -7.505)" fill="#c8866a"/>
        <circle id="Elipse_13560" data-name="Elipse 13560" cx="1.789" cy="1.789" r="1.789" transform="translate(8.049 29.511)" fill="#f8f8ff"/>
        <path id="Trazado_1055252" data-name="Trazado 1055252" d="M63.991,73.388A11.626,11.626,0,0,1,52.367,85.014l-7.26-2.563h0a11.7,11.7,0,0,1-3.943-5.977l4.317-6.352a13.361,13.361,0,0,0,5.744-2.657,1.77,1.77,0,0,1,2.286,0c1.339,1.134,4.008,2.7,8.8,3.13a1.774,1.774,0,0,1,1.62,1.567A11.623,11.623,0,0,1,63.991,73.388Z" transform="translate(-37.163 -59.974)" fill="#ffddcf"/>
        <path id="Trazado_1055253" data-name="Trazado 1055253" d="M49.246,107.834c-.089,0-.178,0-.268,0a11.663,11.663,0,0,1-11.358-11.7q0-.565.059-1.115a1.793,1.793,0,0,1,1.626-1.6,22.658,22.658,0,0,0,3.052-.473c-.492,5.112.7,10.955,6.886,14.891Z" transform="translate(-34.042 -82.793)" fill="#ffcbbe"/>
        <path id="Trazado_1055254" data-name="Trazado 1055254" d="M54.9,333.043v3.592a1.782,1.782,0,0,1-1.782,1.782h-34.5l-5.247-.614-3.2.614H9.283A1.782,1.782,0,0,1,7.5,336.634v-3.592a1.782,1.782,0,0,1,1.782-1.782h2.69l2.866.385,3.775-.385h34.5A1.782,1.782,0,0,1,54.9,333.043Z" transform="translate(-7.501 -292.808)" fill="#c8866a"/>
        <path id="Trazado_1055255" data-name="Trazado 1055255" d="M18.614,338.416H9.284A1.782,1.782,0,0,1,7.5,336.634v-3.592a1.782,1.782,0,0,1,1.782-1.782h9.331a1.65,1.65,0,0,0-1.274,1.67v3.875A1.737,1.737,0,0,0,18.614,338.416Z" transform="translate(-7.502 -292.808)" fill="#b07058"/>
        <path id="Trazado_1055256" data-name="Trazado 1055256" d="M300.023,387.172v2.683H278.561v-2.683a10.733,10.733,0,0,1,.339-2.682L281.306,380a10.731,10.731,0,0,1,18.717,7.168Z" transform="translate(-246.367 -332.622)" fill="#928ea2"/>
        <path id="Trazado_1055257" data-name="Trazado 1055257" d="M286.688,390.085s-1.806,1.766-1.806,6.194c0,1.792-1.993,2.954-4.512,3.657h-1.809v-2.683a10.727,10.727,0,0,1,5.5-9.372Z" transform="translate(-246.367 -342.703)" fill="#75718c"/>
        <path id="Trazado_1055258" data-name="Trazado 1055258" d="M288.541,208.252v8.942a3.563,3.563,0,0,1-3.563,3.563h-11.56l-6.405-1.479-3.511-7.45v-3.576a12.519,12.519,0,0,1,12.442-12.52h.077a12.52,12.52,0,0,1,12.52,12.521Z" transform="translate(-233.096 -173.375)" fill="#fce3a0"/>
        <path id="Trazado_1055259" data-name="Trazado 1055259" d="M271.741,218.823a2.084,2.084,0,0,0,1.676,1.943h-6.353A3.563,3.563,0,0,1,263.5,217.2v-8.942a12.519,12.519,0,0,1,12.442-12.52c-1.2,1.163-4.2,5-4.2,14.347Z" transform="translate(-233.096 -173.384)" fill="#f9d171"/>
        <path id="Trazado_1055260" data-name="Trazado 1055260" d="M277.057,445.993v3.59a1.781,1.781,0,0,1-1.782,1.782H250.223a1.782,1.782,0,0,1-1.782-1.782V448.7l2.358-3.415,7.637-1.071h16.84A1.781,1.781,0,0,1,277.057,445.993Z" transform="translate(-219.824 -392.343)" fill="#f8f8ff"/>
        <path id="Trazado_1055261" data-name="Trazado 1055261" d="M258.437,451.365h-8.213a1.782,1.782,0,0,1-1.782-1.782v-3.59a1.781,1.781,0,0,1,1.782-1.782h8.213a1.47,1.47,0,0,0-1.037,1.6v4.139A1.472,1.472,0,0,0,258.437,451.365Z" transform="translate(-219.825 -392.343)" fill="#eeecff"/>
        <path id="Trazado_1055262" data-name="Trazado 1055262" d="M335.434,16.443c0,4.64-4.24,8.455-9.668,8.9-.349.03-.7.044-1.063.044a12.4,12.4,0,0,1-5.193-1.115,1.756,1.756,0,0,0-1.152-.106l-4.6,1.122a.89.89,0,0,1-.972-1.328l1.716-2.824a1.782,1.782,0,0,0,.108-1.64,7.62,7.62,0,0,1-.641-3.052c0-4.769,4.481-8.667,10.126-8.928q.3-.014.606-.014C330.63,7.5,335.434,11.5,335.434,16.443Z" transform="translate(-276.412 -7.501)" fill="#f8f8ff"/>
        <path id="Trazado_1055263" data-name="Trazado 1055263" d="M325.767,25.448c-.349.03-.7.044-1.063.044a12.394,12.394,0,0,1-5.193-1.115,1.756,1.756,0,0,0-1.152-.106l-4.6,1.122a.89.89,0,0,1-.971-1.328l1.716-2.824a1.782,1.782,0,0,0,.108-1.64,7.621,7.621,0,0,1-.641-3.052c0-4.769,4.481-8.667,10.126-8.928C322.561,10.192,317.767,19.592,325.767,25.448Z" transform="translate(-276.412 -7.607)" fill="#eeecff"/>
        <path id="Trazado_1055264" data-name="Trazado 1055264" d="M388.392,42.979v.014a1.781,1.781,0,0,1-1.782,1.782h-1.2a.594.594,0,0,0-.594.594v1.2a1.782,1.782,0,0,1-1.782,1.782h-.014a1.781,1.781,0,0,1-1.782-1.782v-1.2a.594.594,0,0,0-.594-.594h-.955l-.849-2.347.912-1.23h.892a.594.594,0,0,0,.594-.594V39.4a1.781,1.781,0,0,1,1.782-1.782h.014a1.781,1.781,0,0,1,1.782,1.782v1.2a.594.594,0,0,0,.594.594h1.2A1.781,1.781,0,0,1,388.392,42.979Z" transform="translate(-334.737 -34.044)" fill="#fd7a6e"/>
        <path id="Trazado_1055265" data-name="Trazado 1055265" d="M370.94,71.308h-.247a1.781,1.781,0,0,1-1.782-1.782v-.014a1.782,1.782,0,0,1,1.782-1.782H371A12.674,12.674,0,0,0,370.94,71.308Z" transform="translate(-325.986 -60.577)" fill="#f85647"/>
      </g>
      <g id="Grupo_1224646" data-name="Grupo 1224646" transform="translate(7.499 7.5)">
        <path id="Trazado_1055266" data-name="Trazado 1055266" d="M55.675,404.876h-23.8a1.781,1.781,0,0,1-1.782-1.782V394.5" transform="translate(-27.408 -348.537)" fill="none" stroke="#000" stroke-linecap="round" stroke-linejoin="round" stroke-miterlimit="10" stroke-width="1"/>
        <path id="Trazado_1055267" data-name="Trazado 1055267" d="M45.161,213.586a10.716,10.716,0,0,1,4.5-8.6" transform="translate(-40.688 -181.526)" fill="none" stroke="#000" stroke-linecap="round" stroke-linejoin="round" stroke-miterlimit="10" stroke-width="1"/>
        <line id="Línea_1018" data-name="Línea 1018" y1="1.999" transform="translate(4.472 36.217)" fill="none" stroke="#000" stroke-linecap="round" stroke-linejoin="round" stroke-miterlimit="10" stroke-width="1"/>
        <path id="Trazado_1055268" data-name="Trazado 1055268" d="M188.031,205.041a10.715,10.715,0,0,1,4.492,8.732v6.022" transform="translate(-166.589 -181.579)" fill="none" stroke="#000" stroke-linecap="round" stroke-linejoin="round" stroke-miterlimit="10" stroke-width="1"/>
        <path id="Trazado_1055269" data-name="Trazado 1055269" d="M187.238,202.931a6.72,6.72,0,0,1,.454,3.6,15.068,15.068,0,0,1-.989,2.7" transform="translate(-165.419 -179.72)" fill="none" stroke="#000" stroke-linecap="round" stroke-linejoin="round" stroke-miterlimit="10" stroke-width="1"/>
        <path id="Trazado_1055270" data-name="Trazado 1055270" d="M75.8,202.831a7.4,7.4,0,0,0,.259,6.123" transform="translate(-67.213 -179.631)" fill="none" stroke="#000" stroke-linecap="round" stroke-linejoin="round" stroke-miterlimit="10" stroke-width="1"/>
        <circle id="Elipse_13561" data-name="Elipse 13561" cx="1.789" cy="1.789" r="1.789" transform="translate(8.049 29.511)" fill="none" stroke="#000" stroke-linecap="round" stroke-linejoin="round" stroke-miterlimit="10" stroke-width="1"/>
        <path id="Trazado_1055271" data-name="Trazado 1055271" d="M11.4,23.97c-4.613-1.5-5.475-8.363-.721-13.117A11.425,11.425,0,0,1,21.824,7.9a3.5,3.5,0,0,0,1.758,0,11.426,11.426,0,0,1,11.147,2.956c4.753,4.753,3.893,11.61-.716,13.115" transform="translate(-7.5 -7.5)" fill="none" stroke="#000" stroke-linecap="round" stroke-linejoin="round" stroke-miterlimit="10" stroke-width="1"/>
        <path id="Trazado_1055272" data-name="Trazado 1055272" d="M48.975,85.014A11.659,11.659,0,0,1,37.676,72.2,1.79,1.79,0,0,1,39.3,70.6c4.789-.426,7.459-2,8.8-3.129a1.771,1.771,0,0,1,2.286,0c1.339,1.134,4.008,2.7,8.8,3.13a1.775,1.775,0,0,1,1.62,1.566A11.628,11.628,0,0,1,48.975,85.014Z" transform="translate(-34.039 -59.978)" fill="none" stroke="#000" stroke-linecap="round" stroke-linejoin="round" stroke-miterlimit="10" stroke-width="1"/>
        <path id="Trazado_1055273" data-name="Trazado 1055273" d="M146.282,258.424l.766-1.616a2.683,2.683,0,1,1,4.849,2.3l-.766,1.616" transform="translate(-129.799 -225.845)" fill="none" stroke="#000" stroke-linecap="round" stroke-linejoin="round" stroke-miterlimit="10" stroke-width="1"/>
        <path id="Trazado_1055274" data-name="Trazado 1055274" d="M37.787,331.261H9.283A1.782,1.782,0,0,0,7.5,333.043v3.592a1.782,1.782,0,0,0,1.782,1.782H38.27" transform="translate(-7.501 -292.808)" fill="none" stroke="#000" stroke-linecap="round" stroke-linejoin="round" stroke-miterlimit="10" stroke-width="1"/>
        <path id="Trazado_1055275" data-name="Trazado 1055275" d="M437.881,408.441a10.657,10.657,0,0,1,2.137,4.011" transform="translate(-386.764 -360.821)" fill="none" stroke="#000" stroke-linecap="round" stroke-linejoin="round" stroke-miterlimit="10" stroke-width="1"/>
        <path id="Trazado_1055276" data-name="Trazado 1055276" d="M284.086,408.441a10.7,10.7,0,0,0-2.135,4.011" transform="translate(-249.354 -360.821)" fill="none" stroke="#000" stroke-linecap="round" stroke-linejoin="round" stroke-miterlimit="10" stroke-width="1"/>
        <path id="Trazado_1055277" data-name="Trazado 1055277" d="M281.36,220.757h3.617a3.563,3.563,0,0,0,3.563-3.563v-8.942a12.52,12.52,0,1,0-25.039,0v8.942a3.563,3.563,0,0,0,3.563,3.563H277.2" transform="translate(-233.096 -173.375)" fill="none" stroke="#000" stroke-linecap="round" stroke-linejoin="round" stroke-miterlimit="10" stroke-width="1"/>
        <path id="Trazado_1055278" data-name="Trazado 1055278" d="M275.277,451.361H250.224a1.782,1.782,0,0,1-1.782-1.782v-3.591a1.782,1.782,0,0,1,1.782-1.782h25.054a1.782,1.782,0,0,1,1.782,1.782v3.591A1.782,1.782,0,0,1,275.277,451.361Z" transform="translate(-219.825 -392.339)" fill="none" stroke="#000" stroke-linecap="round" stroke-linejoin="round" stroke-miterlimit="10" stroke-width="1"/>
        <path id="Trazado_1055279" data-name="Trazado 1055279" d="M332.654,10.437a8.15,8.15,0,0,1,2.78,6.006c0,4.94-4.8,8.943-10.731,8.943a12.394,12.394,0,0,1-5.193-1.115,1.756,1.756,0,0,0-1.152-.106l-4.6,1.122a.89.89,0,0,1-.972-1.328l1.716-2.824a1.782,1.782,0,0,0,.108-1.64C312.1,13.711,317.214,7.5,324.7,7.5a12.532,12.532,0,0,1,4.395.782" transform="translate(-276.413 -7.501)" fill="none" stroke="#000" stroke-linecap="round" stroke-linejoin="round" stroke-miterlimit="10" stroke-width="1"/>
        <path id="Trazado_1055280" data-name="Trazado 1055280" d="M379.645,42.976a1.781,1.781,0,0,1-1.782,1.8h-1.2a.594.594,0,0,0-.594.594v1.2a1.789,1.789,0,0,1-3.577,0v-1.2a.594.594,0,0,0-.594-.594h-1.2a1.789,1.789,0,0,1,0-3.577h1.2a.594.594,0,0,0,.594-.594V39.4a1.789,1.789,0,0,1,3.577,0v1.2a.594.594,0,0,0,.594.594h1.2A1.782,1.782,0,0,1,379.645,42.976Z" transform="translate(-325.989 -34.041)" fill="none" stroke="#000" stroke-linecap="round" stroke-linejoin="round" stroke-miterlimit="10" stroke-width="1"/>
        <g id="Grupo_1224645" data-name="Grupo 1224645" transform="translate(7.786 14.718)">
          <line id="Línea_1019" data-name="Línea 1019" y2="1.425" fill="none" stroke="#000" stroke-linecap="round" stroke-linejoin="round" stroke-miterlimit="10" stroke-width="1"/>
          <line id="Línea_1020" data-name="Línea 1020" y2="1.425" transform="translate(14.834)" fill="none" stroke="#000" stroke-linecap="round" stroke-linejoin="round" stroke-miterlimit="10" stroke-width="1"/>
          <path id="Trazado_1055281" data-name="Trazado 1055281" d="M119.037,143.062a2.592,2.592,0,0,0,3.911,0" transform="translate(-113.575 -141.679)" fill="none" stroke="#000" stroke-linecap="round" stroke-linejoin="round" stroke-miterlimit="10" stroke-width="1"/>
        </g>
      </g>
    </g>
  </g>
</svg>
