<svg xmlns="http://www.w3.org/2000/svg" xmlns:xlink="http://www.w3.org/1999/xlink" width="113" height="113" viewBox="0 0 113 113">
  <defs>
    <filter id="Trazado_982547" x="0" y="0" width="113" height="113" filterUnits="userSpaceOnUse">
      <feOffset dy="3" input="SourceAlpha"/>
      <feGaussianBlur stdDeviation="3" result="blur"/>
      <feFlood flood-opacity="0.161"/>
      <feComposite operator="in" in2="blur"/>
      <feComposite in="SourceGraphic"/>
    </filter>
    <clipPath id="clip-path">
      <path id="path141" d="M0-682.665H69.869V-612.8H0Z" transform="translate(0 682.665)"/>
    </clipPath>
  </defs>
  <g id="Grupo_1224648" data-name="Grupo 1224648" transform="translate(-900.509 -2813.996)">
    <g id="Grupo_1224293" data-name="Grupo 1224293" transform="translate(0 859.245)">
      <g id="Grupo_1224093" data-name="Grupo 1224093" transform="translate(226.51 -2620.317)">
        <g id="Grupo_1223184" data-name="Grupo 1223184" transform="translate(683 4581.069)">
          <g id="Grupo_1211216" data-name="Grupo 1211216" transform="translate(0)">
            <g id="Grupo_1210737" data-name="Grupo 1210737">
              <g id="Grupo_1210537" data-name="Grupo 1210537">
                <g id="Grupo_1164202" data-name="Grupo 1164202">
                  <g id="Grupo_1158168" data-name="Grupo 1158168">
                    <g id="Grupo_1152576" data-name="Grupo 1152576">
                      <g id="Grupo_1148633" data-name="Grupo 1148633">
                        <g id="Grupo_1148525" data-name="Grupo 1148525">
                          <g transform="matrix(1, 0, 0, 1, -9, -6)" filter="url(#Trazado_982547)">
                            <g id="Trazado_982547-2" data-name="Trazado 982547" transform="translate(9 6)" fill="#fdfbec">
                              <path d="M 47.49999618530273 93.5 C 41.28936767578125 93.5 35.26533126831055 92.28396606445312 29.59518241882324 89.88570404052734 C 24.11771583557129 87.56893157958984 19.19812965393066 84.251953125 14.97308921813965 80.02690124511719 C 10.74803638458252 75.80186462402344 7.431062698364258 70.88227844238281 5.114289283752441 65.40480804443359 C 2.716022968292236 59.73466110229492 1.499996185302734 53.71062469482422 1.499996185302734 47.49999618530273 C 1.499996185302734 41.28936767578125 2.716022968292236 35.26533126831055 5.114289283752441 29.59518241882324 C 7.431062698364258 24.11771583557129 10.74803638458252 19.19812965393066 14.97308921813965 14.97308921813965 C 19.19812965393066 10.74803638458252 24.11771583557129 7.431062698364258 29.59518241882324 5.114289283752441 C 35.26533126831055 2.716022968292236 41.28936767578125 1.499996185302734 47.49999618530273 1.499996185302734 C 53.71062469482422 1.499996185302734 59.73466110229492 2.716022968292236 65.40480804443359 5.114289283752441 C 70.88227844238281 7.431062698364258 75.80186462402344 10.74803638458252 80.02690124511719 14.97308921813965 C 84.251953125 19.19812965393066 87.56893157958984 24.11771583557129 89.88570404052734 29.59518241882324 C 92.28396606445312 35.26533126831055 93.5 41.28936767578125 93.5 47.49999618530273 C 93.5 53.71062469482422 92.28396606445312 59.73466110229492 89.88570404052734 65.40480804443359 C 87.56893157958984 70.88227844238281 84.251953125 75.80186462402344 80.02690124511719 80.02690124511719 C 75.80186462402344 84.251953125 70.88227844238281 87.56893157958984 65.40480804443359 89.88570404052734 C 59.73466110229492 92.28396606445312 53.71062469482422 93.5 47.49999618530273 93.5 Z" stroke="none"/>
                              <path d="M 47.49999618530273 2.999992370605469 C 41.4912109375 2.999992370605469 35.66376495361328 4.1761474609375 30.17950439453125 6.495796203613281 C 24.88084411621094 8.736953735351562 20.12152099609375 11.94598388671875 16.03375244140625 16.03375244140625 C 11.94598388671875 20.12152099609375 8.736953735351562 24.88084411621094 6.495796203613281 30.17950439453125 C 4.1761474609375 35.66376495361328 2.999992370605469 41.4912109375 2.999992370605469 47.49999618530273 C 2.999992370605469 53.50878143310547 4.1761474609375 59.33622741699219 6.495796203613281 64.82048797607422 C 8.736953735351562 70.11914825439453 11.94598388671875 74.87847137451172 16.03375244140625 78.96623992919922 C 20.12152099609375 83.05400848388672 24.88084411621094 86.26304626464844 30.17950439453125 88.50419616699219 C 35.66376495361328 90.82384490966797 41.4912109375 92 47.49999618530273 92 C 53.50878143310547 92 59.33622741699219 90.82384490966797 64.82048797607422 88.50419616699219 C 70.11914825439453 86.26304626464844 74.87847137451172 83.05400848388672 78.96623992919922 78.96623992919922 C 83.05400848388672 74.87847137451172 86.26304626464844 70.11914825439453 88.50419616699219 64.82048797607422 C 90.82384490966797 59.33622741699219 92 53.50878143310547 92 47.49999618530273 C 92 41.4912109375 90.82384490966797 35.66376495361328 88.50419616699219 30.17950439453125 C 86.26304626464844 24.88084411621094 83.05400848388672 20.12152099609375 78.96623992919922 16.03375244140625 C 74.87847137451172 11.94598388671875 70.11914825439453 8.736953735351562 64.82048797607422 6.495796203613281 C 59.33622741699219 4.1761474609375 53.50878143310547 2.999992370605469 47.49999618530273 2.999992370605469 M 47.49999618530273 -7.62939453125e-06 C 73.7335205078125 -7.62939453125e-06 95 21.26647186279297 95 47.49999618530273 C 95 73.7335205078125 73.7335205078125 95 47.49999618530273 95 C 21.26647186279297 95 -7.62939453125e-06 73.7335205078125 -7.62939453125e-06 47.49999618530273 C -7.62939453125e-06 21.26647186279297 21.26647186279297 -7.62939453125e-06 47.49999618530273 -7.62939453125e-06 Z" stroke="none" fill="#83793c"/>
                            </g>
                          </g>
                        </g>
                      </g>
                    </g>
                  </g>
                </g>
              </g>
            </g>
          </g>
        </g>
      </g>
    </g>
    <g id="g135" transform="translate(922.566 3515.227)">
      <g id="g137" transform="translate(0 -682.665)">
        <g id="g139" clip-path="url(#clip-path)">
          <g id="g145" transform="translate(3.912 1.365)">
            <path id="path147" d="M-425-146.838s-9.32,16.742-24.229,16.742-24.229-16.742-24.229-16.742,9.32-16.742,24.229-16.742S-425-146.838-425-146.838" transform="translate(473.46 163.58)" fill="#faf7f5"/>
          </g>
          <g id="g149" transform="translate(3.912 1.365)">
            <path id="path151" d="M-425-146.838s-9.32,16.742-24.229,16.742-24.229-16.742-24.229-16.742,9.32-16.742,24.229-16.742S-425-146.838-425-146.838Z" transform="translate(473.46 163.58)" fill="none" stroke="#000" stroke-linecap="round" stroke-linejoin="round" stroke-miterlimit="10" stroke-width="1.2"/>
          </g>
          <g id="g153" transform="translate(17.382 7.356)">
            <path id="path155" d="M-161.3-96.524a3.518,3.518,0,0,1-3.519-3.517,3.518,3.518,0,0,1,3.519-3.516,3.538,3.538,0,0,1,.79.089,10.742,10.742,0,0,0-8.422-4.061,10.754,10.754,0,0,0-10.758,10.75,10.754,10.754,0,0,0,10.758,10.75,10.754,10.754,0,0,0,10.758-10.75,10.844,10.844,0,0,0-.1-1.466,3.518,3.518,0,0,1-3.026,1.721" transform="translate(179.69 107.529)" fill="#66e0f7"/>
          </g>
          <g id="g157" transform="translate(17.382 7.356)">
            <path id="path159" d="M-161.3-96.524a3.518,3.518,0,0,1-3.519-3.517,3.518,3.518,0,0,1,3.519-3.516,3.538,3.538,0,0,1,.79.089,10.742,10.742,0,0,0-8.422-4.061,10.754,10.754,0,0,0-10.758,10.75,10.754,10.754,0,0,0,10.758,10.75,10.754,10.754,0,0,0,10.758-10.75,10.844,10.844,0,0,0-.1-1.466A3.518,3.518,0,0,1-161.3-96.524Z" transform="translate(179.69 107.529)" fill="none" stroke="#000" stroke-linecap="round" stroke-linejoin="round" stroke-miterlimit="10" stroke-width="1.2"/>
          </g>
          <g id="g161" transform="translate(23.469 13.438)">
            <path id="path163" d="M-40.974-81.889a4.675,4.675,0,0,1-4.672-4.668,4.675,4.675,0,0,1,4.672-4.668A4.675,4.675,0,0,1-36.3-86.557a4.675,4.675,0,0,1-4.672,4.668" transform="translate(45.645 91.225)" fill="#ccf5fc"/>
          </g>
          <g id="g165" transform="translate(23.469 13.438)">
            <path id="path167" d="M-40.974-81.889a4.675,4.675,0,0,1-4.672-4.668,4.675,4.675,0,0,1,4.672-4.668A4.675,4.675,0,0,1-36.3-86.557,4.675,4.675,0,0,1-40.974-81.889Z" transform="translate(45.645 91.225)" fill="none" stroke="#000" stroke-linecap="round" stroke-linejoin="round" stroke-miterlimit="10" stroke-width="1.2"/>
          </g>
          <g id="g169" transform="translate(47.491 28.837)">
            <path id="path171" d="M-138.242-138.241a9.233,9.233,0,0,1-13.058,0,9.233,9.233,0,0,1,0-13.058,9.233,9.233,0,0,1,13.058,0,9.233,9.233,0,0,1,0,13.058" transform="translate(154.004 154.003)" fill="#ff7d97" fill-rule="evenodd"/>
          </g>
          <g id="g173" transform="translate(47.491 28.837)">
            <path id="path175" d="M-138.242-138.241a9.233,9.233,0,0,1-13.058,0,9.233,9.233,0,0,1,0-13.058,9.233,9.233,0,0,1,13.058,0A9.233,9.233,0,0,1-138.242-138.241Z" transform="translate(154.004 154.003)" fill="none" stroke="#000" stroke-linecap="round" stroke-linejoin="round" stroke-miterlimit="10" stroke-width="1.2"/>
          </g>
          <g id="g177" transform="translate(54.239 35.585)">
            <path id="path179" d="M-43.585,0l-4.969,4.969" transform="translate(48.555)" fill="none" stroke="#000" stroke-linecap="round" stroke-linejoin="round" stroke-miterlimit="10" stroke-width="1.2"/>
          </g>
          <g id="g181" transform="translate(54.239 35.585)">
            <path id="path183" d="M0,0,4.969,4.969" fill="none" stroke="#000" stroke-linecap="round" stroke-linejoin="round" stroke-miterlimit="10" stroke-width="1.2"/>
          </g>
          <g id="g185" transform="translate(13.952 35.001)">
            <path id="path187" d="M-149.334-25.408v.249a2.835,2.835,0,0,1,2.783-2.832,2.887,2.887,0,0,1,2.892,2.9V-14.24a3.972,3.972,0,0,1,3.976-3.967,1.7,1.7,0,0,1,1.7,1.7v11q0,.119,0,.237A5.869,5.869,0,0,1-143.109.27l-1.242.111a2.34,2.34,0,0,0-2.133,2.33V5.2h-12.761V2.583A2.34,2.34,0,0,0-161.235.27a5.869,5.869,0,0,1-5.121-5.539q0-.118,0-.237V-21.78a2.887,2.887,0,0,1,2.893-2.9,2.835,2.835,0,0,1,2.783,2.832v-3.014a2.887,2.887,0,0,1,2.892-2.9,2.835,2.835,0,0,1,2.783,2.832v-.55a2.835,2.835,0,0,1,2.783-2.832,2.887,2.887,0,0,1,2.893,2.9" transform="translate(166.361 28.305)" fill="#ffdcd5"/>
          </g>
          <g id="g189" transform="translate(13.952 35.001)">
            <path id="path191" d="M-149.334-25.408v.249a2.835,2.835,0,0,1,2.783-2.832,2.887,2.887,0,0,1,2.892,2.9V-14.24a3.972,3.972,0,0,1,3.976-3.967,1.7,1.7,0,0,1,1.7,1.7v11q0,.119,0,.237A5.869,5.869,0,0,1-143.109.27l-1.242.111a2.34,2.34,0,0,0-2.133,2.33V5.2h-12.761V2.583A2.34,2.34,0,0,0-161.235.27a5.869,5.869,0,0,1-5.121-5.539q0-.118,0-.237V-21.78a2.887,2.887,0,0,1,2.893-2.9,2.835,2.835,0,0,1,2.783,2.832v-3.014a2.887,2.887,0,0,1,2.892-2.9,2.835,2.835,0,0,1,2.783,2.832v-.55a2.835,2.835,0,0,1,2.783-2.832A2.887,2.887,0,0,1-149.334-25.408Z" transform="translate(166.361 28.305)" fill="none" stroke="#000" stroke-linecap="round" stroke-linejoin="round" stroke-miterlimit="10" stroke-width="1.2"/>
          </g>
          <g id="g193" transform="translate(36.654 45.264)">
            <path id="path195" d="M0,0,0,10.783" fill="none" stroke="#000" stroke-linecap="round" stroke-linejoin="round" stroke-miterlimit="10" stroke-width="1.2"/>
          </g>
          <g id="g197" transform="translate(25.303 38.375)">
            <path id="path199" d="M0,0V13.372" fill="none" stroke="#000" stroke-linecap="round" stroke-linejoin="round" stroke-miterlimit="10" stroke-width="1.2"/>
          </g>
          <g id="g201" transform="translate(19.627 38.467)">
            <path id="path203" d="M0,0V13.28" fill="none" stroke="#000" stroke-linecap="round" stroke-linejoin="round" stroke-miterlimit="10" stroke-width="1.2"/>
          </g>
          <g id="g205" transform="translate(30.979 38.148)">
            <path id="path207" d="M0-64.127v-7.312" transform="translate(0 71.438)" fill="none" stroke="#000" stroke-linecap="round" stroke-linejoin="round" stroke-miterlimit="10" stroke-width="1.2"/>
          </g>
          <g id="g209" transform="translate(30.979 51.654)">
            <path id="path211" d="M0,0H0" fill="none" stroke="#000" stroke-linecap="round" stroke-linejoin="round" stroke-miterlimit="10" stroke-width="1.2"/>
          </g>
        </g>
      </g>
    </g>
  </g>
</svg>
