<svg xmlns="http://www.w3.org/2000/svg" xmlns:xlink="http://www.w3.org/1999/xlink" width="113" height="113" viewBox="0 0 113 113">
  <defs>
    <filter id="Trazado_982547" x="0" y="0" width="113" height="113" filterUnits="userSpaceOnUse">
      <feOffset dy="3" input="SourceAlpha"/>
      <feGaussianBlur stdDeviation="3" result="blur"/>
      <feFlood flood-opacity="0.161"/>
      <feComposite operator="in" in2="blur"/>
      <feComposite in="SourceGraphic"/>
    </filter>
  </defs>
  <g id="Grupo_1224650" data-name="Grupo 1224650" transform="translate(-1216.232 -2813.996)">
    <g id="Grupo_1224294" data-name="Grupo 1224294" transform="translate(0.723 859.245)">
      <g id="Grupo_1224094" data-name="Grupo 1224094" transform="translate(541.51 -2620.317)">
        <g id="Grupo_1223184" data-name="Grupo 1223184" transform="translate(683 4581.069)">
          <g id="Grupo_1211216" data-name="Grupo 1211216" transform="translate(0)">
            <g id="Grupo_1210737" data-name="Grupo 1210737">
              <g id="Grupo_1210537" data-name="Grupo 1210537">
                <g id="Grupo_1164202" data-name="Grupo 1164202">
                  <g id="Grupo_1158168" data-name="Grupo 1158168">
                    <g id="Grupo_1152576" data-name="Grupo 1152576">
                      <g id="Grupo_1148633" data-name="Grupo 1148633">
                        <g id="Grupo_1148525" data-name="Grupo 1148525">
                          <g transform="matrix(1, 0, 0, 1, -9, -6)" filter="url(#Trazado_982547)">
                            <g id="Trazado_982547-2" data-name="Trazado 982547" transform="translate(9 6)" fill="#fdfbec">
                              <path d="M 47.49999618530273 93.5 C 41.28936767578125 93.5 35.26533126831055 92.28396606445312 29.59518241882324 89.88570404052734 C 24.11771583557129 87.56893157958984 19.19812965393066 84.251953125 14.97308921813965 80.02690124511719 C 10.74803638458252 75.80186462402344 7.431062698364258 70.88227844238281 5.114289283752441 65.40480804443359 C 2.716022968292236 59.73466110229492 1.499996185302734 53.71062469482422 1.499996185302734 47.49999618530273 C 1.499996185302734 41.28936767578125 2.716022968292236 35.26533126831055 5.114289283752441 29.59518241882324 C 7.431062698364258 24.11771583557129 10.74803638458252 19.19812965393066 14.97308921813965 14.97308921813965 C 19.19812965393066 10.74803638458252 24.11771583557129 7.431062698364258 29.59518241882324 5.114289283752441 C 35.26533126831055 2.716022968292236 41.28936767578125 1.499996185302734 47.49999618530273 1.499996185302734 C 53.71062469482422 1.499996185302734 59.73466110229492 2.716022968292236 65.40480804443359 5.114289283752441 C 70.88227844238281 7.431062698364258 75.80186462402344 10.74803638458252 80.02690124511719 14.97308921813965 C 84.251953125 19.19812965393066 87.56893157958984 24.11771583557129 89.88570404052734 29.59518241882324 C 92.28396606445312 35.26533126831055 93.5 41.28936767578125 93.5 47.49999618530273 C 93.5 53.71062469482422 92.28396606445312 59.73466110229492 89.88570404052734 65.40480804443359 C 87.56893157958984 70.88227844238281 84.251953125 75.80186462402344 80.02690124511719 80.02690124511719 C 75.80186462402344 84.251953125 70.88227844238281 87.56893157958984 65.40480804443359 89.88570404052734 C 59.73466110229492 92.28396606445312 53.71062469482422 93.5 47.49999618530273 93.5 Z" stroke="none"/>
                              <path d="M 47.49999618530273 2.999992370605469 C 41.4912109375 2.999992370605469 35.66376495361328 4.1761474609375 30.17950439453125 6.495796203613281 C 24.88084411621094 8.736953735351562 20.12152099609375 11.94598388671875 16.03375244140625 16.03375244140625 C 11.94598388671875 20.12152099609375 8.736953735351562 24.88084411621094 6.495796203613281 30.17950439453125 C 4.1761474609375 35.66376495361328 2.999992370605469 41.4912109375 2.999992370605469 47.49999618530273 C 2.999992370605469 53.50878143310547 4.1761474609375 59.33622741699219 6.495796203613281 64.82048797607422 C 8.736953735351562 70.11914825439453 11.94598388671875 74.87847137451172 16.03375244140625 78.96623992919922 C 20.12152099609375 83.05400848388672 24.88084411621094 86.26304626464844 30.17950439453125 88.50419616699219 C 35.66376495361328 90.82384490966797 41.4912109375 92 47.49999618530273 92 C 53.50878143310547 92 59.33622741699219 90.82384490966797 64.82048797607422 88.50419616699219 C 70.11914825439453 86.26304626464844 74.87847137451172 83.05400848388672 78.96623992919922 78.96623992919922 C 83.05400848388672 74.87847137451172 86.26304626464844 70.11914825439453 88.50419616699219 64.82048797607422 C 90.82384490966797 59.33622741699219 92 53.50878143310547 92 47.49999618530273 C 92 41.4912109375 90.82384490966797 35.66376495361328 88.50419616699219 30.17950439453125 C 86.26304626464844 24.88084411621094 83.05400848388672 20.12152099609375 78.96623992919922 16.03375244140625 C 74.87847137451172 11.94598388671875 70.11914825439453 8.736953735351562 64.82048797607422 6.495796203613281 C 59.33622741699219 4.1761474609375 53.50878143310547 2.999992370605469 47.49999618530273 2.999992370605469 M 47.49999618530273 -7.62939453125e-06 C 73.7335205078125 -7.62939453125e-06 95 21.26647186279297 95 47.49999618530273 C 95 73.7335205078125 73.7335205078125 95 47.49999618530273 95 C 21.26647186279297 95 -7.62939453125e-06 73.7335205078125 -7.62939453125e-06 47.49999618530273 C -7.62939453125e-06 21.26647186279297 21.26647186279297 -7.62939453125e-06 47.49999618530273 -7.62939453125e-06 Z" stroke="none" fill="#83793c"/>
                            </g>
                          </g>
                        </g>
                      </g>
                    </g>
                  </g>
                </g>
              </g>
            </g>
          </g>
        </g>
      </g>
    </g>
    <g id="emoticon_1665920_1_" data-name="emoticon_1665920 (1)" transform="translate(1236.909 2838.5)">
      <path id="Trazado_1055282" data-name="Trazado 1055282" d="M32.007,148.011a12.245,12.245,0,1,1-12.245-12.246A12.246,12.246,0,0,1,32.007,148.011Zm0,0" transform="translate(-6.559 -118.481)" fill="#73ffee"/>
      <path id="Trazado_1055283" data-name="Trazado 1055283" d="M111.719,158.333a14.251,14.251,0,0,0,4.866,10.74,12.249,12.249,0,0,0,0-21.479A14.251,14.251,0,0,0,111.719,158.333Zm0,0" transform="translate(-97.496 -128.804)" fill="#2fb5a5"/>
      <path id="Trazado_1055284" data-name="Trazado 1055284" d="M152.241,148.011A12.245,12.245,0,1,1,140,135.766,12.246,12.246,0,0,1,152.241,148.011Zm0,0" transform="translate(-111.486 -118.481)" fill="#ff795c"/>
      <path id="Trazado_1055285" data-name="Trazado 1055285" d="M264.042,144.59c-.017.3-.026.609-.026.918a16.305,16.305,0,0,0,6.765,13.235,12.263,12.263,0,0,0-6.739-14.152Zm0,0" transform="translate(-230.405 -126.182)" fill="#ff3e64"/>
      <path id="Trazado_1055286" data-name="Trazado 1055286" d="M308.619,53.864a14.286,14.286,0,1,1-14.286-14.286A14.286,14.286,0,0,1,308.619,53.864Zm0,0" transform="translate(-244.394 -34.539)" fill="#ffe480"/>
      <path id="Trazado_1055287" data-name="Trazado 1055287" d="M381.773,39.577a14.415,14.415,0,0,0-1.531.082,14.287,14.287,0,0,1,0,28.41,14.547,14.547,0,0,0,1.531.082,14.286,14.286,0,0,0,0-28.573Zm0,0" transform="translate(-331.835 -34.539)" fill="#ffb660"/>
      <path id="Trazado_1055288" data-name="Trazado 1055288" d="M371.28,173.951a3.061,3.061,0,0,1-3.061-3.061v-3.061h6.123v3.061A3.061,3.061,0,0,1,371.28,173.951Zm0,0" transform="translate(-321.342 -146.462)" fill="#ff795c"/>
      <g id="Grupo_1224649" data-name="Grupo 1224649" transform="translate(42.795 14.223)">
        <path id="Trazado_1055289" data-name="Trazado 1055289" d="M340.238,113.76a2.041,2.041,0,1,1-2.041-2.041A2.041,2.041,0,0,1,340.238,113.76Zm0,0" transform="translate(-336.156 -111.719)" fill="#fff"/>
        <path id="Trazado_1055290" data-name="Trazado 1055290" d="M420.394,113.76a2.041,2.041,0,1,1-2.041-2.041A2.041,2.041,0,0,1,420.394,113.76Zm0,0" transform="translate(-406.108 -111.719)" fill="#fff"/>
        <path id="Trazado_1055291" data-name="Trazado 1055291" d="M336.156,176.344H338.2v1.914h-2.041Zm0,0" transform="translate(-336.156 -168.117)" fill="#fff"/>
        <path id="Trazado_1055292" data-name="Trazado 1055292" d="M432.344,176.344h2.041v1.914h-2.041Zm0,0" transform="translate(-420.098 -168.117)" fill="#fff"/>
      </g>
      <path id="Trazado_1055293" data-name="Trazado 1055293" d="M360.5,256.148v-8.164h-4.082v7.143H344.172v16.327a1.02,1.02,0,0,0,1.02,1.02h3.061v4.082h11.225v-4.082h4.082a1.02,1.02,0,0,0,1.02-1.02V260.23Zm0,0" transform="translate(-300.356 -216.414)" fill="#fbcfa0"/>
      <path id="Trazado_1055294" data-name="Trazado 1055294" d="M440.359,432.344h3.061v5.1h-3.061Zm0,0" transform="translate(-384.298 -377.303)" fill="#eeb887"/>
      <path id="Trazado_1055295" data-name="Trazado 1055295" d="M13.2,152.741a11.289,11.289,0,1,1,4.7-21.554l.8-1.739A13.2,13.2,0,1,0,17.6,153.9l-.638-1.8a11.259,11.259,0,0,1-3.763.642Zm0,0" transform="translate(0 -111.923)"/>
      <path id="Trazado_1055296" data-name="Trazado 1055296" d="M133.437,152.741a11.289,11.289,0,1,1,3.763-21.935l.638-1.8a13.2,13.2,0,1,0,8.05,16.851l-1.8-.638a11.308,11.308,0,0,1-10.647,7.526Zm0,0" transform="translate(-104.928 -111.923)"/>
      <path id="Trazado_1055297" data-name="Trazado 1055297" d="M277.521,1.914V0a19.4,19.4,0,0,0-16.739,9.662l1.656.958a17.479,17.479,0,0,1,15.083-8.706Zm0,0" transform="translate(-227.582)"/>
      <path id="Trazado_1055298" data-name="Trazado 1055298" d="M272.531,47.306A15.255,15.255,0,0,0,291.04,62.2l-.408-1.869A13.332,13.332,0,1,1,301.1,47.306a13.251,13.251,0,0,1-2.388,7.617l1.569,1.095a15.244,15.244,0,1,0-27.754-8.711Zm0,0" transform="translate(-237.836 -27.981)"/>
      <path id="Trazado_1055299" data-name="Trazado 1055299" d="M364.222,168.786a4.023,4.023,0,0,0,4.018-4.018v-3.955H360.2v3.955A4.023,4.023,0,0,0,364.222,168.786Zm-2.1-6.059h4.209v2.041a2.1,2.1,0,0,1-4.209,0Zm0,0" transform="translate(-314.347 -140.34)"/>
      <path id="Trazado_1055300" data-name="Trazado 1055300" d="M334.636,107.2a3,3,0,1,0-3,3A3,3,0,0,0,334.636,107.2Zm-3,1.084a1.084,1.084,0,1,1,1.084-1.084A1.085,1.085,0,0,1,331.638,108.285Zm0,0" transform="translate(-286.802 -90.937)"/>
      <path id="Trazado_1055301" data-name="Trazado 1055301" d="M414.793,107.2a3,3,0,1,0-3,3A3,3,0,0,0,414.793,107.2Zm-4.082,0a1.084,1.084,0,1,1,1.084,1.084A1.085,1.085,0,0,1,410.711,107.2Zm0,0" transform="translate(-356.754 -90.937)"/>
      <path id="Trazado_1055302" data-name="Trazado 1055302" d="M354.4,240.969h-6v7.144H336.157v17.22a2.09,2.09,0,0,0,2.041,2.041h2.041v4.082h13.139v-4.082h3.189a1.982,1.982,0,0,0,1.914-2.041V253.711L354.4,249.63Zm2.168,13.535v10.829c0,.035.035.128,0,.128h-5.1v4.082h-9.311V265.46H338.2a.227.227,0,0,1-.127-.128V250.026h2.168v5.1h1.914v-5.1h2.168v5.1h1.914v-5.1H348.4v5.1h1.914V242.883h2.168v12.245H354.4v-2.793Zm0,0" transform="translate(-293.361 -210.292)"/>
    </g>
  </g>
</svg>
