<svg xmlns="http://www.w3.org/2000/svg" xmlns:xlink="http://www.w3.org/1999/xlink" width="108" height="108" viewBox="0 0 108 108">
  <defs>
    <filter id="Trazado_904820" x="0" y="0" width="108" height="108" filterUnits="userSpaceOnUse">
      <feOffset dy="3" input="SourceAlpha"/>
      <feGaussianBlur stdDeviation="3" result="blur"/>
      <feFlood flood-opacity="0.161"/>
      <feComposite operator="in" in2="blur"/>
      <feComposite in="SourceGraphic"/>
    </filter>
    <clipPath id="clip-path">
      <path id="path435" d="M0-682.665H62.269V-620.4H0Z" transform="translate(0 682.665)"/>
    </clipPath>
  </defs>
  <g id="Grupo_1224651" data-name="Grupo 1224651" transform="translate(-619 -4499.159)">
    <g id="Grupo_1224295" data-name="Grupo 1224295" transform="translate(628 4505.159)">
      <g id="Grupo_1208347" data-name="Grupo 1208347" transform="translate(0 0)">
        <g id="Grupo_1207936" data-name="Grupo 1207936">
          <g id="Grupo_1201662" data-name="Grupo 1201662">
            <g id="Grupo_1173585" data-name="Grupo 1173585">
              <g id="Grupo_1173428" data-name="Grupo 1173428">
                <g id="Grupo_1171958" data-name="Grupo 1171958">
                  <g id="Grupo_1167341" data-name="Grupo 1167341">
                    <g id="Grupo_1166792" data-name="Grupo 1166792">
                      <g transform="matrix(1, 0, 0, 1, -9, -6)" filter="url(#Trazado_904820)">
                        <g id="Trazado_904820-2" data-name="Trazado 904820" transform="translate(9 6)" fill="#fdfbec">
                          <path d="M 44.99999618530273 88.49994659423828 C 39.12687301635742 88.49994659423828 33.43022155761719 87.35002136230469 28.06829643249512 85.08212280273438 C 22.88852119445801 82.89125823974609 18.23629570007324 79.75454711914062 14.24084663391113 75.75910186767578 C 10.24540901184082 71.76364898681641 7.108683586120605 67.11143493652344 4.917821407318115 61.93165969848633 C 2.649921178817749 56.56973648071289 1.499996185302734 50.87309646606445 1.499996185302734 44.99997329711914 C 1.499996185302734 39.12685012817383 2.649921178817749 33.43021011352539 4.917821407318115 28.06828498840332 C 7.108683586120605 22.88851165771484 10.24540901184082 18.23629760742188 14.24084663391113 14.24084854125977 C 18.23629570007324 10.24539852142334 22.88852119445801 7.108685970306396 28.06829643249512 4.917823314666748 C 33.43022155761719 2.649923324584961 39.12687301635742 1.499998331069946 44.99999618530273 1.499998331069946 C 50.87311935424805 1.499998331069946 56.56977081298828 2.649923324584961 61.93169784545898 4.917823314666748 C 67.11147308349609 7.108685970306396 71.76369476318359 10.24539852142334 75.75914764404297 14.24084854125977 C 79.75458526611328 18.23629760742188 82.89131164550781 22.88851165771484 85.08216857910156 28.06828498840332 C 87.35007476806641 33.43021011352539 88.5 39.12685012817383 88.5 44.99997329711914 C 88.5 50.87309646606445 87.35007476806641 56.56973648071289 85.08216857910156 61.93165969848633 C 82.89131164550781 67.11143493652344 79.75458526611328 71.76364898681641 75.75914764404297 75.75910186767578 C 71.76369476318359 79.75454711914062 67.11147308349609 82.89125823974609 61.93169784545898 85.08212280273438 C 56.56977081298828 87.35002136230469 50.87311935424805 88.49994659423828 44.99999618530273 88.49994659423828 Z" stroke="none"/>
                          <path d="M 44.99999618530273 3 C 39.32870864868164 3 33.82865142822266 4.110061645507812 28.65262603759766 6.299331665039062 C 23.65165710449219 8.414573669433594 19.15968322753906 11.44332885742188 15.301513671875 15.30149841308594 C 11.44333648681641 19.15969085693359 8.414566040039062 23.65164184570312 6.299339294433594 28.65261459350586 C 4.110054016113281 33.82864379882812 2.999992370605469 39.32868576049805 2.999992370605469 44.99997329711914 C 2.999992370605469 50.67126083374023 4.110054016113281 56.17130279541016 6.299339294433594 61.34732818603516 C 8.414566040039062 66.34829711914062 11.44333648681641 70.84025573730469 15.301513671875 74.69844055175781 C 19.15968322753906 78.55661773681641 23.65165710449219 81.58537292480469 28.65262603759766 83.70061492919922 C 33.82865142822266 85.88988494873047 39.32870864868164 86.99994659423828 44.99999618530273 86.99994659423828 C 50.67128372192383 86.99994659423828 56.17134094238281 85.88988494873047 61.34736633300781 83.70061492919922 C 66.34834289550781 81.58537292480469 70.84030914306641 78.55661773681641 74.69847869873047 74.69844055175781 C 78.55665588378906 70.84025573730469 81.58542633056641 66.34829711914062 83.70065307617188 61.34732818603516 C 85.88993835449219 56.17130279541016 87 50.67126083374023 87 44.99997329711914 C 87 39.32868576049805 85.88993835449219 33.82864379882812 83.70065307617188 28.65261459350586 C 81.58542633056641 23.65164184570312 78.55665588378906 19.15969085693359 74.69847869873047 15.30149841308594 C 70.84030914306641 11.44332885742188 66.34834289550781 8.414573669433594 61.34736633300781 6.299331665039062 C 56.17134094238281 4.110061645507812 50.67128372192383 3 44.99999618530273 3 M 44.99999618530273 0 C 69.85281372070312 0 90 20.14717102050781 90 44.99997329711914 C 90 69.85277557373047 69.85281372070312 89.99994659423828 44.99999618530273 89.99994659423828 C 20.14717864990234 89.99994659423828 -7.62939453125e-06 69.85277557373047 -7.62939453125e-06 44.99997329711914 C -7.62939453125e-06 20.14717102050781 20.14717864990234 0 44.99999618530273 0 Z" stroke="none" fill="#83793c"/>
                        </g>
                      </g>
                    </g>
                  </g>
                </g>
              </g>
            </g>
          </g>
        </g>
      </g>
    </g>
    <g id="g429" transform="translate(638.865 5201.69)">
      <g id="g431" transform="translate(0 -682.665)">
        <g id="g433" clip-path="url(#clip-path)">
          <g id="g439" transform="translate(27.967 3.298)">
            <path id="path441" d="M-277.366-72.884v13.205a5.077,5.077,0,0,1-1.487,3.59l-2.239,2.239a5.078,5.078,0,0,1-3.591,1.487h-13.206a5.078,5.078,0,0,1-3.591-1.487l-2.239-2.239a5.078,5.078,0,0,1-1.487-3.59V-72.884a5.077,5.077,0,0,1,1.488-3.591l2.238-2.238a5.078,5.078,0,0,1,3.59-1.487h13.207a5.078,5.078,0,0,1,3.59,1.487l2.238,2.238a5.078,5.078,0,0,1,1.488,3.591" transform="translate(305.205 80.2)" fill="#daecff"/>
          </g>
          <g id="g443" transform="translate(27.967 3.297)">
            <path id="path445" d="M-277.366-85.039v-1.22a5.078,5.078,0,0,0-1.488-3.591l-2.239-2.238a5.078,5.078,0,0,0-3.59-1.487h-13.207a5.078,5.078,0,0,0-3.59,1.487l-2.238,2.238a5.078,5.078,0,0,0-1.488,3.591v13.2a5.078,5.078,0,0,0,1.487,3.59l2.239,2.239a5.078,5.078,0,0,0,3.591,1.487h13.206a5.078,5.078,0,0,0,3.591-1.487l2.239-2.239a5.077,5.077,0,0,0,1.487-3.59v-1.283" transform="translate(305.205 93.574)" fill="none" stroke="#000" stroke-linecap="round" stroke-linejoin="round" stroke-miterlimit="10" stroke-width="1"/>
          </g>
          <g id="g447" transform="translate(33.214 31.134)">
            <path id="path449" d="M-277.366-72.884v13.2a5.077,5.077,0,0,1-1.487,3.591l-2.239,2.239a5.078,5.078,0,0,1-3.59,1.487h-13.206a5.078,5.078,0,0,1-3.591-1.487l-2.239-2.239a5.078,5.078,0,0,1-1.487-3.591v-13.2a5.078,5.078,0,0,1,1.488-3.591l2.238-2.238a5.078,5.078,0,0,1,3.59-1.487h13.207a5.078,5.078,0,0,1,3.59,1.487l2.238,2.238a5.077,5.077,0,0,1,1.488,3.591" transform="translate(305.205 80.2)" fill="#daecff"/>
          </g>
          <g id="g451" transform="translate(33.214 31.134)">
            <path id="path453" d="M-277.366-72.884v13.2a5.077,5.077,0,0,1-1.487,3.591l-2.239,2.239a5.078,5.078,0,0,1-3.59,1.487h-13.206a5.078,5.078,0,0,1-3.591-1.487l-2.239-2.239a5.078,5.078,0,0,1-1.487-3.591v-13.2a5.078,5.078,0,0,1,1.488-3.591l2.238-2.238a5.078,5.078,0,0,1,3.59-1.487h13.207a5.078,5.078,0,0,1,3.59,1.487l2.238,2.238A5.077,5.077,0,0,1-277.366-72.884Z" transform="translate(305.205 80.2)" fill="none" stroke="#000" stroke-linecap="round" stroke-linejoin="round" stroke-miterlimit="10" stroke-width="1"/>
          </g>
          <g id="g455" transform="translate(39.707 37.627)">
            <path id="path457" d="M-147.969-73.983a7.426,7.426,0,0,1-7.426,7.426,7.426,7.426,0,0,1-7.426-7.426,7.426,7.426,0,0,1,7.426-7.426,7.426,7.426,0,0,1,7.426,7.426" transform="translate(162.821 81.409)" fill="#ffce62"/>
          </g>
          <g id="g459" transform="translate(1.216 26.975)">
            <path id="path461" d="M-210.946-14.818l9.338,9.337a5.078,5.078,0,0,1,1.487,3.59V1.276a5.078,5.078,0,0,1-1.487,3.591l-9.338,9.338a5.078,5.078,0,0,1-3.59,1.487H-217.7a5.078,5.078,0,0,1-3.59-1.487l-9.338-9.337a5.078,5.078,0,0,1-1.487-3.591V-1.89a5.077,5.077,0,0,1,1.487-3.59l9.339-9.338A5.078,5.078,0,0,1-217.7-16.3h3.165a5.078,5.078,0,0,1,3.591,1.487" transform="translate(232.118 16.305)" fill="#daecff"/>
          </g>
          <g id="g463" transform="translate(1.216 26.975)">
            <path id="path465" d="M-210.946-14.818l9.338,9.337a5.078,5.078,0,0,1,1.487,3.59V1.276a5.078,5.078,0,0,1-1.487,3.591l-9.338,9.338a5.078,5.078,0,0,1-3.59,1.487H-217.7a5.078,5.078,0,0,1-3.59-1.487l-9.338-9.337a5.078,5.078,0,0,1-1.487-3.591V-1.89a5.077,5.077,0,0,1,1.487-3.59l9.339-9.338A5.078,5.078,0,0,1-217.7-16.3h3.165A5.078,5.078,0,0,1-210.946-14.818Z" transform="translate(232.118 16.305)" fill="none" stroke="#000" stroke-linecap="round" stroke-linejoin="round" stroke-miterlimit="10" stroke-width="1"/>
          </g>
          <g id="g467" transform="translate(8.24 33.998)">
            <path id="path469" d="M-139.473-42.77a4.334,4.334,0,0,0-1.273-3.019,4.349,4.349,0,0,0-6.151,0,4.346,4.346,0,0,0-1.135,4.165h0a4.346,4.346,0,0,0-4.165,1.135,4.349,4.349,0,0,0,0,6.151,4.334,4.334,0,0,0,3.019,1.273h0l9.734.027Z" transform="translate(153.472 47.063)" fill="#ff7e96"/>
          </g>
          <g id="g471" transform="translate(34.289 9.853)">
            <path id="path473" d="M-62.015-7.894l-6.01,10.409a1.585,1.585,0,0,0,1.372,2.377h12.019A1.585,1.585,0,0,0-53.26,2.515L-59.27-7.894a1.585,1.585,0,0,0-2.745,0" transform="translate(68.239 8.686)" fill="#8cc8ff"/>
          </g>
          <g id="g475" transform="translate(39.707 37.627)">
            <path id="path477" d="M-147.969-73.983a7.426,7.426,0,0,1-7.426,7.426,7.426,7.426,0,0,1-7.426-7.426,7.426,7.426,0,0,1,7.426-7.426A7.426,7.426,0,0,1-147.969-73.983Z" transform="translate(162.821 81.409)" fill="none" stroke="#000" stroke-linecap="round" stroke-linejoin="round" stroke-miterlimit="10" stroke-width="1"/>
          </g>
          <g id="g479" transform="translate(8.24 33.998)">
            <path id="path481" d="M-139.473-42.77a4.334,4.334,0,0,0-1.273-3.019,4.349,4.349,0,0,0-6.151,0,4.346,4.346,0,0,0-1.135,4.165h0a4.346,4.346,0,0,0-4.165,1.135,4.349,4.349,0,0,0,0,6.151,4.334,4.334,0,0,0,3.019,1.273h0l9.734.027Z" transform="translate(153.472 47.063)" fill="none" stroke="#000" stroke-linecap="round" stroke-linejoin="round" stroke-miterlimit="10" stroke-width="1"/>
          </g>
          <g id="g483" transform="translate(34.289 9.853)">
            <path id="path485" d="M-62.015-7.894l-6.01,10.409a1.585,1.585,0,0,0,1.372,2.377h12.019A1.585,1.585,0,0,0-53.26,2.515L-59.27-7.894A1.585,1.585,0,0,0-62.015-7.894Z" transform="translate(68.239 8.686)" fill="none" stroke="#000" stroke-linecap="round" stroke-linejoin="round" stroke-miterlimit="10" stroke-width="1"/>
          </g>
          <g id="g487" transform="translate(5.873 58.971)">
            <path id="path489" d="M-549.762,0h-55.179" transform="translate(604.941)" fill="none" stroke="#000" stroke-linecap="round" stroke-linejoin="round" stroke-miterlimit="10" stroke-width="1"/>
          </g>
          <g id="g491" transform="translate(55.806 17.216)">
            <path id="path493" d="M0,0H0" fill="none" stroke="#000" stroke-linecap="round" stroke-linejoin="round" stroke-miterlimit="10" stroke-width="1"/>
          </g>
        </g>
      </g>
    </g>
  </g>
</svg>
