<svg xmlns="http://www.w3.org/2000/svg" xmlns:xlink="http://www.w3.org/1999/xlink" width="113" height="113" viewBox="0 0 113 113">
  <defs>
    <filter id="Trazado_982547" x="0" y="0" width="113" height="113" filterUnits="userSpaceOnUse">
      <feOffset dy="3" input="SourceAlpha"/>
      <feGaussianBlur stdDeviation="3" result="blur"/>
      <feFlood flood-opacity="0.161"/>
      <feComposite operator="in" in2="blur"/>
      <feComposite in="SourceGraphic"/>
    </filter>
  </defs>
  <g id="Grupo_1224458" data-name="Grupo 1224458" transform="translate(-585.509 -3776.792)">
    <g id="Grupo_1224222" data-name="Grupo 1224222" transform="translate(0 1822.041)">
      <g id="Grupo_1224092" data-name="Grupo 1224092" transform="translate(-88.49 -2620.317)">
        <g id="Grupo_1223184" data-name="Grupo 1223184" transform="translate(683 4581.069)">
          <g id="Grupo_1211216" data-name="Grupo 1211216" transform="translate(0)">
            <g id="Grupo_1210737" data-name="Grupo 1210737">
              <g id="Grupo_1210537" data-name="Grupo 1210537">
                <g id="Grupo_1164202" data-name="Grupo 1164202">
                  <g id="Grupo_1158168" data-name="Grupo 1158168">
                    <g id="Grupo_1152576" data-name="Grupo 1152576">
                      <g id="Grupo_1148633" data-name="Grupo 1148633">
                        <g id="Grupo_1148525" data-name="Grupo 1148525">
                          <g transform="matrix(1, 0, 0, 1, -9, -6)" filter="url(#Trazado_982547)">
                            <g id="Trazado_982547-2" data-name="Trazado 982547" transform="translate(9 6)" fill="#fdfbec">
                              <path d="M 47.49999618530273 93.5 C 41.28936767578125 93.5 35.26533126831055 92.28396606445312 29.59518241882324 89.88570404052734 C 24.11771583557129 87.56893157958984 19.19812965393066 84.251953125 14.97308921813965 80.02690124511719 C 10.74803638458252 75.80186462402344 7.431062698364258 70.88227844238281 5.114289283752441 65.40480804443359 C 2.716022968292236 59.73466110229492 1.499996185302734 53.71062469482422 1.499996185302734 47.49999618530273 C 1.499996185302734 41.28936767578125 2.716022968292236 35.26533126831055 5.114289283752441 29.59518241882324 C 7.431062698364258 24.11771583557129 10.74803638458252 19.19812965393066 14.97308921813965 14.97308921813965 C 19.19812965393066 10.74803638458252 24.11771583557129 7.431062698364258 29.59518241882324 5.114289283752441 C 35.26533126831055 2.716022968292236 41.28936767578125 1.499996185302734 47.49999618530273 1.499996185302734 C 53.71062469482422 1.499996185302734 59.73466110229492 2.716022968292236 65.40480804443359 5.114289283752441 C 70.88227844238281 7.431062698364258 75.80186462402344 10.74803638458252 80.02690124511719 14.97308921813965 C 84.251953125 19.19812965393066 87.56893157958984 24.11771583557129 89.88570404052734 29.59518241882324 C 92.28396606445312 35.26533126831055 93.5 41.28936767578125 93.5 47.49999618530273 C 93.5 53.71062469482422 92.28396606445312 59.73466110229492 89.88570404052734 65.40480804443359 C 87.56893157958984 70.88227844238281 84.251953125 75.80186462402344 80.02690124511719 80.02690124511719 C 75.80186462402344 84.251953125 70.88227844238281 87.56893157958984 65.40480804443359 89.88570404052734 C 59.73466110229492 92.28396606445312 53.71062469482422 93.5 47.49999618530273 93.5 Z" stroke="none"/>
                              <path d="M 47.49999618530273 2.999992370605469 C 41.4912109375 2.999992370605469 35.66376495361328 4.1761474609375 30.17950439453125 6.495796203613281 C 24.88084411621094 8.736953735351562 20.12152099609375 11.94598388671875 16.03375244140625 16.03375244140625 C 11.94598388671875 20.12152099609375 8.736953735351562 24.88084411621094 6.495796203613281 30.17950439453125 C 4.1761474609375 35.66376495361328 2.999992370605469 41.4912109375 2.999992370605469 47.49999618530273 C 2.999992370605469 53.50878143310547 4.1761474609375 59.33622741699219 6.495796203613281 64.82048797607422 C 8.736953735351562 70.11914825439453 11.94598388671875 74.87847137451172 16.03375244140625 78.96623992919922 C 20.12152099609375 83.05400848388672 24.88084411621094 86.26304626464844 30.17950439453125 88.50419616699219 C 35.66376495361328 90.82384490966797 41.4912109375 92 47.49999618530273 92 C 53.50878143310547 92 59.33622741699219 90.82384490966797 64.82048797607422 88.50419616699219 C 70.11914825439453 86.26304626464844 74.87847137451172 83.05400848388672 78.96623992919922 78.96623992919922 C 83.05400848388672 74.87847137451172 86.26304626464844 70.11914825439453 88.50419616699219 64.82048797607422 C 90.82384490966797 59.33622741699219 92 53.50878143310547 92 47.49999618530273 C 92 41.4912109375 90.82384490966797 35.66376495361328 88.50419616699219 30.17950439453125 C 86.26304626464844 24.88084411621094 83.05400848388672 20.12152099609375 78.96623992919922 16.03375244140625 C 74.87847137451172 11.94598388671875 70.11914825439453 8.736953735351562 64.82048797607422 6.495796203613281 C 59.33622741699219 4.1761474609375 53.50878143310547 2.999992370605469 47.49999618530273 2.999992370605469 M 47.49999618530273 -7.62939453125e-06 C 73.7335205078125 -7.62939453125e-06 95 21.26647186279297 95 47.49999618530273 C 95 73.7335205078125 73.7335205078125 95 47.49999618530273 95 C 21.26647186279297 95 -7.62939453125e-06 73.7335205078125 -7.62939453125e-06 47.49999618530273 C -7.62939453125e-06 21.26647186279297 21.26647186279297 -7.62939453125e-06 47.49999618530273 -7.62939453125e-06 Z" stroke="none" fill="#83793c"/>
                            </g>
                          </g>
                        </g>
                      </g>
                    </g>
                  </g>
                </g>
              </g>
            </g>
          </g>
        </g>
      </g>
    </g>
    <g id="Layer_x0020_1" transform="translate(590.528 3789.362)">
      <g id="_302848704" transform="translate(27.02 9.14)">
        <g id="Grupo_1224457" data-name="Grupo 1224457">
          <g id="Grupo_1224456" data-name="Grupo 1224456">
            <g id="Grupo_1224454" data-name="Grupo 1224454" transform="translate(0.695 0.696)">
              <path id="_302851728" d="M28.717,10.837H76.249v62.19H28.717Z" transform="translate(-28.717 -10.837)" fill="#ffdfb7" fill-rule="evenodd"/>
              <path id="_302851848" d="M97.939,98.361l14.731,21.274H97.939Z" transform="translate(-69.566 -62.486)" fill="#ff934d" fill-rule="evenodd"/>
              <path id="_302851656" d="M97.939,128.836v-1.388h2.733a.694.694,0,0,1,0,1.388Zm0-4.327v-1.388h1.822a.694.694,0,0,1,0,1.388Zm0-4.327v-1.388h2.733a.694.694,0,0,1,0,1.388Z" transform="translate(-69.566 -74.544)" fill="#f3793c" fill-rule="evenodd"/>
              <path id="_302851032" d="M45.729,102.026V115.07l-2.357,1.591-3.853-1.591V102.026l2.841-1.808Z" transform="translate(-35.091 -63.582)" fill="#e04141" fill-rule="evenodd"/>
              <path id="_302850912" d="M46.789,103.629a.694.694,0,1,0-1.388,0v13.044a.694.694,0,1,0,1.388,0Z" transform="translate(-38.562 -65.185)" fill="#c13434"/>
              <path id="_302850888" d="M39.518,136.452h6.21v2.555a3.105,3.105,0,0,1-6.21,0Z" transform="translate(-35.091 -84.964)" fill="#f9c" fill-rule="evenodd"/>
              <path id="_302850792" d="M66.6,88.491h7.956V113.81H66.6Z" transform="translate(-51.072 -56.661)" fill="#ff934d" fill-rule="evenodd"/>
              <path id="_302850528" d="M79.283,115.741v-1.388H75.3a.694.694,0,0,0,0,1.388Zm0-7.573V106.78H76.32a.694.694,0,1,0,0,1.388Zm0-7.573V99.206H75.3a.694.694,0,0,0,0,1.388Z" transform="translate(-55.799 -62.985)" fill="#f3793c" fill-rule="evenodd"/>
              <path id="_302849712" d="M56.41,35.361H39.518V45.548l8.446,5.011,8.446-5.011Z" transform="translate(-35.091 -25.309)" fill="#af66da" fill-rule="evenodd"/>
              <path id="_302850240" d="M58.43,55.014l.694.412.694-.412V44.3a.694.694,0,1,0-1.388,0Z" transform="translate(-46.251 -30.176)" fill="#9357b6" fill-rule="evenodd"/>
              <path id="_302850120" d="M106.432,39.641,98.924,42.29a7.559,7.559,0,1,1,7.508-2.649Z" transform="translate(-66.642 -20.581)" fill="#25b753" fill-rule="evenodd"/>
              <path id="_302850408" d="M109.423,44.7l3.152,5.46,3.152,5.46H103.119l3.152-5.46Z" transform="translate(-72.622 -30.822)" fill="#58c5fb" fill-rule="evenodd"/>
              <path id="_302849856" d="M47.952,23.136l8.454,5.02-8.454,5.02L39.5,28.156Z" transform="translate(-35.079 -18.095)" fill="#9357b6" fill-rule="evenodd"/>
              <path id="_302850432" d="M45.728,95.105h-6.21l3.105-6.614Z" transform="translate(-35.091 -56.661)" fill="#fdaa66" fill-rule="evenodd"/>
            </g>
            <g id="Grupo_1224455" data-name="Grupo 1224455">
              <path id="_302849520" d="M28.409,71.333H74.555v-60.8H28.409Zm46.84,1.388H27.714a.694.694,0,0,1-.694-.694V9.834a.694.694,0,0,1,.694-.694H75.249a.694.694,0,0,1,.694.694V72.027a.694.694,0,0,1-.694.694Z" transform="translate(-27.02 -9.14)" fill-rule="evenodd"/>
              <path id="_302849424" d="M97.635,117.943h12.713L97.635,99.583Zm14.038,1.388H96.941a.694.694,0,0,1-.694-.694V97.362a.694.694,0,0,1,1.265-.395l14.732,21.274a.695.695,0,0,1-.571,1.09Z" transform="translate(-67.871 -60.791)" fill-rule="evenodd"/>
              <path id="_302849088" d="M99.674,120.183H96.941a.694.694,0,1,1,0-1.388h2.733a.694.694,0,1,1,0,1.388Z" transform="translate(-67.871 -73.848)" fill-rule="evenodd"/>
              <path id="_302849664" d="M98.763,130.741H96.94a.694.694,0,1,1,0-1.388h1.822a.694.694,0,1,1,0,1.388Z" transform="translate(-67.871 -80.079)" fill-rule="evenodd"/>
              <path id="_302849328" d="M99.674,141.3H96.941a.694.694,0,1,1,0-1.388h2.733a.694.694,0,1,1,0,1.388Z" transform="translate(-67.871 -86.308)" fill-rule="evenodd"/>
              <path id="_302849640" d="M39.211,115.981h4.822V104.325H39.211Zm5.516,1.388h-6.21a.694.694,0,0,1-.694-.694V103.631a.693.693,0,0,1,.694-.694h6.21a.693.693,0,0,1,.694.694v13.044A.694.694,0,0,1,44.727,117.369Z" transform="translate(-33.395 -64.49)" fill-rule="evenodd"/>
              <path id="_302849544" d="M44.727,94.8a.694.694,0,0,1-.629-.4l-2.477-5.276L39.145,94.4a.694.694,0,0,1-1.257-.59L40.993,87.2a.694.694,0,0,1,1.257,0l3.105,6.615a.7.7,0,0,1-.628.989Z" transform="translate(-33.394 -54.966)" fill-rule="evenodd"/>
              <path id="_302849232" d="M46.092,117.37a.694.694,0,0,1-.694-.694V103.632a.694.694,0,0,1,1.388,0v13.044A.694.694,0,0,1,46.092,117.37Z" transform="translate(-37.865 -64.491)" fill-rule="evenodd"/>
              <path id="_302848944" d="M41.622,141.811a3.8,3.8,0,0,1-3.8-3.8v-2.555a.694.694,0,0,1,1.388,0v2.555a2.411,2.411,0,1,0,4.822,0v-2.555a.694.694,0,0,1,1.388,0v2.555A3.8,3.8,0,0,1,41.622,141.811Z" transform="translate(-33.395 -83.27)" fill-rule="evenodd"/>
              <path id="_302848968" d="M66.293,112.118h6.568V88.185H66.293Zm7.262,1.388H65.6a.694.694,0,0,1-.694-.694V87.491A.694.694,0,0,1,65.6,86.8h7.956a.694.694,0,0,1,.694.694v25.321a.694.694,0,0,1-.694.694Z" transform="translate(-49.377 -54.966)" fill-rule="evenodd"/>
              <path id="_302848440" d="M79.282,100.6H75.3a.694.694,0,1,1,0-1.388h3.978a.694.694,0,1,1,0,1.388Z" transform="translate(-55.104 -62.29)" fill-rule="evenodd"/>
              <path id="_302848368" d="M80.743,119.072H77.78a.694.694,0,1,1,0-1.388h2.963a.694.694,0,1,1,0,1.388Z" transform="translate(-56.565 -73.193)" fill-rule="evenodd"/>
              <path id="_302848272" d="M79.282,137.55H75.3a.694.694,0,1,1,0-1.388h3.978a.694.694,0,1,1,0,1.388Z" transform="translate(-55.104 -84.097)" fill-rule="evenodd"/>
              <path id="_302848608" d="M39.877,27.145l7.086,4.2,7.086-4.2-7.086-4.2Zm7.086,5.7a.691.691,0,0,1-.354-.1l-8.446-5.01a.695.695,0,0,1,0-1.194l8.446-5.012a.7.7,0,0,1,.708,0l8.446,5.012a.695.695,0,0,1,0,1.194l-8.446,5.01a.689.689,0,0,1-.354.1Z" transform="translate(-33.395 -16.398)" fill-rule="evenodd"/>
              <path id="_302848776" d="M46.963,50.253a.692.692,0,0,1-.354-.1l-8.446-5.01a.7.7,0,0,1-.34-.6V34.36a.694.694,0,1,1,1.388,0v9.792l7.752,4.6,7.752-4.6V34.36a.694.694,0,1,1,1.388,0V44.547a.7.7,0,0,1-.34.6l-8.446,5.01a.69.69,0,0,1-.354.1Z" transform="translate(-33.395 -23.613)" fill-rule="evenodd"/>
              <path id="_302848512" d="M59.122,57.466a.694.694,0,0,1-.694-.694V46.583a.694.694,0,1,1,1.388,0V56.772A.694.694,0,0,1,59.122,57.466Z" transform="translate(-45.554 -30.826)" fill-rule="evenodd"/>
              <path id="_302848872" d="M97.926,41.984a.658.658,0,0,1-.149-.017,8.253,8.253,0,1,1,8.2-2.892.694.694,0,1,1-1.081-.871,6.784,6.784,0,0,0,1.514-4.3,6.863,6.863,0,1,0-8.333,6.705.695.695,0,0,1-.147,1.374Z" transform="translate(-64.947 -18.885)" fill-rule="evenodd"/>
              <path id="_302848344" d="M103.322,53.927h10.2l-5.1-8.838Zm11.407,1.388H102.12a.694.694,0,0,1-.6-1.041l6.3-10.92a.694.694,0,0,1,1.2,0l6.3,10.92a.694.694,0,0,1-.6,1.041Z" transform="translate(-70.928 -29.125)" fill-rule="evenodd"/>
            </g>
          </g>
        </g>
      </g>
    </g>
  </g>
</svg>
