<svg xmlns="http://www.w3.org/2000/svg" xmlns:xlink="http://www.w3.org/1999/xlink" width="113" height="113" viewBox="0 0 113 113">
  <defs>
    <filter id="Trazado_982547" x="0" y="0" width="113" height="113" filterUnits="userSpaceOnUse">
      <feOffset dy="3" input="SourceAlpha"/>
      <feGaussianBlur stdDeviation="3" result="blur"/>
      <feFlood flood-opacity="0.161"/>
      <feComposite operator="in" in2="blur"/>
      <feComposite in="SourceGraphic"/>
    </filter>
  </defs>
  <g id="Grupo_1224466" data-name="Grupo 1224466" transform="translate(-900.509 -3776.792)">
    <g id="Grupo_1224223" data-name="Grupo 1224223" transform="translate(0 1822.041)">
      <g id="Grupo_1224093" data-name="Grupo 1224093" transform="translate(226.51 -2620.317)">
        <g id="Grupo_1223184" data-name="Grupo 1223184" transform="translate(683 4581.069)">
          <g id="Grupo_1211216" data-name="Grupo 1211216" transform="translate(0)">
            <g id="Grupo_1210737" data-name="Grupo 1210737">
              <g id="Grupo_1210537" data-name="Grupo 1210537">
                <g id="Grupo_1164202" data-name="Grupo 1164202">
                  <g id="Grupo_1158168" data-name="Grupo 1158168">
                    <g id="Grupo_1152576" data-name="Grupo 1152576">
                      <g id="Grupo_1148633" data-name="Grupo 1148633">
                        <g id="Grupo_1148525" data-name="Grupo 1148525">
                          <g transform="matrix(1, 0, 0, 1, -9, -6)" filter="url(#Trazado_982547)">
                            <g id="Trazado_982547-2" data-name="Trazado 982547" transform="translate(9 6)" fill="#fdfbec">
                              <path d="M 47.49999618530273 93.5 C 41.28936767578125 93.5 35.26533126831055 92.28396606445312 29.59518241882324 89.88570404052734 C 24.11771583557129 87.56893157958984 19.19812965393066 84.251953125 14.97308921813965 80.02690124511719 C 10.74803638458252 75.80186462402344 7.431062698364258 70.88227844238281 5.114289283752441 65.40480804443359 C 2.716022968292236 59.73466110229492 1.499996185302734 53.71062469482422 1.499996185302734 47.49999618530273 C 1.499996185302734 41.28936767578125 2.716022968292236 35.26533126831055 5.114289283752441 29.59518241882324 C 7.431062698364258 24.11771583557129 10.74803638458252 19.19812965393066 14.97308921813965 14.97308921813965 C 19.19812965393066 10.74803638458252 24.11771583557129 7.431062698364258 29.59518241882324 5.114289283752441 C 35.26533126831055 2.716022968292236 41.28936767578125 1.499996185302734 47.49999618530273 1.499996185302734 C 53.71062469482422 1.499996185302734 59.73466110229492 2.716022968292236 65.40480804443359 5.114289283752441 C 70.88227844238281 7.431062698364258 75.80186462402344 10.74803638458252 80.02690124511719 14.97308921813965 C 84.251953125 19.19812965393066 87.56893157958984 24.11771583557129 89.88570404052734 29.59518241882324 C 92.28396606445312 35.26533126831055 93.5 41.28936767578125 93.5 47.49999618530273 C 93.5 53.71062469482422 92.28396606445312 59.73466110229492 89.88570404052734 65.40480804443359 C 87.56893157958984 70.88227844238281 84.251953125 75.80186462402344 80.02690124511719 80.02690124511719 C 75.80186462402344 84.251953125 70.88227844238281 87.56893157958984 65.40480804443359 89.88570404052734 C 59.73466110229492 92.28396606445312 53.71062469482422 93.5 47.49999618530273 93.5 Z" stroke="none"/>
                              <path d="M 47.49999618530273 2.999992370605469 C 41.4912109375 2.999992370605469 35.66376495361328 4.1761474609375 30.17950439453125 6.495796203613281 C 24.88084411621094 8.736953735351562 20.12152099609375 11.94598388671875 16.03375244140625 16.03375244140625 C 11.94598388671875 20.12152099609375 8.736953735351562 24.88084411621094 6.495796203613281 30.17950439453125 C 4.1761474609375 35.66376495361328 2.999992370605469 41.4912109375 2.999992370605469 47.49999618530273 C 2.999992370605469 53.50878143310547 4.1761474609375 59.33622741699219 6.495796203613281 64.82048797607422 C 8.736953735351562 70.11914825439453 11.94598388671875 74.87847137451172 16.03375244140625 78.96623992919922 C 20.12152099609375 83.05400848388672 24.88084411621094 86.26304626464844 30.17950439453125 88.50419616699219 C 35.66376495361328 90.82384490966797 41.4912109375 92 47.49999618530273 92 C 53.50878143310547 92 59.33622741699219 90.82384490966797 64.82048797607422 88.50419616699219 C 70.11914825439453 86.26304626464844 74.87847137451172 83.05400848388672 78.96623992919922 78.96623992919922 C 83.05400848388672 74.87847137451172 86.26304626464844 70.11914825439453 88.50419616699219 64.82048797607422 C 90.82384490966797 59.33622741699219 92 53.50878143310547 92 47.49999618530273 C 92 41.4912109375 90.82384490966797 35.66376495361328 88.50419616699219 30.17950439453125 C 86.26304626464844 24.88084411621094 83.05400848388672 20.12152099609375 78.96623992919922 16.03375244140625 C 74.87847137451172 11.94598388671875 70.11914825439453 8.736953735351562 64.82048797607422 6.495796203613281 C 59.33622741699219 4.1761474609375 53.50878143310547 2.999992370605469 47.49999618530273 2.999992370605469 M 47.49999618530273 -7.62939453125e-06 C 73.7335205078125 -7.62939453125e-06 95 21.26647186279297 95 47.49999618530273 C 95 73.7335205078125 73.7335205078125 95 47.49999618530273 95 C 21.26647186279297 95 -7.62939453125e-06 73.7335205078125 -7.62939453125e-06 47.49999618530273 C -7.62939453125e-06 21.26647186279297 21.26647186279297 -7.62939453125e-06 47.49999618530273 -7.62939453125e-06 Z" stroke="none" fill="#83793c"/>
                            </g>
                          </g>
                        </g>
                      </g>
                    </g>
                  </g>
                </g>
              </g>
            </g>
          </g>
        </g>
      </g>
    </g>
    <g id="patent_9934781" transform="translate(908.457 3790.191)">
      <g id="Grupo_1224465" data-name="Grupo 1224465" transform="translate(19.307 9.114)">
        <g id="Grupo_1224460" data-name="Grupo 1224460" transform="translate(35.021 26.667)">
          <path id="Trazado_1055060" data-name="Trazado 1055060" d="M300.425,233.11v-6.182a1.8,1.8,0,0,1,3.6,0v-2.5a1.8,1.8,0,1,1,3.6,0v2.025a1.8,1.8,0,0,1,3.6,0v9.51c0,8.1.919,10.574,4.016,5.725,1.588-2.487,4.372-1.753,6.054-.763-3.3,5.61-9.744,10.805-9.744,16v1.009H298.386v-1.009c0-4.258-1.556-4.027-1.556-8.666V233.11a1.8,1.8,0,1,1,3.6,0Z" transform="translate(-296.83 -222.628)" fill="#f6dccd" fill-rule="evenodd"/>
          <g id="Grupo_1224459" data-name="Grupo 1224459" transform="translate(2.035 0.016)">
            <path id="Trazado_1055061" data-name="Trazado 1055061" d="M316.148,225.252a1.8,1.8,0,0,1,1.56,1.782v12.183a.78.78,0,0,1-1.56,0Zm7.191-.477a1.8,1.8,0,0,1,1.56,1.782v9.51a.78.78,0,0,1-1.56,0V224.775Zm-3.6-2.025a1.8,1.8,0,0,1,1.56,1.782v13.735a.78.78,0,1,1-1.56,0Zm-7.191,8.684a1.8,1.8,0,0,1,1.56,1.782v7.764a.78.78,0,0,1-1.56,0v-9.546Z" transform="translate(-312.552 -222.75)" fill="#f1cbbc" fill-rule="evenodd"/>
            <path id="Trazado_1055062" data-name="Trazado 1055062" d="M407.938,325.638c0,8.1.919,10.574,4.016,5.725,1.588-2.487,4.372-1.753,6.054-.763q-.214.363-.451.73c-1.7-.847-4.149-1.268-5.6,1.008-3.1,4.849-4.016,2.376-4.016-5.725Z" transform="translate(-395.591 -312.32)" fill="#f1cbbc" fill-rule="evenodd"/>
          </g>
        </g>
        <g id="Grupo_1224462" data-name="Grupo 1224462" transform="translate(0 26.667)">
          <path id="Trazado_1055063" data-name="Trazado 1055063" d="M47.127,233.11v-6.182a1.8,1.8,0,0,0-3.6,0v-2.5a1.8,1.8,0,0,0-3.6,0v2.025a1.8,1.8,0,0,0-3.6,0v9.51c0,8.1-.919,10.574-4.016,5.725-1.588-2.487-4.372-1.753-6.054-.763,3.3,5.61,9.744,10.805,9.744,16v1.009H49.166v-1.009c0-4.258,1.556-4.027,1.556-8.666V233.11a1.8,1.8,0,1,0-3.6,0Z" transform="translate(-26.271 -222.628)" fill="#f6dccd" fill-rule="evenodd"/>
          <g id="Grupo_1224461" data-name="Grupo 1224461" transform="translate(0 0.016)">
            <path id="Trazado_1055064" data-name="Trazado 1055064" d="M112.813,225.252a1.8,1.8,0,0,0-1.56,1.782v12.183a.78.78,0,0,0,1.56,0V225.252Zm-7.191-.477a1.8,1.8,0,0,0-1.56,1.782v9.51a.78.78,0,0,0,1.56,0Zm3.6-2.025a1.8,1.8,0,0,0-1.56,1.782v13.735a.78.78,0,1,0,1.56,0Zm7.191,8.684a1.8,1.8,0,0,0-1.56,1.782v7.764a.78.78,0,0,0,1.56,0v-9.546Z" transform="translate(-93.993 -222.75)" fill="#f1cbbc" fill-rule="evenodd"/>
            <path id="Trazado_1055065" data-name="Trazado 1055065" d="M36.339,325.638c0,8.1-.919,10.574-4.016,5.725-1.588-2.487-4.372-1.753-6.054-.763q.214.363.451.73c1.7-.847,4.149-1.268,5.6,1.008,3.1,4.849,4.016,2.376,4.016-5.725Z" transform="translate(-26.27 -312.32)" fill="#f1cbbc" fill-rule="evenodd"/>
          </g>
        </g>
        <g id="Grupo_1224463" data-name="Grupo 1224463" transform="translate(9.087 0)">
          <path id="Trazado_1055066" data-name="Trazado 1055066" d="M97.554,16.608h33.081a1.042,1.042,0,0,1,.763.316l6.059,6.059a1.043,1.043,0,0,1,.316.763V62.561a1.081,1.081,0,0,1-1.079,1.079H97.554a1.081,1.081,0,0,1-1.079-1.079V17.687a1.081,1.081,0,0,1,1.079-1.079Z" transform="translate(-96.475 -16.608)" fill="#eceff1" fill-rule="evenodd"/>
          <path id="Trazado_1055067" data-name="Trazado 1055067" d="M97.554,16.607h1.974V63.64H97.554a1.081,1.081,0,0,1-1.079-1.079V17.686a1.081,1.081,0,0,1,1.079-1.079Z" transform="translate(-96.475 -16.607)" fill="#d1d1d6" fill-rule="evenodd"/>
          <path id="Trazado_1055068" data-name="Trazado 1055068" d="M363.833,17.33a1.084,1.084,0,0,1,.316.223l6.059,6.059a1.08,1.08,0,0,1,.223.316h-6.058a.54.54,0,0,1-.539-.54V17.33Z" transform="translate(-329.226 -17.236)" fill="#a79ba7" fill-rule="evenodd"/>
        </g>
        <g id="Grupo_1224464" data-name="Grupo 1224464" transform="translate(21.24 7.558)">
          <path id="Trazado_1055069" data-name="Trazado 1055069" d="M238.413,264.092h4.553v2.316a1.385,1.385,0,0,1-1.381,1.381h-1.792a1.385,1.385,0,0,1-1.381-1.381Z" transform="translate(-232.193 -239.615)" fill="#b1b1b5" fill-rule="evenodd"/>
          <path id="Trazado_1055070" data-name="Trazado 1055070" d="M227.474,238.333h7.385v2.888a1.385,1.385,0,0,1-1.381,1.381h-4.624a1.384,1.384,0,0,1-1.381-1.381Z" transform="translate(-222.67 -217.191)" fill="#d1d1d6" fill-rule="evenodd"/>
          <path id="Trazado_1055071" data-name="Trazado 1055071" d="M262.818,235.091V238.4a1.385,1.385,0,0,1-1.381,1.381h1.608a1.385,1.385,0,0,0,1.381-1.381V235.09c-.525.017-1.08,0-1.608,0Z" transform="translate(-252.237 -214.367)" fill="#b1b1b5" fill-rule="evenodd"/>
          <path id="Trazado_1055072" data-name="Trazado 1055072" d="M216.807,217.993h10.146v2.76a1.385,1.385,0,0,1-1.381,1.381h-7.385a1.385,1.385,0,0,1-1.381-1.381Z" transform="translate(-213.384 -199.483)" fill="#eceff1" fill-rule="evenodd"/>
          <path id="Trazado_1055073" data-name="Trazado 1055073" d="M273.484,228.647v1.381a1.385,1.385,0,0,1-1.381,1.381h1.654a1.385,1.385,0,0,0,1.335-1.38v-1.381Z" transform="translate(-261.522 -208.758)" fill="#d1d1d6" fill-rule="evenodd"/>
          <path id="Trazado_1055074" data-name="Trazado 1055074" d="M198.857,75a8.5,8.5,0,0,1,8.5,8.5c0,4.719-3.014,4.437-3.423,11.392H193.784c-.409-6.956-3.423-6.674-3.423-11.392A8.5,8.5,0,0,1,198.857,75Z" transform="translate(-190.361 -74.995)" fill="#ffe177" fill-rule="evenodd"/>
          <path id="Trazado_1055075" data-name="Trazado 1055075" d="M249.788,75.033a8.5,8.5,0,0,1,7.692,8.459c0,4.383-2.6,4.452-3.3,10.013-.053.426-.1.884-.125,1.379h1.608c.409-6.956,3.423-6.674,3.423-11.392a8.5,8.5,0,0,0-8.5-8.5Q250.185,75,249.788,75.033Z" transform="translate(-242.096 -74.996)" fill="#ffd064" fill-rule="evenodd"/>
        </g>
      </g>
      <path id="Trazado_1055076" data-name="Trazado 1055076" d="M33.686,51.935A1.036,1.036,0,0,1,34.721,50.9H63.364a1.036,1.036,0,1,1,0,2.071H34.721A1.035,1.035,0,0,1,33.686,51.935Zm0-3.583a1.035,1.035,0,0,1,1.035-1.036H63.364a1.036,1.036,0,1,1,0,2.071H34.721A1.035,1.035,0,0,1,33.686,48.352ZM59.245,20.646a1.035,1.035,0,0,1,.38-1.415l1.733-1a1.036,1.036,0,0,1,1.036,1.794l-1.733,1a1.021,1.021,0,0,1-.516.139A1.034,1.034,0,0,1,59.245,20.646ZM54.555,14.92l1-1.733a1.036,1.036,0,1,1,1.794,1.036l-1,1.733a1.036,1.036,0,1,1-1.794-1.036ZM35.313,18.61a1.035,1.035,0,0,1,1.415-.379l1.733,1a1.036,1.036,0,0,1-1.035,1.794l-1.733-1A1.035,1.035,0,0,1,35.313,18.61Zm5.424-4.388a1.036,1.036,0,0,1,1.794-1.036l1,1.733a1.035,1.035,0,0,1-.38,1.415,1.022,1.022,0,0,1-.516.139,1.035,1.035,0,0,1-.9-.518Zm7.271-.5v-2a1.035,1.035,0,0,1,2.071,0v2a1.035,1.035,0,1,1-2.071,0Zm3.539,12.371v-.938a.939.939,0,1,1,.938.938Zm-2.5-8.463a7.47,7.47,0,0,0-7.46,7.461,6.9,6.9,0,0,0,1.248,4.045,13.79,13.79,0,0,1,2.1,6.313h1.616V28.162H45.6a3.01,3.01,0,1,1,3.011-3.009v.938h.863v-.938a3.009,3.009,0,1,1,3.009,3.009h-.938v7.285H53.16a13.794,13.794,0,0,1,2.1-6.313A6.908,6.908,0,0,0,56.5,25.089a7.47,7.47,0,0,0-7.461-7.461Zm.9,26.1H48.147a.35.35,0,0,1-.345-.346v-.344h2.483v.344A.35.35,0,0,1,49.939,43.731Zm1.416-2.761H46.731a.351.351,0,0,1-.345-.346v-.346H51.7v.346A.35.35,0,0,1,51.355,40.969Zm1.725-3.452v.346a.349.349,0,0,1-.344.344H45.35a.349.349,0,0,1-.344-.344v-.346Zm-3.605-2.071h-.863V28.162h.863Zm-2.934-9.356H45.6a.939.939,0,1,1,.94-.938ZM42.934,36.516v1.347a2.417,2.417,0,0,0,1.38,2.179v.582a2.42,2.42,0,0,0,1.416,2.2v.564A2.419,2.419,0,0,0,48.147,45.8h1.792a2.419,2.419,0,0,0,2.416-2.417v-.564a2.42,2.42,0,0,0,1.416-2.2v-.582a2.417,2.417,0,0,0,1.38-2.179V36.516a12.1,12.1,0,0,1,1.892-6.336,8.911,8.911,0,0,0,1.532-5.091,9.532,9.532,0,0,0-19.064,0,8.911,8.911,0,0,0,1.532,5.091A12.1,12.1,0,0,1,42.934,36.516ZM73.7,59.166c-3.007,3.722-5.847,7.236-5.86,10.965H57.076a10.864,10.864,0,0,0-.9-4.55,9.881,9.881,0,0,1-.813-4.248V57.1h13.2a1.96,1.96,0,0,0,1.427,1.147c1.121.172,2.167-.677,3.606-2.932.99-1.549,2.6-1.309,3.695-.892C76.247,56.017,74.958,57.614,73.7,59.166Zm-30.98,2.167a9.892,9.892,0,0,1-.813,4.248,10.87,10.87,0,0,0-.9,4.55H30.244c-.013-3.729-2.853-7.243-5.86-10.965-1.256-1.552-2.545-3.149-3.59-4.74,1.095-.417,2.7-.657,3.694.892,1.439,2.255,2.485,3.1,3.606,2.932A1.96,1.96,0,0,0,29.522,57.1h13.2ZM29.429,10.114V54.989a.046.046,0,0,0,.044.043H68.613a.046.046,0,0,0,.045-.043V16.762H63.54a1.577,1.577,0,0,1-1.575-1.575V10.071H29.473a.046.046,0,0,0-.044.043Zm37.763,4.577H64.036V11.535ZM79.3,53.1c-2.263-1.332-5.572-1.844-7.452,1.1a9.051,9.051,0,0,1-1.38,1.789,2.086,2.086,0,0,0,.255-1V16.173a2.073,2.073,0,0,0-.62-1.5L64.049,8.619A2.072,2.072,0,0,0,62.553,8H29.473a2.117,2.117,0,0,0-2.115,2.114V54.989a2.1,2.1,0,0,0,.255,1A9.082,9.082,0,0,1,26.233,54.2c-1.88-2.943-5.188-2.431-7.452-1.1a1.038,1.038,0,0,0-.367,1.419,51.31,51.31,0,0,0,4.357,5.945c2.778,3.437,5.4,6.683,5.4,9.689v1.009A1.037,1.037,0,0,0,29.208,72.2H42.045a1.037,1.037,0,0,0,1.036-1.036V70.157a8.884,8.884,0,0,1,.757-3.821,11.917,11.917,0,0,0,.955-5V57.1h8.5v4.23a11.918,11.918,0,0,0,.955,5A8.9,8.9,0,0,1,55,70.157v1.009A1.037,1.037,0,0,0,56.041,72.2H68.878a1.037,1.037,0,0,0,1.035-1.036V70.157c0-3.006,2.623-6.252,5.4-9.689a51.231,51.231,0,0,0,4.357-5.945A1.036,1.036,0,0,0,79.3,53.1Z" transform="translate(0 0)" fill-rule="evenodd"/>
    </g>
  </g>
</svg>
