<svg xmlns="http://www.w3.org/2000/svg" xmlns:xlink="http://www.w3.org/1999/xlink" width="108" height="108" viewBox="0 0 108 108">
  <defs>
    <filter id="Trazado_904820" x="0" y="0" width="108" height="108" filterUnits="userSpaceOnUse">
      <feOffset dy="3" input="SourceAlpha"/>
      <feGaussianBlur stdDeviation="3" result="blur"/>
      <feFlood flood-opacity="0.161"/>
      <feComposite operator="in" in2="blur"/>
      <feComposite in="SourceGraphic"/>
    </filter>
    <clipPath id="clip-path">
      <path id="path7278" d="M0-682.665H73.716v73.716H0Z" transform="translate(0 682.665)"/>
    </clipPath>
  </defs>
  <g id="Grupo_1224652" data-name="Grupo 1224652" transform="translate(-200.522 -7685.063)">
    <g id="Grupo_1224296" data-name="Grupo 1224296" transform="translate(209.522 7691.063)">
      <g id="Grupo_1208347" data-name="Grupo 1208347" transform="translate(0 0)">
        <g id="Grupo_1207936" data-name="Grupo 1207936">
          <g id="Grupo_1201662" data-name="Grupo 1201662">
            <g id="Grupo_1173585" data-name="Grupo 1173585">
              <g id="Grupo_1173428" data-name="Grupo 1173428">
                <g id="Grupo_1171958" data-name="Grupo 1171958">
                  <g id="Grupo_1167341" data-name="Grupo 1167341">
                    <g id="Grupo_1166792" data-name="Grupo 1166792">
                      <g transform="matrix(1, 0, 0, 1, -9, -6)" filter="url(#Trazado_904820)">
                        <g id="Trazado_904820-2" data-name="Trazado 904820" transform="translate(9 6)" fill="#fdfbec">
                          <path d="M 44.99999618530273 88.49979400634766 C 39.12687301635742 88.49979400634766 33.43022155761719 87.34986877441406 28.06829643249512 85.08197021484375 C 22.88852119445801 82.89112091064453 18.23629570007324 79.75440979003906 14.24084663391113 75.75897216796875 C 10.24539661407471 71.76353454589844 7.108683586120605 67.11132049560547 4.917821407318115 61.93156051635742 C 2.649921178817749 56.56964874267578 1.499996185302734 50.87300872802734 1.499996185302734 44.99989700317383 C 1.499996185302734 39.12678527832031 2.649921178817749 33.43014526367188 4.917821407318115 28.06823539733887 C 7.108683586120605 22.88847160339355 10.24539661407471 18.23625946044922 14.24084663391113 14.24082183837891 C 18.23629570007324 10.24538421630859 22.88852119445801 7.108672142028809 28.06829643249512 4.917821884155273 C 33.43022155761719 2.649921894073486 39.12687301635742 1.499997019767761 44.99999618530273 1.499997019767761 C 50.87311935424805 1.499997019767761 56.56977081298828 2.649921894073486 61.93169784545898 4.917821884155273 C 67.11147308349609 7.108672142028809 71.76369476318359 10.24538421630859 75.75914764404297 14.24082183837891 C 79.75459289550781 18.23625946044922 82.89131164550781 22.88847160339355 85.08216857910156 28.06823539733887 C 87.35007476806641 33.43014526367188 88.5 39.12678527832031 88.5 44.99989700317383 C 88.5 50.87300872802734 87.35007476806641 56.56964874267578 85.08216857910156 61.93156051635742 C 82.89131164550781 67.11132049560547 79.75459289550781 71.76353454589844 75.75914764404297 75.75897216796875 C 71.76369476318359 79.75440979003906 67.11147308349609 82.89112091064453 61.93169784545898 85.08197021484375 C 56.56977081298828 87.34986877441406 50.87311935424805 88.49979400634766 44.99999618530273 88.49979400634766 Z" stroke="none"/>
                          <path d="M 44.99999618530273 3 C 39.32870864868164 3 33.82865142822266 4.110054016113281 28.65262603759766 6.299324035644531 C 23.65164184570312 8.41455078125 19.15968322753906 11.44331359863281 15.301513671875 15.30148315429688 C 11.44333648681641 19.15963745117188 8.414566040039062 23.65159606933594 6.299324035644531 28.65255355834961 C 4.110054016113281 33.82858276367188 2.999992370605469 39.3286247253418 2.999992370605469 44.99989700317383 C 2.999992370605469 50.67116928100586 4.110054016113281 56.17121124267578 6.299324035644531 61.34722518920898 C 8.414566040039062 66.34819793701172 11.44333648681641 70.84014129638672 15.301513671875 74.69831085205078 C 19.15968322753906 78.55646514892578 23.65165710449219 81.58523559570312 28.65262603759766 83.70046997070312 C 33.82865142822266 85.88973999023438 39.32870864868164 86.99979400634766 44.99999618530273 86.99979400634766 C 50.67128372192383 86.99979400634766 56.17134094238281 85.88973999023438 61.34736633300781 83.70046997070312 C 66.34834289550781 81.58523559570312 70.84030914306641 78.55646514892578 74.69847869873047 74.69831085205078 C 78.55665588378906 70.84014129638672 81.58542633056641 66.34819793701172 83.70066833496094 61.34722518920898 C 85.88993835449219 56.17121124267578 87 50.67116928100586 87 44.99989700317383 C 87 39.3286247253418 85.88993835449219 33.82858276367188 83.70066833496094 28.65255355834961 C 81.58542633056641 23.65159606933594 78.55665588378906 19.15963745117188 74.69847869873047 15.30148315429688 C 70.84030914306641 11.44331359863281 66.34835052490234 8.41455078125 61.34736633300781 6.299324035644531 C 56.17134094238281 4.110054016113281 50.67128372192383 3 44.99999618530273 3 M 44.99999618530273 0 C 69.85281372070312 0 90 20.14712524414062 90 44.99989700317383 C 90 69.85265350341797 69.85281372070312 89.99979400634766 44.99999618530273 89.99979400634766 C 20.14717864990234 89.99979400634766 -7.62939453125e-06 69.85265350341797 -7.62939453125e-06 44.99989700317383 C -7.62939453125e-06 20.14712524414062 20.14717864990234 0 44.99999618530273 0 Z" stroke="none" fill="#83793c"/>
                        </g>
                      </g>
                    </g>
                  </g>
                </g>
              </g>
            </g>
          </g>
        </g>
      </g>
    </g>
    <g id="g7272" transform="translate(217.665 8382.187)">
      <g id="g7274" transform="translate(0 -682.665)">
        <g id="g7276" clip-path="url(#clip-path)">
          <g id="g7282" transform="translate(9.49 9.266)">
            <path id="path7284" d="M0-66.177a33.5,33.5,0,0,1,8.271-8.011" transform="translate(0 74.188)" fill="none" stroke="#000" stroke-linecap="round" stroke-linejoin="round" stroke-miterlimit="10" stroke-width="1.5"/>
          </g>
          <g id="g7286" transform="translate(9.149 9.539)">
            <path id="path7288" d="M-451.181-225.591a27.309,27.309,0,0,1-27.309,27.309A27.309,27.309,0,0,1-505.8-225.591,27.309,27.309,0,0,1-478.49-252.9a27.309,27.309,0,0,1,27.309,27.309" transform="translate(505.799 252.899)" fill="#66d5e2"/>
          </g>
          <g id="g7290" transform="translate(10.279 10.658)">
            <path id="path7292" d="M0-151.935a27.368,27.368,0,0,1,18.416-18.392" transform="translate(0 170.328)" fill="none" stroke="#000" stroke-linecap="round" stroke-linejoin="round" stroke-miterlimit="10" stroke-width="1.5"/>
          </g>
          <g id="g7294" transform="translate(10.28 44.649)">
            <path id="path7296" d="M-152.291-151.948a27.368,27.368,0,0,1-18.435-18.394" transform="translate(170.726 170.342)" fill="none" stroke="#000" stroke-linecap="round" stroke-linejoin="round" stroke-miterlimit="10" stroke-width="1.5"/>
          </g>
          <g id="g7298" transform="translate(44.205 44.598)">
            <path id="path7300" d="M-152.381,0a27.368,27.368,0,0,1-18.446,18.443" transform="translate(170.828)" fill="none" stroke="#000" stroke-linecap="round" stroke-linejoin="round" stroke-miterlimit="10" stroke-width="1.5"/>
          </g>
          <g id="g7302" transform="translate(44.228 10.66)">
            <path id="path7304" d="M0,0A27.368,27.368,0,0,1,18.421,18.432" fill="none" stroke="#000" stroke-linecap="round" stroke-linejoin="round" stroke-miterlimit="10" stroke-width="1.5"/>
          </g>
          <g id="g7306" transform="translate(46.787 31.977)">
            <path id="path7308" d="M0,0V7.579A3.789,3.789,0,0,0,3.789,3.789,3.789,3.789,0,0,0,0,0" fill="#f2d1a5"/>
          </g>
          <g id="g7310" transform="translate(46.787 31.977)">
            <path id="path7312" d="M0,0V7.579A3.789,3.789,0,0,0,3.789,3.789,3.789,3.789,0,0,0,0,0Z" fill="none" stroke="#000" stroke-linecap="round" stroke-linejoin="round" stroke-miterlimit="10" stroke-width="1.5"/>
          </g>
          <g id="g7314" transform="translate(22.102 31.977)">
            <path id="path7316" d="M-31.3,0a3.789,3.789,0,0,0-3.789,3.789A3.789,3.789,0,0,0-31.3,7.579V0Z" transform="translate(35.093)" fill="#f2d1a5"/>
          </g>
          <g id="g7318" transform="translate(22.102 31.977)">
            <path id="path7320" d="M-31.3,0a3.789,3.789,0,0,0-3.789,3.789A3.789,3.789,0,0,0-31.3,7.579V0Z" transform="translate(35.093)" fill="none" stroke="#000" stroke-linecap="round" stroke-linejoin="round" stroke-miterlimit="10" stroke-width="1.5"/>
          </g>
          <g id="g7322" transform="translate(25.891 28.609)">
            <path id="path7324" d="M-108.82-61.5h0Zm.028,7.878a4.5,4.5,0,0,1-5.766-.2h0a4.5,4.5,0,0,0,5.766.2l.259-.2Zm-7.965-7.878h0Zm12.261-6.658a3.866,3.866,0,0,0-4.585-.067l-.424.3a3.866,3.866,0,0,1-4.537-.031,3.866,3.866,0,0,0-4.967.325l-2.985,2.234v8.343A10.448,10.448,0,0,0-111.545-46.6h0A10.448,10.448,0,0,0-101.1-57.05v-8.526Z" transform="translate(121.993 68.945)" fill="#f2d1a5"/>
          </g>
          <g id="g7326" transform="translate(25.891 28.609)">
            <path id="path7328" d="M-108.82-61.5h0Zm.028,7.878a4.5,4.5,0,0,1-5.766-.2h0a4.5,4.5,0,0,0,5.766.2l.259-.2Zm-7.965-7.878h0Zm12.261-6.658a3.866,3.866,0,0,0-4.585-.067l-.424.3a3.866,3.866,0,0,1-4.537-.031,3.866,3.866,0,0,0-4.967.325l-2.985,2.234v8.343A10.448,10.448,0,0,0-111.545-46.6h0A10.448,10.448,0,0,0-101.1-57.05v-8.526Z" transform="translate(121.993 68.945)" fill="none" stroke="#000" stroke-linecap="round" stroke-linejoin="round" stroke-miterlimit="10" stroke-width="1.5"/>
          </g>
          <g id="g7330" transform="translate(25.891 22.644)">
            <path id="path7332" d="M-24.658-60.153a3.866,3.866,0,0,1,4.966-.325,3.866,3.866,0,0,0,4.537.031l.424-.3a3.866,3.866,0,0,1,4.585.067l3.4,2.581v-2.206a6.987,6.987,0,0,0-6.945-7.128H-20.7a6.945,6.945,0,0,0-6.945,6.945v2.571Z" transform="translate(27.643 67.435)" fill="#555151"/>
          </g>
          <g id="g7334" transform="translate(25.891 22.644)">
            <path id="path7336" d="M-24.658-60.153a3.866,3.866,0,0,1,4.966-.325,3.866,3.866,0,0,0,4.537.031l.424-.3a3.866,3.866,0,0,1,4.585.067l3.4,2.581v-2.206a6.987,6.987,0,0,0-6.945-7.128H-20.7a6.945,6.945,0,0,0-6.945,6.945v2.571Z" transform="translate(27.643 67.435)" fill="none" stroke="#000" stroke-linecap="round" stroke-linejoin="round" stroke-miterlimit="10" stroke-width="1.5"/>
          </g>
          <g id="g7338" transform="translate(43.388 29.396)">
            <path id="path7340" d="M-28.074-21.324h0l-3.4-2.581Z" transform="translate(31.472 23.905)" fill="#555151"/>
          </g>
          <g id="g7342" transform="translate(43.388 29.396)">
            <path id="path7344" d="M-28.074-21.324h0l-3.4-2.581Z" transform="translate(31.472 23.905)" fill="none" stroke="#000" stroke-linecap="round" stroke-linejoin="round" stroke-miterlimit="10" stroke-width="1.5"/>
          </g>
          <g id="g7346" transform="translate(28.641 1.722)">
            <path id="path7348" d="M-129.15-64.575a7.817,7.817,0,0,1-7.817,7.817,7.817,7.817,0,0,1-7.817-7.817,7.817,7.817,0,0,1,7.817-7.817,7.817,7.817,0,0,1,7.817,7.817" transform="translate(144.784 72.392)" fill="#55e9bc"/>
          </g>
          <g id="g7350" transform="translate(28.641 1.722)">
            <path id="path7352" d="M-129.15-64.575a7.817,7.817,0,0,1-7.817,7.817,7.817,7.817,0,0,1-7.817-7.817,7.817,7.817,0,0,1,7.817-7.817A7.817,7.817,0,0,1-129.15-64.575Z" transform="translate(144.784 72.392)" fill="none" stroke="#000" stroke-linecap="round" stroke-linejoin="round" stroke-miterlimit="10" stroke-width="1.5"/>
          </g>
          <g id="g7354" transform="translate(28.641 56.339)">
            <path id="path7356" d="M-129.15-64.575a7.817,7.817,0,0,1-7.817,7.817,7.817,7.817,0,0,1-7.817-7.817,7.817,7.817,0,0,1,7.817-7.817,7.817,7.817,0,0,1,7.817,7.817" transform="translate(144.784 72.392)" fill="#55e9bc"/>
          </g>
          <g id="g7358" transform="translate(28.641 56.339)">
            <path id="path7360" d="M-129.15-64.575a7.817,7.817,0,0,1-7.817,7.817,7.817,7.817,0,0,1-7.817-7.817,7.817,7.817,0,0,1,7.817-7.817A7.817,7.817,0,0,1-129.15-64.575Z" transform="translate(144.784 72.392)" fill="none" stroke="#000" stroke-linecap="round" stroke-linejoin="round" stroke-miterlimit="10" stroke-width="1.5"/>
          </g>
          <g id="g7362" transform="translate(1.737 29.03)">
            <path id="path7364" d="M-129.15-64.575a7.817,7.817,0,0,1-7.817,7.817,7.817,7.817,0,0,1-7.817-7.817,7.817,7.817,0,0,1,7.817-7.817,7.817,7.817,0,0,1,7.817,7.817" transform="translate(144.784 72.392)" fill="#55e9bc"/>
          </g>
          <g id="g7366" transform="translate(1.737 29.03)">
            <path id="path7368" d="M-129.15-64.575a7.817,7.817,0,0,1-7.817,7.817,7.817,7.817,0,0,1-7.817-7.817,7.817,7.817,0,0,1,7.817-7.817A7.817,7.817,0,0,1-129.15-64.575Z" transform="translate(144.784 72.392)" fill="none" stroke="#000" stroke-linecap="round" stroke-linejoin="round" stroke-miterlimit="10" stroke-width="1.5"/>
          </g>
          <g id="g7370" transform="translate(55.95 29.03)">
            <path id="path7372" d="M-129.15-64.575a7.817,7.817,0,0,1-7.817,7.817,7.817,7.817,0,0,1-7.817-7.817,7.817,7.817,0,0,1,7.817-7.817,7.817,7.817,0,0,1,7.817,7.817" transform="translate(144.784 72.392)" fill="#55e9bc"/>
          </g>
          <g id="g7374" transform="translate(55.95 29.03)">
            <path id="path7376" d="M-129.15-64.575a7.817,7.817,0,0,1-7.817,7.817,7.817,7.817,0,0,1-7.817-7.817,7.817,7.817,0,0,1,7.817-7.817A7.817,7.817,0,0,1-129.15-64.575Z" transform="translate(144.784 72.392)" fill="none" stroke="#000" stroke-linecap="round" stroke-linejoin="round" stroke-miterlimit="10" stroke-width="1.5"/>
          </g>
          <g id="g7378" transform="translate(32.895 5.976)">
            <path id="path7380" d="M-58.862-29.432a3.563,3.563,0,0,1-3.563,3.563,3.563,3.563,0,0,1-3.563-3.563,3.563,3.563,0,0,1,3.563-3.563,3.563,3.563,0,0,1,3.563,3.563" transform="translate(65.988 32.995)" fill="#ff825f"/>
          </g>
          <g id="g7382" transform="translate(32.895 5.976)">
            <path id="path7384" d="M-58.862-29.432a3.563,3.563,0,0,1-3.563,3.563,3.563,3.563,0,0,1-3.563-3.563,3.563,3.563,0,0,1,3.563-3.563A3.563,3.563,0,0,1-58.862-29.432Z" transform="translate(65.988 32.995)" fill="none" stroke="#000" stroke-linecap="round" stroke-linejoin="round" stroke-miterlimit="10" stroke-width="1.5"/>
          </g>
          <path id="path7386" d="M572.37-359.588h-5v-5h5Z" transform="translate(-506.102 398.936)" fill="#66d5e2" stroke="#000" stroke-linecap="round" stroke-linejoin="round" stroke-miterlimit="10" stroke-width="1.5"/>
          <g id="g7388" transform="translate(33.029 60.398)">
            <path id="path7390" d="M0-47.277,3.429-53l3.429,5.723Z" transform="translate(0 53)" fill="#ffda89"/>
          </g>
          <g id="g7392" transform="translate(33.029 60.398)">
            <path id="path7394" d="M0-47.277,3.429-53l3.429,5.723Z" transform="translate(0 53)" fill="none" stroke="#000" stroke-linecap="round" stroke-linejoin="round" stroke-miterlimit="10" stroke-width="1.5"/>
          </g>
          <g id="g7396" transform="translate(7.555 34.814)">
            <path id="path7398" d="M0-33.64l4.072-4.072" transform="translate(0 37.712)" fill="none" stroke="#000" stroke-linecap="round" stroke-linejoin="round" stroke-miterlimit="10" stroke-width="1.5"/>
          </g>
          <g id="g7400" transform="translate(7.563 34.822)">
            <path id="path7402" d="M0,0,4.072,4.072" fill="none" stroke="#000" stroke-linecap="round" stroke-linejoin="round" stroke-miterlimit="10" stroke-width="1.5"/>
          </g>
          <g id="g7404" transform="translate(6.411 22.266)">
            <path id="path7406" d="M-.17-.42-.191-.471" transform="translate(0.191 0.471)" fill="none" stroke="#000" stroke-linecap="round" stroke-linejoin="round" stroke-miterlimit="10" stroke-width="1.5"/>
          </g>
        </g>
      </g>
    </g>
  </g>
</svg>
