<svg xmlns="http://www.w3.org/2000/svg" xmlns:xlink="http://www.w3.org/1999/xlink" width="108" height="108" viewBox="0 0 108 108">
  <defs>
    <filter id="Trazado_904820" x="0" y="0" width="108" height="108" filterUnits="userSpaceOnUse">
      <feOffset dy="3" input="SourceAlpha"/>
      <feGaussianBlur stdDeviation="3" result="blur"/>
      <feFlood flood-opacity="0.161"/>
      <feComposite operator="in" in2="blur"/>
      <feComposite in="SourceGraphic"/>
    </filter>
  </defs>
  <g id="Grupo_1224408" data-name="Grupo 1224408" transform="translate(-200.522 -480.679)">
    <g id="Grupo_1209296" data-name="Grupo 1209296" transform="translate(209.522 486.679)">
      <g id="Grupo_1208347" data-name="Grupo 1208347" transform="translate(0 0)">
        <g id="Grupo_1207936" data-name="Grupo 1207936">
          <g id="Grupo_1201662" data-name="Grupo 1201662">
            <g id="Grupo_1173585" data-name="Grupo 1173585">
              <g id="Grupo_1173428" data-name="Grupo 1173428">
                <g id="Grupo_1171958" data-name="Grupo 1171958">
                  <g id="Grupo_1167341" data-name="Grupo 1167341">
                    <g id="Grupo_1166792" data-name="Grupo 1166792">
                      <g transform="matrix(1, 0, 0, 1, -9, -6)" filter="url(#Trazado_904820)">
                        <g id="Trazado_904820-2" data-name="Trazado 904820" transform="translate(9 6)" fill="#fdfbec">
                          <path d="M 44.99999618530273 88.49999237060547 C 39.12687301635742 88.49999237060547 33.43022155761719 87.35006713867188 28.06829643249512 85.08216857910156 C 22.88852119445801 82.89130401611328 18.23629570007324 79.75457763671875 14.24084663391113 75.75914001464844 C 10.24540901184082 71.76369476318359 7.108683586120605 67.11146545410156 4.917821407318115 61.93169403076172 C 2.649921178817749 56.56976699829102 1.499996185302734 50.87311553955078 1.499996185302734 44.99999237060547 C 1.499996185302734 39.12686920166016 2.649921178817749 33.43021774291992 4.917821407318115 28.06829261779785 C 7.108683586120605 22.88851737976074 10.24540901184082 18.23630523681641 14.24084663391113 14.24085521697998 C 18.23629570007324 10.24540519714355 22.88852119445801 7.108692169189453 28.06829643249512 4.917829990386963 C 33.43022155761719 2.649929761886597 39.12687301635742 1.500004887580872 44.99999618530273 1.500004887580872 C 50.87311935424805 1.500004887580872 56.56977081298828 2.649929761886597 61.93169784545898 4.917829990386963 C 67.11147308349609 7.108692169189453 71.76369476318359 10.24540519714355 75.75914764404297 14.24085521697998 C 79.75458526611328 18.23630523681641 82.89131164550781 22.88851737976074 85.08216857910156 28.06829261779785 C 87.35007476806641 33.43021774291992 88.5 39.12686920166016 88.5 44.99999237060547 C 88.5 50.87311553955078 87.35007476806641 56.56976699829102 85.08216857910156 61.93169403076172 C 82.89131164550781 67.11146545410156 79.75458526611328 71.76369476318359 75.75914764404297 75.75914001464844 C 71.76369476318359 79.75457763671875 67.11147308349609 82.89130401611328 61.93169784545898 85.08216857910156 C 56.56977081298828 87.35006713867188 50.87311935424805 88.49999237060547 44.99999618530273 88.49999237060547 Z" stroke="none"/>
                          <path d="M 44.99999618530273 2.999992370605469 C 39.32870864868164 2.999992370605469 33.82865142822266 4.11004638671875 28.65262603759766 6.299331665039062 C 23.65165710449219 8.414566040039062 19.15968322753906 11.44333648681641 15.301513671875 15.30150604248047 C 11.44333648681641 19.15967559814453 8.414566040039062 23.65164947509766 6.299339294433594 28.65262222290039 C 4.110054016113281 33.82864761352539 2.999992370605469 39.32870483398438 2.999992370605469 44.99999237060547 C 2.999992370605469 50.67127990722656 4.110054016113281 56.17132186889648 6.299339294433594 61.34736633300781 C 8.414566040039062 66.34833526611328 11.44333648681641 70.84029388427734 15.301513671875 74.69846343994141 C 19.15968322753906 78.55663299560547 23.65165710449219 81.58540344238281 28.65262603759766 83.70063781738281 C 33.82865142822266 85.88992309570312 39.32870864868164 86.99997711181641 44.99999618530273 86.99997711181641 C 50.67128372192383 86.99997711181641 56.17134094238281 85.88992309570312 61.34736633300781 83.70063781738281 C 66.34834289550781 81.58540344238281 70.84030914306641 78.55663299560547 74.69847869873047 74.69846343994141 C 78.55665588378906 70.84029388427734 81.58542633056641 66.34833526611328 83.70065307617188 61.34736633300781 C 85.88993835449219 56.17132186889648 87 50.67127990722656 87 44.99999237060547 C 87 39.32870483398438 85.88993835449219 33.82864761352539 83.70065307617188 28.65262222290039 C 81.58542633056641 23.65164947509766 78.55665588378906 19.15967559814453 74.69847869873047 15.30150604248047 C 70.84030914306641 11.44333648681641 66.34834289550781 8.414566040039062 61.34736633300781 6.299331665039062 C 56.17134094238281 4.11004638671875 50.67128372192383 2.999992370605469 44.99999618530273 2.999992370605469 M 44.99999618530273 -7.62939453125e-06 C 69.85281372070312 -7.62939453125e-06 90 20.14717864990234 90 44.99999237060547 C 90 69.85279083251953 69.85281372070312 89.99997711181641 44.99999618530273 89.99997711181641 C 20.14717864990234 89.99997711181641 -7.62939453125e-06 69.85279083251953 -7.62939453125e-06 44.99999237060547 C -7.62939453125e-06 20.14717864990234 20.14717864990234 -7.62939453125e-06 44.99999618530273 -7.62939453125e-06 Z" stroke="none" fill="#83793c"/>
                        </g>
                      </g>
                    </g>
                  </g>
                </g>
              </g>
            </g>
          </g>
        </g>
      </g>
    </g>
    <g id="player_5284254" transform="translate(231 501)">
      <g id="Grupo_1224406" data-name="Grupo 1224406">
        <g id="Grupo_1224390" data-name="Grupo 1224390">
          <path id="Trazado_1054937" data-name="Trazado 1054937" d="M13.22,13.27A6,6,0,0,0,9,19H8a4.985,4.985,0,0,0-5,5V15.56a14.653,14.653,0,0,1,.79-4.75,3.971,3.971,0,0,1-1.62-.98A4.025,4.025,0,0,1,1,7,6.009,6.009,0,0,1,7,1H30A13,13,0,0,1,43,14V24a4.985,4.985,0,0,0-5-5H37a6,6,0,0,0-4.22-5.73l-.05-.03A3,3,0,0,1,30,15H16a2.986,2.986,0,0,1-2.73-1.76Z" fill="#656d78"/>
        </g>
        <g id="Grupo_1224391" data-name="Grupo 1224391">
          <path id="Trazado_1054938" data-name="Trazado 1054938" d="M31.59,61H13a4.8,4.8,0,0,0,.85-.07,5.961,5.961,0,0,0,5.08-5.08A4.8,4.8,0,0,0,19,55V43a4,4,0,0,0,6.35,3.24,4.065,4.065,0,0,0,1.43-1.93L26,49h1.26a1.176,1.176,0,0,1,1.07.66A2.426,2.426,0,0,0,30.5,51a2.734,2.734,0,0,0,.5-.05V57l1.59,1.59a1.414,1.414,0,0,1-1,2.41Z" fill="#fcd770"/>
        </g>
        <g id="Grupo_1224392" data-name="Grupo 1224392">
          <path id="Trazado_1054939" data-name="Trazado 1054939" d="M7,55v2a2,2,0,0,1-4,0V51a2.006,2.006,0,0,1,2-2,2.015,2.015,0,0,1,2,2Z" fill="#f0d0b4"/>
        </g>
        <g id="Grupo_1224393" data-name="Grupo 1224393">
          <path id="Trazado_1054940" data-name="Trazado 1054940" d="M7.07,54.15A4.8,4.8,0,0,0,7,55V51a2.015,2.015,0,0,0-2-2,10,10,0,0,1,8.39-9.87L10.4,49.59a5.984,5.984,0,0,0-3.33,4.56Z" fill="#f0d0b4"/>
        </g>
        <g id="Grupo_1224394" data-name="Grupo 1224394">
          <path id="Trazado_1054941" data-name="Trazado 1054941" d="M27.71,38.97a4.05,4.05,0,0,0-.12.5L27,43H19V39h8c.24,0,.48-.01.71-.03Z" fill="#f0d0b4"/>
        </g>
        <g id="Grupo_1224395" data-name="Grupo 1224395">
          <path id="Trazado_1054942" data-name="Trazado 1054942" d="M27,43l-.21,1.29c0,.01,0,.01-.01.02a4.065,4.065,0,0,1-1.43,1.93A4,4,0,0,1,19,43Z" fill="#ffeaa7"/>
        </g>
        <g id="Grupo_1224396" data-name="Grupo 1224396">
          <path id="Trazado_1054943" data-name="Trazado 1054943" d="M35,49l-1.36-8.14L45.1,53.84A7.642,7.642,0,0,1,47,58.88a2.121,2.121,0,0,1-3.62,1.5L42,59H41a2.006,2.006,0,0,1-2-2V56l-6.33-6.33v-.01A1.176,1.176,0,0,1,33.74,49Z" fill="#f0d0b4"/>
        </g>
        <g id="Grupo_1224397" data-name="Grupo 1224397">
          <path id="Trazado_1054944" data-name="Trazado 1054944" d="M41.54,20.46A5.006,5.006,0,0,1,38,29H37V19h1A5.022,5.022,0,0,1,41.54,20.46Z" fill="#f0d0b4"/>
        </g>
        <g id="Grupo_1224398" data-name="Grupo 1224398">
          <path id="Trazado_1054945" data-name="Trazado 1054945" d="M9,19a6,6,0,0,1,4.22-5.73l.05-.03A2.986,2.986,0,0,0,16,15H30a3,3,0,0,0,2.73-1.76l.05.03A6,6,0,0,1,37,19V29a10,10,0,0,1-4.8,8.54,9.828,9.828,0,0,1-4.49,1.43c-.23.02-.47.03-.71.03H19a9.836,9.836,0,0,1-5.16-1.44A9.988,9.988,0,0,1,9,29V19Z" fill="#f0d0b4"/>
        </g>
        <g id="Grupo_1224399" data-name="Grupo 1224399">
          <path id="Trazado_1054946" data-name="Trazado 1054946" d="M9,25v4H8A5,5,0,1,1,8,19H9Z" fill="#f0d0b4"/>
        </g>
        <g id="Grupo_1224400" data-name="Grupo 1224400">
          <path id="Trazado_1054947" data-name="Trazado 1054947" d="M32.67,49.67A2.461,2.461,0,0,1,31,50.95a2.734,2.734,0,0,1-.5.05,2.426,2.426,0,0,1-2.17-1.34A1.176,1.176,0,0,0,27.26,49H26l.78-4.69c.01-.01.01-.01.01-.02L27,43l.59-3.53a4.05,4.05,0,0,1,.12-.5,9.828,9.828,0,0,0,4.49-1.43,2.9,2.9,0,0,1,1.21,1.93l.23,1.39L35,49H33.74a1.176,1.176,0,0,0-1.07.66Z" fill="#75b1f2"/>
        </g>
        <g id="Grupo_1224401" data-name="Grupo 1224401">
          <path id="Trazado_1054948" data-name="Trazado 1054948" d="M13.39,39.13l.45-1.57A9.836,9.836,0,0,0,19,39V55a6,6,0,0,0-6-6,4.8,4.8,0,0,0-.85.07,5.724,5.724,0,0,0-1.75.52Z" fill="#75b1f2"/>
        </g>
        <g id="Grupo_1224402" data-name="Grupo 1224402">
          <circle id="Elipse_13546" data-name="Elipse 13546" cx="6" cy="6" r="6" transform="translate(7 49)" fill="#ff826e"/>
        </g>
        <g id="Grupo_1224403" data-name="Grupo 1224403">
          <path id="Trazado_1054949" data-name="Trazado 1054949" d="M13.85,60.93A4.8,4.8,0,0,1,13,61a6,6,0,0,1-6-6,4.8,4.8,0,0,1,.07-.85,7.99,7.99,0,0,1,6.78,6.78Z" fill="#fc6e51"/>
        </g>
        <g id="Grupo_1224404" data-name="Grupo 1224404">
          <path id="Trazado_1054950" data-name="Trazado 1054950" d="M18.93,55.85a7.99,7.99,0,0,1-6.78-6.78A4.8,4.8,0,0,1,13,49a6,6,0,0,1,6,6A4.8,4.8,0,0,1,18.93,55.85Z" fill="#fc6e51"/>
        </g>
        <g id="Grupo_1224405" data-name="Grupo 1224405">
          <path id="Trazado_1054951" data-name="Trazado 1054951" d="M29,27v2a6,6,0,0,1-12,0Z" fill="#ff826e"/>
        </g>
      </g>
      <g id="Grupo_1224407" data-name="Grupo 1224407">
        <path id="Trazado_1054952" data-name="Trazado 1054952" d="M18,22h2a4,4,0,0,0-8,0h2a2,2,0,0,1,4,0Z"/>
        <path id="Trazado_1054953" data-name="Trazado 1054953" d="M30,20a2,2,0,0,1,2,2h2a4,4,0,0,0-8,0h2A2,2,0,0,1,30,20Z"/>
        <path id="Trazado_1054954" data-name="Trazado 1054954" d="M30,29V25.819L16,28.153V29a7,7,0,0,0,14,0Zm-11.931.836L28,28.181V29a5,5,0,0,1-9.931.836Z"/>
        <path id="Trazado_1054955" data-name="Trazado 1054955" d="M45.846,53.18,34.583,40.416,34.4,39.3a3.918,3.918,0,0,0-.675-1.613A10.984,10.984,0,0,0,37.949,30H38a6.006,6.006,0,0,0,6-6V14A14.015,14.015,0,0,0,30,0H7A7.009,7.009,0,0,0,0,7a4.985,4.985,0,0,0,2.587,4.352A15.6,15.6,0,0,0,2,15.559V24a6.006,6.006,0,0,0,6,6h.051a11,11,0,0,0,4.627,7.987l-.082.287a10.926,10.926,0,0,0-8.559,9.9A2.994,2.994,0,0,0,2,51v6a2.988,2.988,0,0,0,5.243,1.972A6.994,6.994,0,0,0,13,62H31.586a2.414,2.414,0,0,0,1.707-4.121L32,56.586V51.651a3.4,3.4,0,0,0,.745-.491L38,56.414V57a3,3,0,0,0,3,3h.586l1.086,1.086A3.121,3.121,0,0,0,48,58.879a8.613,8.613,0,0,0-2.154-5.7ZM32.425,39.63,33.819,48h-.083a2.181,2.181,0,0,0-1.96,1.211,1.427,1.427,0,0,1-2.553,0A2.18,2.18,0,0,0,27.264,48h-.083l1.353-8.12a10.891,10.891,0,0,0,3.506-1.114A1.941,1.941,0,0,1,32.425,39.63ZM17.167,52.247A4.963,4.963,0,0,1,17.96,54.6a6.869,6.869,0,0,1-2.075-1.075Zm-2.7-.132A6.915,6.915,0,0,1,13.4,50.04a4.963,4.963,0,0,1,2.357.793ZM11.4,50.285a8.856,8.856,0,0,0,1.652,3.245l-1.527,1.527A8.864,8.864,0,0,0,8.284,53.4,4.993,4.993,0,0,1,11.4,50.285Zm-1.289,6.186L8.833,57.753A4.963,4.963,0,0,1,8.04,55.4a6.869,6.869,0,0,1,2.075,1.075Zm1.414,1.414A6.915,6.915,0,0,1,12.6,59.96a4.963,4.963,0,0,1-2.357-.793Zm3.067,1.83a8.856,8.856,0,0,0-1.652-3.245l1.527-1.527A8.864,8.864,0,0,0,17.716,56.6a4.993,4.993,0,0,1-3.12,3.12ZM13,48a6.914,6.914,0,0,0-1.131.1l2.6-9.089A10.922,10.922,0,0,0,18,39.95V50.111A6.973,6.973,0,0,0,13,48Zm13.153-6H20V40h6.486Zm-.334,2,0,.025A2.988,2.988,0,0,1,20.184,44ZM38,28V25.535l2.555-1.7-1.109-1.664L38,23.132V20a4,4,0,0,1,0,8ZM5,12a5.006,5.006,0,0,0,5-5A3,3,0,1,0,4,7V8H6V7A1,1,0,0,1,8,7,3,3,0,1,1,2,7,5.006,5.006,0,0,1,7,2H30A12.013,12.013,0,0,1,42,14v5.54A5.969,5.969,0,0,0,38,18h-.08a6.941,6.941,0,0,0-3.986-5.344A3.936,3.936,0,0,0,30,8H28v2h2a2,2,0,1,1,0,4H16a2,2,0,0,1,0-4h2V8H16a3.936,3.936,0,0,0-3.934,4.656A6.941,6.941,0,0,0,8.08,18H8a5.969,5.969,0,0,0-4,1.54V15.558a13.565,13.565,0,0,1,.495-3.61A4.668,4.668,0,0,0,5,12ZM4,24a4,4,0,0,1,4-4v3.132l-1.445-.964L5.446,23.832,8,25.535V28a4,4,0,0,1-4-4Zm6,5V19a4.968,4.968,0,0,1,2.884-4.523A3.975,3.975,0,0,0,16,16H30a3.975,3.975,0,0,0,3.116-1.523A4.968,4.968,0,0,1,36,19V29a9.01,9.01,0,0,1-9,9H19A9.01,9.01,0,0,1,10,29Zm1.953,11.526-2.4,8.387a7.075,7.075,0,0,0-1.668,1.32A3,3,0,0,0,6.037,48.2a8.943,8.943,0,0,1,5.916-7.669ZM6,57a1,1,0,0,1-2,0V51a1,1,0,0,1,2,0Zm25.586,3h-13.7A6.973,6.973,0,0,0,20,55V46.974a4.938,4.938,0,0,0,5.241.5L24.819,50h2.444a.191.191,0,0,1,.171.1A3.4,3.4,0,0,0,30,51.962V56H22v2h8.586l1.293,1.293a.414.414,0,0,1-.292.707Zm13.293,0a1.133,1.133,0,0,1-.793-.328L42.414,58H41a1,1,0,0,1-1-1V55.586L34.414,50h1.767l-.976-5.856L44.346,54.5A6.617,6.617,0,0,1,46,58.879,1.122,1.122,0,0,1,44.879,60Z"/>
      </g>
    </g>
  </g>
</svg>
