<svg xmlns="http://www.w3.org/2000/svg" width="111.655" height="111.709" viewBox="0 0 111.655 111.709">
  <g id="inspire-idea_14781822_1_" data-name="inspire-idea_14781822 (1)" transform="translate(-6.734 -6.75)">
    <g id="Grupo_1173811" data-name="Grupo 1173811" transform="translate(7.75 7.5)">
      <path id="Trazado_1030754" data-name="Trazado 1030754" d="M118.589,359.809v-8.048a4.894,4.894,0,0,0,3.977-4.808V333.114h25.277v13.839a4.895,4.895,0,0,0,3.977,4.808l.688,6.932Z" transform="translate(-94.057 -261.046)" fill="#ca6e59"/>
      <path id="Trazado_1030755" data-name="Trazado 1030755" d="M87.847,29.283c0,15.925-8.57,34.842-30.386,28.584l-18.2-8.28a7.188,7.188,0,0,1-.474-10.63l1.837-.507,1.27-1.264a7.6,7.6,0,0,1,1.522-13.03.67.67,0,0,0,.392-.78,7.21,7.21,0,0,1-.2-1.7,7.018,7.018,0,0,1,6.941-7.091,6.948,6.948,0,0,1,1.35.135,3.294,3.294,0,0,1,.525-.531,2.8,2.8,0,0,0,1.164-2.446,7.823,7.823,0,0,1,10.959-.774.66.66,0,0,0,.99-.159,6.867,6.867,0,0,1,11.753,0,.661.661,0,0,0,.992.158,7.8,7.8,0,0,1,1.559-1.035C87.847,12.366,87.847,23.538,87.847,29.283Z" transform="translate(-30.261 -7.5)" fill="#73788c"/>
      <path id="Trazado_1030756" data-name="Trazado 1030756" d="M179.339,49.665a7.134,7.134,0,0,1-2.6,5.529l-20.82,11.314H137.311l-6.671-3.034a32.7,32.7,0,0,0,22.376-47.931,7.747,7.747,0,0,1,3.523-.843,7.854,7.854,0,0,1,5.876,2.654l.365,1.786,1.324,1.191a6.943,6.943,0,0,1,1.348-.135,7.018,7.018,0,0,1,6.943,7.091,7.25,7.25,0,0,1-.365,2.269,7.588,7.588,0,0,1,2.078,13.238A7.068,7.068,0,0,1,179.339,49.665Z" transform="translate(-103.441 -13.106)" fill="#5e6577"/>
      <path id="Trazado_1030757" data-name="Trazado 1030757" d="M99.146,209.136a12.117,12.117,0,0,0,9.23-11.768h0a4.818,4.818,0,0,0-4.818-4.819H99.145l-48.539.006H46.193a4.818,4.818,0,0,0-4.818,4.819h0a12.117,12.117,0,0,0,9.23,11.768Z" transform="translate(-33.933 -151.592)" fill="#ca6e59"/>
      <path id="Trazado_1030758" data-name="Trazado 1030758" d="M119.8,131.2a4.8,4.8,0,0,1,6.26,2.062,19.247,19.247,0,0,0,1.606,2.439l1.046,1.392c.443,1.293,1.429,7.329,2.8,7.329V162.8a15.336,15.336,0,0,1-5.237,11.543l-9.523,8.335a10.222,10.222,0,0,1-6.731,2.528h-5.648a10.222,10.222,0,0,1-6.731-2.528l-9.523-8.335A15.335,15.335,0,0,1,82.875,162.8V144.421A3.255,3.255,0,0,0,85.9,142.2l2.1-8.182a4.793,4.793,0,0,1,6.6-2.771l.306.147,2.467.945a27.316,27.316,0,0,0,19.547,0l2.467-.945Z" transform="translate(-66.248 -103.463)" fill="#d78878"/>
      <path id="Trazado_1030759" data-name="Trazado 1030759" d="M173.571,303.992c-5.251,0-5.485-4.846-5.4-6.6a.662.662,0,0,1,.663-.628h9.451a.662.662,0,0,1,.664.644C179,299.176,178.649,303.992,173.571,303.992Z" transform="translate(-132.658 -232.739)" fill="#eaf6ff"/>
      <path id="Trazado_1030760" data-name="Trazado 1030760" d="M22.306,448.295l-13.892-.032a.663.663,0,0,1-.664-.664V435.264a.665.665,0,0,1,.356-.591,21.463,21.463,0,0,1,5.788-1.992l1.6-.321L29.611,437.6Z" transform="translate(-7.75 -338.327)" fill="#9be69d"/>
      <path id="Trazado_1030761" data-name="Trazado 1030761" d="M314.324,439.144l-5.359,8.745-18.5.013-6.693-11.721c.073-.075,13.532-4.3,13.532-4.3l.914.175a21.471,21.471,0,0,1,6.049,2.129Z" transform="translate(-222.681 -337.953)" fill="#9be69d"/>
      <path id="Trazado_1030762" data-name="Trazado 1030762" d="M141.5,418.39l2.021,10.156-7.307,8.846-22.187.025-8.416-9.277,3.139-9.7A22.726,22.726,0,0,0,141.5,418.39Z" transform="translate(-83.949 -327.448)" fill="#eaf6ff"/>
      <path id="Trazado_1030763" data-name="Trazado 1030763" d="M61.734,421.636,55.69,399.9a2.433,2.433,0,0,0-3.051-1.675L39.2,402.324a1.053,1.053,0,0,0-.658,1.436l2.834,6.417a.664.664,0,0,0,.459.379l6.9,1.584a.664.664,0,0,1,.4,1.027l-3.747,5.37a.664.664,0,0,0-.081.6l.9,2.494Z" transform="translate(-31.659 -311.668)" fill="#bbf49b"/>
      <path id="Trazado_1030764" data-name="Trazado 1030764" d="M243.879,421.432l6.051-21.757A2.431,2.431,0,0,1,252.981,398l13.435,4.093a1.056,1.056,0,0,1,.658,1.436l-2.834,6.418a.663.663,0,0,1-.459.379l-6.905,1.583a.664.664,0,0,0-.4,1.027l3.748,5.372a.663.663,0,0,1,.08.6l-.906,2.526Z" transform="translate(-191.617 -311.49)" fill="#bbf49b"/>
      <g id="Grupo_1173808" data-name="Grupo 1173808" transform="translate(81.932 60.04)">
        <path id="Trazado_1030765" data-name="Trazado 1030765" d="M404.232,387.922v8.512a25.925,25.925,0,0,1-.584,5.16,18.117,18.117,0,0,1-2.1,3.772c-1.341,2.258-.754,4.582-.745,7.207l-1.7,1.087H382.331v-3.643a9.153,9.153,0,0,0-2.408-6.186,7.577,7.577,0,0,1-1.99-5.113v-3.668a4.489,4.489,0,0,1,1.917-3.678Z" transform="translate(-377.933 -363.764)" fill="#d78878"/>
        <g id="Grupo_1173807" data-name="Grupo 1173807" transform="translate(20.471 14.291)">
          <path id="Trazado_1030766" data-name="Trazado 1030766" d="M476.253,344.777v8.439a1.77,1.77,0,0,1-.71,1.584c-.531.531-2.4-.281-3.208-.274l-1.443-1.543-.467-5.486,1.531-1.182a2.968,2.968,0,0,1,2.891-2.964C475.822,343.711,476.253,344.212,476.253,344.777Z" transform="translate(-470.425 -343.349)" fill="#d78878"/>
          <path id="Trazado_1030767" data-name="Trazado 1030767" d="M484.616,346.306v6.669a2.971,2.971,0,0,1-5.372,1.744l-.19-.2a2.97,2.97,0,0,0,2.944-2.97v-6.662a2.952,2.952,0,0,0-.432-1.543c.027,0,.053,0,.08,0A2.968,2.968,0,0,1,484.616,346.306Z" transform="translate(-477.144 -343.34)" fill="#ca6e59"/>
        </g>
        <path id="Trazado_1030768" data-name="Trazado 1030768" d="M480.333,386.87v8.877a14.474,14.474,0,0,1-2.036,7.4,14.482,14.482,0,0,0-2.034,7.459l.006,1.564a.664.664,0,0,1-.664.667h-2.042l-.009-2.231a14.5,14.5,0,0,1,2.036-7.459,14.474,14.474,0,0,0,2.036-7.4v-8.495Z" transform="translate(-452.39 -362.944)" fill="#ca6e59"/>
        <path id="Trazado_1030769" data-name="Trazado 1030769" d="M394.152,282.881v23.974c0,1.722-2.817,3.13-4.539,3.13l1.463-3.911-2.024-1.924V282.881a3.133,3.133,0,0,1,1.846-2.851C393.292,280.03,394.152,281.617,394.152,282.881Z" transform="translate(-386.591 -279.751)" fill="#d78878"/>
        <path id="Trazado_1030770" data-name="Trazado 1030770" d="M420.776,333.7v7.866c0,1.268-2.059,2.366-3.148,2.855a3.137,3.137,0,0,1-1.853-2.855l-.764-.169v-7.426l.764-.27a3.136,3.136,0,0,1,1.853-2.853C420.253,331.186,420.776,332.437,420.776,333.7Z" transform="translate(-406.805 -319.323)" fill="#d78878"/>
        <path id="Trazado_1030771" data-name="Trazado 1030771" d="M450.491,333.7v8.342c0,1.266-2.29,2.364-3.379,2.853a3.134,3.134,0,0,1-1.852-2.853l-.746-.476v-7.528l.746-.338a3.136,3.136,0,0,1,1.852-2.853C450.08,331.253,450.491,332.437,450.491,333.7Z" transform="translate(-429.778 -319.323)" fill="#d78878"/>
        <path id="Trazado_1030772" data-name="Trazado 1030772" d="M402.057,281.9v22.7c0,1.722-2.82,1.722-2.82,0V281.9a3.137,3.137,0,0,0-1.844-2.851,3.081,3.081,0,0,1,1.284-.279h.25A3.138,3.138,0,0,1,402.057,281.9Z" transform="translate(-393.087 -278.77)" fill="#ca6e59"/>
        <path id="Trazado_1030773" data-name="Trazado 1030773" d="M431.493,332.73V340.6a3.14,3.14,0,0,1-3.13,3.132h-.252a3.058,3.058,0,0,1-1.277-.277,3.137,3.137,0,0,0,1.853-2.855V332.73a3.137,3.137,0,0,0-1.853-2.853,3.059,3.059,0,0,1,1.277-.276h.252A3.139,3.139,0,0,1,431.493,332.73Z" transform="translate(-416.011 -318.35)" fill="#ca6e59"/>
        <path id="Trazado_1030774" data-name="Trazado 1030774" d="M460.913,332.73v8.342a3.14,3.14,0,0,1-3.132,3.13h-.25a3.049,3.049,0,0,1-1.277-.277,3.134,3.134,0,0,0,1.85-2.853V332.73a3.137,3.137,0,0,0-1.85-2.853,3.052,3.052,0,0,1,1.277-.276h.25A3.141,3.141,0,0,1,460.913,332.73Z" transform="translate(-438.919 -318.35)" fill="#ca6e59"/>
        <path id="Trazado_1030775" data-name="Trazado 1030775" d="M411.027,369.034a6.729,6.729,0,0,1-.143,1.378c-.582,2.784-4.724,3.129-7.658,3.435,0,0-3.188-1.485-5.548-.755-1.755.543-2.857,3.361-2.883,3.342l-5.746-3.006V370.6l5.547-3.989a6.215,6.215,0,0,1,3.552-1.156l9.21-.087A3.672,3.672,0,0,1,411.027,369.034Z" transform="translate(-386.59 -346.2)" fill="#ca6e59"/>
        <path id="Trazado_1030776" data-name="Trazado 1030776" d="M395.033,386.444l2.621-3.526a.664.664,0,0,1,.453-.263l5.663-.686a4.495,4.495,0,0,0,3.1-4.311,1.512,1.512,0,0,0-1.522-1.479h-8.332a5.625,5.625,0,0,0-3.227,1.016l-7.191,5.033Z" transform="translate(-384.678 -354.62)" fill="#d78878"/>
      </g>
      <g id="Grupo_1173810" data-name="Grupo 1173810" transform="translate(60.814 3.128)">
        <path id="Trazado_1030777" data-name="Trazado 1030777" d="M326.911,39.368c0,14.386-11.214,26.18-25.6,26.18-4.67,0-14.923-3.427-16.257-7.149l.252-1.018a.657.657,0,0,0-.057-.463,24.167,24.167,0,0,1,37.422-29.257C325.774,32.517,326.911,36.553,326.911,39.368Z" transform="translate(-282.516 -21.635)" fill="#eaf6ff"/>
        <path id="Trazado_1030778" data-name="Trazado 1030778" d="M331.378,72.111A24.2,24.2,0,0,1,295.1,87.566a.66.66,0,0,0-.469-.086l-9.966,1.9a.665.665,0,0,1-.77-.812l2.215-8.964a26.063,26.063,0,0,0,37.617-30.738A24.109,24.109,0,0,1,331.378,72.111Z" transform="translate(-283.576 -42.838)" fill="#d8ecfe"/>
        <g id="Grupo_1173809" data-name="Grupo 1173809" transform="translate(11.696 6.021)">
          <path id="Trazado_1030779" data-name="Trazado 1030779" d="M357.447,61.756c0,6.475-6.8,12.74-13.41,12.74-1,0-2.086.681-3.837-1.9a14.082,14.082,0,0,0-1.732-3.046,12,12,0,0,1,6.77-19.863C354.318,49.682,357.447,56,357.447,61.756Z" transform="translate(-335.361 -49.495)" fill="#ffe177"/>
          <path id="Trazado_1030780" data-name="Trazado 1030780" d="M375.087,60.833a11.953,11.953,0,0,1-3.052,7.993,14.483,14.483,0,0,0-2.9,8.636v.75l-12.077.039v-.662a20.273,20.273,0,0,0-1.485-6.6,12.147,12.147,0,0,0,2.906.349c6.609,0,12.333-4.3,12.333-10.779a11.794,11.794,0,0,0-9.835-11.536,12,12,0,0,1,14.114,11.809Z" transform="translate(-351.096 -48.837)" fill="#ffd15b"/>
          <path id="Trazado_1030781" data-name="Trazado 1030781" d="M371.093,179.51l1.877,3.667c0,1.99-1.192,3.666-5.477,3.666h-.941a3.6,3.6,0,0,1-3.6-3.6V179.51h8.142Z" transform="translate(-356.845 -150.588)" fill="#5e6577"/>
          <path id="Trazado_1030782" data-name="Trazado 1030782" d="M390.71,179.511v3.732a3.6,3.6,0,0,1-3.6,3.6h-3.634a3.6,3.6,0,0,0,3.6-3.6v-3.732Z" transform="translate(-372.825 -150.589)" fill="#4d5263"/>
          <path id="Trazado_1030783" data-name="Trazado 1030783" d="M362.851,161.848c0,.8.483,1.7,0,2.224s-4.075,1.143-4.814,1.143h-8.858a2.787,2.787,0,0,1-2.674-2.887,3.008,3.008,0,0,1,.782-2.043,2.577,2.577,0,0,1,1.892-.845h8.858C359.514,159.439,362.851,160.252,362.851,161.848Z" transform="translate(-344.038 -134.96)" fill="#73788c"/>
          <path id="Trazado_1030784" data-name="Trazado 1030784" d="M406.137,162.328a3,3,0,0,1-.782,2.042,2.578,2.578,0,0,1-1.892.845h-4.851a2.574,2.574,0,0,0,1.892-.845,3,3,0,0,0,.782-2.042,2.787,2.787,0,0,0-2.674-2.889h4.851A2.787,2.787,0,0,1,406.137,162.328Z" transform="translate(-384.612 -134.96)" fill="#5e6577"/>
        </g>
      </g>
    </g>
    <g id="Grupo_1173820" data-name="Grupo 1173820" transform="translate(7.75 7.5)">
      <g id="Grupo_1173812" data-name="Grupo 1173812" transform="translate(7.442 40.963)">
        <path id="Trazado_1030785" data-name="Trazado 1030785" d="M50.5,209.136a12.117,12.117,0,0,1-9.119-11.74h0a4.818,4.818,0,0,1,4.818-4.819h4.413" transform="translate(-41.376 -192.577)" fill="none" stroke="#000" stroke-linecap="round" stroke-linejoin="round" stroke-miterlimit="10" stroke-width="1.5"/>
        <path id="Trazado_1030786" data-name="Trazado 1030786" d="M311.491,232.041a12.138,12.138,0,0,1-8.434,7.809" transform="translate(-245.14 -223.307)" fill="none" stroke="#000" stroke-linecap="round" stroke-linejoin="round" stroke-miterlimit="10" stroke-width="1.5"/>
      </g>
      <path id="Trazado_1030787" data-name="Trazado 1030787" d="M209.872,133.873a27.311,27.311,0,0,0,5.938-1.538l2.467-.945.409-.193a4.793,4.793,0,0,1,6.575,2.784" transform="translate(-165.137 -103.463)" fill="none" stroke="#000" stroke-linecap="round" stroke-linejoin="round" stroke-miterlimit="10" stroke-width="1.5"/>
      <path id="Trazado_1030788" data-name="Trazado 1030788" d="M131.506,153.468v9.452a15.335,15.335,0,0,1-5.237,11.543l-9.523,8.335a10.222,10.222,0,0,1-6.731,2.528h-5.648a10.222,10.222,0,0,1-6.731-2.528l-9.523-8.335a15.335,15.335,0,0,1-5.237-11.543V144.536a3.255,3.255,0,0,0,3.025-2.224l2.1-8.182a4.793,4.793,0,0,1,6.6-2.771l.306.147,2.467.945a27.3,27.3,0,0,0,5.9,1.532" transform="translate(-66.248 -103.578)" fill="none" stroke="#000" stroke-linecap="round" stroke-linejoin="round" stroke-miterlimit="10" stroke-width="1.5"/>
      <g id="Grupo_1173814" data-name="Grupo 1173814" transform="translate(26.895 38.859)">
        <g id="Grupo_1173813" data-name="Grupo 1173813">
          <path id="Trazado_1030789" data-name="Trazado 1030789" d="M186.742,262.089a5.131,5.131,0,0,1-4.653,0" transform="translate(-170.398 -244.601)" fill="none" stroke="#000" stroke-linecap="round" stroke-linejoin="round" stroke-miterlimit="10" stroke-width="1.5"/>
          <path id="Trazado_1030790" data-name="Trazado 1030790" d="M137.776,184.163a8.852,8.852,0,0,0-8.51,0" transform="translate(-129.266 -183.073)" fill="none" stroke="#000" stroke-linecap="round" stroke-linejoin="round" stroke-miterlimit="10" stroke-width="1.5"/>
          <path id="Trazado_1030791" data-name="Trazado 1030791" d="M226,184.163a8.852,8.852,0,0,0-8.51,0" transform="translate(-197.96 -183.073)" fill="none" stroke="#000" stroke-linecap="round" stroke-linejoin="round" stroke-miterlimit="10" stroke-width="1.5"/>
          <line id="Línea_813" data-name="Línea 813" y1="3.77" transform="translate(23.781 6.391)" fill="none" stroke="#000" stroke-linecap="round" stroke-linejoin="round" stroke-miterlimit="10" stroke-width="1.5"/>
          <line id="Línea_814" data-name="Línea 814" y1="3.77" transform="translate(4.255 6.391)" fill="none" stroke="#000" stroke-linecap="round" stroke-linejoin="round" stroke-miterlimit="10" stroke-width="1.5"/>
        </g>
        <path id="Trazado_1030792" data-name="Trazado 1030792" d="M173.571,303.992c-6.415,0-5.342-7.232-5.342-7.232h10.683S179.794,303.992,173.571,303.992Z" transform="translate(-159.553 -271.598)" fill="none" stroke="#000" stroke-linecap="round" stroke-linejoin="round" stroke-miterlimit="10" stroke-width="1.5"/>
      </g>
      <path id="Trazado_1030793" data-name="Trazado 1030793" d="M97.553,17.072a6.843,6.843,0,0,0-6.626-2.347,7.966,7.966,0,0,0-7.564-5.632,7.839,7.839,0,0,0-5.683,2.446,6.882,6.882,0,0,0-12.536,0,7.839,7.839,0,0,0-5.683-2.446A7.966,7.966,0,0,0,51.9,14.725a6.839,6.839,0,0,0-1.35-.135,7.017,7.017,0,0,0-6.942,7.09,7.216,7.216,0,0,0,.365,2.268,7.589,7.589,0,0,0-2.078,13.239,7.152,7.152,0,0,0-2.634,12.4" transform="translate(-30.265 -7.5)" fill="none" stroke="#000" stroke-linecap="round" stroke-linejoin="round" stroke-miterlimit="10" stroke-width="1.5"/>
      <path id="Trazado_1030794" data-name="Trazado 1030794" d="M63.459,142.911a6.948,6.948,0,0,1-3.132-1.27" transform="translate(-48.69 -111.952)" fill="none" stroke="#000" stroke-linecap="round" stroke-linejoin="round" stroke-miterlimit="10" stroke-width="1.5"/>
      <path id="Trazado_1030795" data-name="Trazado 1030795" d="M105.6,40.2a6.587,6.587,0,0,1,4.175,2.774" transform="translate(-83.943 -32.962)" fill="none" stroke="#000" stroke-linecap="round" stroke-linejoin="round" stroke-miterlimit="10" stroke-width="1.5"/>
      <path id="Trazado_1030796" data-name="Trazado 1030796" d="M269.9,40.183a6.6,6.6,0,0,0-3.354,2.555" transform="translate(-209.267 -32.949)" fill="none" stroke="#000" stroke-linecap="round" stroke-linejoin="round" stroke-miterlimit="10" stroke-width="1.5"/>
      <path id="Trazado_1030797" data-name="Trazado 1030797" d="M328.77,48.384q-.111.7-.264,1.4a24.916,24.916,0,0,1-37.57,15.772l-11.567,2.2L282.226,56.2A24.852,24.852,0,0,1,300.009,20" transform="translate(-219.194 -17.235)" fill="none" stroke="#000" stroke-linecap="round" stroke-linejoin="round" stroke-miterlimit="10" stroke-width="1.5"/>
      <path id="Trazado_1030798" data-name="Trazado 1030798" d="M407.545,19.544q.893.127,1.789.321a24.88,24.88,0,0,1,19.307,20.416" transform="translate(-319.059 -16.878)" fill="none" stroke="#000" stroke-linecap="round" stroke-linejoin="round" stroke-miterlimit="10" stroke-width="1.5"/>
      <g id="Grupo_1173815" data-name="Grupo 1173815" transform="translate(72.508 9.155)">
        <path id="Trazado_1030799" data-name="Trazado 1030799" d="M340.569,72.928a14.148,14.148,0,0,0-2.111-4.062,11.983,11.983,0,1,1,17.814-.061,14.779,14.779,0,0,0-2.147,4.074" transform="translate(-335.355 -48.863)" fill="none" stroke="#000" stroke-linecap="round" stroke-linejoin="round" stroke-miterlimit="10" stroke-width="1.5"/>
        <line id="Línea_815" data-name="Línea 815" y1="8.81" transform="translate(11.982 15.208)" fill="none" stroke="#000" stroke-linecap="round" stroke-linejoin="round" stroke-miterlimit="10" stroke-width="1.5"/>
        <path id="Trazado_1030800" data-name="Trazado 1030800" d="M374.683,186.134V187.5a4.427,4.427,0,0,1-4.427,4.427h-2.911a4.426,4.426,0,0,1-4.427-4.427v-1.364" transform="translate(-356.818 -155.752)" fill="none" stroke="#000" stroke-linecap="round" stroke-linejoin="round" stroke-miterlimit="10" stroke-width="1.5"/>
        <path id="Trazado_1030801" data-name="Trazado 1030801" d="M363.822,163.833H351.9a3.029,3.029,0,0,1-3.03-3.03v-.179a3.029,3.029,0,0,1,3.03-3.03h11.925a3.029,3.029,0,0,1,3.03,3.03v.179A3.03,3.03,0,0,1,363.822,163.833Z" transform="translate(-345.876 -133.53)" fill="none" stroke="#000" stroke-linecap="round" stroke-linejoin="round" stroke-miterlimit="10" stroke-width="1.5"/>
        <line id="Línea_816" data-name="Línea 816" x2="7.671" transform="translate(8.306 15.189)" fill="none" stroke="#000" stroke-linecap="round" stroke-linejoin="round" stroke-miterlimit="10" stroke-width="1.5"/>
      </g>
      <path id="Trazado_1030802" data-name="Trazado 1030802" d="M346.53,432.2l.556.106a21.432,21.432,0,0,1,6.047,2.129" transform="translate(-271.549 -338.198)" fill="none" stroke="#000" stroke-linecap="round" stroke-linejoin="round" stroke-miterlimit="10" stroke-width="1.5"/>
      <path id="Trazado_1030803" data-name="Trazado 1030803" d="M250.768,358.351V366.6a4.894,4.894,0,0,0,3.977,4.808" transform="translate(-196.981 -280.698)" fill="none" stroke="#000" stroke-linecap="round" stroke-linejoin="round" stroke-miterlimit="10" stroke-width="1.5"/>
      <path id="Trazado_1030804" data-name="Trazado 1030804" d="M118.589,417.362h0a22.731,22.731,0,0,0,33.232,0h0" transform="translate(-94.057 -326.648)" fill="none" stroke="#000" stroke-linecap="round" stroke-linejoin="round" stroke-miterlimit="10" stroke-width="1.5"/>
      <path id="Trazado_1030805" data-name="Trazado 1030805" d="M14.765,374.877l-.87.174a21.433,21.433,0,0,0-6.145,2.181m28.509-18.881V366.6a4.894,4.894,0,0,1-3.977,4.808l-.254.048" transform="translate(-7.75 -280.698)" fill="none" stroke="#000" stroke-linecap="round" stroke-linejoin="round" stroke-miterlimit="10" stroke-width="1.5"/>
      <g id="Grupo_1173816" data-name="Grupo 1173816" transform="translate(6.187 86.456)">
        <path id="Trazado_1030806" data-name="Trazado 1030806" d="M56.412,412.392,52.939,399.9a2.433,2.433,0,0,0-3.051-1.675l-13.435,4.094a1.053,1.053,0,0,0-.658,1.436l2.969,6.722,8.189,1.879-4.506,6.458,1.021,2.849" transform="translate(-35.703 -398.124)" fill="none" stroke="#000" stroke-linecap="round" stroke-linejoin="round" stroke-miterlimit="10" stroke-width="1.5"/>
        <line id="Línea_817" data-name="Línea 817" x1="0.504" y1="1.812" transform="translate(22.784 21.732)" fill="none" stroke="#000" stroke-linecap="round" stroke-linejoin="round" stroke-miterlimit="10" stroke-width="1.5"/>
        <path id="Trazado_1030807" data-name="Trazado 1030807" d="M244.868,421.669l6.054-21.763a2.431,2.431,0,0,1,3.051-1.674l13.435,4.093a1.056,1.056,0,0,1,.658,1.436l-2.969,6.722-8.189,1.878,4.507,6.46-1.022,2.848" transform="translate(-198.574 -398.125)" fill="none" stroke="#000" stroke-linecap="round" stroke-linejoin="round" stroke-miterlimit="10" stroke-width="1.5"/>
      </g>
      <g id="Grupo_1173819" data-name="Grupo 1173819" transform="translate(81.947 60.103)">
        <g id="Grupo_1173817" data-name="Grupo 1173817" transform="translate(22.003 14.291)">
          <path id="Trazado_1030808" data-name="Trazado 1030808" d="M483.352,346.592a2.966,2.966,0,0,0-2.966-2.966h0a2.97,2.97,0,0,0-2.97,2.97v6.662a2.97,2.97,0,0,0,2.97,2.97h0a2.97,2.97,0,0,0,2.97-2.97Z" transform="translate(-477.412 -343.626)" fill="none" stroke="#000" stroke-linecap="round" stroke-linejoin="round" stroke-miterlimit="10" stroke-width="1.5"/>
          <path id="Trazado_1030809" data-name="Trazado 1030809" d="M490.831,400.563" transform="translate(-487.861 -387.961)" fill="none" stroke="#000" stroke-linecap="round" stroke-linejoin="round" stroke-miterlimit="10" stroke-width="1.5"/>
        </g>
        <g id="Grupo_1173818" data-name="Grupo 1173818" transform="translate(23.872 24.008)">
          <path id="Trazado_1030810" data-name="Trazado 1030810" d="M489.928,387.53v8.876a14.417,14.417,0,0,1-2.035,7.323h0a14.489,14.489,0,0,0-2.035,7.458l.008,2.231" transform="translate(-485.858 -387.53)" fill="none" stroke="#000" stroke-linecap="round" stroke-linejoin="round" stroke-miterlimit="10" stroke-width="1.5"/>
        </g>
        <path id="Trazado_1030811" data-name="Trazado 1030811" d="M433.859,414.75a12.142,12.142,0,0,1,2.593,11.1l-.092.354" transform="translate(-421.496 -384.717)" fill="none" stroke="#000" stroke-linecap="round" stroke-linejoin="round" stroke-miterlimit="10" stroke-width="1.5"/>
        <path id="Trazado_1030812" data-name="Trazado 1030812" d="M389.115,306.145V282.187a3.139,3.139,0,0,1,3.13-3.13h.251a3.139,3.139,0,0,1,3.13,3.13v19.467" transform="translate(-386.655 -279.057)" fill="none" stroke="#000" stroke-linecap="round" stroke-linejoin="round" stroke-miterlimit="10" stroke-width="1.5"/>
        <path id="Trazado_1030813" data-name="Trazado 1030813" d="M418.532,333.023a3.139,3.139,0,0,1,3.13-3.13h.251a3.139,3.139,0,0,1,3.13,3.13v7.124" transform="translate(-409.561 -318.642)" fill="none" stroke="#000" stroke-linecap="round" stroke-linejoin="round" stroke-miterlimit="10" stroke-width="1.5"/>
        <path id="Trazado_1030814" data-name="Trazado 1030814" d="M447.947,340.071v-7.048a3.139,3.139,0,0,1,3.13-3.13h.251a3.139,3.139,0,0,1,3.13,3.13v2.988" transform="translate(-432.466 -318.642)" fill="none" stroke="#000" stroke-linecap="round" stroke-linejoin="round" stroke-miterlimit="10" stroke-width="1.5"/>
        <path id="Trazado_1030815" data-name="Trazado 1030815" d="M388.354,386.734l2.791-3.755,5.592-.721a4.494,4.494,0,0,0,3.1-4.27,1.521,1.521,0,0,0-1.522-1.52h-7.978a5.624,5.624,0,0,0-3.227,1.016l-7.191,5.033A4.492,4.492,0,0,0,378,386.2v3.667a7.567,7.567,0,0,0,1.99,5.112,9.156,9.156,0,0,1,2.408,6.188v3.642" transform="translate(-377.999 -354.908)" fill="none" stroke="#000" stroke-linecap="round" stroke-linejoin="round" stroke-miterlimit="10" stroke-width="1.5"/>
      </g>
    </g>
  </g>
</svg>
