<svg xmlns="http://www.w3.org/2000/svg" xmlns:xlink="http://www.w3.org/1999/xlink" width="108" height="108" viewBox="0 0 108 108">
  <defs>
    <filter id="Trazado_904820" x="0" y="0" width="108" height="108" filterUnits="userSpaceOnUse">
      <feOffset dy="3" input="SourceAlpha"/>
      <feGaussianBlur stdDeviation="3" result="blur"/>
      <feFlood flood-opacity="0.161"/>
      <feComposite operator="in" in2="blur"/>
      <feComposite in="SourceGraphic"/>
    </filter>
  </defs>
  <g id="Grupo_1224517" data-name="Grupo 1224517" transform="translate(-200.522 -5682.652)">
    <g id="Grupo_1224242" data-name="Grupo 1224242" transform="translate(209.522 5688.652)">
      <g id="Grupo_1208347" data-name="Grupo 1208347" transform="translate(0 0)">
        <g id="Grupo_1207936" data-name="Grupo 1207936">
          <g id="Grupo_1201662" data-name="Grupo 1201662">
            <g id="Grupo_1173585" data-name="Grupo 1173585">
              <g id="Grupo_1173428" data-name="Grupo 1173428">
                <g id="Grupo_1171958" data-name="Grupo 1171958">
                  <g id="Grupo_1167341" data-name="Grupo 1167341">
                    <g id="Grupo_1166792" data-name="Grupo 1166792">
                      <g transform="matrix(1, 0, 0, 1, -9, -6)" filter="url(#Trazado_904820)">
                        <g id="Trazado_904820-2" data-name="Trazado 904820" transform="translate(9 6)" fill="#fdfbec">
                          <path d="M 44.99999618530273 88.49999237060547 C 39.12687301635742 88.49999237060547 33.43022155761719 87.35006713867188 28.06829643249512 85.08216857910156 C 22.88852119445801 82.89130401611328 18.23629570007324 79.75457763671875 14.24084663391113 75.75914001464844 C 10.24540901184082 71.76369476318359 7.108683586120605 67.11146545410156 4.917821407318115 61.93169403076172 C 2.649921178817749 56.56976699829102 1.499996185302734 50.87311553955078 1.499996185302734 44.99999237060547 C 1.499996185302734 39.12686920166016 2.649921178817749 33.43021774291992 4.917821407318115 28.06829261779785 C 7.108683586120605 22.88851737976074 10.24540901184082 18.23630523681641 14.24084663391113 14.24085521697998 C 18.23629570007324 10.24540519714355 22.88852119445801 7.108692169189453 28.06829643249512 4.917829990386963 C 33.43022155761719 2.649929761886597 39.12687301635742 1.500004887580872 44.99999618530273 1.500004887580872 C 50.87311935424805 1.500004887580872 56.56977081298828 2.649929761886597 61.93169784545898 4.917829990386963 C 67.11147308349609 7.108692169189453 71.76369476318359 10.24540519714355 75.75914764404297 14.24085521697998 C 79.75458526611328 18.23630523681641 82.89131164550781 22.88851737976074 85.08216857910156 28.06829261779785 C 87.35007476806641 33.43021774291992 88.5 39.12686920166016 88.5 44.99999237060547 C 88.5 50.87311553955078 87.35007476806641 56.56976699829102 85.08216857910156 61.93169403076172 C 82.89131164550781 67.11146545410156 79.75458526611328 71.76369476318359 75.75914764404297 75.75914001464844 C 71.76369476318359 79.75457763671875 67.11147308349609 82.89130401611328 61.93169784545898 85.08216857910156 C 56.56977081298828 87.35006713867188 50.87311935424805 88.49999237060547 44.99999618530273 88.49999237060547 Z" stroke="none"/>
                          <path d="M 44.99999618530273 2.999992370605469 C 39.32870864868164 2.999992370605469 33.82865142822266 4.11004638671875 28.65262603759766 6.299331665039062 C 23.65165710449219 8.414566040039062 19.15968322753906 11.44333648681641 15.301513671875 15.30150604248047 C 11.44333648681641 19.15967559814453 8.414566040039062 23.65164947509766 6.299339294433594 28.65262222290039 C 4.110054016113281 33.82864761352539 2.999992370605469 39.32870483398438 2.999992370605469 44.99999237060547 C 2.999992370605469 50.67127990722656 4.110054016113281 56.17132186889648 6.299339294433594 61.34736633300781 C 8.414566040039062 66.34833526611328 11.44333648681641 70.84029388427734 15.301513671875 74.69846343994141 C 19.15968322753906 78.55663299560547 23.65165710449219 81.58540344238281 28.65262603759766 83.70063781738281 C 33.82865142822266 85.88992309570312 39.32870864868164 86.99997711181641 44.99999618530273 86.99997711181641 C 50.67128372192383 86.99997711181641 56.17134094238281 85.88992309570312 61.34736633300781 83.70063781738281 C 66.34834289550781 81.58540344238281 70.84030914306641 78.55663299560547 74.69847869873047 74.69846343994141 C 78.55665588378906 70.84029388427734 81.58542633056641 66.34833526611328 83.70065307617188 61.34736633300781 C 85.88993835449219 56.17132186889648 87 50.67127990722656 87 44.99999237060547 C 87 39.32870483398438 85.88993835449219 33.82864761352539 83.70065307617188 28.65262222290039 C 81.58542633056641 23.65164947509766 78.55665588378906 19.15967559814453 74.69847869873047 15.30150604248047 C 70.84030914306641 11.44333648681641 66.34834289550781 8.414566040039062 61.34736633300781 6.299331665039062 C 56.17134094238281 4.11004638671875 50.67128372192383 2.999992370605469 44.99999618530273 2.999992370605469 M 44.99999618530273 -7.62939453125e-06 C 69.85281372070312 -7.62939453125e-06 90 20.14717864990234 90 44.99999237060547 C 90 69.85279083251953 69.85281372070312 89.99997711181641 44.99999618530273 89.99997711181641 C 20.14717864990234 89.99997711181641 -7.62939453125e-06 69.85279083251953 -7.62939453125e-06 44.99999237060547 C -7.62939453125e-06 20.14717864990234 20.14717864990234 -7.62939453125e-06 44.99999618530273 -7.62939453125e-06 Z" stroke="none" fill="#83793c"/>
                        </g>
                      </g>
                    </g>
                  </g>
                </g>
              </g>
            </g>
          </g>
        </g>
      </g>
    </g>
    <g id="ability_8385277" transform="translate(174.991 5694.846)">
      <path id="Trazado_1055109" data-name="Trazado 1055109" d="M75.618,196.759a6.816,6.816,0,0,0-1.18-3.845,4.445,4.445,0,0,1-.776-2.5v-10.8H72.2a4.409,4.409,0,0,0-4.409,4.409v4.725a1.89,1.89,0,0,1-3.226,1.336l-4.047-4.047a1.89,1.89,0,0,1-.553-1.336v-9a4.409,4.409,0,0,0-4.409-4.409H54.094v20.193a4.409,4.409,0,0,0,1.291,3.118l4.875,4.875a5.669,5.669,0,0,1,1.66,4.009v9.783h11.74V203.1a4.446,4.446,0,0,1,.776-2.5A6.817,6.817,0,0,0,75.618,196.759Z" transform="translate(0 -143.162)" fill="#d78878"/>
      <path id="Trazado_1055110" data-name="Trazado 1055110" d="M287.062,196.759a6.816,6.816,0,0,1,1.18-3.845,4.445,4.445,0,0,0,.776-2.5v-10.8h1.461a4.409,4.409,0,0,1,4.409,4.409v4.725a1.89,1.89,0,0,0,3.226,1.336l4.047-4.047a1.89,1.89,0,0,0,.553-1.336v-9a4.409,4.409,0,0,1,4.409-4.409h1.461v20.193a4.41,4.41,0,0,1-1.291,3.118l-4.875,4.875a5.669,5.669,0,0,0-1.66,4.009v9.783h-11.74V203.1a4.446,4.446,0,0,0-.776-2.5A6.817,6.817,0,0,1,287.062,196.759Z" transform="translate(-203.618 -143.162)" fill="#d78878"/>
      <path id="Trazado_1055111" data-name="Trazado 1055111" d="M128.736,250.654a4.445,4.445,0,0,1-.776-2.5v-10.8H126.5a4.388,4.388,0,0,0-2.319.658v7.618a4.446,4.446,0,0,0,.776,2.5,6.852,6.852,0,0,1,0,7.689,4.445,4.445,0,0,0-.776,2.5v3.815a6.36,6.36,0,0,1-6.36,6.36h-1.6v2.52h11.74V260.841a4.446,4.446,0,0,1,.776-2.5,6.852,6.852,0,0,0,0-7.689Z" transform="translate(-54.298 -200.902)" fill="#ca6e59"/>
      <path id="Trazado_1055112" data-name="Trazado 1055112" d="M320.7,171.3a4.388,4.388,0,0,0-2.319.658v17.015a4.41,4.41,0,0,1-1.292,3.118l-4.875,4.875a5.669,5.669,0,0,0-1.66,4.009V204.4a6.36,6.36,0,0,1-6.36,6.36h-1.6v2.52h11.74v-9.783a5.669,5.669,0,0,1,1.66-4.009l4.875-4.875a4.409,4.409,0,0,0,1.292-3.118V171.3Z" transform="translate(-217.192 -143.162)" fill="#ca6e59"/>
      <path id="Trazado_1055113" data-name="Trazado 1055113" d="M415.226,81.3H413.27a1.957,1.957,0,0,1-1.957-1.957h0a1.957,1.957,0,0,1,1.957-1.957h1.957a1.957,1.957,0,0,1,1.957,1.957h0A1.957,1.957,0,0,1,415.226,81.3Z" transform="translate(-312.215 -61.085)" fill="#01c0fa"/>
      <path id="Trazado_1055114" data-name="Trazado 1055114" d="M384.975,10.84l-1.384,1.384a1.957,1.957,0,0,1-2.767,0h0a1.957,1.957,0,0,1,0-2.767l1.384-1.384a1.957,1.957,0,0,1,2.767,0h0A1.957,1.957,0,0,1,384.975,10.84Z" transform="translate(-285.066 -0.001)" fill="#01c0fa"/>
      <path id="Trazado_1055115" data-name="Trazado 1055115" d="M384.975,138.254l-1.384-1.384a1.957,1.957,0,0,0-2.767,0h0a1.957,1.957,0,0,0,0,2.767l1.384,1.384a1.957,1.957,0,0,0,2.767,0h0A1.957,1.957,0,0,0,384.975,138.254Z" transform="translate(-285.066 -112.571)" fill="#01c0fa"/>
      <path id="Trazado_1055116" data-name="Trazado 1055116" d="M56.051,81.3h1.957a1.957,1.957,0,0,0,1.957-1.957h0a1.957,1.957,0,0,0-1.957-1.957H56.051a1.957,1.957,0,0,0-1.957,1.957h0A1.957,1.957,0,0,0,56.051,81.3Z" transform="translate(0 -61.085)" fill="#01c0fa"/>
      <path id="Trazado_1055117" data-name="Trazado 1055117" d="M90.278,10.84l1.384,1.384a1.957,1.957,0,0,0,2.767,0h0a1.957,1.957,0,0,0,0-2.767L93.045,8.073a1.957,1.957,0,0,0-2.767,0h0A1.957,1.957,0,0,0,90.278,10.84Z" transform="translate(-31.125 -0.001)" fill="#01c0fa"/>
      <path id="Trazado_1055118" data-name="Trazado 1055118" d="M90.278,138.254l1.384-1.384a1.957,1.957,0,0,1,2.767,0h0a1.957,1.957,0,0,1,0,2.767l-1.384,1.384a1.957,1.957,0,0,1-2.767,0h0A1.957,1.957,0,0,1,90.278,138.254Z" transform="translate(-31.125 -112.571)" fill="#01c0fa"/>
      <path id="Trazado_1055119" data-name="Trazado 1055119" d="M170.707,126h-6a1.89,1.89,0,0,1-1.89-1.89v-6a1.89,1.89,0,0,1,1.89-1.89h6a1.89,1.89,0,0,1,1.89,1.89v6A1.89,1.89,0,0,1,170.707,126Z" transform="translate(-95.022 -95.022)" fill="#46cc8d"/>
      <circle id="Elipse_13557" data-name="Elipse 13557" cx="4.892" cy="4.892" r="4.892" transform="translate(81.488 21.197)" fill="#fee903"/>
      <path id="Trazado_1055120" data-name="Trazado 1055120" d="M223.644,14.995l-3.887-6.732a1.526,1.526,0,0,0-2.643,0l-3.887,6.732a1.526,1.526,0,0,0,1.321,2.289h7.774A1.526,1.526,0,0,0,223.644,14.995Z" transform="translate(-138.905)" fill="#e53950"/>
      <path id="Trazado_1055121" data-name="Trazado 1055121" d="M170.706,116.219h-1.89v4.62a3.273,3.273,0,0,1-3.273,3.273h-2.731A1.89,1.89,0,0,0,164.7,126h6a1.89,1.89,0,0,0,1.89-1.89v-6A1.89,1.89,0,0,0,170.706,116.219Z" transform="translate(-95.021 -95.022)" fill="#00c27a"/>
      <path id="Trazado_1055122" data-name="Trazado 1055122" d="M283.644,116.225a4.892,4.892,0,0,1-3.863,7.893H279.7a4.892,4.892,0,1,0,3.947-7.892Z" transform="translate(-197.18 -95.028)" fill="#f4d902"/>
      <path id="Trazado_1055123" data-name="Trazado 1055123" d="M223.644,14.995l-3.887-6.732a1.526,1.526,0,0,0-2.643,0l-.023.04,2.773,4.8a1.526,1.526,0,0,1-1.321,2.289h-5.477a1.528,1.528,0,0,0,1.483,1.89h7.774A1.526,1.526,0,0,0,223.644,14.995Z" transform="translate(-138.905)" fill="#ca2e43"/>
      <path id="Trazado_1055124" data-name="Trazado 1055124" d="M61.921,210.872v2.4h11.74V203.1a4.446,4.446,0,0,1,.776-2.5,6.852,6.852,0,0,0,0-7.689,4.445,4.445,0,0,1-.776-2.5v-10.8H72.2a4.409,4.409,0,0,0-4.409,4.409v4.725a1.89,1.89,0,0,1-3.226,1.336l-4.047-4.047a1.89,1.89,0,0,1-.553-1.336v-9a4.409,4.409,0,0,0-4.409-4.409H54.094v20.193a4.409,4.409,0,0,0,1.291,3.118l4.875,4.875a5.669,5.669,0,0,1,1.66,4.009v2.97" transform="translate(0 -143.162)" fill="none" stroke="#000" stroke-linecap="round" stroke-linejoin="round" stroke-miterlimit="10" stroke-width="1"/>
      <path id="Trazado_1055125" data-name="Trazado 1055125" d="M302.716,177.547v-1.84a4.409,4.409,0,0,1,4.409-4.409h1.461v20.193a4.41,4.41,0,0,1-1.291,3.118l-4.875,4.875a5.669,5.669,0,0,0-1.66,4.009v9.783h-11.74V203.1a4.446,4.446,0,0,0-.776-2.5,6.852,6.852,0,0,1,0-7.689,4.445,4.445,0,0,0,.776-2.5v-10.8h1.461a4.409,4.409,0,0,1,4.409,4.409v4.725a1.89,1.89,0,0,0,3.226,1.336l4.047-4.047a1.89,1.89,0,0,0,.553-1.336v-2.752" transform="translate(-203.618 -143.162)" fill="none" stroke="#000" stroke-linecap="round" stroke-linejoin="round" stroke-miterlimit="10" stroke-width="1"/>
      <line id="Línea_1007" data-name="Línea 1007" x2="3.913" transform="translate(65.834 60.331)" fill="none" stroke="#000" stroke-linecap="round" stroke-linejoin="round" stroke-miterlimit="10" stroke-width="1"/>
      <line id="Línea_1008" data-name="Línea 1008" x1="3.913" transform="translate(89.315 60.331)" fill="none" stroke="#000" stroke-linecap="round" stroke-linejoin="round" stroke-miterlimit="10" stroke-width="1"/>
      <path id="Trazado_1055126" data-name="Trazado 1055126" d="M170.707,126h-6a1.89,1.89,0,0,1-1.89-1.89v-6a1.89,1.89,0,0,1,1.89-1.89h6a1.89,1.89,0,0,1,1.89,1.89v6A1.89,1.89,0,0,1,170.707,126Z" transform="translate(-95.022 -95.022)" fill="none" stroke="#000" stroke-linecap="round" stroke-linejoin="round" stroke-miterlimit="10" stroke-width="1"/>
      <circle id="Elipse_13558" data-name="Elipse 13558" cx="4.892" cy="4.892" r="4.892" transform="translate(81.488 21.197)" fill="none" stroke="#000" stroke-linecap="round" stroke-linejoin="round" stroke-miterlimit="10" stroke-width="1"/>
      <path id="Trazado_1055127" data-name="Trazado 1055127" d="M214.352,13.047l-1.124,1.947a1.526,1.526,0,0,0,1.321,2.289h7.773a1.526,1.526,0,0,0,1.321-2.289l-3.887-6.732a1.526,1.526,0,0,0-2.643,0l-.484.839" transform="translate(-138.904)" fill="none" stroke="#000" stroke-linecap="round" stroke-linejoin="round" stroke-miterlimit="10" stroke-width="1"/>
      <path id="Trazado_1055128" data-name="Trazado 1055128" d="M415.226,81.3H413.27a1.957,1.957,0,0,1-1.957-1.957h0a1.957,1.957,0,0,1,1.957-1.957h1.957a1.957,1.957,0,0,1,1.957,1.957h0A1.957,1.957,0,0,1,415.226,81.3Z" transform="translate(-312.215 -61.085)" fill="none" stroke="#000" stroke-linecap="round" stroke-linejoin="round" stroke-miterlimit="10" stroke-width="1"/>
      <path id="Trazado_1055129" data-name="Trazado 1055129" d="M384.975,10.84l-1.384,1.384a1.957,1.957,0,0,1-2.767,0h0a1.957,1.957,0,0,1,0-2.767l1.384-1.384a1.957,1.957,0,0,1,2.767,0h0A1.957,1.957,0,0,1,384.975,10.84Z" transform="translate(-285.066 -0.001)" fill="none" stroke="#000" stroke-linecap="round" stroke-linejoin="round" stroke-miterlimit="10" stroke-width="1"/>
      <path id="Trazado_1055130" data-name="Trazado 1055130" d="M384.975,138.254l-1.384-1.384a1.957,1.957,0,0,0-2.767,0h0a1.957,1.957,0,0,0,0,2.767l1.384,1.384a1.957,1.957,0,0,0,2.767,0h0A1.957,1.957,0,0,0,384.975,138.254Z" transform="translate(-285.066 -112.571)" fill="none" stroke="#000" stroke-linecap="round" stroke-linejoin="round" stroke-miterlimit="10" stroke-width="1"/>
      <path id="Trazado_1055131" data-name="Trazado 1055131" d="M56.051,81.3h1.957a1.957,1.957,0,0,0,1.957-1.957h0a1.957,1.957,0,0,0-1.957-1.957H56.051a1.957,1.957,0,0,0-1.957,1.957h0A1.957,1.957,0,0,0,56.051,81.3Z" transform="translate(0 -61.085)" fill="none" stroke="#000" stroke-linecap="round" stroke-linejoin="round" stroke-miterlimit="10" stroke-width="1"/>
      <path id="Trazado_1055132" data-name="Trazado 1055132" d="M90.278,10.84l1.384,1.384a1.957,1.957,0,0,0,2.767,0h0a1.957,1.957,0,0,0,0-2.767L93.045,8.073a1.957,1.957,0,0,0-2.767,0h0A1.957,1.957,0,0,0,90.278,10.84Z" transform="translate(-31.125 -0.001)" fill="none" stroke="#000" stroke-linecap="round" stroke-linejoin="round" stroke-miterlimit="10" stroke-width="1"/>
      <path id="Trazado_1055133" data-name="Trazado 1055133" d="M90.278,138.254l1.384-1.384a1.957,1.957,0,0,1,2.767,0h0a1.957,1.957,0,0,1,0,2.767l-1.384,1.384a1.957,1.957,0,0,1-2.767,0h0A1.957,1.957,0,0,1,90.278,138.254Z" transform="translate(-31.125 -112.571)" fill="none" stroke="#000" stroke-linecap="round" stroke-linejoin="round" stroke-miterlimit="10" stroke-width="1"/>
    </g>
  </g>
</svg>
