<svg xmlns="http://www.w3.org/2000/svg" xmlns:xlink="http://www.w3.org/1999/xlink" width="118" height="118" viewBox="0 0 118 118">
  <defs>
    <filter id="Trazado_982547" x="0" y="0" width="118" height="118" filterUnits="userSpaceOnUse">
      <feOffset dy="3" input="SourceAlpha"/>
      <feGaussianBlur stdDeviation="3" result="blur"/>
      <feFlood flood-opacity="0.161"/>
      <feComposite operator="in" in2="blur"/>
      <feComposite in="SourceGraphic"/>
    </filter>
  </defs>
  <g id="Grupo_1224410" data-name="Grupo 1224410" transform="translate(-321 -2437.797)">
    <g id="Grupo_1223958" data-name="Grupo 1223958" transform="translate(0 -2682.959)">
      <g id="Grupo_1223827" data-name="Grupo 1223827" transform="translate(330 5126.756)">
        <g id="Grupo_1223741" data-name="Grupo 1223741">
          <g id="Grupo_1223199" data-name="Grupo 1223199">
            <g id="Grupo_1211216" data-name="Grupo 1211216" transform="translate(0)">
              <g id="Grupo_1210737" data-name="Grupo 1210737">
                <g id="Grupo_1210537" data-name="Grupo 1210537">
                  <g id="Grupo_1164202" data-name="Grupo 1164202">
                    <g id="Grupo_1158168" data-name="Grupo 1158168">
                      <g id="Grupo_1152576" data-name="Grupo 1152576">
                        <g id="Grupo_1148633" data-name="Grupo 1148633">
                          <g id="Grupo_1148525" data-name="Grupo 1148525">
                            <g transform="matrix(1, 0, 0, 1, -9, -6)" filter="url(#Trazado_982547)">
                              <g id="Trazado_982547-2" data-name="Trazado 982547" transform="translate(9 6)" fill="#fdfbec">
                                <path d="M 49.99999618530273 98.5 C 43.45188140869141 98.5 37.10042572021484 97.21786499023438 31.12206840515137 94.68923950195312 C 25.34691047668457 92.24655151367188 20.15996742248535 88.74931335449219 15.70532512664795 84.29468536376953 C 11.25068187713623 79.84004211425781 7.753438949584961 74.65309906005859 5.310753345489502 68.87792205810547 C 2.782124757766724 62.89956665039062 1.499996185302734 56.54811096191406 1.499996185302734 49.99999618530273 C 1.499996185302734 43.45188140869141 2.782124757766724 37.10042572021484 5.310753345489502 31.12206840515137 C 7.753438949584961 25.34691047668457 11.25068187713623 20.15996742248535 15.70532512664795 15.70532512664795 C 20.15996742248535 11.25068187713623 25.34691047668457 7.753438949584961 31.12206840515137 5.310753345489502 C 37.10042572021484 2.782124757766724 43.45188140869141 1.499996185302734 49.99999618530273 1.499996185302734 C 56.54811096191406 1.499996185302734 62.89956665039062 2.782124757766724 68.87792205810547 5.310753345489502 C 74.65309906005859 7.753438949584961 79.84004211425781 11.25068187713623 84.29468536376953 15.70532512664795 C 88.74931335449219 20.15996742248535 92.24655151367188 25.34691047668457 94.68923950195312 31.12206840515137 C 97.21786499023438 37.10042572021484 98.5 43.45188140869141 98.5 49.99999618530273 C 98.5 56.54811096191406 97.21786499023438 62.89956665039062 94.68923950195312 68.87792205810547 C 92.24655151367188 74.65309906005859 88.74931335449219 79.84004211425781 84.29468536376953 84.29468536376953 C 79.84004211425781 88.74931335449219 74.65309906005859 92.24655151367188 68.87792205810547 94.68923950195312 C 62.89956665039062 97.21786499023438 56.54811096191406 98.5 49.99999618530273 98.5 Z" stroke="none"/>
                                <path d="M 49.99999618530273 2.999992370605469 C 43.65372085571289 2.999992370605469 37.49885940551758 4.242256164550781 31.70639801025391 6.6922607421875 C 26.11002349853516 9.059318542480469 21.08335113525391 12.4486083984375 16.76598358154297 16.76598358154297 C 12.4486083984375 21.08335113525391 9.059318542480469 26.11002349853516 6.6922607421875 31.70639801025391 C 4.242256164550781 37.49885940551758 2.999992370605469 43.65372085571289 2.999992370605469 49.99999618530273 C 2.999992370605469 56.34627151489258 4.242256164550781 62.50113296508789 6.6922607421875 68.29359436035156 C 9.059318542480469 73.88996887207031 12.4486083984375 78.91664123535156 16.76598358154297 83.2340087890625 C 21.08335113525391 87.55138397216797 26.11002349853516 90.940673828125 31.70639801025391 93.30773162841797 C 37.49885940551758 95.75773620605469 43.65372085571289 97 49.99999618530273 97 C 56.34627151489258 97 62.50113296508789 95.75773620605469 68.29359436035156 93.30773162841797 C 73.88996887207031 90.940673828125 78.91664123535156 87.55138397216797 83.2340087890625 83.2340087890625 C 87.55138397216797 78.91664123535156 90.940673828125 73.88996887207031 93.30773162841797 68.29359436035156 C 95.75773620605469 62.50113296508789 97 56.34627151489258 97 49.99999618530273 C 97 43.65372085571289 95.75773620605469 37.49885940551758 93.30773162841797 31.70639801025391 C 90.940673828125 26.11002349853516 87.55138397216797 21.08335113525391 83.2340087890625 16.76598358154297 C 78.91664123535156 12.4486083984375 73.88996887207031 9.059318542480469 68.29359436035156 6.6922607421875 C 62.50113296508789 4.242256164550781 56.34627151489258 2.999992370605469 49.99999618530273 2.999992370605469 M 49.99999618530273 -7.62939453125e-06 C 77.61422729492188 -7.62939453125e-06 100 22.38576507568359 100 49.99999618530273 C 100 77.61422729492188 77.61422729492188 100 49.99999618530273 100 C 22.38576507568359 100 -7.62939453125e-06 77.61422729492188 -7.62939453125e-06 49.99999618530273 C -7.62939453125e-06 22.38576507568359 22.38576507568359 -7.62939453125e-06 49.99999618530273 -7.62939453125e-06 Z" stroke="none" fill="#83793c"/>
                              </g>
                            </g>
                          </g>
                        </g>
                      </g>
                    </g>
                  </g>
                </g>
              </g>
            </g>
          </g>
        </g>
      </g>
    </g>
    <g id="concept_9445846" transform="translate(329.856 2453.28)">
      <g id="Grupo_1224409" data-name="Grupo 1224409" transform="translate(21.455 6.698)">
        <path id="Trazado_1054956" data-name="Trazado 1054956" d="M152.52,91.4c13.218,0,19.509,9.009,19.068,22.227,1.159,2.47,3.767,6.305,5.684,9.492a2.035,2.035,0,0,1,.014,2.111,2.126,2.126,0,0,1-1.821,1.131c-1.959.083-4.1.179-5.27.262-.055,3.2-.041,3.891-.1,7.078a5.679,5.679,0,0,1-5.629,5.533h-4.249a5.649,5.649,0,0,0-5.491,4.346c-.345,1.449-.69,2.884-1.035,4.332H133.384c1.131-4.746,1.352-6.457,2.483-11.2,2.18-9.106-2.608-9.078-5.257-16.819-4.553-13.3-.414-28.491,21.91-28.491Z" transform="translate(-114.178 -80.293)" fill="#fad1a2" fill-rule="evenodd"/>
        <path id="Trazado_1054957" data-name="Trazado 1054957" d="M153.128,91.228h.014c.193,0,.386.014.579.014h.028c.179.014.359.014.538.028h.069l.51.041.1.014.455.041a.469.469,0,0,0,.138.014l.386.041c.069.014.138.014.207.028.11.014.221.041.331.055.083.014.166.028.262.041s.179.028.262.041.207.041.3.055l.207.041c.124.028.235.055.345.069l.166.041v43.544H136.309c-.028-.179-.055-.359-.1-.552,1.187-7.409-3.146-7.878-5.6-15.08-4.553-13.314-.414-28.5,21.91-28.5a4.37,4.37,0,0,0,.607.028Z" transform="translate(-114.178 -80.121)" fill="#b79876" fill-rule="evenodd"/>
        <path id="Trazado_1054958" data-name="Trazado 1054958" d="M21.8,40.5H61.2V87.01H21.8Z" transform="translate(-21.8 -36.416)" fill="#dd6e42" fill-rule="evenodd"/>
        <path id="Trazado_1054959" data-name="Trazado 1054959" d="M42.1,61.7H75.875v40.66H42.1Z" transform="translate(-39.299 -54.691)" fill="#9e4623" fill-rule="evenodd"/>
        <path id="Trazado_1054960" data-name="Trazado 1054960" d="M54.5,73.6H86.564v39.032H54.5Z" transform="translate(-49.988 -64.949)" fill="#e6e6e6" fill-rule="evenodd"/>
        <path id="Trazado_1054961" data-name="Trazado 1054961" d="M108.107,13.963h4.029a3.233,3.233,0,0,1,6.457,0h4.043a.612.612,0,0,1,.607.607v3.339a.6.6,0,0,1-.607.593H108.107a.61.61,0,0,1-.607-.593V14.57A.612.612,0,0,1,108.107,13.963Z" transform="translate(-95.676 -10.9)" fill="gray" fill-rule="evenodd"/>
        <path id="Trazado_1054962" data-name="Trazado 1054962" d="M155.449,24.3A1.449,1.449,0,1,1,154,25.735,1.449,1.449,0,0,1,155.449,24.3Z" transform="translate(-135.76 -22.451)" fill="#e6e6e6" fill-rule="evenodd"/>
        <path id="Trazado_1054963" data-name="Trazado 1054963" d="M122.061,110.223v2.828h-1.835a7.4,7.4,0,0,1-1.173,2.815l1.3,1.3-2,2-1.3-1.3a7.489,7.489,0,0,1-2.815,1.173v1.835h-2.828v-1.835a7.4,7.4,0,0,1-2.815-1.173l-1.3,1.3-1.987-2,1.3-1.3a7.489,7.489,0,0,1-1.173-2.815H103.6v-2.828h1.849a7.186,7.186,0,0,1,1.173-2.815l-1.3-1.3,2-2,1.3,1.3a7.489,7.489,0,0,1,2.815-1.173V102.4h2.828v1.835a7.186,7.186,0,0,1,2.815,1.173l1.3-1.3,2,2-1.3,1.3a7.489,7.489,0,0,1,1.173,2.815Zm-4.525,1.407a4.7,4.7,0,1,1-4.7-4.7A4.711,4.711,0,0,1,117.535,111.63Z" transform="translate(-92.314 -89.776)" fill="#208380" fill-rule="evenodd"/>
        <path id="Trazado_1054964" data-name="Trazado 1054964" d="M155.05,287.1h-3.739a.919.919,0,0,0-.911.911v3.739a.91.91,0,0,0,.911.911h3.739a.91.91,0,0,0,.911-.911v-3.739A.919.919,0,0,0,155.05,287.1Z" transform="translate(-132.657 -248.992)" fill="#fdb614" fill-rule="evenodd"/>
        <path id="Trazado_1054965" data-name="Trazado 1054965" d="M85.963,287.1H82.211a.91.91,0,0,0-.911.911v3.739a.91.91,0,0,0,.911.911H85.95a.91.91,0,0,0,.911-.911v-3.739a.9.9,0,0,0-.9-.911Z" transform="translate(-73.091 -248.992)" fill="#ed2024" fill-rule="evenodd"/>
        <path id="Trazado_1054966" data-name="Trazado 1054966" d="M224.05,287.1h-3.739a.91.91,0,0,0-.911.911v3.739a.91.91,0,0,0,.911.911h3.739a.91.91,0,0,0,.911-.911v-3.739A.9.9,0,0,0,224.05,287.1Z" transform="translate(-192.137 -248.992)" fill="#ed2024" fill-rule="evenodd"/>
      </g>
      <path id="Trazado_1054967" data-name="Trazado 1054967" d="M52.5,27.146V29.96a.677.677,0,0,1-.676.676h-1.3a8.275,8.275,0,0,1-.842,2.042l.924.911a.675.675,0,0,1,0,.952l-2,2a.675.675,0,0,1-.952,0l-.924-.924a8.313,8.313,0,0,1-2.042.855v1.3a.677.677,0,0,1-.676.676h-.731V40.46h8.761a.677.677,0,0,1,.676.676v2.98H54A1.6,1.6,0,0,1,55.589,45.7v3.739a1.54,1.54,0,0,1-.469,1.118A1.563,1.563,0,0,1,54,51.028H50.263a1.6,1.6,0,0,1-1.587-1.587V45.7a1.6,1.6,0,0,1,.469-1.131,1.563,1.563,0,0,1,1.118-.469h1.118V41.784h-8.1V44.1h1.187a1.587,1.587,0,0,1,1.587,1.587v3.739a1.6,1.6,0,0,1-1.587,1.587H40.73a1.6,1.6,0,0,1-1.587-1.587V45.689A1.6,1.6,0,0,1,40.73,44.1h1.2V41.784H33.845V44.1h1.118a1.6,1.6,0,0,1,1.587,1.587v3.739a1.54,1.54,0,0,1-.469,1.118,1.563,1.563,0,0,1-1.118.469H31.21a1.6,1.6,0,0,1-1.587-1.587V45.689a1.6,1.6,0,0,1,.469-1.131,1.563,1.563,0,0,1,1.118-.469h1.283v-2.98a.677.677,0,0,1,.676-.676H41.93V38.418H41.2a.677.677,0,0,1-.676-.676v-1.3l-1.049-.359a6.675,6.675,0,0,1-.993-.5l-.924.924a.675.675,0,0,1-.952,0l-2-2a.675.675,0,0,1,0-.952l.924-.911a8.313,8.313,0,0,1-.855-2.042h-1.3a.677.677,0,0,1-.676-.676V27.118a.677.677,0,0,1,.676-.676h1.3a8.313,8.313,0,0,1,.855-2.042l-.924-.924a.675.675,0,0,1,0-.952l2-2a.675.675,0,0,1,.952,0l.924.924a7.777,7.777,0,0,1,2.042-.842v-1.3a.677.677,0,0,1,.676-.676h2.828a.677.677,0,0,1,.676.676v1.3l1.049.359a6.675,6.675,0,0,1,.993.5l.924-.924a.675.675,0,0,1,.952,0l2,2a.675.675,0,0,1,0,.952l-.924.924a7.777,7.777,0,0,1,.842,2.042h1.3A.686.686,0,0,1,52.5,27.146ZM51.16,29.284V27.822H50a.666.666,0,0,1-.662-.552A6.888,6.888,0,0,0,48.3,24.745a.676.676,0,0,1,.055-.9l.828-.828-1.035-1.035-.828.828a.686.686,0,0,1-.855.083,7.031,7.031,0,0,0-1.228-.662,6.713,6.713,0,0,0-1.3-.386.685.685,0,0,1-.593-.676V20.013H41.875v1.159a.666.666,0,0,1-.552.662A6.887,6.887,0,0,0,38.8,22.869a.676.676,0,0,1-.9-.055l-.828-.828L36.039,23.02l.828.828a.687.687,0,0,1,.083.855A6.777,6.777,0,0,0,35.9,27.229a.685.685,0,0,1-.676.593H34.066v1.462h1.159a.666.666,0,0,1,.662.552,6.887,6.887,0,0,0,1.035,2.525.676.676,0,0,1-.055.9l-.828.828,1.035,1.035.828-.828a.686.686,0,0,1,.855-.083,7.031,7.031,0,0,0,1.228.662,6.714,6.714,0,0,0,1.3.386.685.685,0,0,1,.593.676v1.159h1.476V35.934a.666.666,0,0,1,.552-.662,6.888,6.888,0,0,0,2.525-1.035.676.676,0,0,1,.9.055l.828.828,1.035-1.035-.828-.828a.687.687,0,0,1-.083-.855,6.777,6.777,0,0,0,1.049-2.525A.685.685,0,0,1,50,29.284Zm-3.173-.731a5.381,5.381,0,1,1-5.381-5.381A5.388,5.388,0,0,1,47.987,28.553ZM45.448,31.4a4.029,4.029,0,1,0-5.7,0A4.03,4.03,0,0,0,45.448,31.4ZM54,45.482H50.263a.236.236,0,0,0-.235.235v3.739a.233.233,0,0,0,.235.235H54a.236.236,0,0,0,.235-.235V45.717A.242.242,0,0,0,54,45.482Zm-19.054,0H31.21a.236.236,0,0,0-.235.235v3.739a.233.233,0,0,0,.235.235h3.739a.236.236,0,0,0,.235-.235V45.717A.233.233,0,0,0,34.949,45.482Zm9.52,0H40.73a.233.233,0,0,0-.235.235v3.739a.233.233,0,0,0,.235.235h3.739a.233.233,0,0,0,.235-.235V45.717A.224.224,0,0,0,44.469,45.482Zm-2.7-37.611a2.118,2.118,0,1,1-2.111,2.111,2.1,2.1,0,0,1,2.111-2.111Zm.552,1.573a.766.766,0,1,0,0,1.076A.75.75,0,0,0,42.316,9.444Zm-7.809-.359h3.449A3.918,3.918,0,0,1,44.469,7.1,3.985,3.985,0,0,1,45.6,9.085h3.449A1.285,1.285,0,0,1,50.3,10.106H61.481a.677.677,0,0,1,.676.676v6.4c5.96.373,10.431,2.649,13.452,6.36,3.242,4,4.76,9.658,4.567,16.35.786,1.628,2.18,3.836,3.573,6.057.7,1.118,1.421,2.235,2,3.229A2.859,2.859,0,0,1,83.4,53.457l-4.636.221-.083,6.457a6.363,6.363,0,0,1-6.319,6.195H68.117a4.958,4.958,0,0,0-4.829,3.836L62.253,74.5a.679.679,0,0,1-.662.51H41.282a.671.671,0,0,1-.635-.9c.552-2.29.883-3.9,1.228-5.519s.676-3.2,1.256-5.615a14.755,14.755,0,0,0,.469-5.008H22.076a.677.677,0,0,1-.676-.676V10.782a.677.677,0,0,1,.676-.676H33.265a1.3,1.3,0,0,1,.345-.635,1.221,1.221,0,0,1,.9-.386Zm15.811,2.373v1.573h8.347a.677.677,0,0,1,.676.676v40.66a.677.677,0,0,1-.676.676H24.891a.677.677,0,0,1-.676-.676V13.707a.677.677,0,0,1,.676-.676h8.347V11.458H22.752V56.616H60.8V11.458Zm-.207,2.925a1.293,1.293,0,0,1-1.076.593H34.507a1.275,1.275,0,0,1-1.076-.593H25.567V53.691H57.99V14.383ZM38.55,10.437H34.59v3.187H48.967V10.437h-3.96a.679.679,0,0,1-.676-.635,2.565,2.565,0,0,0-5.119-.041A.666.666,0,0,1,38.55,10.437Zm23.607,8.1v38.77a.677.677,0,0,1-.676.676H44.938a16.26,16.26,0,0,1-.51,5.312c-1.035,4.346-1.3,6.126-2.29,10.362h18.93l.911-3.822a6.3,6.3,0,0,1,6.14-4.87h4.249a5.02,5.02,0,0,0,4.967-4.87c.028-1.6.041-2.566.041-3.532s.014-1.932.041-3.491a.686.686,0,0,1,.621-.717l5.3-.262a1.49,1.49,0,0,0,1.242-2.221c-1.738-2.884-4.539-7.05-5.712-9.548a.752.752,0,0,1-.069-.3C79,33.575,77.6,28.181,74.533,24.4c-2.746-3.408-6.871-5.505-12.376-5.864Z" transform="translate(0 0)"/>
    </g>
  </g>
</svg>
