<svg xmlns="http://www.w3.org/2000/svg" xmlns:xlink="http://www.w3.org/1999/xlink" width="113" height="113" viewBox="0 0 113 113">
  <defs>
    <filter id="Trazado_982547" x="0" y="0" width="113" height="113" filterUnits="userSpaceOnUse">
      <feOffset dy="3" input="SourceAlpha"/>
      <feGaussianBlur stdDeviation="3" result="blur"/>
      <feFlood flood-opacity="0.161"/>
      <feComposite operator="in" in2="blur"/>
      <feComposite in="SourceGraphic"/>
    </filter>
  </defs>
  <g id="Grupo_1224643" data-name="Grupo 1224643" transform="translate(-271 -2813.996)">
    <g id="Grupo_1224291" data-name="Grupo 1224291" transform="translate(0 859.245)">
      <g id="Grupo_1224091" data-name="Grupo 1224091" transform="translate(-84.49 -2620.317)">
        <g id="Grupo_1223183" data-name="Grupo 1223183" transform="translate(364.49 4581.069)">
          <g id="Grupo_1211217" data-name="Grupo 1211217" transform="translate(0)">
            <g id="Grupo_1210736" data-name="Grupo 1210736">
              <g id="Grupo_1210537" data-name="Grupo 1210537">
                <g id="Grupo_1164202" data-name="Grupo 1164202">
                  <g id="Grupo_1158168" data-name="Grupo 1158168">
                    <g id="Grupo_1152576" data-name="Grupo 1152576">
                      <g id="Grupo_1148633" data-name="Grupo 1148633">
                        <g id="Grupo_1148525" data-name="Grupo 1148525">
                          <g transform="matrix(1, 0, 0, 1, -9, -6)" filter="url(#Trazado_982547)">
                            <g id="Trazado_982547-2" data-name="Trazado 982547" transform="translate(9 6)" fill="#fdfbec">
                              <path d="M 47.49999618530273 93.5 C 41.28936767578125 93.5 35.26533126831055 92.28396606445312 29.59518241882324 89.88570404052734 C 24.11771583557129 87.56893157958984 19.19812965393066 84.251953125 14.97308921813965 80.02690124511719 C 10.74803638458252 75.80186462402344 7.431062698364258 70.88227844238281 5.114289283752441 65.40480804443359 C 2.716022968292236 59.73466110229492 1.499996185302734 53.71062469482422 1.499996185302734 47.49999618530273 C 1.499996185302734 41.28936767578125 2.716022968292236 35.26533126831055 5.114289283752441 29.59518241882324 C 7.431062698364258 24.11771583557129 10.74803638458252 19.19812965393066 14.97308921813965 14.97308921813965 C 19.19812965393066 10.74803638458252 24.11771583557129 7.431062698364258 29.59518241882324 5.114289283752441 C 35.26533126831055 2.716022968292236 41.28936767578125 1.499996185302734 47.49999618530273 1.499996185302734 C 53.71062469482422 1.499996185302734 59.73466110229492 2.716022968292236 65.40480804443359 5.114289283752441 C 70.88227844238281 7.431062698364258 75.80186462402344 10.74803638458252 80.02690124511719 14.97308921813965 C 84.251953125 19.19812965393066 87.56893157958984 24.11771583557129 89.88570404052734 29.59518241882324 C 92.28396606445312 35.26533126831055 93.5 41.28936767578125 93.5 47.49999618530273 C 93.5 53.71062469482422 92.28396606445312 59.73466110229492 89.88570404052734 65.40480804443359 C 87.56893157958984 70.88227844238281 84.251953125 75.80186462402344 80.02690124511719 80.02690124511719 C 75.80186462402344 84.251953125 70.88227844238281 87.56893157958984 65.40480804443359 89.88570404052734 C 59.73466110229492 92.28396606445312 53.71062469482422 93.5 47.49999618530273 93.5 Z" stroke="none"/>
                              <path d="M 47.49999618530273 2.999992370605469 C 41.4912109375 2.999992370605469 35.66376495361328 4.1761474609375 30.17950439453125 6.495796203613281 C 24.88084411621094 8.736953735351562 20.12152099609375 11.94598388671875 16.03375244140625 16.03375244140625 C 11.94598388671875 20.12152099609375 8.736953735351562 24.88084411621094 6.495796203613281 30.17950439453125 C 4.1761474609375 35.66376495361328 2.999992370605469 41.4912109375 2.999992370605469 47.49999618530273 C 2.999992370605469 53.50878143310547 4.1761474609375 59.33622741699219 6.495796203613281 64.82048797607422 C 8.736953735351562 70.11914825439453 11.94598388671875 74.87847137451172 16.03375244140625 78.96623992919922 C 20.12152099609375 83.05400848388672 24.88084411621094 86.26304626464844 30.17950439453125 88.50419616699219 C 35.66376495361328 90.82384490966797 41.4912109375 92 47.49999618530273 92 C 53.50878143310547 92 59.33622741699219 90.82384490966797 64.82048797607422 88.50419616699219 C 70.11914825439453 86.26304626464844 74.87847137451172 83.05400848388672 78.96623992919922 78.96623992919922 C 83.05400848388672 74.87847137451172 86.26304626464844 70.11914825439453 88.50419616699219 64.82048797607422 C 90.82384490966797 59.33622741699219 92 53.50878143310547 92 47.49999618530273 C 92 41.4912109375 90.82384490966797 35.66376495361328 88.50419616699219 30.17950439453125 C 86.26304626464844 24.88084411621094 83.05400848388672 20.12152099609375 78.96623992919922 16.03375244140625 C 74.87847137451172 11.94598388671875 70.11914825439453 8.736953735351562 64.82048797607422 6.495796203613281 C 59.33622741699219 4.1761474609375 53.50878143310547 2.999992370605469 47.49999618530273 2.999992370605469 M 47.49999618530273 -7.62939453125e-06 C 73.7335205078125 -7.62939453125e-06 95 21.26647186279297 95 47.49999618530273 C 95 73.7335205078125 73.7335205078125 95 47.49999618530273 95 C 21.26647186279297 95 -7.62939453125e-06 73.7335205078125 -7.62939453125e-06 47.49999618530273 C -7.62939453125e-06 21.26647186279297 21.26647186279297 -7.62939453125e-06 47.49999618530273 -7.62939453125e-06 Z" stroke="none" fill="#83793c"/>
                            </g>
                          </g>
                        </g>
                      </g>
                    </g>
                  </g>
                </g>
              </g>
            </g>
          </g>
        </g>
      </g>
    </g>
    <g id="open-box_8208661" transform="translate(290.012 2831.59)">
      <path id="Trazado_1055232" data-name="Trazado 1055232" d="M58.695,20.657V52.13A4.984,4.984,0,0,1,53.725,57.1H13.969A4.984,4.984,0,0,1,9,52.13V20.657a1.567,1.567,0,0,1,.149-.679,1.622,1.622,0,0,1,1.06-.911A1.325,1.325,0,0,1,10.657,19H57.038a1.325,1.325,0,0,1,.447.066,1.622,1.622,0,0,1,1.06.911,1.567,1.567,0,0,1,.149.679Z" transform="translate(3.645 8.193)" fill="#ffd164"/>
      <path id="Trazado_1055233" data-name="Trazado 1055233" d="M58.841,23.916a1.567,1.567,0,0,1,.149.679v1.64a.282.282,0,0,1-.116.017H9.411a.282.282,0,0,1-.116-.017V24.6a1.567,1.567,0,0,1,.149-.679L8.55,22.724,14.712,13H53.573l6.162,9.724Z" transform="translate(3.349 4.255)" fill="#ef9d30"/>
      <path id="Trazado_1055234" data-name="Trazado 1055234" d="M42.548,28.169H12.4l9.16-13.252L23,12.581a5.249,5.249,0,0,1,8.945,0Z" transform="translate(5.877 2.338)" fill="#26457d"/>
      <path id="Trazado_1055235" data-name="Trazado 1055235" d="M43.5,26.252H22.98l3.826-6.228,3.23-5.235a3.765,3.765,0,0,1,6.411,0Z" transform="translate(12.823 4.254)" fill="#ff4b87"/>
      <path id="Trazado_1055236" data-name="Trazado 1055236" d="M49.61,17.206l-7.04,9.376-.2.265-.895,1.193-.348.48h-.017l-.7-1.391-.828-1.656-4.174-8.349L35,16.311l6.394-8.945a1.517,1.517,0,0,1,2.485,0L49.627,15.4a1.542,1.542,0,0,1-.017,1.806Z" transform="translate(20.714 0.132)" fill="#ffd164"/>
      <path id="Trazado_1055237" data-name="Trazado 1055237" d="M18.909,16.311l-.414.812-4.174,8.349-.828,1.656-.7,1.391H12.78l-.348-.48-.895-1.193-.2-.265L4.3,17.206A1.542,1.542,0,0,1,4.282,15.4L10.03,7.366a1.517,1.517,0,0,1,2.485,0Z" transform="translate(0.362 0.132)" fill="#ffd164"/>
      <path id="Trazado_1055238" data-name="Trazado 1055238" d="M30.845,33.028l-3.373-1.713a1.656,1.656,0,0,0-1.483-.01l-3.6,1.772A1.656,1.656,0,0,1,20,31.587V21H33.252V31.552a1.656,1.656,0,0,1-2.407,1.476Z" transform="translate(10.866 9.507)" fill="#fff2b4"/>
      <rect id="Rectángulo_421983" data-name="Rectángulo 421983" width="14.908" height="6.626" rx="1" transform="translate(39.149 50.384)" fill="#f9f6f6"/>
      <g id="Grupo_1224642" data-name="Grupo 1224642" transform="translate(3.448 6.519)">
        <path id="Trazado_1055239" data-name="Trazado 1055239" d="M32.252,36.2a3.325,3.325,0,0,1-1.491-.353L27.282,34.1,23.8,35.848A3.313,3.313,0,0,1,19,32.885V20.656A1.656,1.656,0,0,1,20.656,19H33.908a1.656,1.656,0,0,1,1.656,1.656V32.885A3.323,3.323,0,0,1,32.252,36.2Zm-4.969-5.407a3.313,3.313,0,0,1,1.481.346l3.489,1.748V22.313H22.313V32.885L25.8,31.14a3.323,3.323,0,0,1,1.483-.346Z" transform="translate(6.762 1.674)" fill="#232323"/>
        <path id="Trazado_1055240" data-name="Trazado 1055240" d="M14.3,30.507a1.656,1.656,0,0,1-1.325-.663L4.444,18.467a4.979,4.979,0,0,1-.166-5.74l2.67-3.994A4.969,4.969,0,0,1,15.13,8.6l5.493,7.689a1.656,1.656,0,0,1,.174,1.615L15.827,29.5A1.656,1.656,0,0,1,14.5,30.5a1.574,1.574,0,0,1-.2.01ZM11.084,9.833h-.028a1.635,1.635,0,0,0-1.352.737l-2.664,4a1.656,1.656,0,0,0,.053,1.913l6.813,9.084,3.479-8.1L12.43,10.528a1.632,1.632,0,0,0-1.345-.694Z" transform="translate(-3.448 -6.519)" fill="#232323"/>
        <path id="Trazado_1055241" data-name="Trazado 1055241" d="M40.627,30.506a1.574,1.574,0,0,1-.2-.012A1.656,1.656,0,0,1,39.1,29.5l-4.969-11.6A1.657,1.657,0,0,1,34.3,16.29L39.8,8.6a4.845,4.845,0,0,1,4.125-2.081,4.969,4.969,0,0,1,4.053,2.211l2.664,4a4.969,4.969,0,0,1-.166,5.738L41.952,29.844a1.657,1.657,0,0,1-1.325.663ZM37.548,17.46l3.479,8.1,6.813-9.084a1.657,1.657,0,0,0,.053-1.913l-2.669-4a1.635,1.635,0,0,0-1.352-.737,1.807,1.807,0,0,0-1.373.694Z" transform="translate(16.608 -6.519)" fill="#232323"/>
        <path id="Trazado_1055242" data-name="Trazado 1055242" d="M57.038,26.908H10.656A1.656,1.656,0,0,1,9.134,24.6L14.1,13a1.657,1.657,0,0,1,1.522-1h7.139a1.656,1.656,0,0,1,0,3.313H16.718L13.169,23.6H54.525l-3.548-8.282H45.244a1.656,1.656,0,1,1,0-3.313h6.825a1.656,1.656,0,0,1,1.522,1l4.97,11.6a1.656,1.656,0,0,1-1.522,2.309Z" transform="translate(0.197 -2.921)" fill="#232323"/>
        <path id="Trazado_1055243" data-name="Trazado 1055243" d="M30.073,29.057H13.657a1.656,1.656,0,0,1-1.411-2.524l9.031-14.662a6.616,6.616,0,0,1,11.264,0l4.408,7.158a1.659,1.659,0,1,1-2.821,1.746l-4.4-7.166a3.3,3.3,0,0,0-5.632,0L16.622,25.744H30.073a1.656,1.656,0,1,1,0,3.313Z" transform="translate(2.166 -5.07)" fill="#232323"/>
        <path id="Trazado_1055244" data-name="Trazado 1055244" d="M23.563,27.3a1.656,1.656,0,0,1-1.337-2.631l8.162-11.224a4.969,4.969,0,0,1,8.039,0L46.59,24.672a1.657,1.657,0,1,1-2.68,1.948L35.747,15.4a1.655,1.655,0,0,0-2.679,0L24.905,26.62a1.656,1.656,0,0,1-1.342.682Z" transform="translate(8.672 -3.315)" fill="#232323"/>
        <path id="Trazado_1055245" data-name="Trazado 1055245" d="M53.725,57.1H13.969A4.969,4.969,0,0,1,9,52.13V20.656A1.656,1.656,0,0,1,10.656,19H57.038a1.656,1.656,0,0,1,1.656,1.656V52.13A4.969,4.969,0,0,1,53.725,57.1ZM12.313,22.313V52.13a1.656,1.656,0,0,0,1.656,1.656H53.725a1.656,1.656,0,0,0,1.656-1.656V22.313Z" transform="translate(0.197 1.674)" fill="#232323"/>
      </g>
    </g>
  </g>
</svg>
