<svg xmlns="http://www.w3.org/2000/svg" xmlns:xlink="http://www.w3.org/1999/xlink" width="118" height="118" viewBox="0 0 118 118">
  <defs>
    <filter id="Trazado_982547" x="0" y="0" width="118" height="118" filterUnits="userSpaceOnUse">
      <feOffset dy="3" input="SourceAlpha"/>
      <feGaussianBlur stdDeviation="3" result="blur"/>
      <feFlood flood-opacity="0.161"/>
      <feComposite operator="in" in2="blur"/>
      <feComposite in="SourceGraphic"/>
    </filter>
  </defs>
  <g id="Grupo_1224444" data-name="Grupo 1224444" transform="translate(-741 -2437.797)">
    <g id="Grupo_1223960" data-name="Grupo 1223960" transform="translate(0 -2682.959)">
      <g id="Grupo_1223828" data-name="Grupo 1223828" transform="translate(750 5126.756)">
        <g id="Grupo_1223741" data-name="Grupo 1223741">
          <g id="Grupo_1223199" data-name="Grupo 1223199">
            <g id="Grupo_1211216" data-name="Grupo 1211216" transform="translate(0)">
              <g id="Grupo_1210737" data-name="Grupo 1210737">
                <g id="Grupo_1210537" data-name="Grupo 1210537">
                  <g id="Grupo_1164202" data-name="Grupo 1164202">
                    <g id="Grupo_1158168" data-name="Grupo 1158168">
                      <g id="Grupo_1152576" data-name="Grupo 1152576">
                        <g id="Grupo_1148633" data-name="Grupo 1148633">
                          <g id="Grupo_1148525" data-name="Grupo 1148525">
                            <g transform="matrix(1, 0, 0, 1, -9, -6)" filter="url(#Trazado_982547)">
                              <g id="Trazado_982547-2" data-name="Trazado 982547" transform="translate(9 6)" fill="#fdfbec">
                                <path d="M 49.99999618530273 98.5 C 43.45188140869141 98.5 37.10042572021484 97.21786499023438 31.12206840515137 94.68923950195312 C 25.34691047668457 92.24655151367188 20.15996742248535 88.74931335449219 15.70532512664795 84.29468536376953 C 11.25068187713623 79.84004211425781 7.753438949584961 74.65309906005859 5.310753345489502 68.87792205810547 C 2.782124757766724 62.89956665039062 1.499996185302734 56.54811096191406 1.499996185302734 49.99999618530273 C 1.499996185302734 43.45188140869141 2.782124757766724 37.10042572021484 5.310753345489502 31.12206840515137 C 7.753438949584961 25.34691047668457 11.25068187713623 20.15996742248535 15.70532512664795 15.70532512664795 C 20.15996742248535 11.25068187713623 25.34691047668457 7.753438949584961 31.12206840515137 5.310753345489502 C 37.10042572021484 2.782124757766724 43.45188140869141 1.499996185302734 49.99999618530273 1.499996185302734 C 56.54811096191406 1.499996185302734 62.89956665039062 2.782124757766724 68.87792205810547 5.310753345489502 C 74.65309906005859 7.753438949584961 79.84004211425781 11.25068187713623 84.29468536376953 15.70532512664795 C 88.74931335449219 20.15996742248535 92.24655151367188 25.34691047668457 94.68923950195312 31.12206840515137 C 97.21786499023438 37.10042572021484 98.5 43.45188140869141 98.5 49.99999618530273 C 98.5 56.54811096191406 97.21786499023438 62.89956665039062 94.68923950195312 68.87792205810547 C 92.24655151367188 74.65309906005859 88.74931335449219 79.84004211425781 84.29468536376953 84.29468536376953 C 79.84004211425781 88.74931335449219 74.65309906005859 92.24655151367188 68.87792205810547 94.68923950195312 C 62.89956665039062 97.21786499023438 56.54811096191406 98.5 49.99999618530273 98.5 Z" stroke="none"/>
                                <path d="M 49.99999618530273 2.999992370605469 C 43.65372085571289 2.999992370605469 37.49885940551758 4.242256164550781 31.70639801025391 6.6922607421875 C 26.11002349853516 9.059318542480469 21.08335113525391 12.4486083984375 16.76598358154297 16.76598358154297 C 12.4486083984375 21.08335113525391 9.059318542480469 26.11002349853516 6.6922607421875 31.70639801025391 C 4.242256164550781 37.49885940551758 2.999992370605469 43.65372085571289 2.999992370605469 49.99999618530273 C 2.999992370605469 56.34627151489258 4.242256164550781 62.50113296508789 6.6922607421875 68.29359436035156 C 9.059318542480469 73.88996887207031 12.4486083984375 78.91664123535156 16.76598358154297 83.2340087890625 C 21.08335113525391 87.55138397216797 26.11002349853516 90.940673828125 31.70639801025391 93.30773162841797 C 37.49885940551758 95.75773620605469 43.65372085571289 97 49.99999618530273 97 C 56.34627151489258 97 62.50113296508789 95.75773620605469 68.29359436035156 93.30773162841797 C 73.88996887207031 90.940673828125 78.91664123535156 87.55138397216797 83.2340087890625 83.2340087890625 C 87.55138397216797 78.91664123535156 90.940673828125 73.88996887207031 93.30773162841797 68.29359436035156 C 95.75773620605469 62.50113296508789 97 56.34627151489258 97 49.99999618530273 C 97 43.65372085571289 95.75773620605469 37.49885940551758 93.30773162841797 31.70639801025391 C 90.940673828125 26.11002349853516 87.55138397216797 21.08335113525391 83.2340087890625 16.76598358154297 C 78.91664123535156 12.4486083984375 73.88996887207031 9.059318542480469 68.29359436035156 6.6922607421875 C 62.50113296508789 4.242256164550781 56.34627151489258 2.999992370605469 49.99999618530273 2.999992370605469 M 49.99999618530273 -7.62939453125e-06 C 77.61422729492188 -7.62939453125e-06 100 22.38576507568359 100 49.99999618530273 C 100 77.61422729492188 77.61422729492188 100 49.99999618530273 100 C 22.38576507568359 100 -7.62939453125e-06 77.61422729492188 -7.62939453125e-06 49.99999618530273 C -7.62939453125e-06 22.38576507568359 22.38576507568359 -7.62939453125e-06 49.99999618530273 -7.62939453125e-06 Z" stroke="none" fill="#83793c"/>
                              </g>
                            </g>
                          </g>
                        </g>
                      </g>
                    </g>
                  </g>
                </g>
              </g>
            </g>
          </g>
        </g>
      </g>
    </g>
    <g id="business-partnership_4497078" transform="translate(766.38 2462.38)">
      <g id="Grupo_1224442" data-name="Grupo 1224442" transform="translate(1.085 1.085)">
        <g id="Grupo_1224411" data-name="Grupo 1224411" transform="translate(46.634 58.564)">
          <path id="Trazado_1054968" data-name="Trazado 1054968" d="M47.254,55l1.085,6.507H44L45.085,55Z" transform="translate(-44 -55)" fill="#ffeaa7"/>
        </g>
        <g id="Grupo_1224412" data-name="Grupo 1224412" transform="translate(46.775 55.31)">
          <path id="Trazado_1054969" data-name="Trazado 1054969" d="M44.13,53.356,46.158,52,48.2,53.356l-.954,1.9H45.074Z" transform="translate(-44.13 -52)" fill="#fcd770"/>
        </g>
        <g id="Grupo_1224413" data-name="Grupo 1224413" transform="translate(49.888 52.881)">
          <path id="Trazado_1054970" data-name="Trazado 1054970" d="M49.169,54.358l1.844-4.6a10.577,10.577,0,0,1,5.347,8.166l.4,4.024H48.085L47,55.443l.954-1.9Z" transform="translate(-47 -49.76)" fill="#b4dd7f"/>
        </g>
        <g id="Grupo_1224414" data-name="Grupo 1224414" transform="translate(32.535 52.881)">
          <path id="Trazado_1054971" data-name="Trazado 1054971" d="M44.014,54.358l1.226-.813.944,1.9L45.1,61.95H31a8.674,8.674,0,0,0,8.676-8.676,9.03,9.03,0,0,0-.119-1.442A10.346,10.346,0,0,1,42.17,49.76Z" transform="translate(-31 -49.76)" fill="#b4dd7f"/>
        </g>
        <g id="Grupo_1224415" data-name="Grupo 1224415" transform="translate(43.706 52.057)">
          <path id="Trazado_1054972" data-name="Trazado 1054972" d="M46.4,51.169,49.651,49a9.744,9.744,0,0,1,1.844.824l-1.844,4.6-1.215-.813L46.4,52.254l-2.028,1.356-1.226.813-1.844-4.6A10.061,10.061,0,0,1,43.144,49Z" transform="translate(-41.3 -49)" fill="#a0d468"/>
        </g>
        <g id="Grupo_1224416" data-name="Grupo 1224416" transform="translate(14.099 58.564)">
          <path id="Trazado_1054973" data-name="Trazado 1054973" d="M17.254,55l1.085,6.507H14L15.085,55Z" transform="translate(-14 -55)" fill="#ffeaa7"/>
        </g>
        <g id="Grupo_1224417" data-name="Grupo 1224417" transform="translate(14.24 55.31)">
          <path id="Trazado_1054974" data-name="Trazado 1054974" d="M14.13,53.356,16.158,52,18.2,53.356l-.954,1.9H15.074Z" transform="translate(-14.13 -52)" fill="#fcd770"/>
        </g>
        <g id="Grupo_1224418" data-name="Grupo 1224418" transform="translate(17.352 52.881)">
          <path id="Trazado_1054975" data-name="Trazado 1054975" d="M23.626,51.831a9.03,9.03,0,0,0-.119,1.442,8.674,8.674,0,0,0,8.676,8.676h-14.1L17,55.443l.954-1.9,1.215.813,1.844-4.6a10.346,10.346,0,0,1,2.614,2.071Z" transform="translate(-17 -49.76)" fill="#ff826e"/>
        </g>
        <g id="Grupo_1224419" data-name="Grupo 1224419" transform="translate(5.423 52.881)">
          <path id="Trazado_1054976" data-name="Trazado 1054976" d="M15.761,55.443,14.676,61.95H6l.4-4.024a10.5,10.5,0,0,1,2.267-5.553,10.376,10.376,0,0,1,3.08-2.614l1.844,4.6,1.225-.813Z" transform="translate(-6 -49.76)" fill="#ff826e"/>
        </g>
        <g id="Grupo_1224420" data-name="Grupo 1224420" transform="translate(11.17 52.057)">
          <path id="Trazado_1054977" data-name="Trazado 1054977" d="M19.651,49l1.844.824-1.844,4.6-1.215-.813L16.4,52.254l-2.028,1.356-1.225.813-1.844-4.6A9.744,9.744,0,0,1,13.144,49L16.4,51.169Z" transform="translate(-11.3 -49)" fill="#fc6e51"/>
        </g>
        <g id="Grupo_1224421" data-name="Grupo 1224421" transform="translate(23.859 47.719)">
          <path id="Trazado_1054978" data-name="Trazado 1054978" d="M40.352,53.676a8.676,8.676,0,1,1-17.352,0,9.03,9.03,0,0,1,.119-1.442,8.678,8.678,0,0,1,17.114,0A9.03,9.03,0,0,1,40.352,53.676Z" transform="translate(-23 -45)" fill="#69d6f4"/>
        </g>
        <g id="Grupo_1224422" data-name="Grupo 1224422" transform="translate(2.169 17.352)">
          <path id="Trazado_1054979" data-name="Trazado 1054979" d="M5.169,30.22v1.963H3V28.93A11.927,11.927,0,0,1,14.745,17h4.522A11.923,11.923,0,0,1,31.2,28.93v3.254H29.028v-2a3.244,3.244,0,0,0-2.223-3.08l-.423-.152h-.011a1.77,1.77,0,0,1-.184.217,2.3,2.3,0,0,1-3.254,0l-.911-.911a3.181,3.181,0,0,1-.477.607,3.353,3.353,0,0,1-2.375.976,16.452,16.452,0,0,1-6.084-1.171L11.4,26A4.547,4.547,0,0,0,5.169,30.22Z" transform="translate(-3 -17)" fill="#656d78"/>
        </g>
        <g id="Grupo_1224423" data-name="Grupo 1224423" transform="translate(34.704 17.352)">
          <path id="Trazado_1054980" data-name="Trazado 1054980" d="M49.452,17H44.93A11.914,11.914,0,0,0,33,28.93v3.254h2.169V31.76a3.246,3.246,0,0,1,1.453-2.711l5.054-3.373,1.551.174a55.769,55.769,0,0,1,15.8,4.165v2.169H61.2V28.93A11.927,11.927,0,0,0,49.452,17Z" transform="translate(-33 -17)" fill="#b27946"/>
        </g>
        <g id="Grupo_1224424" data-name="Grupo 1224424" transform="translate(45.55 49.638)">
          <path id="Trazado_1054981" data-name="Trazado 1054981" d="M46.254,47.019A12.2,12.2,0,0,0,48.7,46.77l.8,2.418-3.254,2.169L43,49.188l.8-2.418Z" transform="translate(-43 -46.77)" fill="#f0d0b4"/>
        </g>
        <g id="Grupo_1224425" data-name="Grupo 1224425" transform="translate(60.733 32.535)">
          <path id="Trazado_1054982" data-name="Trazado 1054982" d="M59.169,31a2.175,2.175,0,0,1,2.169,2.169,2.185,2.185,0,0,1-2.169,2.169H57V31Z" transform="translate(-57 -31)" fill="#f0d0b4"/>
        </g>
        <g id="Grupo_1224426" data-name="Grupo 1224426" transform="translate(32.535 32.535)">
          <path id="Trazado_1054983" data-name="Trazado 1054983" d="M35.338,31v4.338H33.169A2.185,2.185,0,0,1,31,33.169,2.175,2.175,0,0,1,33.169,31Z" transform="translate(-31 -31)" fill="#f0d0b4"/>
        </g>
        <g id="Grupo_1224427" data-name="Grupo 1224427" transform="translate(36.873 26.028)">
          <path id="Trazado_1054984" data-name="Trazado 1054984" d="M43.058,25.174a55.769,55.769,0,0,1,15.8,4.165V36.93a11.927,11.927,0,0,1-9.479,11.68,12.2,12.2,0,0,1-2.451.249l-2.451-.249A11.932,11.932,0,0,1,35,36.93V31.084a3.246,3.246,0,0,1,1.453-2.711L41.507,25Z" transform="translate(-35 -25)" fill="#f0d0b4"/>
        </g>
        <g id="Grupo_1224428" data-name="Grupo 1224428" transform="translate(13.014 49.638)">
          <path id="Trazado_1054985" data-name="Trazado 1054985" d="M16.254,47.019A12.2,12.2,0,0,0,18.7,46.77l.8,2.418-3.254,2.169L13,49.188l.8-2.418Z" transform="translate(-13 -46.77)" fill="#f0d0b4"/>
        </g>
        <g id="Grupo_1224429" data-name="Grupo 1224429" transform="translate(28.197 32.535)">
          <path id="Trazado_1054986" data-name="Trazado 1054986" d="M29.169,31a2.175,2.175,0,0,1,2.169,2.169,2.185,2.185,0,0,1-2.169,2.169H27V31Z" transform="translate(-27 -31)" fill="#f0d0b4"/>
        </g>
        <g id="Grupo_1224430" data-name="Grupo 1224430" transform="translate(0 32.535)">
          <path id="Trazado_1054987" data-name="Trazado 1054987" d="M5.338,31v4.338H3.169A2.121,2.121,0,0,1,1.64,34.7,2.121,2.121,0,0,1,1,33.169,2.175,2.175,0,0,1,3.169,31Z" transform="translate(-1 -31)" fill="#f0d0b4"/>
        </g>
        <g id="Grupo_1224431" data-name="Grupo 1224431" transform="translate(4.338 26.028)">
          <path id="Trazado_1054988" data-name="Trazado 1054988" d="M28.859,35.845V36.93a11.927,11.927,0,0,1-9.479,11.68,12.2,12.2,0,0,1-2.451.249l-2.451-.249A11.932,11.932,0,0,1,5,36.93V29.544a4.547,4.547,0,0,1,6.236-4.219L12.917,26A16.452,16.452,0,0,0,19,27.169a3.353,3.353,0,0,0,2.375-.976,3.181,3.181,0,0,0,.477-.607l.911.911a2.3,2.3,0,0,0,3.254,0,1.77,1.77,0,0,0,.184-.217h.011l.423.152a3.244,3.244,0,0,1,2.223,3.08v6.334Z" transform="translate(-5 -25)" fill="#f0d0b4"/>
        </g>
        <g id="Grupo_1224432" data-name="Grupo 1224432" transform="translate(45.55 41.211)">
          <path id="Trazado_1054989" data-name="Trazado 1054989" d="M49.507,39l-.553,2.234a2.785,2.785,0,0,1-5.4,0L43,39Z" transform="translate(-43 -39)" fill="#ff826e"/>
        </g>
        <g id="Grupo_1224433" data-name="Grupo 1224433" transform="translate(13.014 41.211)">
          <path id="Trazado_1054990" data-name="Trazado 1054990" d="M19.507,39l-.553,2.234a2.785,2.785,0,0,1-5.4,0L13,39Z" transform="translate(-13 -39)" fill="#ff826e"/>
        </g>
        <g id="Grupo_1224434" data-name="Grupo 1224434" transform="translate(19.521 32.535)">
          <circle id="Elipse_13547" data-name="Elipse 13547" cx="2" cy="2" r="2" transform="translate(0.014 0)" fill="#d3a06c"/>
        </g>
        <g id="Grupo_1224435" data-name="Grupo 1224435" transform="translate(8.676 32.535)">
          <circle id="Elipse_13548" data-name="Elipse 13548" cx="2" cy="2" r="2" transform="translate(-0.141 0)" fill="#d3a06c"/>
        </g>
        <g id="Grupo_1224436" data-name="Grupo 1224436" transform="translate(56.395 2.169)">
          <path id="Trazado_1054991" data-name="Trazado 1054991" d="M53,3h6.507V16.014H53Z" transform="translate(-53 -3)" fill="#b4dd7f"/>
        </g>
        <g id="Grupo_1224437" data-name="Grupo 1224437" transform="translate(2.169 2.169)">
          <path id="Trazado_1054992" data-name="Trazado 1054992" d="M3,3H9.507V16.014H3Z" transform="translate(-3 -3)" fill="#ff826e"/>
        </g>
        <g id="Grupo_1224438" data-name="Grupo 1224438" transform="translate(32.535)">
          <path id="Trazado_1054993" data-name="Trazado 1054993" d="M39.709,9.676H31a2.185,2.185,0,0,0,2.169-2.169A2.175,2.175,0,0,0,31,5.338h9.761a3.258,3.258,0,0,1-3.254-3.254A1.088,1.088,0,0,1,38.592,1h9.1a12.952,12.952,0,0,1,7.169,2.169V16.183a7.413,7.413,0,0,1-5.238,2.169H33.169A2.175,2.175,0,0,1,31,16.183a2.185,2.185,0,0,1,2.169-2.169h6.507V10.121A3.067,3.067,0,0,1,39.709,9.676Z" transform="translate(-31 -1)" fill="#f0d0b4"/>
        </g>
        <g id="Grupo_1224439" data-name="Grupo 1224439" transform="translate(32.535 8.676)">
          <path id="Trazado_1054994" data-name="Trazado 1054994" d="M31,9h8.709a3.067,3.067,0,0,0-.033.445v3.893H31a2.175,2.175,0,0,0,2.169-2.169A2.185,2.185,0,0,0,31,9Z" transform="translate(-31 -9)" fill="#f0d0b4"/>
        </g>
        <g id="Grupo_1224440" data-name="Grupo 1224440" transform="translate(23.827 8.676)">
          <path id="Trazado_1054995" data-name="Trazado 1054995" d="M31.679,9a2.185,2.185,0,0,1,2.169,2.169,2.175,2.175,0,0,1-2.169,2.169H23V9.445A3.067,3.067,0,0,0,22.97,9h8.709Z" transform="translate(-22.97 -9)" fill="#f0d0b4"/>
        </g>
        <g id="Grupo_1224441" data-name="Grupo 1224441" transform="translate(8.676)">
          <path id="Trazado_1054996" data-name="Trazado 1054996" d="M24.151,9.676a3.067,3.067,0,0,1,.033.445v3.893H30.69a2.185,2.185,0,0,1,2.169,2.169,2.175,2.175,0,0,1-2.169,2.169H14.238A7.413,7.413,0,0,1,9,16.183V3.169A12.952,12.952,0,0,1,16.169,1h9.1a1.088,1.088,0,0,1,1.085,1.085A3.258,3.258,0,0,1,23.1,5.338h9.761a2.175,2.175,0,0,1,2.169,2.169,2.185,2.185,0,0,1-2.169,2.169H24.151Z" transform="translate(-9 -1)" fill="#f0d0b4"/>
        </g>
      </g>
      <g id="Grupo_1224443" data-name="Grupo 1224443" transform="translate(0)">
        <path id="Trazado_1054997" data-name="Trazado 1054997" d="M14.507,33.254a3.254,3.254,0,1,0-3.254,3.254A3.258,3.258,0,0,0,14.507,33.254Zm-3.254,1.085a1.085,1.085,0,1,1,1.085-1.085A1.086,1.086,0,0,1,11.254,34.338Z" transform="translate(0.676 2.535)"/>
        <path id="Trazado_1054998" data-name="Trazado 1054998" d="M21.254,36.507A3.254,3.254,0,1,0,18,33.254,3.258,3.258,0,0,0,21.254,36.507Zm0-4.338a1.085,1.085,0,1,1-1.085,1.085A1.086,1.086,0,0,1,21.254,32.169Z" transform="translate(1.521 2.535)"/>
        <path id="Trazado_1054999" data-name="Trazado 1054999" d="M20.109,41.581,21,38H11.719l.9,3.581a3.862,3.862,0,0,0,7.494,0Zm-5.39-.526-.221-.886h3.729L18,41.055a1.693,1.693,0,0,1-3.285,0Z" transform="translate(0.99 3.211)"/>
        <path id="Trazado_1055000" data-name="Trazado 1055000" d="M42.615,41.581a3.862,3.862,0,0,0,7.494,0L51,38H41.719Zm5.611-1.412L48,41.055a1.693,1.693,0,0,1-3.285,0l-.221-.886Z" transform="translate(3.526 3.211)"/>
        <path id="Trazado_1055001" data-name="Trazado 1055001" d="M65.071,32.735V30.366a13.023,13.023,0,0,0-8.343-12.132,8.436,8.436,0,0,0,1.168-.882h7.175V2.169H57.785A13.942,13.942,0,0,0,50.316,0h-9.1a2.171,2.171,0,0,0-2.169,2.169,4.293,4.293,0,0,0,.6,2.169H27.594a4.293,4.293,0,0,0,.6-2.169A2.171,2.171,0,0,0,26.028,0h-9.1A13.942,13.942,0,0,0,9.455,2.169H2.169V17.352H9.344a8.589,8.589,0,0,0,1.168.882A13.023,13.023,0,0,0,2.169,30.366v2.369a3.246,3.246,0,0,0,1.085,6.308H4.338A13.037,13.037,0,0,0,13.51,51.476l-.274.822a11.692,11.692,0,0,0-7.406,9.728L5.309,67.24H61.931l-.521-5.213A11.692,11.692,0,0,0,54,52.3l-.274-.822A13.037,13.037,0,0,0,62.9,39.042h1.085a3.246,3.246,0,0,0,1.085-6.308ZM62.9,30.366v.977l-.022-.106a9.869,9.869,0,0,0-7.25-7.6l-3.311-.827-.526,2.1,3.311.827a7.689,7.689,0,0,1,4.882,3.8,56.739,56.739,0,0,0-13.851-3.336l-.924-.1-2.328-5.432a10.79,10.79,0,0,1,4.836-1.15h4.338A10.857,10.857,0,0,1,62.9,30.366Zm-9.639,24q.169.067.335.14l-.966,2.417-1.6-1.068Zm-3.541,6.369h.332l.723,4.338H49Zm.58-2.169h-.829l-.221-.442.636-.423.636.424ZM47.145,56.92l-.97-2.425c.11-.048.221-.091.333-.136l2.238,1.492ZM45.772,52.3a11.732,11.732,0,0,0-3.025,1.75,9.744,9.744,0,0,0-18.253,0A11.735,11.735,0,0,0,21.469,52.3l-.274-.822a13.037,13.037,0,0,0,9.172-12.434h1.085A3.233,3.233,0,0,0,33.62,38.2a3.227,3.227,0,0,0,2.169.846h1.085a13.037,13.037,0,0,0,9.172,12.434Zm-4.56,5.18a7.544,7.544,0,0,1-.32,2.169H38.835a11.46,11.46,0,0,0,0-4.338h2.056A7.544,7.544,0,0,1,41.211,57.479ZM33.62,64.622l-.5-.5a9.4,9.4,0,0,1-1.689-2.3h4.384a9.4,9.4,0,0,1-1.689,2.3Zm-2.992-4.974a9.131,9.131,0,0,1,0-4.338h5.985a9.149,9.149,0,0,1,0,4.338Zm-4.6-2.169a7.544,7.544,0,0,1,.32-2.169H28.4a11.46,11.46,0,0,0,0,4.338H26.348A7.544,7.544,0,0,1,26.028,57.479Zm7.592-7.143.5.5a9.4,9.4,0,0,1,1.689,2.3H31.428a9.4,9.4,0,0,1,1.689-2.3Zm4.58,2.8a11.417,11.417,0,0,0-1.472-2.58,7.634,7.634,0,0,1,3.113,2.58Zm-9.16,0H27.4a7.626,7.626,0,0,1,3.113-2.58,11.417,11.417,0,0,0-1.472,2.58Zm0,8.676a11.417,11.417,0,0,0,1.472,2.58,7.634,7.634,0,0,1-3.113-2.58Zm7.688,2.58a11.482,11.482,0,0,0,1.472-2.58h1.641A7.626,7.626,0,0,1,36.728,64.4ZM16.21,55.852l-1.6,1.067L13.642,54.5q.166-.073.335-.14Zm.976,4.88h.332l.723,4.338H16.463Zm.58-2.169h-.829l-.221-.442.636-.423.636.424Zm2.328-1.644-1.6-1.067,2.238-1.492c.112.044.223.087.333.136Zm5.933-46.074H33.62a1.085,1.085,0,0,1,0,2.169H26.028Zm10.646,0h4.538v2.169H36.674a3.047,3.047,0,0,0,0-2.169Zm-3.054,7.83a3.227,3.227,0,0,0,2.169.846H40.54A13.009,13.009,0,0,0,34.7,30.366v2.369a3.241,3.241,0,0,0-1.085.646,3.223,3.223,0,0,0-1.085-.646V30.366A13.009,13.009,0,0,0,26.7,19.521h4.751A3.233,3.233,0,0,0,33.62,18.675Zm3.254,18.2H35.789a1.085,1.085,0,0,1,0-2.169h1.085ZM30.366,34.7h1.085a1.085,1.085,0,0,1,0,2.169H30.366Zm6.562-2.169h-.055V30.366a10.825,10.825,0,0,1,4.155-8.519l2.084,4.863L38.8,29.582a4.33,4.33,0,0,0-1.876,2.953Zm21.635-28.2H62.9V15.183H58.564ZM41.211,2.169h9.1a11.784,11.784,0,0,1,6.079,1.69v11.93a6.271,6.271,0,0,1-4.153,1.564H35.789a1.085,1.085,0,0,1,0-2.169H43.38V10.21a2.638,2.638,0,0,1,.767-1.851L42.614,6.825a4.748,4.748,0,0,0-1.131,1.851H36.674a3.047,3.047,0,0,0,0-2.169h8.238a8.419,8.419,0,0,0,3.406,3.14l.971-1.94A6.222,6.222,0,0,1,46.52,4.938l-.3-.6H43.38a2.171,2.171,0,0,1-2.169-2.169ZM8.676,15.183H4.338V4.338H8.676ZM15,17.352a6.277,6.277,0,0,1-4.153-1.563V3.86a11.775,11.775,0,0,1,6.079-1.691h9.1a2.171,2.171,0,0,1-2.169,2.169H21.02l-.3.6a6.222,6.222,0,0,1-2.769,2.769l.971,1.94a8.416,8.416,0,0,0,3.405-3.14H33.62a1.085,1.085,0,0,1,0,2.169H25.757a4.748,4.748,0,0,0-1.131-1.851L23.093,8.358a2.638,2.638,0,0,1,.767,1.851v4.974h7.592a1.085,1.085,0,1,1,0,2.169H15ZM3.254,36.873a1.085,1.085,0,0,1,0-2.169H4.338v2.169Zm1.085-5.214V30.366A10.857,10.857,0,0,1,15.183,19.521h4.338A10.857,10.857,0,0,1,30.366,30.366v1.26a4.327,4.327,0,0,0-2.284-3.816,3.321,3.321,0,0,0,.115-.829v-.5a4.753,4.753,0,0,0-1.4-3.385l-1.533,1.533a2.638,2.638,0,0,1,.767,1.851v.5a1.216,1.216,0,0,1-2.076.86l-.382-.382a4.38,4.38,0,0,0-2.164-5.5l-.317-.158-.971,1.94.317.158A2.266,2.266,0,0,1,19.424,28.2,15.226,15.226,0,0,1,13.741,27.1l-1.68-.672a5.632,5.632,0,0,0-7.723,5.228Zm2.169,7.383V31.659a3.463,3.463,0,0,1,4.748-3.214l1.68.672a17.4,17.4,0,0,0,6.489,1.249,4.4,4.4,0,0,0,2.889-1.1l.106.106a3.353,3.353,0,0,0,4.451.275A2.151,2.151,0,0,1,28.2,31.627v7.416a10.845,10.845,0,0,1-21.69,0ZM17.352,52.057a13.038,13.038,0,0,0,1.707-.125l.256.767-1.963,1.308L15.389,52.7l.256-.767A12.853,12.853,0,0,0,17.352,52.057ZM7.989,62.243A9.509,9.509,0,0,1,11.747,55.6l1.842,4.6,1.31-.873.242.484-.876,5.252H7.705ZM20.44,65.071l-.875-5.252.242-.484,1.31.873,1.842-4.6a9.4,9.4,0,0,1,.96.826,9.846,9.846,0,0,0-.059,1.048,9.742,9.742,0,0,0,3.64,7.592ZM43.38,57.479a9.846,9.846,0,0,0-.059-1.048,9.521,9.521,0,0,1,.96-.826l1.842,4.6,1.31-.873.242.484L46.8,65.071H39.741a9.742,9.742,0,0,0,3.64-7.592Zm15.871,4.764.283,2.827H52.975L52.1,59.818l.242-.484,1.31.873,1.841-4.6A9.5,9.5,0,0,1,59.251,62.243Zm-7.4-9.545-1.963,1.308L47.925,52.7l.256-.767a12.853,12.853,0,0,0,1.707.126,13.038,13.038,0,0,0,1.707-.125Zm8.882-13.656a10.845,10.845,0,0,1-21.69,0V33.191a2.165,2.165,0,0,1,.966-1.8l4.73-3.153,1.159.129a54.611,54.611,0,0,1,14.836,3.808v6.871Zm3.254-2.169H62.9V34.7h1.085a1.085,1.085,0,1,1,0,2.169Z" transform="translate(0)"/>
        <path id="Trazado_1055002" data-name="Trazado 1055002" d="M38,33.254v1.085h2.169V33.254a1.085,1.085,0,0,1,2.169,0v1.085h2.169V33.254a3.254,3.254,0,0,0-6.507,0Z" transform="translate(3.211 2.535)"/>
        <path id="Trazado_1055003" data-name="Trazado 1055003" d="M50.169,33.254a1.085,1.085,0,1,1,2.169,0v1.085h2.169V33.254a3.254,3.254,0,0,0-6.507,0v1.085h2.169Z" transform="translate(4.057 2.535)"/>
      </g>
    </g>
  </g>
</svg>
